<svg width="24" height="24" viewBox="0 0 24 24" fill="none" xmlns="http://www.w3.org/2000/svg">
<path d="M15.7256 11.2929L15.0185 12L15.7256 12.7071L22.3745 19.356C23.209 20.1905 23.2077 21.5435 22.3755 22.3736L22.3738 22.3753C21.5432 23.2078 20.1904 23.2089 19.356 22.3745L12.7071 15.7256L12 15.0185L11.2929 15.7257L4.64437 22.3745C4.64436 22.3746 4.64436 22.3746 4.64435 22.3746C3.80991 23.209 2.45684 23.2077 1.62675 22.3755L1.62505 22.3738C0.792612 21.5432 0.791471 20.1904 1.62584 19.356L8.27476 12.7071L8.98191 12L8.27472 11.2929L1.62545 4.64437C1.62544 4.64436 1.62542 4.64434 1.62541 4.64433C0.791015 3.80989 0.792334 2.45683 1.62454 1.62675L1.62624 1.62505C2.45682 0.792612 3.8096 0.791471 4.64398 1.62584L11.2929 8.27476L12 8.98189L12.7071 8.27474L19.356 1.62545C19.356 1.62544 19.356 1.62544 19.356 1.62543C20.1905 0.791016 21.5436 0.792326 22.3736 1.62455L22.3753 1.62624C23.2078 2.45682 23.2089 3.8096 22.3745 4.64398L15.7256 11.2929Z" stroke="black" stroke-opacity="0.68" stroke-width="2"/>
</svg>
