<svg width="83" height="83" viewBox="0 0 83 83" fill="none" xmlns="http://www.w3.org/2000/svg">
<path d="M74.7148 44.5713C74.7148 54.7859 70.5763 64.0329 63.8833 70.7287C57.1866 77.4282 47.935 81.5713 37.7148 81.5713C17.2803 81.5713 0.714844 65.0058 0.714844 44.5713C0.714844 34.3567 4.8534 25.1096 11.5464 18.4138C18.2431 11.7144 27.4946 7.57129 37.7148 7.57129C58.1494 7.57129 74.7148 24.1368 74.7148 44.5713Z" fill="#ADFEFF" stroke="#8EA7FF"/>
<path d="M38.9037 6.58931L44.9925 0.500564C65.2632 0.611363 81.6745 17.0228 81.7853 37.2935L75.6966 43.3822C75.0807 23.3403 58.9456 7.20523 38.9037 6.58931Z" fill="#ADFEFF" stroke="#8EA7FF" stroke-linejoin="round"/>
<path d="M70.9557 63.6575L70.0187 64.5944C73.5963 58.8351 75.6767 52.0483 75.7157 44.7787L81.7673 38.7271C81.4504 48.4539 77.3797 57.2308 70.9558 63.6574C70.9558 63.6574 70.9557 63.6574 70.9557 63.6575Z" fill="#ADFEFF" stroke="#8EA7FF" stroke-linejoin="round"/>
<path d="M37.5078 6.57162C30.2382 6.61053 23.4514 8.69102 17.692 12.2686L18.618 11.3426L18.6181 11.3425C25.0457 4.91225 33.827 0.837043 43.5594 0.519961L37.5078 6.57162Z" fill="#ADFEFF" stroke="#8EA7FF" stroke-linejoin="round"/>
<path d="M64.8093 69.8023L63.8834 70.7283L63.8833 70.7283C57.4557 77.1586 48.6743 81.2338 38.9419 81.5509L44.9936 75.4993C52.2632 75.4603 59.05 73.3799 64.8093 69.8023Z" fill="#ADFEFF" stroke="#8EA7FF" stroke-linejoin="round"/>
<path d="M12.4834 17.4768C8.90587 23.2361 6.82537 30.023 6.78647 37.2925L0.734804 43.3442C1.0517 33.6174 5.12242 24.8405 11.5463 18.4139C11.5463 18.4139 11.5464 18.4138 11.5464 18.4138L12.4834 17.4768Z" fill="#ADFEFF" stroke="#8EA7FF" stroke-linejoin="round"/>
<path d="M0.715408 44.7776L6.80416 38.6889C7.42008 58.7308 23.5551 74.8658 43.597 75.4818L37.5083 81.5705C17.2376 81.4597 0.826207 65.0483 0.715408 44.7776Z" fill="#ADFEFF" stroke="#8EA7FF" stroke-linejoin="round"/>
<circle cx="44.7852" cy="37.5" r="36.5" fill="white" stroke="#8EA7FF" stroke-width="2"/>
<path d="M50.0645 36.9393L49.0038 38L50.0645 39.0607L58.9297 47.9259C59.9773 48.9735 59.9753 50.6719 58.9311 51.7135L58.9285 51.7161C57.8863 52.7607 56.1882 52.7624 55.1407 51.7149L46.2755 42.8497L45.2148 41.789L44.1542 42.8497L35.2895 51.7149C34.2419 52.7625 32.5434 52.7605 31.5018 51.7162L31.4993 51.7137C30.4547 50.6714 30.453 48.9734 31.5005 47.9259L30.4398 46.8652L31.5005 47.9259L40.3657 39.0607L41.4264 37.9999L40.3656 36.9393L31.5 28.0746C31.4999 28.0746 31.4999 28.0746 31.4999 28.0746C30.4524 27.027 30.4544 25.3286 31.4986 24.287L31.5012 24.2845C32.5434 23.2399 34.2415 23.2382 35.289 24.2856L44.1542 33.1509L45.2149 34.2116L46.2755 33.1508L55.1407 24.2851C55.1407 24.2851 55.1407 24.2851 55.1408 24.2851C56.1883 23.2375 57.8868 23.2395 58.9284 24.2838L58.9309 24.2863C59.9755 25.3286 59.9772 27.0266 58.9297 28.0741L50.0645 36.9393Z" stroke="#FF3737" stroke-opacity="0.68" stroke-width="3"/>
</svg>
