<svg width="126" height="120" viewBox="0 0 126 120" fill="none" xmlns="http://www.w3.org/2000/svg">
<g opacity="0.4" clip-path="url(#clip0_247:18)">
<path d="M51.3539 112.706C49.3069 113.254 47.2599 113.803 45.2835 114.333C44.3659 114.578 43.4295 114.754 42.5258 114.77C40.2575 114.775 38.5723 113.568 38.0587 111.369C37.4506 108.817 36.9839 106.228 36.5172 103.639C36.2437 102.054 36.5398 100.618 37.8336 99.5171C38.1299 99.2113 38.3887 98.7653 38.5062 98.3566C39.2856 92.795 40.6345 87.3824 41.8234 81.9375C42.3027 79.7733 42.7822 77.6097 42.9414 75.3806C43.5556 68.3555 44.0993 61.3494 44.6241 54.2729C44.9804 49.9556 45.9956 45.8387 47.6131 41.7111C48.516 39.4337 49.0094 37.0398 49.4322 34.6648C49.9725 31.8813 50.6917 29.2008 52.2486 26.8235C52.8366 25.912 53.2269 24.8274 53.7066 23.7941C54.7037 21.8684 56.2283 20.7814 58.3881 20.655C59.7339 20.5959 60.878 21.1941 61.8665 22.0601C67.4024 26.9095 72.92 31.6884 78.4038 36.6272C81.4969 39.4171 84.3968 42.3342 87.4189 45.1431C94.9747 52.1654 102.705 58.9903 110.731 65.5095C113.334 67.6011 115.853 69.9422 118.159 72.3396C120.664 74.9105 121.78 78.2299 122.633 81.6956C122.878 82.6097 122.573 83.4454 121.73 83.9727C120.695 84.6273 119.66 85.2813 118.498 85.7436C104.061 91.7227 89.5543 97.7211 75.0984 103.63C70.8022 105.384 66.4355 107.157 62.031 108.79C58.4548 110.125 54.822 111.249 51.2269 112.514C51.3352 112.636 51.3539 112.706 51.3539 112.706ZM46.5585 98.7622C47.4951 98.5869 48.168 98.5573 48.8033 98.3871C51.1844 97.6734 53.6549 97.0115 56.0172 96.2277C62.9817 93.9849 69.9083 91.601 76.5244 88.622C80.4298 86.8217 84.2975 84.8807 88.3303 83.2727C92.6974 81.4994 97.2285 80.0589 101.722 78.4775C102.339 78.2372 102.955 77.9964 103.694 77.6476C103.299 77.3013 103.171 77.1095 102.974 76.936C94.2372 70.3057 85.9517 63.1021 77.6856 55.9687C75.925 54.4803 73.9198 53.2082 72.1073 51.8091C69.6502 49.9796 67.1742 48.0798 64.6982 46.18C64.4108 45.9554 64.0862 45.5901 63.8508 45.2762C62.8006 43.8991 62.4757 42.4029 63.2658 40.8342C64.0558 39.2654 65.3921 38.6058 67.1289 38.5928C67.5004 38.5687 67.8016 38.5634 68.4748 38.5338C65.4521 35.725 62.5761 33.1784 59.5962 30.8105C58.4295 32.1032 57.9924 33.5773 57.7152 35.084C57.095 38.4166 56.6349 41.7816 55.1959 44.8813C53.8462 48.0323 53.0472 51.262 52.7471 54.6596C52.372 58.9065 52.138 63.1157 51.7629 67.3626C51.322 71.9288 51.1306 76.579 50.3696 81.0802C49.4772 86.2198 48.1562 91.172 47.0143 96.2277C46.7792 97.0445 46.6853 97.8235 46.5585 98.7622Z" fill="#4CA96D"/>
<path d="M23.49 113.463C23.4187 111.22 23.1875 108.945 23.3467 106.716C24.1339 96.1014 25.6319 85.5982 27.2897 75.1269C29.591 60.5631 32.6925 46.1618 35.8833 31.812C36.7433 27.9629 37.7444 24.0759 39.3528 20.4786C39.9171 19.1965 40.6603 18.0173 41.4035 16.8381C42.1467 15.6589 43.1349 15.3941 44.4199 15.9545C45.0977 16.2252 45.7237 16.5852 46.2086 16.983C48.8117 19.0749 51.4667 21.0776 53.9476 23.2777C61.0891 29.8832 68.1786 36.578 75.1977 43.2917C77.7542 45.7731 80.3621 48.1653 82.8666 50.7359C86.7224 54.6785 91.0669 58.1886 95.3417 61.7175C100.082 65.5738 104.088 70.0789 107.747 74.9793C108.472 75.9912 109.093 77.1816 109.484 78.3588C110.224 80.2714 109.721 82.0648 108.201 83.4516C107.345 84.209 106.399 84.9148 105.326 85.4287C101.986 87.0777 98.4987 88.4644 94.8797 89.3584C84.3764 91.9469 74.4995 96.0255 64.4248 99.9312C54.7736 103.723 45.0142 107.394 35.3442 111.116C32.5961 112.154 29.8341 113.422 27.1237 114.601C26.9119 114.657 26.719 114.784 26.5261 114.911C24.5545 115.741 24.1262 115.554 23.49 113.463Z" fill="black"/>
<mask id="mask0_247:18" style="mask-type:alpha" maskUnits="userSpaceOnUse" x="23" y="15" width="87" height="101">
<path d="M23.49 113.463C23.4187 111.22 23.1875 108.945 23.3467 106.716C24.1339 96.1014 25.6319 85.5982 27.2897 75.1269C29.591 60.5631 32.6925 46.1618 35.8833 31.812C36.7433 27.9629 37.7444 24.0759 39.3528 20.4786C39.9171 19.1965 40.6603 18.0173 41.4035 16.8381C42.1467 15.6589 43.1349 15.3941 44.4199 15.9545C45.0977 16.2252 45.7237 16.5852 46.2086 16.983C48.8117 19.0749 51.4667 21.0776 53.9476 23.2777C61.0891 29.8832 68.1786 36.578 75.1977 43.2917C77.7542 45.7731 80.3621 48.1653 82.8666 50.7359C86.7224 54.6785 91.0669 58.1886 95.3417 61.7175C100.082 65.5738 104.088 70.0789 107.747 74.9793C108.472 75.9912 109.093 77.1816 109.484 78.3588C110.224 80.2714 109.721 82.0648 108.201 83.4516C107.345 84.209 106.399 84.9148 105.326 85.4287C101.986 87.0777 98.4987 88.4644 94.8797 89.3584C84.3764 91.9469 74.4995 96.0255 64.4248 99.9312C54.7736 103.723 45.0142 107.394 35.3442 111.116C32.5961 112.154 29.8341 113.422 27.1237 114.601C26.9119 114.657 26.719 114.784 26.5261 114.911C24.5545 115.741 24.1262 115.554 23.49 113.463Z" fill="black"/>
</mask>
<g mask="url(#mask0_247:18)">
<path d="M45.2854 140.191C44.6665 139.201 44.6729 138.094 44.893 137.03C45.2797 135.268 45.6539 133.459 46.1946 131.706C48.2157 125.485 50.8561 119.501 53.6158 113.586C59.4431 101.018 65.855 88.7474 72.7195 76.656C79.7691 64.314 88.2669 53.0415 97.8432 42.5856C100.03 40.1905 102.158 37.7609 104.298 35.3783C104.763 34.8516 105.182 34.3375 105.464 33.508C104.553 33.501 103.859 33.7373 103.189 34.0673C101.181 35.0577 99.1134 36.0138 97.1555 37.1917C89.475 41.7121 82.4359 47.1161 75.5783 52.8232C58.2312 67.2709 43.3314 83.8771 30.5085 102.389C27.9628 106.087 25.3447 109.703 22.7865 113.353C22.4282 113.902 22.0102 114.416 21.5923 114.93C21.3251 115.253 20.9512 115.554 20.4861 115.327C19.9488 115.018 20.1186 114.521 20.3009 114.07C20.5177 113.559 20.7472 113.096 21.0237 112.62C24.3774 106.093 28.1017 99.8177 32.1844 93.7488C47.3331 71.0954 65.1433 50.644 85.2686 32.2356C88.3487 29.4001 91.4156 26.5179 94.4706 23.5887C95.4732 22.6165 96.3905 21.5163 97.2739 20.4755C97.5755 20.0932 97.8049 19.6297 98.1383 18.9875C97.5349 18.9985 97.1547 18.8993 96.8374 19.0346C95.0712 19.6084 93.2329 20.101 91.564 20.8496C83.9972 24.2843 76.9765 28.6279 70.1385 33.2744C51.1823 46.2437 34.3942 61.6472 19.4 79.0323C17.0524 81.7722 14.7174 84.559 12.3227 87.3115C11.7411 87.9693 11.1126 88.6403 10.4715 89.2644C10.2735 89.4682 10.0409 89.7316 9.7707 89.8542C9.5004 89.9769 9.02905 90.1032 8.94424 89.9752C8.77459 89.7191 8.67407 89.3439 8.75263 89.0716C8.84079 88.6465 9.09538 88.2767 9.3028 87.9196C10.8176 85.6541 12.2728 83.3544 13.907 81.1575C19.7716 73.2542 26.4279 66.0432 33.2884 59.0287C44.8662 47.1823 57.4085 36.4844 70.5166 26.3888C73.6495 23.9412 76.7825 21.4935 79.9034 18.9989C80.9782 18.1079 81.9809 17.1356 82.9829 16.1636C83.3447 15.8154 83.6212 15.3393 84.1083 14.7062C83.1028 14.7244 82.4178 14.8074 81.723 15.0438C78.5807 16.1371 75.586 17.5928 72.676 19.1766C61.9287 25.0716 51.9445 32.119 42.3972 39.8534C33.469 47.0701 25.0341 54.808 17.1521 63.1012C15.8479 64.4557 14.7228 65.9131 13.5505 67.383C13.3305 67.6932 12.8968 67.9602 13.1419 68.4976C13.167 68.5914 12.8747 68.8204 12.7239 69.0116C12.5322 68.862 12.2337 68.6907 12.2432 68.5374C12.2495 68.1839 12.3627 67.852 12.5355 67.5545C13.1484 66.6365 13.7613 65.7184 14.4589 64.9284C17.6425 61.1606 21.1278 57.7643 24.7199 54.3896C36.7783 43.0173 49.6568 32.6314 63.7542 23.7784C68.3836 20.8795 73.0972 18.1089 78.0561 15.8756C79.3601 15.2749 80.7367 14.7553 82.0657 14.2484C82.6189 14.0499 83.3039 13.9669 83.9073 13.956C84.6644 13.9541 85.0636 14.5005 84.7553 15.2364C84.5384 15.7468 84.262 16.2229 83.9133 16.6178C82.9233 17.6369 81.8987 18.7155 80.7768 19.6192C75.868 23.5477 70.9467 27.4294 66.0253 31.3111C50.6391 43.2735 36.3022 56.5126 23.3258 71.2465C19.2905 75.7954 15.4468 80.4936 11.9866 85.4917C11.7792 85.8488 11.5121 86.1717 11.4366 86.6442C11.7509 86.3087 12.018 85.9859 12.3323 85.6504C16.7383 80.5999 21.0126 75.4345 25.5506 70.4996C40.2964 54.6383 56.6821 40.7497 74.9248 29.0772C80.0095 25.8051 85.2512 22.7422 90.7502 20.2636C92.5953 19.4175 94.5026 18.8059 96.4444 18.1348C96.8564 17.9742 97.3526 17.9417 97.8274 18.0155C98.6568 18.0948 99.1155 18.6754 98.8674 19.4455C98.6976 19.9433 98.4332 20.4664 98.0845 20.8614C97.1322 22.0212 96.1327 23.1935 95.0611 24.2847C90.8405 28.3304 86.6073 32.3292 82.327 36.3406C62.3271 55.2179 44.8438 76.1348 30.0218 99.2529C28.7741 101.196 27.5986 103.219 26.3635 105.209C26.0869 105.685 25.7506 106.127 25.4615 106.556C25.5337 106.637 25.5934 106.671 25.7128 106.74C25.9328 106.43 26.1528 106.12 26.3854 105.856C30.383 100.413 34.2017 94.8667 38.3313 89.5386C52.0182 71.8 67.9174 56.283 86.1849 43.1968C90.6788 39.9825 95.2453 36.8492 100.236 34.3562C101.574 33.6961 102.963 33.2234 104.327 32.657C104.55 32.5469 104.798 32.5306 104.999 32.5271C106.181 32.4114 106.724 33.1201 106.256 34.2004C105.935 34.8894 105.461 35.5694 105.009 36.1428C103.789 37.6254 102.557 39.0611 101.265 40.4626C96.8688 45.3595 92.5319 50.2906 88.4585 55.4527C82.8897 62.5732 77.7635 70.0279 73.247 77.8716C64.5724 93.0106 56.5418 108.48 49.5609 124.472C48.1212 127.772 46.9802 131.244 45.8139 134.622C45.1916 136.447 44.8174 138.256 45.2854 140.191Z" fill="#F7D046"/>
</g>
</g>
<defs>
<clipPath id="clip0_247:18">
<rect width="104" height="96" fill="white" transform="translate(0.347656 27.0942) rotate(-15)"/>
</clipPath>
</defs>
</svg>
