<svg width="122" height="126" viewBox="0 0 122 126" fill="none" xmlns="http://www.w3.org/2000/svg">
<path d="M7.84665 65.2013C9.28039 59.5556 10.7043 53.9466 12.2019 48.3573C13.3028 44.2489 14.588 40.1898 16.3425 36.2959C19.3626 29.4487 23.5539 23.3912 28.8966 18.1977C34.296 12.94 40.4925 8.68921 47.2646 5.38619C53.8128 2.18182 60.7555 0.749378 67.9933 0.42746C75.472 0.0907585 82.7114 1.23711 89.8206 3.4594C96.5246 5.57309 102.433 9.17948 108.006 13.4497C111.487 16.0884 114.093 19.4844 116.229 23.3098C120.885 31.7379 122.373 40.7849 121.444 50.2953C121.014 54.7026 120.611 59.1566 120.023 63.5613C119.419 67.8824 118.63 72.1541 117.878 76.4352C117.434 78.9743 116.955 81.5037 116.437 84.0231C115.038 90.8683 113.075 97.6025 110.791 104.211C109.229 108.711 107.319 113.04 105.325 117.385C104.487 119.184 103.75 121.049 102.986 122.867C102.861 123.191 102.707 123.467 102.544 123.781C102.063 124.842 101.201 125.404 100.049 125.572C98.0815 125.838 96.1461 125.835 94.2264 125.479C90.9402 124.916 87.6702 124.437 84.4363 123.531C83.7729 123.353 83.1164 123.296 82.443 123.155C80.8748 122.814 80.0849 121.928 79.9653 120.309C79.8264 118.765 80.002 117.225 80.3987 115.744C81.1326 113.005 81.95 110.249 82.8315 107.549C85.2699 100.07 87.3131 92.4449 89.1719 84.7709C90.192 80.5219 91.2387 76.3193 92.0648 72.0576C93.3253 65.7307 94.1977 59.379 93.9978 52.8988C93.9235 49.7843 93.5148 46.7391 92.6142 43.7604C91.5031 40.0906 89.5673 36.9933 86.7426 34.4115C83.7804 31.7532 80.4085 29.7389 76.7204 28.3143C74.1458 27.3071 71.558 26.4947 68.8048 26.1537C67.2335 25.9707 65.623 25.9358 64.0437 26.2268C55.5883 27.849 48.154 31.411 42.216 37.7939C39.6008 40.6237 37.5796 43.8906 35.7966 47.301C32.5935 53.5041 29.4911 59.774 26.8112 66.2364C23.3278 74.6654 20.6923 83.3216 19.1159 92.3015C18.6527 94.915 18.1627 97.481 17.5888 100.065C17.3381 101.148 16.9867 102.165 16.6253 103.218C16.4794 103.615 16.2966 104.003 16.04 104.371C15.5468 105.032 15.1003 105.666 15.0096 106.594C14.929 107.485 14.1607 107.993 13.2704 108.072C11.1181 108.288 8.94891 108.422 6.85328 107.542C5.99828 107.194 5.09373 107.031 4.20903 106.794C3.84037 106.695 3.43484 106.587 3.06623 106.488C1.61144 106.019 0.720839 105.066 0.665291 103.504C0.616857 102.063 0.568429 100.622 0.751015 99.2029C1.13894 96.1331 1.6006 93.083 2.1828 90.0255C2.76489 86.9684 3.43078 83.8934 4.16032 80.8758C5.39151 75.6911 6.65945 70.5167 7.9275 65.3419C7.88352 65.2112 7.84665 65.2013 7.84665 65.2013Z" fill="#F7D046" style="opacity: 0.5" />
<path d="M23.0747 107.02C23.0818 107.14 23.062 107.214 23.0791 107.298C23.007 108.747 22.2627 109.46 20.8166 109.548C18.8147 109.647 16.8751 109.365 14.9087 109.036C14.004 108.873 13.1094 108.673 12.2048 108.51C10.7742 108.246 10.031 107.333 9.648 105.961C8.97697 103.599 9.01905 101.23 9.49652 98.8584C10.073 96.1169 10.7333 93.358 11.3935 90.5992C12.1485 87.1916 12.9405 83.7935 13.6586 80.376C14.3895 76.7634 14.9999 73.1583 15.7677 69.5555C17.4649 61.5997 19.9162 53.9257 23.8493 46.7676C28.2983 38.7163 33.9796 31.6694 41.266 26.0048C51.3706 18.0804 62.9108 14.8251 75.6896 16.3846C82.3423 17.2151 88.6573 19.3039 94.6111 22.4464C96.9692 23.6734 99.0508 25.3419 100.792 27.3954C106.507 34.084 107.384 36.858 108.589 44.5994C109.438 49.9841 109.286 55.418 108.986 60.8124C108.696 66.1698 107.733 71.3865 106.381 76.5782C104.842 82.4733 103.265 88.3584 101.54 94.2044C99.293 101.854 96.4656 109.308 93.1056 116.541C92.2379 118.451 91.2601 120.331 90.2823 122.211C90.0527 122.625 89.7762 123.067 89.4829 123.425C88.6493 124.471 87.5393 124.928 86.2194 124.693C84.8155 124.475 83.4391 124.305 82.0848 123.902C79.5513 123.183 77.0741 122.401 74.5802 121.534C73.2091 121.048 71.8678 120.451 70.5261 119.853C68.863 119.13 68.2532 118.014 68.6457 116.255C68.8895 115.05 69.2069 113.866 69.5978 112.701C70.7611 109.244 71.8879 105.778 73.1984 102.36C73.9654 100.383 74.9433 98.5028 75.8841 96.6127C77.0649 94.2711 78.0241 91.8702 78.6984 89.3535C79.8165 85.3288 80.824 81.2746 81.8581 77.2672C82.3541 75.4162 82.5083 73.5139 82.6156 71.6385C82.7983 69.1878 83.0914 66.7671 83.2734 64.3167C83.4618 61.5504 83.5662 58.8014 83.7442 56.0721C83.8547 54.0387 84.0851 51.9981 84.1216 49.9448C84.2159 46.2013 82.9592 42.9289 80.5654 40.0658C79.0965 38.3234 77.2912 37.2446 75.1332 36.7457C72.791 36.1975 70.4503 36.086 68.0344 36.5495C66.0738 36.9366 64.1326 37.2495 62.1919 37.5626C60.0837 37.9102 58.0705 38.6403 56.1553 39.5949C52.2411 41.5214 48.6063 43.88 45.224 46.6234C41.9451 49.2755 39.6162 52.6586 37.7072 56.3917C35.1362 61.4156 33.3294 66.684 32.0189 72.1646C30.4578 78.728 29.2013 85.3343 28.0824 92.0167C27.482 95.5846 26.7709 99.1234 26.0967 102.672C25.7582 104.525 24.8894 105.998 23.1512 106.881C23.1781 106.928 23.1683 106.965 23.0747 107.02Z" fill="#EE8DB9" style="opacity: 0.5"/>
<path d="M71.2599 92.0441C72.7277 86.5663 74.3062 81.1177 75.6269 75.6001C77.0338 69.9073 78.025 64.143 78.5641 58.297C78.7679 56.2094 78.8514 54.1289 78.9343 52.0487C78.9951 50.2005 78.6842 48.4112 77.9748 46.6343C77.4515 45.3436 76.6647 44.2997 75.5399 43.4826C73.016 41.6955 70.264 40.7597 67.1237 40.8307C62.6577 40.9829 58.5945 42.4332 54.8023 44.789C50.2518 47.6161 46.8299 51.5393 44.1467 56.0969C42.0363 59.6969 40.5697 63.5485 39.388 67.5163C37.0415 75.5361 35.1105 83.6274 33.5113 91.8076C32.922 94.7442 32.2122 97.688 31.6229 100.625C31.3595 101.903 31.123 103.228 30.9332 104.526C30.8058 105.444 30.7619 106.345 30.6714 107.272C30.5185 108.58 29.7006 109.273 28.3678 109.234C27.9794 109.209 27.5908 109.184 27.1755 109.113C26.3716 109.016 25.5577 108.957 24.7312 109.092C23.4595 109.267 22.1664 109.08 20.923 108.707C19.7802 108.4 19.1376 107.554 19.0198 106.372C18.9672 105.683 18.9982 104.978 19.0294 104.272C19.2567 99.2945 19.6316 94.3568 20.358 89.4337C20.8451 85.9937 21.4896 82.5565 22.1341 79.1188C23.0193 74.6355 24.0521 70.1912 25.4167 65.8358C27.8312 58.1518 31.5843 51.2229 37.0148 45.2596C41.8981 39.8637 47.4508 35.3611 54.1337 32.3911C55.7853 31.6832 57.4639 31.0222 59.2133 30.5388C61.7354 29.8261 64.2746 29.1973 66.8678 28.6624C70.5481 27.903 74.298 27.9159 77.9732 28.504C83.6344 29.3465 87.6506 32.6442 90.3026 37.6394C91.3776 39.6729 91.9779 41.857 92.3268 44.0928C92.9257 47.903 92.8956 51.7033 92.6507 55.5652C91.9482 66.4455 89.8518 77.0712 86.7034 87.4943C85.2665 92.2664 83.498 96.9497 81.9134 101.683C80.8466 104.928 79.8434 108.229 78.8502 111.494C78.2506 113.436 77.7989 115.417 77.2462 117.332C77.1271 117.776 77.0081 118.221 76.8156 118.645C76.2344 120.076 75.1953 120.71 73.6911 120.426C71.5033 120.038 69.3353 119.576 67.1408 119.067C64.9926 118.532 64.2211 117.135 64.8062 114.951C65.3022 113.1 65.8616 111.306 66.3946 109.465C68.0721 103.647 69.7028 97.8554 71.3805 92.0366C71.2969 92.054 71.2969 92.054 71.2599 92.0441Z" fill="#EA552B" style="opacity: 0.5"/>
</svg>
