<svg width="89" height="142" viewBox="0 0 89 142" fill="none" xmlns="http://www.w3.org/2000/svg">
<path d="M23.1415 55.8894C24.3609 55.4897 24.908 54.5569 25.4552 53.6241C27.8562 49.3581 30.2269 45.1685 32.6279 40.9024C37.0501 33.1042 41.075 24.9709 46.1539 17.5224C49.1343 13.133 52.5422 9.00222 56.8366 5.75543C58.8779 4.17801 61.1935 2.79855 63.6307 1.55635C64.8349 0.973416 66.2831 0.664922 67.5949 0.478889C71.4679 0.0735131 74.0661 2.4352 74.2115 6.29873C74.3396 9.09327 73.6135 11.8133 72.765 14.396C70.9463 19.8673 68.4705 24.9889 65.69 29.9887C63.4861 33.9795 61.4054 38.1074 59.4011 42.2657C56.895 47.4636 54.4652 52.6918 52.0058 57.9965C50.973 60.1521 50.1694 62.3988 50.1134 64.7661C50.0546 65.8047 49.9048 67.0729 50.9127 67.651C51.8744 68.1223 52.7574 67.2349 53.5189 66.6526C56.412 64.264 59.2286 61.845 62.1981 59.4868C64.3757 57.7869 66.5533 56.0871 68.8993 54.6312C70.7886 53.436 72.8915 52.5915 74.9187 51.7167C76.0613 51.2866 77.2968 51.0702 78.5478 51.0369C82.0709 50.8462 84.4087 52.7502 85.1784 56.1543C86.0713 60.1385 85.088 63.7295 83.0509 67.0786C79.8284 72.5223 75.5512 76.8384 70.3574 80.346C66.7324 82.7977 62.8166 84.8678 58.6249 86.2971C57.6186 86.6047 56.6584 87.0192 55.6226 87.4033C48.5953 89.739 42.5636 93.7994 36.8684 98.3474C33.7619 100.828 31.8318 104.131 29.8712 107.51C27.0904 112.51 25.4086 117.859 23.3149 123.132C21.7066 127.183 20.1746 131.264 18.5967 135.238C17.9898 136.766 17.1539 138.204 16.3484 139.565C15.6339 140.697 14.5221 141.493 13.1343 141.648C9.48975 142.145 6.02637 141.74 3.06216 139.41C0.816291 137.72 0.0335527 135.461 0.729631 132.817C1.06247 131.533 1.62433 130.342 2.18619 129.149C2.99077 127.345 3.94807 125.602 4.60004 123.737C6.69287 118.021 8.7554 112.381 10.7719 106.634C11.8634 103.441 12.7719 100.262 13.787 97.0373C14.3018 95.2954 14.1307 93.722 12.9683 92.1981C11.1481 89.8805 9.46503 87.4403 7.53829 85.1688C2.87356 79.3295 0.693651 72.7978 0.494619 65.2841C0.233979 57.4806 1.20934 49.9036 3.19178 42.4618C3.91628 38.856 4.97551 34.8524 7.07311 31.3506C8.07641 29.7144 9.07961 28.0782 10.2815 26.6095C11.3767 25.1868 12.839 24.1757 14.5154 23.5154C17.4418 22.379 20.3727 23.4572 21.5381 26.3106C22.2738 28.0194 22.6593 29.9429 22.8617 31.8821C23.3447 36.6765 22.9431 41.4728 22.3887 46.2084C22.1488 48.1485 21.9088 50.0885 21.7453 52.059C21.6111 53.5102 21.7969 54.8232 23.1415 55.8894Z" fill="#4CA96D" style="opacity: 0.5" />
<path fill-rule="evenodd" clip-rule="evenodd" d="M58.6126 2.90833C57.3969 3.83875 56.2025 4.75231 55.6604 6.11746C54.9474 7.692 55.1634 8.92861 56.1261 9.84282C57.1193 10.6807 58.965 10.7074 60.1536 9.94118C61.8589 8.76157 62.7666 5.14016 61.8022 3.34011C61.2658 2.24167 60.0444 1.75554 59.2525 2.41389C59.0406 2.58093 58.827 2.74492 58.6126 2.90833ZM70.6539 15.9523C70.5398 16.1036 70.4305 16.2475 70.3254 16.3796C70.2613 16.6621 70.1997 16.9204 70.1422 17.1602V17.1604V17.1605C69.9861 17.8156 69.8629 18.3323 69.7972 18.8242C69.6773 20.0158 69.9845 21.0231 71.0384 21.7081C72.1686 22.4234 73.2669 22.3295 74.3947 21.7162C75.6285 21.0569 76.2668 19.8948 76.5994 18.6112C76.8574 17.7402 76.9009 16.9612 75.9998 16.337C75.7246 16.139 75.617 15.7422 75.5858 15.3757C75.3533 13.513 73.9331 12.8593 72.4101 14.0232C71.6881 14.5894 71.1246 15.3328 70.6539 15.9522V15.9523ZM10.2398 22.5554C10.6943 20.9445 11.8341 19.9946 12.9519 19.0629C13.4354 18.66 13.9148 18.2605 14.3329 17.8123C15.0181 17.1999 15.8117 17.4273 16.393 18.1897C17.1122 19.2725 17.0994 20.4179 16.7969 21.6251C16.5247 22.7558 16.4355 23.8708 16.5754 25.0771C16.8688 26.7869 15.5309 28.821 13.8544 29.4813C11.8579 30.2797 9.76562 29.0929 9.60823 26.8177C9.62655 25.8809 9.80759 24.9303 9.98863 23.9796C10.0792 23.5043 10.1697 23.029 10.2398 22.5554ZM0.918256 79.2047C1.54172 78.3024 2.36298 77.1247 3.30648 76.0835C3.88493 75.5177 4.69231 75.0423 5.53107 74.9338C6.47645 74.7792 7.23882 74.6402 8.1226 74.1952C9.03668 73.6738 9.84604 74.0842 10.0465 75.1377C10.2158 75.8245 10.248 76.6346 10.0052 77.2456C9.48937 78.5451 8.97351 79.8437 8.10633 80.9153C7.2863 81.9968 6.22772 82.9829 5.21507 83.927C5.082 84.0512 4.94966 84.1746 4.81873 84.2971C3.85963 85.1541 2.50221 85.2339 1.52455 84.5792C0.470658 83.8941 0.0870506 82.8562 0.206568 81.6645C0.293968 81.1217 0.461788 80.6102 0.668788 79.9794H0.66887C0.747152 79.7409 0.83102 79.4851 0.918256 79.2047ZM44.91 95.4106L44.91 95.4098H44.9097C44.8455 95.2264 44.7828 95.0471 44.7293 94.8719C45.6719 93.3883 45.7923 92.6399 45.0125 91.7105C44.3245 90.9942 43.2411 90.828 42.144 91.3651C42.0907 91.3881 42.0298 91.4301 41.9688 91.472H41.9687C41.9079 91.5148 41.847 91.5567 41.7937 91.5797C39.5857 93.3562 38.3093 95.6796 38.4069 98.5507C38.4254 100.063 39.4499 101.267 40.7319 101.6C42.0903 101.964 43.7365 101.38 44.5576 100.202C45.3484 99.1009 45.5747 97.8639 45.2361 96.4897C45.1559 96.1122 45.0303 95.7536 44.91 95.4106ZM88.0846 61.1503C87.9475 61.3706 87.8111 61.6053 87.6723 61.8451V61.8452C87.3191 62.4547 86.947 63.0965 86.4878 63.6126C85.5448 64.6531 84.2026 64.9156 83.1183 64.307C82.1104 63.7288 81.6044 62.5539 81.8615 61.24C82.0274 60.5982 82.347 60.0172 82.6657 59.4362C82.825 59.0363 83.0033 58.6587 83.1807 58.2834V58.2833C83.4444 57.7262 83.7056 57.1741 83.8954 56.5623C84.3044 55.3092 84.9435 54.59 86.0114 54.5725C87.0028 54.5245 88.0871 55.1331 88.4403 56.2473C88.6859 56.9645 88.7944 57.8043 88.75 58.5832C88.7122 58.7215 88.672 58.8655 88.6309 59.0147V59.0149C88.4559 59.6409 88.2555 60.3609 88.0846 61.1503ZM18.2957 52.1357C20.0309 50.4368 19.2914 46.9564 17.0014 46.0449C16.1921 45.6342 15.3378 45.5597 14.7749 46.3093C13.6797 47.7319 12.6304 49.2613 11.8102 50.8819C11.1114 52.1968 11.5869 53.4481 12.6105 54.2095C13.6341 54.971 14.9612 54.9681 16.1033 54.0952C16.8647 53.5133 17.5802 52.8245 18.2957 52.1357ZM72.296 82.2139C71.6577 83.376 70.9275 84.3243 69.7241 84.9074C67.5596 85.9042 65.3155 84.6565 65.0814 82.3513C64.8793 80.412 65.6227 78.7614 67.1456 77.5976C68.2882 76.7242 69.4776 76.8443 70.5176 77.7884C70.6728 77.9011 70.7854 78.0524 70.8889 78.1931C70.9685 78.3008 71.0425 78.402 71.1287 78.4743C71.2643 78.5886 71.4499 78.7021 71.6388 78.8173C72.0035 79.041 72.3765 79.2688 72.397 79.5106C72.5481 80.2228 72.4545 80.9556 72.3576 81.7098C72.3362 81.8767 72.3149 82.0445 72.296 82.2139ZM22.6337 81.2056C22.7292 81.2722 22.8294 81.343 22.9339 81.4178C23.0527 81.4014 23.1792 81.3874 23.3097 81.3726C23.8994 81.3084 24.5737 81.2344 25.0223 80.8331C25.7838 80.2508 26.5599 79.4094 27.0767 78.5533C27.244 78.295 27.3435 77.9981 27.4451 77.6947C27.6208 77.1708 27.8032 76.6272 28.3531 76.2291C28.5968 76.0605 28.6712 75.2052 28.5029 74.9609C27.8453 74.1681 27.1114 73.3448 26.2405 72.645C25.9655 72.4467 25.3402 72.4632 25.0964 72.6318C24.9124 72.7502 24.7266 72.8687 24.5402 72.9863H24.54L24.5398 72.9871H24.5397H24.5396C23.5221 73.6327 22.4857 74.2898 21.6239 75.1435C20.7411 76.0317 20.8093 79.4218 21.6656 80.3824C21.901 80.6908 22.2262 80.9194 22.6335 81.2048H22.6336L22.6337 81.2056ZM39.022 57.8187C38.5219 59.3011 37.41 60.0976 36.0839 60.5434C33.9807 61.3878 32.0558 60.0021 31.9747 57.7573C31.9251 55.8789 33.5977 53.4471 35.3506 52.8172C37.21 52.1413 39.4099 53.7249 39.3687 55.8325C39.3549 56.5351 39.1885 57.1769 39.022 57.8187ZM61.7513 36.8626C61.2962 38.009 60.4592 39.0035 59.209 39.4796C57.746 40.0478 56.0062 39.5322 55.225 38.1594C54.4143 36.863 54.701 35.4726 55.9643 34.294C56.5426 33.7277 57.0453 33.131 57.5472 32.5343C58.3843 31.5398 59.5425 31.293 60.6424 32.0848C61.941 33.0442 62.4791 35.0284 61.7513 36.8626ZM68.2315 64.3998C66.5977 63.8382 65.9233 61.9765 67.0183 60.5538C67.9153 59.4065 69.1187 58.3806 70.3829 57.6449C71.8606 56.817 72.9301 57.6853 73.423 59.5627C73.777 61.1197 72.986 62.2211 71.9658 63.2312C70.7788 64.4402 69.453 64.8859 68.2315 64.3998ZM46.5871 79.0615C45.5185 78.6364 44.3303 79.402 43.7538 80.8544C42.9795 82.5816 43.4863 84.1993 44.9366 84.7766C46.1883 85.1862 47.8951 84.4493 48.5177 83.1046C49.1245 81.5757 48.2205 79.6233 46.5871 79.0615Z" fill="black" style="opacity: 0.5"/>
</svg>
