<svg width="60" height="43" viewBox="0 0 60 43" fill="none" xmlns="http://www.w3.org/2000/svg">
<path d="M23.702 13.8053C23.305 13.5338 23.0072 13.3302 22.6763 13.104C21.6838 12.4252 20.6128 11.7902 19.6203 11.1114C18.4623 10.3196 18.4619 9.39476 19.6384 8.59351C20.3554 8.11063 21.1386 7.67302 21.9549 7.25802C23.1175 6.69062 24.2906 6.17901 25.4307 5.64478C28.8055 4.1085 32.1577 2.6054 35.4664 1.02385C36.5507 0.500202 37.5395 0.543791 38.5547 1.18937C40.155 2.18637 41.7778 3.15015 43.3781 4.14715C47.1307 6.46995 50.8606 8.82593 54.6461 11.1713C55.5951 11.7716 56.5213 12.4051 57.4479 13.0386C57.7126 13.2196 57.9772 13.4006 58.2191 13.6148C59.5186 14.6979 59.4492 15.867 57.9177 16.6201C56.6542 17.2645 55.2809 17.7852 53.9198 18.2169C48.5201 19.8771 43.0998 21.4257 37.5523 22.4494C36.6611 22.6185 35.8029 22.8103 34.8003 23.0005C35.0947 23.4938 35.5491 23.6099 35.8799 23.8361C38.6503 25.536 41.4537 27.2584 44.2241 28.9583C44.4558 29.1167 44.7099 29.2418 44.9522 29.4561C45.7777 30.1665 45.7432 31.2135 44.7808 31.7719C44.2551 32.045 43.6528 32.2171 43.0732 32.3559C38.5369 33.39 34.0008 34.424 29.4646 35.4583C21.4506 37.3256 13.4784 39.4162 5.54815 41.73C4.455 42.053 3.32885 42.3533 2.22522 42.6206C1.9798 42.6961 1.70131 42.7488 1.468 42.7354C0.634164 42.749 0.118563 42.1534 0.372472 41.3535C0.544611 40.8873 0.805513 40.4333 1.13261 40.0244C3.24138 37.4278 5.38331 34.8536 7.50259 32.3127C9.85849 29.4958 12.1587 26.6893 14.5808 23.9176C16.62 21.5653 18.7585 19.2809 20.8414 17.0071C21.7984 15.9585 22.7223 14.8872 23.702 13.8053ZM3.57675 40.1388C3.62038 40.217 3.66392 40.2955 3.73014 40.3407C16.3356 36.5041 29.1975 33.5723 42.1183 30.3405C41.4234 29.8654 40.9169 29.4702 40.3649 29.1414C37.7041 27.5652 35.054 26.0449 32.3933 24.4687C32.106 24.3209 31.8413 24.1399 31.5992 23.9257C30.664 23.0916 30.8098 22.0234 31.9394 21.4334C32.4424 21.1935 33.022 21.0546 33.6017 20.9157C36.9229 20.17 40.2755 19.5917 43.5756 18.7342C47.5897 17.6837 51.5061 16.4204 55.4659 15.2355C55.7672 15.1495 56.0805 14.9744 56.5939 14.7903C55.7667 14.2247 55.1607 13.7616 54.5093 13.3649C48.9581 9.90939 43.4069 6.45386 37.8783 2.96516C37.3924 2.68159 37.0582 2.74498 36.6336 2.9412C33.3144 4.4669 29.9953 5.99261 26.6762 7.51836C25.4021 8.10689 24.1281 8.69545 22.854 9.28402C22.5634 9.42589 22.2501 9.6009 21.8359 9.85292C22.2329 10.1244 22.5307 10.3281 22.7954 10.509C23.7774 11.132 24.7821 11.7217 25.6859 12.3884C26.5235 13.0098 26.5709 13.7234 25.8836 14.5186C24.8134 15.7332 23.6876 16.9584 22.5844 18.1504C20.265 20.7003 17.9351 23.1945 15.6818 25.7897C12.2227 29.7987 8.85238 33.8196 5.47156 37.785C4.84003 38.5694 4.20841 39.3541 3.57675 40.1388Z" fill="black"/>
</svg>
