<svg width="63" height="45" viewBox="0 0 63 45" fill="none" xmlns="http://www.w3.org/2000/svg">
<path d="M45.277 24.0875C45.6014 24.3555 45.8528 24.5274 46.0829 24.731C48.4175 26.5124 50.7207 28.2723 53.0553 30.0538C53.8198 30.6228 53.7687 31.3739 52.9917 31.9058C52.7468 32.0621 52.5235 32.1868 52.2688 32.29C47.6284 34.4337 42.8273 35.8663 37.8339 36.5666C33.6346 37.1161 29.4733 38.0157 25.3535 38.9895C23.0447 39.5374 20.7259 40.0324 18.3757 40.5057C16.1843 40.9488 14.0011 41.5829 11.8908 42.3129C9.69627 43.0311 7.44031 43.5691 5.18445 44.1068C4.58074 44.2489 3.91577 44.2104 3.29381 44.1088C2.77769 43.987 2.17882 43.7161 1.78168 43.3521C0.507567 42.1108 0.556555 40.6185 1.96364 39.5004C2.8698 38.7791 3.90009 38.2814 4.91049 37.6778C5.28256 37.4699 5.68605 37.2836 6.0267 37.0541C11.5612 33.3953 17.0859 29.6833 22.6205 26.0244C25.8565 23.8451 29.0497 21.7289 32.2841 19.6872C38.0288 16.1257 44.2704 14.3373 51.0106 14.1844C52.0775 14.1742 53.1228 14.1955 54.2214 14.2069C53.6586 13.5447 53.3329 13.4144 52.9476 13.8444C52.6015 13.6079 52.2559 13.3714 51.9102 13.135C51.5958 12.92 51.3128 12.7265 51.2861 12.2922C51.2776 12.1015 51.0694 11.8665 50.8905 11.7905C50.1874 11.4022 49.4314 11.0238 48.7282 10.6355C48.4866 10.5166 48.2451 10.3976 48.0251 10.2471C47.7737 10.0752 47.2674 10.0064 47.431 9.56347C47.6061 9.03593 48.1007 9.18922 48.4581 9.34115C49.4887 9.72226 50.5193 10.1034 51.5071 10.5477C54.2599 11.7829 57.1401 12.9665 59.7822 14.6346C60.5268 15.0975 61.2283 15.6235 61.9301 16.1495C62.7674 16.8146 62.8123 17.4926 62.2105 18.3756C61.8236 18.9433 61.3443 19.309 60.7288 19.5354C59.626 19.9371 58.5541 20.36 57.4627 20.677C53.7647 21.7082 50.0566 22.6863 46.3586 23.7175C46.0194 23.8092 45.7118 23.9225 45.277 24.0875Z" fill="#55BBDA" style="opacity: 0.5" />
<path d="M23.702 13.8053C23.305 13.5338 23.0072 13.3302 22.6763 13.104C21.6838 12.4252 20.6128 11.7902 19.6203 11.1114C18.4623 10.3196 18.4619 9.39476 19.6384 8.59351C20.3554 8.11063 21.1386 7.67302 21.9549 7.25802C23.1175 6.69062 24.2906 6.17901 25.4307 5.64478C28.8055 4.1085 32.1577 2.6054 35.4664 1.02385C36.5507 0.500202 37.5395 0.543791 38.5547 1.18937C40.155 2.18637 41.7778 3.15015 43.3781 4.14715C47.1307 6.46995 50.8606 8.82593 54.6461 11.1713C55.5951 11.7716 56.5213 12.4051 57.4479 13.0386C57.7126 13.2196 57.9772 13.4006 58.2191 13.6148C59.5186 14.6979 59.4492 15.867 57.9177 16.6201C56.6542 17.2645 55.2809 17.7852 53.9198 18.2169C48.5201 19.8771 43.0998 21.4257 37.5523 22.4494C36.6611 22.6185 35.8029 22.8103 34.8003 23.0005C35.0947 23.4938 35.5491 23.6099 35.8799 23.8361C38.6503 25.536 41.4537 27.2584 44.2241 28.9583C44.4558 29.1167 44.7099 29.2418 44.9522 29.4561C45.7777 30.1665 45.7432 31.2135 44.7808 31.7719C44.2551 32.045 43.6528 32.2171 43.0732 32.3559C38.5369 33.39 34.0008 34.424 29.4646 35.4583C21.4506 37.3256 13.4784 39.4162 5.54815 41.73C4.455 42.053 3.32885 42.3533 2.22522 42.6206C1.9798 42.6961 1.70131 42.7488 1.468 42.7354C0.634164 42.749 0.118563 42.1534 0.372472 41.3535C0.544611 40.8873 0.805513 40.4333 1.13261 40.0244C3.24138 37.4278 5.38331 34.8536 7.50259 32.3127C9.85849 29.4958 12.1587 26.6893 14.5808 23.9176C16.62 21.5653 18.7585 19.2809 20.8414 17.0071C21.7984 15.9585 22.7223 14.8872 23.702 13.8053ZM3.57675 40.1388C3.62038 40.217 3.66392 40.2955 3.73014 40.3407C16.3356 36.5041 29.1975 33.5723 42.1183 30.3405C41.4234 29.8654 40.9169 29.4702 40.3649 29.1414C37.7041 27.5652 35.054 26.0449 32.3933 24.4687C32.106 24.3209 31.8413 24.1399 31.5992 23.9257C30.664 23.0916 30.8098 22.0234 31.9394 21.4334C32.4424 21.1935 33.022 21.0546 33.6017 20.9157C36.9229 20.17 40.2755 19.5917 43.5756 18.7342C47.5897 17.6837 51.5061 16.4204 55.4659 15.2355C55.7672 15.1495 56.0805 14.9744 56.5939 14.7903C55.7667 14.2247 55.1607 13.7616 54.5093 13.3649C48.9581 9.90939 43.4069 6.45386 37.8783 2.96516C37.3924 2.68159 37.0582 2.74498 36.6336 2.9412C33.3144 4.4669 29.9953 5.99261 26.6762 7.51836C25.4021 8.10689 24.1281 8.69545 22.854 9.28402C22.5634 9.42589 22.2501 9.6009 21.8359 9.85292C22.2329 10.1244 22.5307 10.3281 22.7954 10.509C23.7774 11.132 24.7821 11.7217 25.6859 12.3884C26.5235 13.0098 26.5709 13.7234 25.8836 14.5186C24.8134 15.7332 23.6876 16.9584 22.5844 18.1504C20.265 20.7003 17.9351 23.1945 15.6818 25.7897C12.2227 29.7987 8.85238 33.8196 5.47156 37.785C4.84003 38.5694 4.20841 39.3541 3.57675 40.1388Z" fill="black" style="opacity: 0.5" />
</svg>
