<svg width="29" height="31" viewBox="0 0 29 31" fill="none" xmlns="http://www.w3.org/2000/svg">
<path opacity="0.56" d="M20.7586 21.1677C21.1852 23.0326 21.6117 24.5389 21.9672 26.117C22.0383 26.4756 22.1804 26.906 22.2515 27.2646C22.3937 27.9102 22.2515 28.5557 21.6117 28.9144C20.9719 29.273 20.4032 28.9861 19.9766 28.484C18.697 26.9777 17.4173 25.3997 16.1377 23.8934C15.8533 23.5347 15.569 23.2478 15.0713 22.7457C14.6448 24.252 14.2182 25.5431 13.7917 26.8343C13.4362 27.9102 13.1519 29.0578 12.6542 30.062C12.512 30.4924 11.9433 30.9228 11.5879 30.9945C10.8769 31.0662 10.6637 30.4207 10.5926 29.8469C10.4504 28.2688 10.3793 26.6191 10.2371 25.041C10.166 24.0368 10.0949 23.0326 9.95276 21.7415C9.24185 22.0284 8.74421 22.1719 8.24658 22.3871C6.75366 22.9609 5.26074 23.6065 3.83892 24.1803C3.34128 24.3955 2.84365 24.5389 2.34601 24.6107C1.56401 24.7541 0.710912 24.7541 0.213274 23.9651C-0.213274 23.3195 -4.23736e-07 22.4588 0.853094 21.6698C2.27492 20.3787 3.69674 19.231 5.18965 18.0116C5.6162 17.653 6.04275 17.2943 6.54038 16.864C5.04747 16.1467 3.55456 15.4294 2.20383 14.7121C0.782003 13.9948 0.355457 13.2775 0.639821 12.4168C0.924185 11.556 1.70619 11.1257 3.1991 11.2691C4.8342 11.4126 6.46929 11.6278 8.10439 11.7712C8.81531 11.8429 9.52622 11.7712 10.4504 11.7712C10.3082 10.6953 10.3082 9.83454 10.166 8.9738C9.88167 7.53922 9.52622 6.17635 9.24185 4.74178C9.17076 4.23968 9.09967 3.73758 9.09967 3.23548C9.17076 2.51819 9.45513 1.87263 10.2371 1.65744C10.948 1.44226 11.5168 1.72917 11.8722 2.303C12.9386 3.66585 13.7917 5.02869 14.7159 6.31981C15.0713 6.89366 15.4268 7.46749 16.1377 7.96959C16.4221 6.39154 16.6353 4.88524 16.9197 3.30721C17.0619 2.66165 17.133 1.94436 17.3462 1.2988C17.6306 0.366327 18.1993 -0.0640435 18.9102 0.00768524C19.6922 0.151141 20.0477 0.724971 20.1899 1.44226C20.4032 3.23548 20.5453 4.95697 20.6875 6.75021C20.7586 7.18058 20.7586 7.68268 20.7586 8.32824C21.3273 8.11305 21.7539 7.89787 22.1804 7.68268C23.2468 7.10885 24.3132 6.53502 25.3795 6.0329C26.6592 5.38734 27.3701 5.38734 27.8677 6.10463C28.2943 6.75021 28.1521 7.46749 27.2279 8.54342C26.3748 9.54763 25.5217 10.5518 24.6686 11.556C24.0288 12.2733 23.4601 13.0623 22.7492 13.9231C23.0335 14.2817 23.3179 14.6404 23.6733 14.9273C25.2374 16.6488 26.8724 18.3703 28.4365 20.0917C28.9341 20.6656 29.2185 21.2394 28.7919 21.9567C28.3654 22.674 27.7255 22.674 27.0146 22.5305C25.0241 22.1002 23.0335 21.6698 20.7586 21.1677Z" fill="black" fill-opacity="0.68"/>
</svg>
