<svg width="100" height="101" viewBox="0 0 100 101" fill="none" xmlns="http://www.w3.org/2000/svg">
<path d="M28.3539 97.7062C26.3069 98.2547 24.2599 98.8032 22.2835 99.3328C21.3659 99.5786 20.4295 99.7545 19.5258 99.7701C17.2575 99.7749 15.5723 98.5679 15.0587 96.3688C14.4506 93.8172 13.9839 91.2284 13.5172 88.6395C13.2437 87.0542 13.5398 85.618 14.8336 84.5174C15.1299 84.2116 15.3887 83.7656 15.5062 83.3569C16.2856 77.7953 17.6345 72.3826 18.8234 66.9377C19.3027 64.7736 19.7822 62.61 19.9414 60.3808C20.5556 53.3558 21.0993 46.3496 21.6241 39.2732C21.9804 34.9558 22.9956 30.8389 24.6131 26.7114C25.516 24.434 26.0094 22.04 26.4322 19.665C26.9725 16.8816 27.6917 14.2011 29.2486 11.8237C29.8366 10.9123 30.2269 9.82763 30.7066 8.79439C31.7037 6.86866 33.2283 5.78164 35.3881 5.65526C36.7339 5.59618 37.878 6.19434 38.8665 7.06032C44.4024 11.9097 49.92 16.6887 55.4038 21.6274C58.4969 24.4174 61.3968 27.3345 64.4189 30.1434C71.9747 37.1656 79.7048 43.9906 87.731 50.5097C90.3337 52.6014 92.8526 54.9425 95.1593 57.3399C97.6638 59.9107 98.7805 63.2301 99.6332 66.6959C99.8781 67.61 99.5728 68.4457 98.7303 68.9729C97.6953 69.6275 96.6601 70.2815 95.4976 70.7438C81.061 76.7229 66.5543 82.7214 52.0984 88.63C47.8022 90.3842 43.4355 92.1574 39.031 93.7899C35.4548 95.1253 31.822 96.2495 28.2269 97.5144C28.3352 97.6361 28.3539 97.7062 28.3539 97.7062ZM23.5585 83.7624C24.4951 83.5871 25.168 83.5576 25.8033 83.3873C28.1844 82.6737 30.6549 82.0117 33.0172 81.228C39.9817 78.9852 46.9083 76.6012 53.5244 73.6222C57.4298 71.8219 61.2975 69.8809 65.3303 68.2729C69.6974 66.4997 74.2285 65.0591 78.7224 63.4778C79.3391 63.2374 79.9552 62.9967 80.6942 62.6479C80.2988 62.3015 80.1715 62.1097 79.9737 61.9363C71.2372 55.3059 62.9517 48.1023 54.6856 40.9689C52.925 39.4805 50.9198 38.2084 49.1073 36.8094C46.6502 34.9799 44.1742 33.0801 41.6982 31.1803C41.4108 30.9557 41.0862 30.5903 40.8508 30.2765C39.8006 28.8993 39.4757 27.4031 40.2658 25.8344C41.0558 24.2657 42.3921 23.6061 44.1289 23.5931C44.5004 23.5689 44.8016 23.5636 45.4748 23.534C42.4521 20.7252 39.5761 18.1787 36.5962 15.8108C35.4295 17.1034 34.9924 18.5776 34.7152 20.0843C34.095 23.4168 33.6349 26.7819 32.1959 29.8815C30.8462 33.0326 30.0472 36.2623 29.7471 39.6598C29.372 43.9068 29.138 48.1159 28.7629 52.3629C28.322 56.929 28.1306 61.5792 27.3696 66.0804C26.4772 71.22 25.1562 76.1723 24.0143 81.2279C23.7792 82.0448 23.6853 82.8238 23.5585 83.7624Z" fill="#4CA96D"/>
<path d="M0.490028 98.4627C0.418734 96.2202 0.187491 93.9455 0.346729 91.7163C1.1339 81.1014 2.63188 70.5982 4.2897 60.1269C6.59104 45.5631 9.69246 31.1618 12.8833 16.812C13.7433 12.9629 14.7444 9.07593 16.3528 5.4786C16.9171 4.19653 17.6603 3.01732 18.4035 1.83812C19.1467 0.658909 20.1349 0.394115 21.4199 0.954486C22.0977 1.22522 22.7237 1.58519 23.2086 1.98301C25.8117 4.07492 28.4667 6.07759 30.9476 8.27766C38.0891 14.8832 45.1786 21.578 52.1977 28.2917C54.7542 30.7731 57.3621 33.1653 59.8666 35.7359C63.7224 39.6785 68.0669 43.1886 72.3417 46.7175C77.0816 50.5738 81.0882 55.0789 84.7467 59.9793C85.4718 60.9912 86.0933 62.1816 86.4841 63.3588C87.2238 65.2714 86.7206 67.0648 85.2012 68.4516C84.345 69.209 83.3991 69.9148 82.3264 70.4287C78.9857 72.0777 75.4987 73.4644 71.8797 74.3584C61.3764 76.9469 51.4995 81.0255 41.4248 84.9312C31.7736 88.7234 22.0142 92.3938 12.3442 96.116C9.59614 97.1539 6.8341 98.4219 4.12369 99.6005C3.91193 99.6573 3.71895 99.7841 3.52611 99.9114C1.55448 100.741 1.12616 100.554 0.490028 98.4627Z" fill="black"/>
<path d="M22.2854 125.191C21.6665 124.201 21.6729 123.094 21.893 122.03C22.2797 120.268 22.6539 118.459 23.1946 116.706C25.2157 110.485 27.8561 104.501 30.6158 98.5858C36.4431 86.0185 42.855 73.7474 49.7195 61.656C56.7691 49.314 65.2669 38.0415 74.8432 27.5856C77.0303 25.1905 79.1582 22.7609 81.2982 20.3783C81.7635 19.8516 82.1816 19.3375 82.4643 18.508C81.5529 18.501 80.8585 18.7373 80.1893 19.0673C78.1812 20.0577 76.1134 21.0138 74.1555 22.1917C66.475 26.7121 59.4359 32.1161 52.5783 37.8232C35.2312 52.2709 20.3314 68.8771 7.50849 87.3893C4.96285 91.0869 2.34475 94.7028 -0.213485 98.3535C-0.571773 98.9018 -0.989753 99.4159 -1.40773 99.9299C-1.67487 100.253 -2.04884 100.554 -2.51388 100.327C-3.05119 100.018 -2.88145 99.5207 -2.69915 99.0698C-2.48228 98.5593 -2.25284 98.0958 -1.97626 97.6196C1.37742 91.0927 5.10172 84.8177 9.18438 78.7488C24.3331 56.0954 42.1433 35.644 62.2686 17.2356C65.3487 14.4001 68.4156 11.5179 71.4706 8.58866C72.4732 7.61645 73.3905 6.51632 74.2739 5.47555C74.5755 5.09319 74.8049 4.62971 75.1383 3.98754C74.5349 3.99845 74.1547 3.89934 73.8374 4.03463C72.0712 4.60839 70.2329 5.10098 68.564 5.84964C60.9972 9.28427 53.9765 13.6279 47.1385 18.2744C28.1823 31.2437 11.3942 46.6472 -3.59995 64.0323C-5.94756 66.7722 -8.2826 69.559 -10.6773 72.3115C-11.2589 72.9693 -11.8874 73.6403 -12.5285 74.2644C-12.7265 74.4682 -12.9591 74.7316 -13.2293 74.8542C-13.4996 74.9769 -13.971 75.1032 -14.0558 74.9752C-14.2254 74.7191 -14.3259 74.3439 -14.2474 74.0716C-14.1592 73.6465 -13.9046 73.2767 -13.6972 72.9196C-12.1824 70.6541 -10.7272 68.3544 -9.09298 66.1575C-3.2284 58.2542 3.42792 51.0432 10.2884 44.0287C21.8662 32.1823 34.4085 21.4844 47.5166 11.3888C50.6495 8.94115 53.7825 6.49354 56.9034 3.99894C57.9782 3.10785 58.9809 2.13565 59.9829 1.16358C60.3447 0.815363 60.6212 0.339275 61.1083 -0.29378C60.1028 -0.275641 59.4178 -0.19262 58.723 0.0438245C55.5807 1.13708 52.586 2.59281 49.676 4.1766C38.9287 10.0716 28.9445 17.119 19.3972 24.8534C10.469 32.0701 2.03406 39.808 -5.84786 48.1012C-7.1521 49.4557 -8.27722 50.9131 -9.44948 52.383C-9.66949 52.6932 -10.1032 52.9602 -9.85812 53.4976C-9.833 53.5914 -10.1253 53.8204 -10.2761 54.0116C-10.4678 53.862 -10.7663 53.6907 -10.7568 53.5374C-10.7505 53.1839 -10.6373 52.852 -10.4645 52.5545C-9.85161 51.6365 -9.23874 50.7184 -8.54106 49.9284C-5.35745 46.1606 -1.87218 42.7643 1.71987 39.3896C13.7783 28.0173 26.6568 17.6314 40.7542 8.77837C45.3836 5.87954 50.0972 3.10891 55.0561 0.87557C56.3601 0.274898 57.7367 -0.244688 59.0657 -0.751577C59.6189 -0.950055 60.3039 -1.03308 60.9073 -1.04399C61.6644 -1.04589 62.0636 -0.499536 61.7553 0.23642C61.5384 0.746791 61.262 1.22293 60.9133 1.61784C59.9233 2.63694 58.8987 3.71554 57.7768 4.61918C52.868 8.54773 47.9467 12.4294 43.0253 16.3111C27.6391 28.2735 13.3022 41.5126 0.325785 56.2465C-3.70948 60.7954 -7.55316 65.4936 -11.0134 70.4917C-11.2208 70.8488 -11.4879 71.1717 -11.5634 71.6442C-11.2491 71.3087 -10.982 70.9859 -10.6677 70.6504C-6.26167 65.5999 -1.98744 60.4345 2.55063 55.4996C17.2964 39.6383 33.6821 25.7497 51.9248 14.0772C57.0095 10.8051 62.2512 7.74219 67.7502 5.26363C69.5953 4.4175 71.5026 3.80591 73.4444 3.13483C73.8564 2.97417 74.3526 2.94173 74.8274 3.01553C75.6568 3.09481 76.1155 3.67544 75.8674 4.44549C75.6976 4.9433 75.4332 5.46642 75.0845 5.86139C74.1322 7.02116 73.1327 8.19354 72.0611 9.28475C67.8405 13.3304 63.6073 17.3292 59.327 21.3406C39.3271 40.2179 21.8438 61.1348 7.02177 84.2529C5.77408 86.1955 4.59862 88.2192 3.36347 90.2087C3.0869 90.6849 2.75062 91.1268 2.46148 91.5561C2.53374 91.6372 2.59344 91.6715 2.71285 91.74C2.93284 91.4298 3.15284 91.1195 3.3854 90.8562C7.38299 85.4126 11.2017 79.8667 15.3313 74.5386C29.0182 56.8 44.9174 41.283 63.1849 28.1968C67.6788 24.9825 72.2453 21.8492 77.2356 19.3562C78.574 18.6961 79.9632 18.2234 81.3267 17.657C81.55 17.5469 81.7983 17.5306 81.9991 17.5271C83.1808 17.4114 83.7243 18.1201 83.2561 19.2004C82.9353 19.8894 82.4607 20.5694 82.0086 21.1428C80.7891 22.6254 79.5571 24.0611 78.2654 25.4626C73.8688 30.3595 69.5319 35.2906 65.4585 40.4527C59.8897 47.5732 54.7635 55.0279 50.247 62.8716C41.5724 78.0106 33.5418 93.4796 26.5609 109.472C25.1212 112.772 23.9802 116.244 22.8139 119.622C22.1916 121.447 21.8174 123.256 22.2854 125.191Z" fill="#F7D046"/>
</svg>
