<svg width="168" height="214" viewBox="0 0 168 214" fill="none" xmlns="http://www.w3.org/2000/svg">
<path d="M64.1229 196.017C64.5007 196.731 64.8036 197.317 65.1736 197.897C67.1596 200.863 69.833 202.983 72.954 204.742C77.3209 207.163 82.0249 208.492 86.8979 209.274C94.9496 210.538 103.04 210.191 110.996 208.713C122.798 206.536 133.734 202.198 143.883 195.897C149.57 192.341 154.758 188.279 159.081 183.196C160.648 181.36 162.006 179.402 163.293 177.382C164.027 176.198 164.411 174.768 164.866 173.4C165.039 172.921 165.211 172.442 165.746 172.41C166.15 172.453 166.697 172.621 166.98 172.872C167.621 173.504 167.672 174.373 167.382 175.128C166.873 176.699 166.5 178.331 165.644 179.722C164.306 182.014 162.76 184.183 161.004 186.232C157.824 190.242 153.87 193.627 149.62 196.561C134.743 206.764 118.334 212.633 100.225 213.576C92.1389 213.99 84.1776 213.123 76.5645 210.224C69.9106 207.671 64.2617 203.985 60.8469 197.283C60.2538 197.453 59.731 197.685 59.205 197.85C52.5775 200.255 45.7147 202.072 38.658 202.894C31.802 203.703 24.9611 203.641 18.2803 201.759C16.1657 201.148 14.1063 200.332 12.1724 199.374C2.76659 194.504 -1.2468 185.627 1.08798 175.299C1.93834 171.562 3.47619 168.119 5.35623 164.79C9.06109 158.336 13.8905 152.752 19.2149 147.609C20.6721 146.182 22.2036 144.884 23.7274 143.454C24.0453 143.167 24.2967 142.883 24.7401 142.455C24.1192 142.157 23.5649 141.854 23.0813 141.615C18.3923 139.413 14.1312 136.517 10.7452 132.562C6.49867 127.653 4.14913 121.962 4.16044 115.392C4.19737 111.501 5.05546 107.898 6.58557 104.321C8.99842 98.6808 12.6691 93.9052 16.9684 89.5602C17.5383 88.9903 18.1076 88.4201 18.8065 87.775C18.311 87.3352 17.8197 86.9625 17.3949 86.5852C12.9528 82.8949 9.73547 78.3939 8.52142 72.6342C7.6035 68.4662 7.96203 64.3557 9.12673 60.2648C10.6244 55.0142 13.2339 50.4347 16.5314 46.15C21.0702 40.1821 26.5361 35.1651 32.6475 30.8465C33.095 30.4847 33.6096 30.1188 34.1872 29.6827C33.6247 29.247 33.204 28.9368 32.7127 28.5641C27.6021 24.9126 22.68 21.0499 18.3865 16.4791C16.3851 14.3855 14.5766 12.1473 12.8302 9.83801C11.5245 8.17285 10.5368 6.22072 10.0089 4.10708C9.58007 2.52399 9.72058 1.51031 10.388 0.330975C10.4583 0.393959 10.596 0.452313 10.596 0.452313C10.5856 2.53131 11.4944 4.28682 12.5998 5.96432C14.2946 8.54419 16.3709 10.7673 18.5731 12.8481C24.1868 18.2118 30.3673 22.9385 36.7944 27.3154C36.9318 27.3742 37.0696 27.4335 37.3488 27.6178C37.7374 27.3934 38.1927 27.1653 38.6448 26.8701C49.9721 20.0966 62.174 15.6173 75.1939 13.6358C82.1006 12.5549 89.0596 12.3424 95.9209 13.8781C98.3651 14.4029 100.625 15.2069 102.838 16.349C104.501 17.2556 105.975 18.3745 107.198 19.7765C109.868 22.9691 110.483 26.5525 108.969 30.3962C107.922 33.0725 106.1 35.125 103.932 36.9965C99.4671 40.8146 94.3096 43.1327 88.6954 44.5388C76.1395 47.5645 63.9937 46.2092 52.4574 40.4606C47.8975 38.1846 43.5068 35.3625 39.0651 32.8114C38.5778 32.5048 38.0901 32.1987 37.6024 31.8926C37.4063 31.971 37.2731 31.9792 37.1435 32.0541C29.7323 37.0529 23.1113 42.9431 17.9881 50.353C15.0876 54.5475 12.8699 58.9696 11.9658 64.0509C10.5215 72.448 13.9997 80.2183 21.5396 85.2662C21.9247 84.9751 22.4388 84.6097 22.8868 84.2474C31.782 77.1496 41.5149 71.7443 52.448 68.4799C56.9933 67.1372 61.5623 66.1951 66.3206 66.1805C69.0675 66.1508 71.8258 66.3223 74.3651 67.3104C75.8035 67.8282 77.2533 68.5463 78.4486 69.4806C81.2553 71.5929 82.1851 74.8219 81.1815 78.2335C80.5579 80.1473 79.5177 81.818 78.1983 83.3044C75.9369 85.8514 73.1723 87.826 70.1827 89.4114C63.1675 93.1802 55.6364 95.0362 47.7466 95.3711C38.9215 95.7617 30.5199 94.2508 22.6273 90.0282C22.4895 89.9689 22.3522 89.91 22.0771 89.7928C21.7591 90.0797 21.3741 90.3708 21.0561 90.6578C17.4393 94.0904 14.1806 97.9039 11.6924 102.274C9.74942 105.675 8.42008 109.24 7.9826 113.153C7.36129 118.486 8.65697 123.369 11.6658 127.748C13.9469 131.165 16.9274 133.938 20.4731 136.073C22.4891 137.293 24.6237 138.239 26.6986 139.322C27.5992 139.804 28.3255 139.627 29.1581 138.974C34.79 134.484 40.7207 130.511 46.9462 126.99C56.4081 121.534 66.3225 116.923 76.8711 113.949C82.0135 112.504 87.1833 111.526 92.5465 111.542C95.2305 111.584 97.8633 111.896 100.344 113.022C104.341 114.862 105.833 118.528 104.267 122.642C103.867 123.806 103.263 124.914 102.517 125.897C101.335 127.442 100.079 128.857 98.681 130.147C95.5669 133.013 91.9496 135.307 88.1744 137.207C74.9689 143.958 60.9554 147.272 46.0435 146.751C40.5348 146.543 35.0529 145.662 29.7941 144.031C29.0436 143.807 28.4346 143.71 27.7356 144.354C21.9313 149.325 16.4773 154.542 11.9508 160.711C9.34399 164.217 7.08303 167.904 5.51414 171.952C4.58077 174.287 3.92155 176.739 3.73499 179.231C3.1771 185.632 5.49105 190.722 10.5505 194.645C14.2025 197.444 18.4431 198.867 22.9154 199.673C28.8767 200.727 34.8294 200.507 40.8054 199.548C46.9816 198.577 52.9133 196.884 58.7469 194.66C59.0767 194.574 59.3358 194.424 59.658 194.204C59.6347 193.803 59.6812 193.465 59.5945 193.135C58.8924 189.222 59.2715 185.446 60.7974 181.802C61.7938 179.397 62.9243 176.984 64.3372 174.822C70.4252 165.611 78.6722 158.887 88.7987 154.464C91.1519 153.453 93.6542 152.7 96.1931 152.549C96.9942 152.502 97.7957 152.454 98.6014 152.473C103.58 152.78 106.199 156.244 105.416 161.117C105.068 163.149 104.24 165.008 103.204 166.745C101.626 169.52 99.561 171.99 97.2872 174.336C91.6056 180.238 84.9842 184.989 77.8477 188.966C73.8918 191.212 69.7124 193.069 65.6786 195.12C65.2347 195.548 64.7124 195.78 64.1229 196.017ZM40.5801 30.1064C42.2508 31.1466 43.7125 32.0654 45.2422 32.9801C50.1753 35.9039 55.1672 38.6904 60.6341 40.4436C71.1549 43.7725 81.6893 43.9499 92.1348 40.3794C96.0121 39.076 99.5825 37.1216 102.563 34.2624C104.024 32.9021 105.276 31.4202 106.033 29.4981C107.077 26.7548 106.792 24.2245 104.72 22.0686C103.722 21.0559 102.589 20.0506 101.28 19.458C99.4173 18.5636 97.4286 17.8104 95.3887 17.3282C89.612 15.9963 83.7183 16.0788 77.8642 16.8289C65.0911 18.4604 53.141 22.6568 41.9939 29.084C41.6089 29.3751 41.228 29.7333 40.5801 30.1064ZM31.977 141.287C32.457 141.459 32.665 141.581 32.936 141.632C36.9525 142.667 41.012 143.297 45.1138 143.522C55.5351 144.041 65.6991 142.499 75.5551 139.164C82.1903 136.893 88.4513 133.973 94.0285 129.687C95.8233 128.306 97.4684 126.666 98.9761 124.968C99.9187 123.907 100.577 122.594 101.099 121.222C101.853 119.234 101.085 117.603 99.2183 116.642C98.3182 116.159 97.3633 115.881 96.3455 115.673C93.4257 115.043 90.4822 115.15 87.5556 115.526C83.0961 116.059 78.7315 117.056 74.4609 118.516C59.3411 123.505 45.5813 131.093 32.806 140.568C32.6135 140.713 32.358 140.929 31.977 141.287ZM24.8929 87.5472C25.3094 87.7904 25.5927 88.0418 25.9344 88.1554C27.5143 88.7991 29.0358 89.5796 30.674 90.0856C40.3819 93.2621 50.1617 93.1493 59.9201 90.4238C64.6662 89.0692 69.0417 87.1335 72.9491 84.0855C74.7438 82.7049 76.3264 81.136 77.4802 79.1236C79.2936 75.7983 78.4551 72.9661 75.0668 71.2238C73.1999 70.2621 71.1008 69.9177 69.0146 69.7741C64.4328 69.3758 59.9227 70.1806 55.5029 71.3814C44.4876 74.383 34.6836 79.7253 25.7843 86.7571C25.5247 86.9063 25.2738 87.1891 24.8929 87.5472ZM63.0093 193.066C63.4692 192.905 63.7985 192.818 64.0618 192.735C73.5323 188.552 82.4759 183.395 90.3893 176.691C93.7078 173.879 96.8137 170.879 99.279 167.247C100.39 165.639 101.355 163.838 101.983 161.992C103.356 158.022 101.546 155.784 97.3304 155.9C94.6543 155.992 92.1524 156.744 89.7363 157.826C80.7922 161.844 73.4367 167.779 67.7442 175.759C65.6401 178.699 64.0192 181.879 63.1575 185.416C62.5653 187.864 62.4454 190.352 63.0093 193.066Z" fill="black" fill-opacity="0.2"/>
</svg>
