<svg width="41" height="54" viewBox="0 0 41 54" fill="none" xmlns="http://www.w3.org/2000/svg">
<path d="M16.9017 49.1C16.8017 47.5 16.7017 45.9 16.5017 44.3C16.0017 41 14.6017 38.2 12.0017 36.1C9.30169 33.9 6.70169 31.6 3.20169 30.9C2.70169 30.8 2.10169 30.5 1.80169 30.1C1.40169 29.5 0.801692 28.7 0.901692 28.1C1.00169 27.5 1.80169 26.7 2.50169 26.6C11.7017 24.9 16.0017 18.5 18.5017 10.3C19.1017 8.30004 19.4017 6.10004 19.8017 4.00004C20.1017 3.30004 20.0017 2.60004 20.3017 2.00004C20.6017 1.50004 21.2017 0.900037 21.6017 1.00004C22.0017 1.00004 22.5017 1.70004 22.8017 2.20004C23.0017 2.60004 22.9017 3.10004 22.9017 3.60004C22.8017 5.70004 22.7017 7.70004 22.6017 9.80004C22.5017 12.1 22.3017 14.4 22.3017 16.7C22.2017 20.5 24.6017 22.8 27.6017 24.3C29.5017 25.2 31.6017 25.7 33.9017 25.4C35.3017 25.2 36.7017 25.6 38.2017 25.8C38.7017 25.9 39.2017 26 39.5017 26.3C39.9017 26.8 40.4017 27.5 40.4017 28C40.4017 28.9 39.5017 29 38.7017 28.9C37.4017 28.8 36.2017 28.7 34.9017 28.5C32.5017 28.2 30.3017 28.8 28.1017 29.6C27.1017 30 26.1017 30.8 25.6017 31.7C24.5017 33.4 23.4017 35.1 22.9017 37C21.7017 41.4 20.9017 45.9 19.9017 50.3C19.7017 51.2 19.7017 52.1 19.3017 52.9C19.1017 53.4 18.4017 54 18.0017 54C17.6017 54 16.9017 53.3 16.9017 52.8C16.8017 51.6 16.9017 50.3 16.9017 49.1Z" fill="black" style="opacity: 0.2"/>
</svg>
