<svg width="103" height="45" viewBox="0 0 103 45" fill="none" xmlns="http://www.w3.org/2000/svg">
<path d="M91.7661 43.1642C93.9141 42.5707 96.1034 41.4706 98.0207 39.8751C101.573 36.8895 102.763 32.9959 102.22 28.4597C102.092 27.5119 101.721 26.6122 101.253 25.7723C100.546 24.5432 99.7336 23.4347 98.6839 22.4883C97.0665 21.0243 95.3255 19.7158 93.3618 18.7975C91.6664 17.9977 89.9356 17.2672 88.1769 16.6328C85.3183 15.6202 82.406 14.7118 79.5295 13.734C78.2385 13.3001 76.9296 12.901 75.5568 12.7546C75.4088 12.7434 75.2528 12.7056 75.0968 12.6679C67.6539 10.8406 60.2111 9.01341 52.7602 7.15962C47.8157 5.93598 42.8808 4.65111 37.9806 3.38436C33.1756 2.14553 28.3328 1.15125 23.369 0.776533C20.5611 0.561651 17.7333 0.556561 14.9355 0.919759C12.2247 1.28445 9.75048 2.21362 7.45194 3.69745C3.25861 6.39189 1.05179 10.259 0.823093 15.2722C0.603877 20.2243 2.58956 24.2164 6.23809 27.4491C7.5978 28.6459 9.18726 29.5665 10.8134 30.3301C12.9154 31.3208 15.116 32.0768 17.2998 32.78C23.7132 34.8171 30.2274 36.4445 36.833 37.7232C44.0202 39.108 51.1802 40.589 58.3498 42.0091C62.2555 42.7768 66.1522 43.6061 70.1409 43.9987C72.9396 44.2748 75.7389 44.4632 78.5634 44.7311C82.9696 45.1661 87.2855 44.4966 91.7661 43.1642Z" fill="black"/>
<path d="M112.328 26.2548C110.311 20.2681 107.107 15.7569 102.345 12.4105C99.1352 10.1605 95.7306 8.24688 92.1032 6.77022C84.5871 3.65549 77.0328 0.705475 69.3573 -1.96186C66.8867 -2.82797 64.3963 -3.56561 61.9241 -4.3396C61.0639 -4.58614 60.1938 -4.76846 59.3049 -4.9143C58.797 -4.99771 58.2972 -4.96147 57.8146 -4.86964C56.9589 -4.72068 56.2998 -4.23706 55.8917 -3.43608C55.6877 -3.03557 55.547 -2.62466 55.4423 -2.19454C55.178 -1.22536 54.9678 -0.273316 54.7393 0.715025C53.1908 7.12897 51.6419 13.543 50.1297 19.9759C49.2831 23.5722 48.5086 27.2067 47.6073 30.8203C46.5634 35.0286 45.3565 39.197 43.9142 43.2875C43.8673 43.4242 43.8204 43.5614 43.7735 43.6982C43.4533 44.7769 43.6906 45.5261 44.6008 46.2146C44.9251 46.4784 45.2953 46.6971 45.6293 46.8967C49.5553 49.3166 53.7149 51.1439 58.1905 52.2599C63.908 53.6855 69.6347 55.0464 75.4762 55.9132C81.4171 56.8097 87.3654 56.9707 93.3326 56.2406C96.4345 55.8687 99.4132 55.1081 102.164 53.5345C102.676 53.2501 103.16 52.9747 103.609 52.5878C110.921 46.6994 114.407 39.183 113.047 29.5688C112.86 28.3151 112.492 27.0579 112.328 26.2548Z" fill="#EA552B"/>
<path d="M36.0836 29.5844C35.6969 29.9109 35.2978 30.226 34.9111 30.5526C32.3054 32.7265 29.4343 34.5422 26.4215 36.1134C26.1675 36.2435 25.8999 36.3384 25.6312 36.4095C25.5379 36.4373 25.358 36.3854 25.3187 36.3036C25.2557 36.2228 25.3073 36.0656 25.3084 35.8389C25.6087 36.1839 25.8268 36.0434 26.0336 35.9153C28.5911 34.4708 31.1104 32.9683 33.4497 31.1634C34.3625 30.4567 35.2382 29.7159 36.1386 28.9978C36.332 28.8345 36.4533 28.6505 36.5365 28.4085C37.4658 25.5548 38.6481 22.7976 40.2048 20.2033C41.1354 18.6254 42.165 17.1387 43.4633 15.8313C43.6893 15.607 43.9399 15.4056 44.2165 15.2507C44.6886 14.9802 45.1125 15.1887 45.1857 15.734C45.2262 16.09 45.1858 16.4853 45.1207 16.8577C44.9533 17.8187 44.5813 18.705 44.1621 19.5934C43.4631 21.066 42.5931 22.4267 41.6264 23.7438C40.8149 24.8396 39.9528 25.8661 39.0175 26.8479C38.4881 27.4071 37.9103 27.9445 37.3437 28.4694C37.1515 28.6565 37.0077 28.8653 36.9256 29.1312C36.4548 30.6775 36.0559 32.2447 35.8358 33.84C35.7112 34.7038 35.6462 35.5771 35.7115 36.4566C35.7521 37.0631 35.8399 37.6674 36.0558 38.2306C36.3921 39.0867 36.9757 39.67 37.8302 39.9793C38.4082 40.1932 38.9916 40.2754 39.5954 40.2855C40.6252 40.3014 41.6112 40.1401 42.605 39.8949C45.0131 39.2915 47.2356 38.2665 49.3266 36.9613C49.9359 36.5895 50.4957 36.1721 51.0927 35.789C51.2186 35.7001 51.2961 35.5895 51.3242 35.4333C51.8893 32.3805 53.0792 29.5395 54.4267 26.7753C55.7428 24.0959 57.2659 21.5388 58.8993 19.0604C60.0916 17.2687 61.3327 15.4987 62.5734 13.7288C63.3604 12.6101 64.2203 11.536 65.1676 10.5656C65.4498 10.2793 65.7693 10.0271 66.0894 9.79891C66.238 9.68522 66.4245 9.62961 66.6 9.58633C66.9741 9.49888 67.3238 9.639 67.4825 9.98995C67.6142 10.2704 67.7246 10.5996 67.7392 10.909C67.7528 11.445 67.7312 11.9945 67.6495 12.5107C67.4193 14.1422 66.8898 15.703 66.2998 17.2306C65.2336 19.9351 63.8396 22.4748 62.2267 24.8807C60.5364 27.3972 58.6601 29.7428 56.5628 31.9069C55.1868 33.325 53.6996 34.6404 52.1124 35.8409C51.9752 35.9421 51.8505 36.0549 51.8246 36.2584C51.6742 37.3262 51.6069 38.4024 51.7993 39.467C51.8511 39.811 51.9501 40.1523 52.0603 40.4816C52.4843 41.6916 53.3266 42.4906 54.5509 42.8673C55.3672 43.1188 56.2081 43.1427 57.0559 43.0586C58.0564 42.9567 59.0267 42.7123 59.9812 42.3855C62.1813 41.6358 64.2103 40.5239 66.1494 39.2607C69.4084 37.1427 72.3648 34.6316 75.0459 31.7985C75.1696 31.6623 75.2787 31.4669 75.329 31.2858C76.6097 26.1157 78.7239 21.3036 81.2842 16.6752C81.8832 15.5884 82.5541 14.5225 83.3118 13.5362C83.7245 13.0058 84.1742 12.5097 84.7361 12.1399C84.8967 12.0377 85.0936 11.9458 85.2802 11.8902C85.875 11.7098 86.3719 11.9629 86.5307 12.5642C86.6047 12.8831 86.6567 13.2266 86.6249 13.5619C86.5692 14.1246 86.4657 14.6895 86.3253 15.2201C85.8522 16.9693 85.1137 18.6106 84.3024 20.2072C82.8074 23.1089 81.0204 25.8322 78.9771 28.3876C78.0719 29.5115 77.1067 30.6017 76.177 31.7027C76.0644 31.8268 75.9657 31.9861 75.9264 32.1548C75.5658 33.7794 75.3252 35.4475 75.428 37.1122C75.4954 38.2902 75.7261 39.4128 76.2842 40.4505C76.673 41.1733 77.1869 41.7832 77.8719 42.255C78.6905 42.8041 79.5754 43.0051 80.5434 42.9638C81.3932 42.9275 82.2006 42.7381 83.0029 42.4533C84.6431 41.8707 86.1409 41.0197 87.5615 40.053C90.0595 38.3488 92.3075 36.369 94.4163 34.1923C94.7772 33.8192 95.1256 33.4345 95.4981 33.0492C95.6327 32.9003 95.6845 32.7431 95.663 32.5415C95.3994 27.9737 96.5128 23.7644 98.9078 19.8945C99.9634 18.204 101.24 16.6949 102.864 15.5047C103.286 15.1885 103.771 14.9295 104.245 14.7065C104.523 14.5754 104.862 14.5014 105.169 14.4883C105.771 14.4507 106.249 14.7999 106.395 15.39C106.483 15.7678 106.526 16.1713 106.461 16.5438C106.351 17.2162 106.206 17.902 105.988 18.5433C105.441 20.2241 104.616 21.7855 103.742 23.3014C101.785 26.6877 99.4718 29.7915 96.8895 32.7157C96.6761 32.9513 96.6043 33.1806 96.6434 33.5131C96.9339 35.6468 97.8159 37.529 99.092 39.2516C100.103 40.6154 101.285 41.8408 102.5 43.0293C103.368 43.8746 104.259 44.695 105.172 45.4908C105.641 45.9003 106.156 46.2835 106.67 46.6434C106.976 46.8565 107.315 47.0332 107.761 46.9662C107.571 47.1773 107.383 47.2091 107.191 47.1457C106.867 47.052 106.543 46.9588 106.252 46.8041C105.367 46.3532 104.58 45.7189 103.827 45.0712C102.176 43.6629 100.625 42.143 99.1542 40.5603C97.4833 38.7477 96.3205 36.6749 95.8726 34.2138C95.8566 34.1308 95.8296 34.0603 95.7881 33.9309C95.652 34.0559 95.551 34.1679 95.4486 34.2554C93.7701 36.0322 91.9919 37.6943 90.0753 39.1828C88.4553 40.4441 86.7591 41.5899 84.9201 42.4671C84.1218 42.847 83.31 43.1917 82.4443 43.3954C81.8712 43.5271 81.2968 43.6352 80.7063 43.6604C78.5827 43.7746 76.9544 42.8661 75.8165 41.0664C75.2158 40.1264 74.9067 39.0903 74.7601 37.9995C74.5575 36.4699 74.6631 34.951 74.9114 33.4499C74.9293 33.3299 74.9472 33.2098 74.9651 33.0898C74.9641 33.0661 74.9392 33.0434 74.9246 32.9841C74.5403 33.3585 74.1559 33.7325 73.7825 34.0941C70.5903 37.116 67.1321 39.7794 63.2168 41.7708C61.9812 42.4078 60.6931 42.9274 59.3506 43.3066C58.3703 43.5871 57.3744 43.7845 56.3435 43.745C55.7869 43.7331 55.228 43.6735 54.677 43.5299C53.0254 43.1234 51.9459 42.0603 51.4194 40.4372C51.0864 39.4021 51.0234 38.32 51.0906 37.2438C51.1041 37.0287 51.1175 36.8132 51.1287 36.5504C50.9681 36.653 50.8409 36.7177 50.7263 36.7941C48.5027 38.2961 46.1364 39.5299 43.5461 40.2842C42.414 40.6066 41.2662 40.8465 40.0857 40.8967C39.3414 40.9165 38.6174 40.864 37.8966 40.6322C36.6363 40.2449 35.8042 39.4099 35.4015 38.1512C35.1664 37.4338 35.0842 36.6981 35.0728 35.9592C35.0535 34.8034 35.177 33.6654 35.4084 32.5585C35.5803 31.6926 35.8117 30.8361 36.0072 29.9693C36.0364 29.8368 36.078 29.7159 36.1072 29.5834C36.132 29.6062 36.1196 29.5948 36.0836 29.5844ZM52.1077 34.9945C52.2236 34.9418 52.2696 34.916 52.3157 34.8902C53.4794 33.982 54.5683 33.0056 55.6197 31.971C57.5855 30.0271 59.3302 27.9017 60.9387 25.651C62.6345 23.2536 64.1003 20.7347 65.2623 18.0499C66.0087 16.3248 66.622 14.5459 66.9479 12.6837C67.032 12.2151 67.0682 11.7246 67.0804 11.2352C67.0938 11.02 67.0464 10.7717 66.989 10.5595C66.917 10.2883 66.8078 10.2334 66.5664 10.3747C66.336 10.5038 66.1187 10.6682 65.9267 10.8552C64.7597 11.9424 63.7911 13.2118 62.8715 14.5269C61.552 16.3836 60.2695 18.2746 59.0229 20.1761C57.4124 22.6295 55.9477 25.1722 54.6899 27.8373C53.6574 30.0037 52.7685 32.2118 52.1931 34.5496C52.174 34.6458 52.1448 34.7782 52.1077 34.9945ZM96.5535 31.8595C96.6896 31.7345 96.7569 31.66 96.8356 31.5729C99.2454 28.7636 101.41 25.7739 103.232 22.5363C104.04 21.1185 104.775 19.6562 105.269 18.085C105.433 17.5534 105.536 16.9886 105.628 16.4361C105.677 16.2075 105.641 15.9467 105.594 15.7222C105.547 15.4737 105.412 15.3723 105.176 15.3823C105.034 15.3883 104.87 15.4191 104.754 15.4719C104.407 15.6297 104.049 15.8 103.739 16.0158C102.353 16.9693 101.217 18.1983 100.254 19.5867C97.8053 23.0895 96.5839 27.0168 96.5387 31.2995C96.5229 31.4673 96.5419 31.6213 96.5535 31.8595ZM76.4148 30.2378C76.4274 30.2494 76.4632 30.2597 76.4756 30.2708C76.5095 30.2337 76.5554 30.2079 76.5894 30.1708C79.2928 27.0625 81.6654 23.718 83.5851 20.047C84.3989 18.4979 85.116 16.9053 85.5922 15.2276C85.744 14.6844 85.8361 14.132 85.9157 13.5682C85.9515 13.3282 85.9031 13.0561 85.856 12.8076C85.8111 12.6068 85.6894 12.5405 85.4919 12.6085C85.2825 12.689 85.087 12.8046 84.905 12.9555C84.1751 13.5352 83.6562 14.3084 83.1368 15.0818C82.0667 16.7134 81.1317 18.4464 80.2806 20.2118C78.7716 23.3047 77.4542 26.4613 76.5004 29.7929C76.495 29.9245 76.4667 30.0807 76.4148 30.2378ZM44.6348 15.5906C44.2952 15.6647 44.0693 15.8889 43.8546 16.1008C43.1442 16.8346 42.5091 17.6606 41.9224 18.5084C40.0082 21.2968 38.591 24.3383 37.4526 27.5228C37.4212 27.6076 37.4144 27.7152 37.3751 27.8838C37.6921 27.5841 37.9304 27.3713 38.1676 27.1346C39.7256 25.5658 41.1351 23.8601 42.312 21.9856C43.1482 20.6621 43.9113 19.2941 44.3833 17.7715C44.5384 17.2998 44.6215 16.8074 44.717 16.3264C44.7889 16.0968 44.7888 15.8464 44.6348 15.5906Z" fill="black"/>
</svg>
