<svg width="109" height="90" viewBox="0 0 109 90" fill="none" xmlns="http://www.w3.org/2000/svg">
<g opacity="0.5" clip-path="url(#clip0_247:17)">
<path d="M94.7661 65.1642C96.9141 64.5707 99.1034 63.4706 101.021 61.8751C104.573 58.8895 105.763 54.9959 105.22 50.4597C105.092 49.5119 104.721 48.6122 104.253 47.7723C103.546 46.5432 102.734 45.4347 101.684 44.4883C100.067 43.0243 98.3255 41.7158 96.3618 40.7975C94.6664 39.9977 92.9356 39.2672 91.1769 38.6328C88.3183 37.6202 85.406 36.7118 82.5295 35.734C81.2385 35.3001 79.9296 34.901 78.5568 34.7546C78.4088 34.7434 78.2528 34.7056 78.0968 34.6679C70.6539 32.8406 63.2111 31.0134 55.7602 29.1596C50.8157 27.936 45.8808 26.6511 40.9806 25.3844C36.1756 24.1455 31.3328 23.1512 26.369 22.7765C23.5611 22.5617 20.7333 22.5566 17.9355 22.9198C15.2247 23.2844 12.7505 24.2136 10.4519 25.6975C6.25861 28.3919 4.05179 32.259 3.82309 37.2722C3.60388 42.2243 5.58956 46.2164 9.23809 49.4491C10.5978 50.6459 12.1873 51.5665 13.8134 52.3301C15.9154 53.3208 18.116 54.0768 20.2998 54.78C26.7132 56.8171 33.2274 58.4445 39.833 59.7232C47.0202 61.108 54.1802 62.589 61.3498 64.0091C65.2555 64.7768 69.1522 65.6061 73.1409 65.9987C75.9396 66.2748 78.7389 66.4632 81.5634 66.7311C85.9696 67.1661 90.2855 66.4966 94.7661 65.1642Z" fill="#EE8DB9"/>
<mask id="mask0_247:17" style="mask-type:alpha" maskUnits="userSpaceOnUse" x="3" y="22" width="103" height="45">
<path d="M94.7661 65.1642C96.9141 64.5707 99.1034 63.4706 101.021 61.8751C104.573 58.8895 105.763 54.9959 105.22 50.4597C105.092 49.5119 104.721 48.6122 104.253 47.7723C103.546 46.5432 102.734 45.4347 101.684 44.4883C100.067 43.0243 98.3255 41.7158 96.3618 40.7975C94.6664 39.9977 92.9356 39.2672 91.1769 38.6328C88.3183 37.6202 85.406 36.7118 82.5295 35.734C81.2385 35.3001 79.9296 34.901 78.5568 34.7546C78.4088 34.7434 78.2528 34.7056 78.0968 34.6679C70.6539 32.8406 63.2111 31.0134 55.7602 29.1596C50.8157 27.936 45.8808 26.6511 40.9806 25.3844C36.1756 24.1455 31.3328 23.1512 26.369 22.7765C23.5611 22.5617 20.7333 22.5566 17.9355 22.9198C15.2247 23.2844 12.7505 24.2136 10.4519 25.6975C6.25861 28.3919 4.05179 32.259 3.82309 37.2722C3.60388 42.2243 5.58956 46.2164 9.23809 49.4491C10.5978 50.6459 12.1873 51.5665 13.8134 52.3301C15.9154 53.3208 18.116 54.0768 20.2998 54.78C26.7132 56.8171 33.2274 58.4445 39.833 59.7232C47.0202 61.108 54.1802 62.589 61.3498 64.0091C65.2555 64.7768 69.1522 65.6061 73.1409 65.9987C75.9396 66.2748 78.7389 66.4632 81.5634 66.7311C85.9696 67.1661 90.2855 66.4966 94.7661 65.1642Z" fill="black"/>
</mask>
<g mask="url(#mask0_247:17)">
<path d="M115.328 48.2548C113.311 42.2681 110.107 37.7569 105.345 34.4105C102.135 32.1605 98.7306 30.2469 95.1032 28.7702C87.5871 25.6555 80.0328 22.7055 72.3573 20.0381C69.8867 19.172 67.3963 18.4344 64.9241 17.6604C64.0639 17.4139 63.1938 17.2315 62.3049 17.0857C61.797 17.0023 61.2972 17.0385 60.8146 17.1304C59.9589 17.2793 59.2998 17.7629 58.8917 18.5639C58.6877 18.9644 58.547 19.3753 58.4423 19.8055C58.178 20.7746 57.9678 21.7267 57.7393 22.715C56.1908 29.129 54.6419 35.543 53.1297 41.9759C52.2831 45.5722 51.5086 49.2067 50.6073 52.8203C49.5634 57.0286 48.3565 61.197 46.9142 65.2875C46.8673 65.4242 46.8204 65.5614 46.7735 65.6982C46.4533 66.7769 46.6906 67.5261 47.6008 68.2146C47.9251 68.4784 48.2953 68.6971 48.6293 68.8967C52.5553 71.3166 56.7149 73.1439 61.1905 74.2599C66.908 75.6855 72.6347 77.0464 78.4762 77.9132C84.4171 78.8097 90.3654 78.9707 96.3326 78.2406C99.4345 77.8687 102.413 77.1081 105.164 75.5345C105.676 75.2501 106.16 74.9747 106.609 74.5878C113.921 68.6994 117.407 61.183 116.047 51.5688C115.86 50.3151 115.492 49.0579 115.328 48.2548Z" fill="#F7D046"/>
<mask id="mask1_247:17" style="mask-type:alpha" maskUnits="userSpaceOnUse" x="46" y="17" width="71" height="62">
<path d="M115.328 48.2548C113.311 42.2681 110.107 37.7569 105.345 34.4105C102.135 32.1605 98.7306 30.2469 95.1032 28.7702C87.5871 25.6555 80.0328 22.7055 72.3573 20.0381C69.8867 19.172 67.3963 18.4344 64.9241 17.6604C64.0639 17.4139 63.1938 17.2315 62.3049 17.0857C61.797 17.0023 61.2972 17.0385 60.8146 17.1304C59.9589 17.2793 59.2998 17.7629 58.8917 18.5639C58.6877 18.9644 58.547 19.3753 58.4423 19.8055C58.178 20.7746 57.9678 21.7267 57.7393 22.715C56.1908 29.129 54.6419 35.543 53.1297 41.9759C52.2831 45.5722 51.5086 49.2067 50.6073 52.8203C49.5634 57.0286 48.3565 61.197 46.9142 65.2875C46.8673 65.4242 46.8204 65.5614 46.7735 65.6982C46.4533 66.7769 46.6906 67.5261 47.6008 68.2146C47.9251 68.4784 48.2953 68.6971 48.6293 68.8967C52.5553 71.3166 56.7149 73.1439 61.1905 74.2599C66.908 75.6855 72.6347 77.0464 78.4762 77.9132C84.4171 78.8097 90.3654 78.9707 96.3326 78.2406C99.4345 77.8687 102.413 77.1081 105.164 75.5345C105.676 75.2501 106.16 74.9747 106.609 74.5878C113.921 68.6994 117.407 61.183 116.047 51.5688C115.86 50.3151 115.492 49.0579 115.328 48.2548Z" fill="#EA552B"/>
</mask>
<g mask="url(#mask1_247:17)">
<path d="M39.0836 51.5844C38.6969 51.9109 38.2978 52.226 37.9111 52.5526C35.3054 54.7265 32.4343 56.5422 29.4215 58.1134C29.1675 58.2435 28.8999 58.3384 28.6312 58.4095C28.5379 58.4373 28.358 58.3854 28.3187 58.3036C28.2557 58.2228 28.3073 58.0656 28.3084 57.8389C28.6087 58.1839 28.8268 58.0434 29.0336 57.9153C31.5911 56.4708 34.1104 54.9683 36.4497 53.1634C37.3625 52.4567 38.2382 51.7159 39.1386 50.9978C39.332 50.8345 39.4533 50.6505 39.5365 50.4085C40.4658 47.5548 41.6481 44.7976 43.2048 42.2033C44.1354 40.6254 45.165 39.1387 46.4633 37.8313C46.6893 37.607 46.9399 37.4056 47.2165 37.2507C47.6886 36.9802 48.1125 37.1887 48.1857 37.734C48.2262 38.09 48.1858 38.4853 48.1207 38.8577C47.9533 39.8187 47.5813 40.705 47.1621 41.5934C46.4631 43.066 45.5931 44.4267 44.6264 45.7438C43.8149 46.8396 42.9528 47.8661 42.0175 48.8479C41.4881 49.4071 40.9103 49.9445 40.3437 50.4694C40.1515 50.6565 40.0077 50.8653 39.9256 51.1312C39.4548 52.6775 39.0559 54.2447 38.8358 55.84C38.7112 56.7038 38.6462 57.5771 38.7115 58.4566C38.7521 59.0631 38.8399 59.6674 39.0558 60.2306C39.3921 61.0867 39.9757 61.67 40.8302 61.9793C41.4082 62.1932 41.9916 62.2754 42.5954 62.2855C43.6252 62.3014 44.6112 62.1401 45.605 61.8949C48.0131 61.2915 50.2356 60.2665 52.3266 58.9613C52.9359 58.5895 53.4957 58.1721 54.0927 57.789C54.2186 57.7001 54.2961 57.5895 54.3242 57.4333C54.8893 54.3805 56.0792 51.5395 57.4267 48.7753C58.7428 46.0959 60.2659 43.5388 61.8993 41.0604C63.0916 39.2687 64.3327 37.4987 65.5734 35.7288C66.3604 34.6101 67.2203 33.536 68.1676 32.5656C68.4498 32.2793 68.7693 32.0271 69.0894 31.7989C69.238 31.6852 69.4245 31.6296 69.6 31.5863C69.9741 31.4989 70.3238 31.639 70.4825 31.9899C70.6142 32.2704 70.7246 32.5996 70.7392 32.909C70.7528 33.445 70.7312 33.9945 70.6495 34.5107C70.4193 36.1422 69.8898 37.703 69.2998 39.2306C68.2336 41.9351 66.8396 44.4748 65.2267 46.8807C63.5364 49.3972 61.6601 51.7428 59.5628 53.9069C58.1868 55.325 56.6996 56.6404 55.1124 57.8409C54.9752 57.9421 54.8505 58.0549 54.8246 58.2584C54.6742 59.3262 54.6069 60.4024 54.7993 61.467C54.8511 61.811 54.9501 62.1523 55.0603 62.4816C55.4843 63.6916 56.3266 64.4906 57.5509 64.8673C58.3672 65.1188 59.2081 65.1427 60.0559 65.0586C61.0564 64.9567 62.0267 64.7123 62.9812 64.3855C65.1813 63.6358 67.2103 62.5239 69.1494 61.2607C72.4084 59.1427 75.3648 56.6316 78.0459 53.7985C78.1696 53.6623 78.2787 53.4669 78.329 53.2858C79.6097 48.1157 81.7239 43.3036 84.2842 38.6752C84.8832 37.5884 85.5541 36.5225 86.3118 35.5362C86.7245 35.0058 87.1742 34.5097 87.7361 34.1399C87.8967 34.0377 88.0936 33.9458 88.2802 33.8902C88.875 33.7098 89.3719 33.9629 89.5307 34.5642C89.6047 34.8831 89.6567 35.2266 89.6249 35.5619C89.5692 36.1246 89.4657 36.6895 89.3253 37.2201C88.8522 38.9693 88.1137 40.6106 87.3024 42.2072C85.8074 45.1089 84.0204 47.8322 81.9771 50.3876C81.0719 51.5115 80.1067 52.6017 79.177 53.7027C79.0644 53.8268 78.9657 53.9861 78.9264 54.1548C78.5658 55.7794 78.3252 57.4475 78.428 59.1122C78.4954 60.2902 78.7261 61.4128 79.2842 62.4505C79.673 63.1733 80.1869 63.7832 80.8719 64.255C81.6905 64.8041 82.5754 65.0051 83.5434 64.9638C84.3932 64.9275 85.2006 64.7381 86.0029 64.4533C87.6431 63.8707 89.1409 63.0197 90.5615 62.053C93.0595 60.3488 95.3075 58.369 97.4163 56.1923C97.7772 55.8192 98.1256 55.4345 98.4981 55.0492C98.6327 54.9003 98.6845 54.7431 98.663 54.5415C98.3994 49.9737 99.5128 45.7644 101.908 41.8945C102.963 40.204 104.24 38.6949 105.864 37.5047C106.286 37.1885 106.771 36.9295 107.245 36.7065C107.523 36.5754 107.862 36.5014 108.169 36.4883C108.771 36.4507 109.249 36.7999 109.395 37.39C109.483 37.7678 109.526 38.1713 109.461 38.5438C109.351 39.2162 109.206 39.902 108.988 40.5433C108.441 42.2241 107.616 43.7855 106.742 45.3014C104.785 48.6877 102.472 51.7915 99.8895 54.7157C99.6761 54.9513 99.6043 55.1806 99.6434 55.5131C99.9339 57.6468 100.816 59.529 102.092 61.2516C103.103 62.6154 104.285 63.8408 105.5 65.0293C106.368 65.8746 107.259 66.695 108.172 67.4908C108.641 67.9003 109.156 68.2835 109.67 68.6434C109.976 68.8565 110.315 69.0332 110.761 68.9662C110.571 69.1773 110.383 69.2091 110.191 69.1457C109.867 69.052 109.543 68.9588 109.252 68.8041C108.367 68.3532 107.58 67.7189 106.827 67.0712C105.176 65.6629 103.625 64.143 102.154 62.5603C100.483 60.7477 99.3205 58.6749 98.8726 56.2138C98.8566 56.1308 98.8296 56.0603 98.7881 55.9309C98.652 56.0559 98.551 56.1679 98.4486 56.2554C96.7701 58.0322 94.9919 59.6943 93.0753 61.1828C91.4553 62.4441 89.7591 63.5899 87.9201 64.4671C87.1218 64.847 86.31 65.1917 85.4443 65.3954C84.8712 65.5271 84.2968 65.6352 83.7063 65.6604C81.5827 65.7746 79.9544 64.8661 78.8165 63.0664C78.2158 62.1264 77.9067 61.0903 77.7601 59.9995C77.5575 58.4699 77.6631 56.951 77.9114 55.4499C77.9293 55.3299 77.9472 55.2098 77.9651 55.0898C77.9641 55.0661 77.9392 55.0434 77.9246 54.9841C77.5403 55.3585 77.1559 55.7325 76.7825 56.0941C73.5903 59.116 70.1321 61.7794 66.2168 63.7708C64.9812 64.4078 63.6931 64.9274 62.3506 65.3066C61.3703 65.5871 60.3744 65.7845 59.3435 65.745C58.7869 65.7331 58.228 65.6735 57.677 65.5299C56.0254 65.1234 54.9459 64.0603 54.4194 62.4372C54.0864 61.4021 54.0234 60.32 54.0906 59.2438C54.1041 59.0287 54.1175 58.8132 54.1287 58.5504C53.9681 58.653 53.8409 58.7177 53.7263 58.7941C51.5027 60.2961 49.1364 61.5299 46.5461 62.2842C45.414 62.6066 44.2662 62.8465 43.0857 62.8967C42.3414 62.9165 41.6174 62.864 40.8966 62.6322C39.6363 62.2449 38.8042 61.4099 38.4015 60.1512C38.1664 59.4338 38.0842 58.6981 38.0728 57.9592C38.0535 56.8034 38.177 55.6654 38.4084 54.5585C38.5803 53.6926 38.8117 52.8361 39.0072 51.9693C39.0364 51.8368 39.078 51.7159 39.1072 51.5834C39.132 51.6062 39.1196 51.5948 39.0836 51.5844ZM55.1077 56.9945C55.2236 56.9418 55.2696 56.916 55.3157 56.8902C56.4794 55.982 57.5683 55.0056 58.6197 53.971C60.5855 52.0271 62.3302 49.9017 63.9387 47.651C65.6345 45.2536 67.1003 42.7347 68.2623 40.0499C69.0087 38.3248 69.622 36.5459 69.9479 34.6837C70.032 34.2151 70.0682 33.7246 70.0804 33.2352C70.0938 33.02 70.0464 32.7717 69.989 32.5595C69.917 32.2883 69.8078 32.2334 69.5664 32.3747C69.336 32.5038 69.1187 32.6682 68.9267 32.8552C67.7597 33.9424 66.7911 35.2118 65.8715 36.5269C64.552 38.3836 63.2695 40.2746 62.0229 42.1761C60.4124 44.6295 58.9477 47.1722 57.6899 49.8373C56.6574 52.0037 55.7685 54.2118 55.1931 56.5496C55.174 56.6458 55.1448 56.7782 55.1077 56.9945ZM99.5535 53.8595C99.6896 53.7345 99.7569 53.66 99.8356 53.5729C102.245 50.7636 104.41 47.7739 106.232 44.5363C107.04 43.1185 107.775 41.6562 108.269 40.085C108.433 39.5534 108.536 38.9886 108.628 38.4361C108.677 38.2075 108.641 37.9467 108.594 37.7222C108.547 37.4737 108.412 37.3723 108.176 37.3823C108.034 37.3883 107.87 37.4191 107.754 37.4719C107.407 37.6297 107.049 37.8 106.739 38.0158C105.353 38.9693 104.217 40.1983 103.254 41.5867C100.805 45.0895 99.5839 49.0168 99.5387 53.2995C99.5229 53.4673 99.5419 53.6213 99.5535 53.8595ZM79.4148 52.2378C79.4274 52.2494 79.4632 52.2597 79.4756 52.2708C79.5095 52.2337 79.5554 52.2079 79.5894 52.1708C82.2928 49.0625 84.6654 45.718 86.5851 42.047C87.3989 40.4979 88.116 38.9053 88.5922 37.2276C88.744 36.6844 88.8361 36.132 88.9157 35.5682C88.9515 35.3282 88.9031 35.0561 88.856 34.8076C88.8111 34.6068 88.6894 34.5405 88.4919 34.6085C88.2825 34.689 88.087 34.8046 87.905 34.9555C87.1751 35.5352 86.6562 36.3084 86.1368 37.0818C85.0667 38.7134 84.1317 40.4464 83.2806 42.2118C81.7716 45.3047 80.4542 48.4613 79.5004 51.7929C79.495 51.9245 79.4667 52.0807 79.4148 52.2378ZM47.6348 37.5906C47.2952 37.6647 47.0693 37.8889 46.8546 38.1008C46.1442 38.8346 45.5091 39.6606 44.9224 40.5084C43.0082 43.2968 41.591 46.3383 40.4526 49.5228C40.4212 49.6076 40.4144 49.7152 40.3751 49.8838C40.6921 49.5841 40.9304 49.3713 41.1676 49.1346C42.7256 47.5658 44.1351 45.8601 45.312 43.9856C46.1482 42.6621 46.9113 41.2941 47.3833 39.7715C47.5384 39.2998 47.6215 38.8074 47.717 38.3264C47.7889 38.0968 47.7888 37.8464 47.6348 37.5906Z" fill="black"/>
</g>
</g>
</g>
<defs>
<clipPath id="clip0_247:17">
<rect width="93.7513" height="64.1456" fill="white" transform="translate(0 28.3137) rotate(-17.5783)"/>
</clipPath>
</defs>
</svg>
