<svg width="91" height="105" viewBox="0 0 91 105" fill="none" xmlns="http://www.w3.org/2000/svg">
<path d="M87.687 33.9629C88.394 37.7033 89.1645 41.4802 89.8281 45.259C90.4298 48.7068 90.8312 52.2083 90.6483 55.7327C90.3439 61.5085 88.7138 66.9445 86.2756 72.1693C83.497 78.1269 79.2588 82.8448 73.9186 86.655C70.0139 89.4122 65.9089 91.8221 61.7521 94.139C58.0377 96.2036 54.1996 98.0073 50.3817 99.8858C48.0795 101.011 45.8024 102.129 43.3951 102.961C41.582 103.607 39.769 104.253 37.8305 104.532C35.8605 104.793 33.9188 104.858 31.9586 104.555C31.4794 104.469 30.9751 104.391 30.496 104.305C27.2318 103.843 24.1913 102.813 21.2692 101.324C19.8048 100.567 18.3838 99.7711 17.0914 98.754C16.8175 98.5333 16.5253 98.3443 16.2698 98.0919C14.6533 96.4666 12.9683 94.8863 11.5255 93.1075C10.4416 91.7671 9.54476 90.3232 8.92167 88.699C7.8793 86.0109 6.86866 83.341 6.24533 80.5138C5.61362 77.5552 5.29579 74.566 5.23507 71.5347C5.17258 67.9958 5.22361 64.48 5.21788 60.9527C5.20395 58.0959 5.18333 55.2142 4.81711 52.3449C4.61475 50.6882 4.33058 49.0266 3.95293 47.4169C3.42158 45.2334 2.76499 43.0835 2.12677 40.9019C1.36153 38.2465 0.721512 35.5574 0.513919 32.7792C0.0284342 26.3596 1.77198 20.5456 5.49912 15.323C8.03284 11.7569 11.2896 8.98613 15.116 6.83804C19.5216 4.34763 24.2027 2.58537 29.1362 1.66446C33.0162 0.91889 36.9547 0.692311 40.9067 0.916602C47.3697 1.29679 53.7828 2.09139 60.0925 3.50182C62.9192 4.13455 65.6559 5.03203 68.2774 6.20096C73.8944 8.73267 78.1827 12.7165 81.3777 17.929C84.1785 22.4718 86.1547 27.3425 87.3127 32.5661C87.408 33.0218 87.56 33.489 87.687 33.9629Z" fill="#FFDDB6"/>
<path fill-rule="evenodd" clip-rule="evenodd" d="M21.5372 19.687C21.2632 18.6643 21.2296 17.7377 21.5233 16.8302C21.6551 16.4206 21.8871 15.9842 22.1709 15.6408C22.5781 15.1574 23.3311 15.0626 23.8287 15.5174C23.9373 15.622 24.1393 15.6748 24.3096 15.7094C24.4026 15.7337 24.4982 15.746 24.5913 15.758C24.7006 15.7721 24.8068 15.7858 24.9023 15.8179C26.2615 16.2824 27.4089 18.0602 27.2739 19.4598C27.1556 20.7213 25.907 22.0717 24.6716 22.2691C23.9503 22.3821 23.3242 22.1489 22.7698 21.6826C22.1386 21.1299 21.7311 20.4103 21.5372 19.687ZM42.3141 13.9862C41.4378 15.023 41.3563 16.2211 41.6654 17.475C41.8458 18.1484 42.1632 18.7318 42.6057 19.2815C43.3355 20.1019 44.339 20.3409 45.3573 19.9344C46.4008 19.5211 47.1119 18.7692 47.5741 17.7898C48.7774 15.1683 46.71 12.8618 44.2223 12.9937C43.4309 13.0453 42.8199 13.3694 42.3141 13.9862ZM58.0163 28.4123C57.7138 27.1834 57.7637 25.967 58.1908 24.7565C58.3777 24.2519 58.6281 23.7838 59.037 23.4069C59.3592 23.1067 59.6831 22.913 60.1623 22.9985C60.3008 23.0148 60.4578 22.9995 60.583 22.9659C62.2124 22.6362 63.7854 23.498 64.3634 25.0541C64.8629 26.4173 64.6828 27.7488 63.9351 28.965C63.4511 29.7631 62.7817 30.3702 61.952 30.7796C61.0471 31.2092 60.1839 31.093 59.3824 30.5057C58.651 29.9799 58.2185 29.267 58.0163 28.4123ZM55.3412 76.1269C55.0823 75.2606 55.0153 74.2092 55.2688 73.1521C55.328 72.8649 55.4814 72.572 55.6232 72.3009C55.6491 72.2514 55.6746 72.2024 55.6994 72.1546C55.8579 71.8447 56.0482 71.5532 56.2385 71.2616C57.0163 69.9571 58.3636 69.6763 59.5542 70.6137C60.0952 71.0302 60.6246 71.5032 60.568 72.2936C60.5577 72.3787 60.5973 72.4604 60.6387 72.5458C60.6645 72.599 60.6912 72.6534 60.7066 72.711C61.2729 74.3237 61.0712 75.8748 60.2651 77.374C59.9413 77.9687 59.4706 78.4156 58.8663 78.7647C57.9381 79.3075 57.0048 79.1298 56.3067 78.3277C55.8124 77.6849 55.5501 77.0066 55.3412 76.1269ZM69.374 42.2214C69.4079 42.3882 69.4432 42.5619 69.4792 42.7444C69.4865 42.7636 69.4941 42.7838 69.5018 42.8047C69.5096 42.8258 69.5177 42.8477 69.5261 42.8703L69.5291 42.8784L69.5296 42.8801L69.5301 42.8813C69.6156 43.1132 69.7245 43.4075 69.8584 43.6587C70.4363 44.8138 71.5634 45.3138 72.8222 45.0033C73.7054 44.7933 74.3765 44.2927 74.8488 43.5513C75.7134 42.1701 75.8851 40.7072 75.3137 39.176C74.704 37.6017 73.1962 36.8829 71.4616 37.321C69.8522 37.7255 68.8875 39.1335 69.1082 40.7586C69.1731 41.2291 69.2667 41.6917 69.374 42.2214ZM25.3611 72.0229C25.6753 73.1953 25.7122 74.3349 25.3468 75.4754C25.2684 75.6836 25.19 75.8917 25.0865 76.1066C24.0384 78.2053 21.8712 77.9305 20.764 76.7034C20.0343 75.8831 19.6918 74.9055 19.6682 73.8157C19.6682 73.7465 19.6683 73.6777 19.6685 73.6098L19.6686 73.6076L19.6685 73.6068C19.6694 73.2823 19.6703 72.9696 19.6496 72.6444C19.6411 71.711 19.8913 70.8419 20.5022 70.1168C21.452 68.9534 22.9212 68.8271 24.0684 69.8029C24.7564 70.3671 25.1089 71.1816 25.3611 72.0229ZM30.1126 87.7524C29.9125 89.0091 29.9646 90.3051 30.1618 91.2414C30.4174 92.2957 30.7364 92.9855 31.3293 93.495C32.0941 94.1455 33.0324 94.2417 33.9372 93.8121C34.6551 93.486 35.1174 92.9077 35.4462 92.2315C36.4694 90.1394 36.0564 87.4965 33.6551 85.9477C32.9371 85.4718 32.0957 85.5369 31.4062 86.0691C31.3809 86.0914 31.3546 86.1185 31.3276 86.1466C31.2618 86.2145 31.1917 86.287 31.1208 86.306C30.4079 86.5505 30.2093 87.1116 30.1126 87.7524ZM55.601 56.0605C55.3904 55.0743 55.4853 53.9261 55.9325 52.7903C56.1378 52.2541 56.4132 51.7793 57.0526 51.6615C57.1661 51.6311 57.2747 51.5258 57.377 51.4265L57.3772 51.4264C57.4105 51.3942 57.443 51.3625 57.475 51.3344C58.1944 50.7139 58.9975 50.6057 59.8224 51.0797C60.876 51.7064 61.4255 52.6552 61.5827 53.8428C61.703 54.6928 61.6348 55.5398 61.3711 56.359C61.0541 57.3796 60.3998 58.1431 59.4449 58.5861C58.5901 59.0023 57.7587 58.9043 56.9889 58.3353C56.2892 57.8277 55.8817 57.1081 55.601 56.0605ZM27.9156 53.1828C27.9335 53.3229 27.9513 53.4623 27.9671 53.6002C28.3363 54.6776 28.7989 55.7032 29.6289 56.4967C29.9996 56.8785 30.4254 57.1655 30.998 56.7982C31.0268 56.7725 31.0839 56.7631 31.141 56.7537C31.1698 56.7492 31.1984 56.7445 31.2234 56.7378C32.1083 56.6343 32.6842 56.079 33.043 55.3145C33.6871 53.9122 33.7086 52.4896 33.2391 51.0381C33.067 50.496 32.7948 49.9808 32.3856 49.5558C31.2284 48.3421 29.689 48.407 28.6475 49.7287C28.13 50.402 27.7963 51.1598 27.8098 52.0116C27.816 52.4024 27.8661 52.7959 27.9156 53.1828ZM44.1312 65.844C44.4269 67.0479 44.2886 68.2346 43.6394 69.3175C43.4925 69.5707 43.3139 69.8057 43.1286 70.0157C41.9351 71.2712 40.2855 71.1251 39.3319 69.6697C38.8743 68.9635 38.6103 68.1788 38.5717 67.3336C38.5315 66.7028 38.5555 66.0548 38.5794 65.4068C38.5853 65.2448 38.5913 65.0827 38.5963 64.921C38.5996 64.733 38.6597 64.5565 38.7197 64.38C39.0417 63.2778 39.6461 62.9288 40.7748 63.1343C40.8526 63.1455 40.9318 63.1604 41.0127 63.1759L41.013 63.176L41.0136 63.1762L41.0141 63.1763L41.0144 63.1762C41.1355 63.1994 41.2605 63.2233 41.3925 63.2361C42.1789 63.266 42.7817 63.6124 43.281 64.1737C43.7035 64.6486 43.9891 65.2137 44.1312 65.844ZM12.7034 52.5305C12.5229 51.8571 12.4243 51.1884 12.5393 50.516C12.6677 49.4925 13.2419 48.8307 14.2235 48.4874C16.7127 47.66 18.6966 49.8553 18.4667 52.0021C18.4217 52.335 18.3449 52.6496 18.2365 52.946C18.0129 53.5139 17.7642 54.0885 17.5089 54.6381C16.9131 55.9205 15.9097 56.0825 14.7225 55.358C13.5736 54.6766 13.0425 53.6961 12.7034 52.5305ZM34.5117 36.5549C36.1461 35.7427 36.9789 33.9423 36.511 32.1963C36.2637 31.2734 35.7092 30.4061 35.078 29.8534C33.9442 28.9275 32.5184 29.0155 31.5235 30.1108C31.0044 30.6776 30.7257 31.3404 30.6808 32.0743C30.6209 33.0527 30.8615 33.9507 31.3775 34.7748C31.8352 35.481 32.3979 36.0787 33.146 36.4664C33.5835 36.6967 34.0376 36.7889 34.5117 36.5549ZM71.7982 58.5108C70.6464 59.6215 70.291 60.9999 70.6236 62.5415C70.8458 63.4711 71.452 64.0305 72.3002 64.3914C72.9965 64.686 73.6694 64.6929 74.3371 64.3803C76.1718 63.5144 76.936 60.9571 75.8838 59.234C74.9669 57.7152 72.9867 57.3369 71.7982 58.5108ZM18.9653 32.7272C19.3262 34.0741 18.5501 35.4851 17.1628 36.0172C15.9258 36.5091 14.4898 35.9582 13.8918 34.7282C13.3523 33.6163 13.2452 32.4152 13.6223 31.2181C13.7424 30.8651 13.9694 30.5102 14.2098 30.2052C14.5186 29.8551 14.9193 29.7477 15.4001 29.9397C15.6723 30.0539 15.9553 30.1585 16.2383 30.2631C16.5214 30.3677 16.8044 30.4724 17.0766 30.5866C18.0517 31.0204 18.6546 31.7678 18.9653 32.7272ZM45.9191 39.861C45.4484 40.7089 45.3868 41.5809 45.6341 42.5038C45.9081 43.5264 46.5945 44.3851 47.3676 44.7661C48.2609 45.1951 49.2008 44.9967 49.6531 44.1804C50.002 43.579 50.2556 42.9229 50.4525 42.2553C50.6911 41.4428 50.5022 40.6379 50.1198 39.9117C49.6855 39.0924 49.0109 38.578 48.0425 38.5702C47.1059 38.5805 46.3714 39.0447 45.9191 39.861Z" fill="#FBE8DE"/>
</svg>
