<svg width="109" height="90" viewBox="0 0 109 90" fill="none" xmlns="http://www.w3.org/2000/svg">
<g opacity="0.68" clip-path="url(#clip0_285:36)">
<path d="M94.7661 65.1642C96.9141 64.5708 99.1034 63.4707 101.021 61.8752C104.573 58.8896 105.763 54.996 105.22 50.4598C105.092 49.512 104.721 48.6123 104.253 47.7724C103.546 46.5433 102.734 45.4347 101.684 44.4884C100.067 43.0244 98.3255 41.7159 96.3618 40.7976C94.6664 39.9978 92.9356 39.2673 91.1769 38.6328C88.3183 37.6202 85.406 36.7119 82.5295 35.734C81.2385 35.3002 79.9296 34.901 78.5568 34.7547C78.4088 34.7435 78.2528 34.7057 78.0968 34.6679C70.6539 32.8407 63.2111 31.0135 55.7602 29.1597C50.8157 27.936 45.8808 26.6512 40.9806 25.3844C36.1756 24.1456 31.3328 23.1513 26.369 22.7766C23.5611 22.5617 20.7333 22.5566 17.9355 22.9198C15.2247 23.2845 12.7505 24.2137 10.4519 25.6975C6.25861 28.392 4.05179 32.259 3.82309 37.2723C3.60388 42.2244 5.58956 46.2164 9.23809 49.4491C10.5978 50.6459 12.1873 51.5665 13.8134 52.3302C15.9154 53.3209 18.116 54.0769 20.2998 54.7801C26.7132 56.8172 33.2274 58.4446 39.833 59.7233C47.0202 61.1081 54.1802 62.5891 61.3498 64.0092C65.2555 64.7768 69.1522 65.6061 73.1409 65.9988C75.9396 66.2749 78.7389 66.4632 81.5634 66.7312C85.9696 67.1661 90.2855 66.4967 94.7661 65.1642Z" fill="#EE8DB9"/>
<mask id="mask0_285:36" style="mask-type:alpha" maskUnits="userSpaceOnUse" x="3" y="22" width="103" height="45">
<path d="M94.7661 65.1642C96.9141 64.5708 99.1034 63.4707 101.021 61.8752C104.573 58.8896 105.763 54.996 105.22 50.4598C105.092 49.512 104.721 48.6123 104.253 47.7724C103.546 46.5433 102.734 45.4347 101.684 44.4884C100.067 43.0244 98.3255 41.7159 96.3618 40.7976C94.6664 39.9978 92.9356 39.2673 91.1769 38.6328C88.3183 37.6202 85.406 36.7119 82.5295 35.734C81.2385 35.3002 79.9296 34.901 78.5568 34.7547C78.4088 34.7435 78.2528 34.7057 78.0968 34.6679C70.6539 32.8407 63.2111 31.0135 55.7602 29.1597C50.8157 27.936 45.8808 26.6512 40.9806 25.3844C36.1756 24.1456 31.3328 23.1513 26.369 22.7766C23.5611 22.5617 20.7333 22.5566 17.9355 22.9198C15.2247 23.2845 12.7505 24.2137 10.4519 25.6975C6.25861 28.392 4.05179 32.259 3.82309 37.2723C3.60388 42.2244 5.58956 46.2164 9.23809 49.4491C10.5978 50.6459 12.1873 51.5665 13.8134 52.3302C15.9154 53.3209 18.116 54.0769 20.2998 54.7801C26.7132 56.8172 33.2274 58.4446 39.833 59.7233C47.0202 61.1081 54.1802 62.5891 61.3498 64.0092C65.2555 64.7768 69.1522 65.6061 73.1409 65.9988C75.9396 66.2749 78.7389 66.4632 81.5634 66.7312C85.9696 67.1661 90.2855 66.4967 94.7661 65.1642Z" fill="black"/>
</mask>
<g mask="url(#mask0_285:36)">
<path d="M115.328 48.255C113.311 42.2683 110.106 37.7571 105.345 34.4107C102.135 32.1607 98.7302 30.2471 95.1028 28.7704C87.5867 25.6557 80.0324 22.7057 72.3569 20.0383C69.8864 19.1722 67.3959 18.4346 64.9238 17.6606C64.0636 17.414 63.1934 17.2317 62.3046 17.0859C61.7967 17.0025 61.2969 17.0387 60.8142 17.1305C59.9586 17.2795 59.2994 17.7631 58.8913 18.5641C58.6873 18.9646 58.5467 19.3755 58.442 19.8056C58.1776 20.7748 57.9674 21.7269 57.739 22.7152C56.1905 29.1292 54.6415 35.5432 53.1294 41.9761C52.2827 45.5724 51.5082 49.2069 50.6069 52.8205C49.5631 57.0288 48.3561 61.1972 46.9138 65.2877C46.8669 65.4244 46.8201 65.5616 46.7731 65.6983C46.4529 66.7771 46.6903 67.5263 47.6004 68.2148C47.9247 68.4786 48.2949 68.6973 48.6289 68.8969C52.555 71.3167 56.7145 73.1441 61.1902 74.2601C66.9076 75.6856 72.6344 77.0466 78.4759 77.9134C84.4167 78.8099 90.3651 78.9709 96.3322 78.2408C99.4341 77.8689 102.413 77.1083 105.164 75.5347C105.675 75.2503 106.16 74.9749 106.609 74.588C113.921 68.6996 117.407 61.1832 116.047 51.569C115.86 50.3153 115.492 49.0581 115.328 48.255Z" fill="#F7D046"/>
<mask id="mask1_285:36" style="mask-type:alpha" maskUnits="userSpaceOnUse" x="46" y="17" width="71" height="62">
<path d="M115.328 48.255C113.311 42.2683 110.106 37.7571 105.345 34.4107C102.135 32.1607 98.7302 30.2471 95.1028 28.7704C87.5867 25.6557 80.0324 22.7057 72.3569 20.0383C69.8864 19.1722 67.3959 18.4346 64.9238 17.6606C64.0636 17.414 63.1934 17.2317 62.3046 17.0859C61.7967 17.0025 61.2969 17.0387 60.8142 17.1305C59.9586 17.2795 59.2994 17.7631 58.8913 18.5641C58.6873 18.9646 58.5467 19.3755 58.442 19.8056C58.1776 20.7748 57.9674 21.7269 57.739 22.7152C56.1905 29.1292 54.6415 35.5432 53.1294 41.9761C52.2827 45.5724 51.5082 49.2069 50.6069 52.8205C49.5631 57.0288 48.3561 61.1972 46.9138 65.2877C46.8669 65.4244 46.8201 65.5616 46.7731 65.6983C46.4529 66.7771 46.6903 67.5263 47.6004 68.2148C47.9247 68.4786 48.2949 68.6973 48.6289 68.8969C52.555 71.3167 56.7145 73.1441 61.1902 74.2601C66.9076 75.6856 72.6344 77.0466 78.4759 77.9134C84.4167 78.8099 90.3651 78.9709 96.3322 78.2408C99.4341 77.8689 102.413 77.1083 105.164 75.5347C105.675 75.2503 106.16 74.9749 106.609 74.588C113.921 68.6996 117.407 61.1832 116.047 51.569C115.86 50.3153 115.492 49.0581 115.328 48.255Z" fill="#EA552B"/>
</mask>
<g mask="url(#mask1_285:36)">
<path d="M39.0825 51.5847C38.6958 51.9112 38.2967 52.2263 37.91 52.5528C35.3043 54.7268 32.4332 56.5424 29.4204 58.1137C29.1664 58.2438 28.8988 58.3386 28.6301 58.4097C28.5368 58.4375 28.3569 58.3856 28.3176 58.3038C28.2546 58.223 28.3062 58.0658 28.3073 57.8392C28.6076 58.1841 28.8257 58.0437 29.0325 57.9156C31.59 56.4711 34.1093 54.9685 36.4486 53.1636C37.3614 52.457 38.2371 51.7161 39.1375 50.998C39.3309 50.8348 39.4522 50.6507 39.5354 50.4087C40.4647 47.555 41.647 44.7978 43.2037 42.2035C44.1343 40.6257 45.1639 39.1389 46.4622 37.8316C46.6882 37.6073 46.9388 37.4058 47.2154 37.251C47.6875 36.9804 48.1114 37.1889 48.1846 37.7343C48.2251 38.0903 48.1847 38.4855 48.1196 38.8579C47.9522 39.819 47.5802 40.7053 47.161 41.5936C46.462 43.0663 45.592 44.4269 44.6253 45.744C43.8138 46.8399 42.9517 47.8663 42.0164 48.8482C41.487 49.4074 40.9092 49.9447 40.3426 50.4697C40.1504 50.6567 40.0066 50.8656 39.9245 51.1314C39.4537 52.6778 39.0548 54.2449 38.8347 55.8402C38.7101 56.7041 38.6451 57.5773 38.7104 58.4569C38.751 59.0633 38.8388 59.6677 39.0547 60.2309C39.391 61.087 39.9747 61.6702 40.8291 61.9796C41.4071 62.1934 41.9905 62.2757 42.5943 62.2858C43.6242 62.3016 44.6101 62.1403 45.6039 61.8951C48.012 61.2917 50.2345 60.2667 52.3255 58.9615C52.9348 58.5897 53.4946 58.1724 54.0916 57.7892C54.2175 57.7004 54.295 57.5897 54.3231 57.4335C54.8882 54.3807 56.0781 51.5398 57.4256 48.7756C58.7417 46.0961 60.2648 43.539 61.8982 41.0607C63.0905 39.269 64.3316 37.4989 65.5723 35.729C66.3593 34.6103 67.2192 33.5362 68.1665 32.5659C68.4487 32.2796 68.7682 32.0274 69.0883 31.7992C69.2369 31.6855 69.4234 31.6299 69.5989 31.5866C69.973 31.4991 70.3227 31.6392 70.4814 31.9902C70.6131 32.2707 70.7235 32.5998 70.7381 32.9093C70.7517 33.4452 70.7301 33.9948 70.6484 34.5109C70.4182 36.1424 69.8887 37.7033 69.2987 39.2308C68.2325 41.9353 66.8385 44.475 65.2256 46.8809C63.5353 49.3974 61.659 51.743 59.5617 53.9072C58.1857 55.3252 56.6985 56.6407 55.1113 57.8411C54.9741 57.9424 54.8494 58.0551 54.8235 58.2586C54.6731 59.3264 54.6058 60.4027 54.7982 61.4673C54.85 61.8113 54.949 62.1526 55.0592 62.4819C55.4832 63.6919 56.3255 64.4908 57.5498 64.8676C58.3661 65.1191 59.207 65.143 60.0548 65.0589C61.0553 64.9569 62.0256 64.7126 62.9801 64.3857C65.1802 63.636 67.2092 62.5241 69.1483 61.2609C72.4073 59.1429 75.3637 56.6319 78.0448 53.7987C78.1685 53.6626 78.2776 53.4671 78.3279 53.286C79.6086 48.116 81.7228 43.3038 84.2831 38.6755C84.8821 37.5887 85.553 36.5227 86.3107 35.5364C86.7234 35.0061 87.1731 34.5099 87.735 34.1402C87.8956 34.038 88.0925 33.9461 88.2791 33.8905C88.8739 33.71 89.3708 33.9631 89.5296 34.5644C89.6036 34.8833 89.6556 35.2268 89.6238 35.5622C89.5681 36.1248 89.4646 36.6897 89.3242 37.2204C88.8511 38.9696 88.1126 40.6108 87.3013 42.2074C85.8063 45.1092 84.0193 47.8325 81.976 50.3879C81.0708 51.5117 80.1056 52.6019 79.1759 53.7029C79.0633 53.8271 78.9646 53.9863 78.9253 54.155C78.5647 55.7797 78.3241 57.4477 78.4269 59.1124C78.4943 60.2905 78.725 61.413 79.2831 62.4507C79.6719 63.1736 80.1858 63.7834 80.8708 64.2553C81.6894 64.8043 82.5743 65.0054 83.5423 64.9641C84.3921 64.9278 85.1995 64.7383 86.0018 64.4536C87.642 63.8709 89.1398 63.02 90.5604 62.0533C93.0584 60.349 95.3064 58.3692 97.4152 56.1926C97.7761 55.8194 98.1245 55.4347 98.497 55.0495C98.6316 54.9005 98.6834 54.7434 98.6619 54.5417C98.3983 49.974 99.5117 45.7647 101.907 41.8948C102.962 40.2042 104.239 38.6951 105.862 37.505C106.285 37.1888 106.769 36.9297 107.244 36.7068C107.522 36.5756 107.861 36.5017 108.168 36.4885C108.77 36.4509 109.248 36.8002 109.393 37.3903C109.482 37.768 109.525 38.1715 109.46 38.544C109.35 39.2164 109.205 39.9022 108.987 40.5436C108.44 42.2243 107.615 43.7857 106.741 45.3016C104.784 48.688 102.471 51.7917 99.8884 54.716C99.675 54.9516 99.6032 55.1809 99.6423 55.5134C99.9328 57.647 100.815 59.5293 102.091 61.2519C103.102 62.6157 104.284 63.8411 105.499 65.0295C106.367 65.8749 107.258 66.6952 108.171 67.491C108.64 67.9005 109.155 68.2837 109.669 68.6437C109.975 68.8568 110.314 69.0335 110.76 68.9665C110.569 69.1775 110.381 69.2093 110.189 69.1459C109.866 69.0523 109.542 68.9591 109.251 68.8043C108.366 68.3534 107.579 67.7192 106.826 67.0715C105.175 65.6631 103.624 64.1433 102.153 62.5605C100.482 60.748 99.3194 58.6752 98.8715 56.214C98.8555 56.1311 98.8285 56.0606 98.787 55.9312C98.6509 56.0561 98.5499 56.1682 98.4475 56.2556C96.769 58.0324 94.9908 59.6945 93.0742 61.183C91.4542 62.4444 89.7581 63.5901 87.919 64.4673C87.1207 64.8473 86.3089 65.192 85.4432 65.3957C84.8701 65.5273 84.2957 65.6354 83.7052 65.6606C81.5816 65.7749 79.9533 64.8664 78.8154 63.0666C78.2147 62.1267 77.9056 61.0906 77.759 59.9997C77.5564 58.4702 77.662 56.9512 77.9103 55.4501C77.9282 55.3301 77.9461 55.2101 77.964 55.0901C77.963 55.0664 77.9381 55.0437 77.9235 54.9843C77.5392 55.3587 77.1548 55.7327 76.7814 56.0943C73.5892 59.1162 70.131 61.7796 66.2157 63.771C64.9801 64.4081 63.692 64.9277 62.3495 65.3068C61.3692 65.5873 60.3733 65.7847 59.3424 65.7452C58.7858 65.7333 58.2269 65.6737 57.6759 65.5302C56.0243 65.1236 54.9448 64.0606 54.4183 62.4374C54.0853 61.4023 54.0223 60.3202 54.0895 59.244C54.103 59.0289 54.1164 58.8134 54.1276 58.5506C53.967 58.6532 53.8398 58.718 53.7252 58.7943C51.5016 60.2963 49.1353 61.5302 46.545 62.2844C45.4129 62.6068 44.2651 62.8467 43.0846 62.897C42.3403 62.9168 41.6163 62.8643 40.8955 62.6324C39.6352 62.2451 38.8031 61.4102 38.4004 60.1514C38.1653 59.4341 38.0831 58.6983 38.0717 57.9595C38.0524 56.8037 38.1759 55.6656 38.4073 54.5587C38.5792 53.6928 38.8106 52.8364 39.0061 51.9695C39.0353 51.8371 39.0769 51.7161 39.1061 51.5837C39.1309 51.6064 39.1185 51.5951 39.0825 51.5847ZM55.1066 56.9947C55.2225 56.9421 55.2685 56.9162 55.3146 56.8904C56.4783 55.9823 57.5672 55.0058 58.6186 53.9712C60.5844 52.0273 62.3291 49.9019 63.9376 47.6512C65.6334 45.2538 67.0992 42.7349 68.2612 40.0501C69.0076 38.325 69.6209 36.5461 69.9468 34.6839C70.0309 34.2153 70.0671 33.7248 70.0794 33.2354C70.0927 33.0202 70.0453 32.7719 69.9879 32.5597C69.9159 32.2885 69.8067 32.2336 69.5653 32.375C69.3349 32.504 69.1176 32.6684 68.9257 32.8554C67.7586 33.9426 66.79 35.212 65.8704 36.5272C64.5509 38.3839 63.2684 40.2749 62.0218 42.1763C60.4113 44.6298 58.9466 47.1725 57.6888 49.8375C56.6563 52.0039 55.7674 54.212 55.192 56.5499C55.1729 56.6461 55.1437 56.7785 55.1066 56.9947ZM99.5524 53.8597C99.6885 53.7347 99.7558 53.6602 99.8345 53.5732C102.244 50.7638 104.409 47.7742 106.231 44.5365C107.039 43.1188 107.774 41.6564 108.268 40.0853C108.432 39.5537 108.535 38.9888 108.627 38.4364C108.676 38.2078 108.64 37.947 108.593 37.7225C108.546 37.474 108.411 37.3725 108.175 37.3825C108.033 37.3886 107.869 37.4194 107.753 37.4721C107.406 37.6299 107.048 37.8002 106.738 38.0161C105.352 38.9695 104.216 40.1985 103.253 41.5869C100.804 45.0898 99.5828 49.0171 99.5376 53.2997C99.5218 53.4675 99.5408 53.6215 99.5524 53.8597ZM79.4137 52.2381C79.4263 52.2496 79.4621 52.2599 79.4745 52.271C79.5085 52.234 79.5543 52.2081 79.5883 52.171C82.2917 49.0628 84.6643 45.7183 86.584 42.0472C87.3978 40.4982 88.1149 38.9055 88.5911 37.2278C88.7429 36.6847 88.835 36.1323 88.9146 35.5685C88.9504 35.3285 88.902 35.0563 88.8549 34.8079C88.81 34.6071 88.6883 34.5408 88.4908 34.6087C88.2814 34.6893 88.0859 34.8049 87.9039 34.9557C87.174 35.5354 86.6551 36.3087 86.1357 37.0821C85.0656 38.7136 84.1306 40.4467 83.2795 42.212C81.7705 45.305 80.4531 48.4615 79.4993 51.7931C79.4939 51.9247 79.4656 52.081 79.4137 52.2381ZM47.6337 37.5908C47.2942 37.6649 47.0682 37.8892 46.8535 38.1011C46.1431 38.8349 45.508 39.6609 44.9213 40.5086C43.0071 43.297 41.5899 46.3385 40.4515 49.523C40.4201 49.6079 40.4133 49.7155 40.374 49.8841C40.691 49.5844 40.9293 49.3715 41.1665 49.1349C42.7245 47.566 44.134 45.8604 45.3109 43.9858C46.1471 42.6623 46.9103 41.2943 47.3822 39.7717C47.5373 39.3001 47.6204 38.8077 47.7159 38.3266C47.7878 38.097 47.7877 37.8466 47.6337 37.5908Z" fill="black"/>
</g>
</g>
</g>
<defs>
<clipPath id="clip0_285:36">
<rect width="93.7513" height="64.1456" fill="white" transform="translate(0 28.3138) rotate(-17.5783)"/>
</clipPath>
</defs>
</svg>
