<svg width="279" height="76" viewBox="0 0 279 76" fill="none" xmlns="http://www.w3.org/2000/svg">
<path d="M265.973 53.3552L265.964 53.3641C265.964 53.3641 265.964 53.3641 265.964 53.3641C265.964 53.3641 265.964 53.3642 265.964 53.3642C265.963 53.3649 265.962 53.3655 265.962 53.3661C260.623 58.7019 253.252 62 245.109 62C244.843 62 244.589 62.1054 244.401 62.2929L233.795 72.8995C233.509 73.1855 233.423 73.6156 233.578 73.9893C233.733 74.363 234.097 74.6066 234.502 74.6066C243.202 74.6066 251.081 71.0779 256.78 65.376C256.78 65.3759 256.78 65.3759 256.78 65.3758L267.378 54.7786L267.378 54.7785L267.378 54.7784C267.378 54.7781 267.379 54.7777 267.379 54.7774L267.387 54.7693L267.387 54.7693C267.768 54.3781 267.765 53.7518 267.378 53.3643C266.99 52.9767 266.364 52.9737 265.973 53.3552L265.973 53.3552Z" fill="#ADFEFF" stroke="#8EA7FF" stroke-width="2" stroke-linejoin="round"/>
<path d="M245.816 63.7071C246.102 63.4211 246.187 62.991 246.032 62.6173C245.878 62.2436 245.513 62 245.109 62H43.1086C42.8433 62 42.589 62.1054 42.4014 62.2929L31.7948 72.8995C31.5088 73.1855 31.4233 73.6156 31.5781 73.9893C31.7329 74.363 32.0975 74.6066 32.502 74.6066H234.502C234.767 74.6066 235.022 74.5012 235.209 74.3137L245.816 63.7071Z" fill="#ADFEFF" stroke="#8EA7FF" stroke-width="2" stroke-linejoin="round"/>
<path d="M10.2328 20.8281L10.2326 20.8282C4.53067 26.5278 1.00195 34.4061 1.00195 43.1066C1.00195 43.5111 1.2456 43.8757 1.61927 44.0305C1.99294 44.1853 2.42306 44.0997 2.70906 43.8137L13.3157 33.2071C13.5032 33.0196 13.6086 32.7652 13.6086 32.5C13.6086 24.3566 16.9069 16.9854 22.2429 11.6463C22.2434 11.6458 22.2439 11.6454 22.2444 11.6449C22.2444 11.6448 22.2445 11.6448 22.2445 11.6447C22.2447 11.6446 22.2449 11.6444 22.245 11.6442L22.2532 11.636L22.2532 11.636C22.6349 11.2447 22.6319 10.6181 22.2443 10.2306C21.8569 9.84322 21.2307 9.84019 20.8395 10.2215L20.8394 10.2214L20.8302 10.2307L10.9397 21.5353L10.2328 20.8281ZM10.2328 20.8281L20.83 10.2308L10.2328 20.8281ZM21.537 10.9375L21.5372 10.9377L21.5373 10.9378L21.537 10.9375ZM21.5373 10.9378L21.5373 10.9378L21.5373 10.9378Z" fill="#ADFEFF" stroke="#8EA7FF" stroke-width="2" stroke-linejoin="round"/>
<path d="M43.8157 63.7071C44.1017 63.4211 44.1872 62.991 44.0324 62.6173C43.8777 62.2436 43.513 62 43.1086 62C26.8162 62 13.6086 48.7924 13.6086 32.5C13.6086 32.0955 13.3649 31.7309 12.9912 31.5761C12.6176 31.4213 12.1874 31.5069 11.9014 31.7929L1.29485 42.3995C1.10731 42.587 1.00195 42.8414 1.00195 43.1066C1.00195 60.5036 15.105 74.6066 32.502 74.6066C32.7672 74.6066 33.0215 74.5012 33.2091 74.3137L43.8157 63.7071Z" fill="#ADFEFF" stroke="#8EA7FF" stroke-width="2" stroke-linejoin="round"/>
<rect x="12.002" y="1" width="265" height="63" rx="31.5" fill="white" stroke="#8EA7FF" stroke-width="2"/>
<path d="M63.0781 29.8555C63.388 29.9466 63.6888 29.8919 63.9805 29.6914C64.3815 29.4362 64.5547 29.0807 64.5 28.625C64.4635 28.2786 64.3268 27.9323 64.0898 27.5859C64.0352 27.513 63.9805 27.4401 63.9258 27.3672C63.8711 27.2943 63.8164 27.2122 63.7617 27.1211C63.2513 26.2461 62.5495 25.599 61.6562 25.1797C60.8359 24.7786 59.888 24.6055 58.8125 24.6602C58.4297 24.6602 58.0651 24.7148 57.7188 24.8242C57.1536 24.9883 56.707 25.1797 56.3789 25.3984C56.2878 25.4531 56.2057 25.5078 56.1328 25.5625C56.0781 25.6172 56.0143 25.6628 55.9414 25.6992C55.8138 25.8086 55.668 25.9089 55.5039 26C54.9023 26.3828 54.4648 26.8385 54.1914 27.3672C54.0273 27.6953 53.9727 27.987 54.0273 28.2422C54.0091 28.3151 54.0182 28.4154 54.0547 28.543C54.0182 28.5977 53.9818 28.7161 53.9453 28.8984C53.763 29.3906 53.6354 29.8464 53.5625 30.2656C53.4714 30.6484 53.3984 30.9948 53.3438 31.3047C53.2891 31.5964 53.2891 31.9336 53.3438 32.3164C53.3802 32.7539 53.4987 33.2461 53.6992 33.793C53.5169 33.9753 53.4258 34.0664 53.4258 34.0664C53.0065 34.5951 53.0521 35.1419 53.5625 35.707C53.599 35.7617 53.6719 35.8438 53.7812 35.9531C54.3281 36.5 55.0573 36.8737 55.9688 37.0742C56.1328 37.1289 56.2969 37.1836 56.4609 37.2383C56.6432 37.2747 56.8346 37.3021 57.0352 37.3203C57.2174 37.3568 57.3997 37.3932 57.582 37.4297C57.7826 37.4661 57.9831 37.4844 58.1836 37.4844C58.9857 37.5573 59.7513 37.5299 60.4805 37.4023C61.2279 37.2747 61.9388 36.9375 62.6133 36.3906C63.3424 35.8073 63.8984 35.0234 64.2812 34.0391C64.3906 33.7656 64.4909 33.5104 64.582 33.2734C64.6914 32.9089 64.6641 32.5443 64.5 32.1797C64.1719 31.5599 63.6979 31.2773 63.0781 31.332C62.75 31.332 62.4128 31.4596 62.0664 31.7148C61.5742 31.6419 61.1823 31.7969 60.8906 32.1797C60.8724 32.2161 60.8542 32.2526 60.8359 32.2891C60.8177 32.3073 60.8086 32.3255 60.8086 32.3438C60.7904 32.362 60.7721 32.3802 60.7539 32.3984C60.7539 32.4167 60.7539 32.4258 60.7539 32.4258C60.7539 32.4622 60.7448 32.4896 60.7266 32.5078C60.599 32.8177 60.4258 33.1367 60.207 33.4648C59.9883 33.7383 59.7148 33.957 59.3867 34.1211C59.3867 34.1211 59.3776 34.1302 59.3594 34.1484C59.25 34.0938 59.0586 34.0664 58.7852 34.0664C58.7852 34.0664 58.776 34.0664 58.7578 34.0664C58.7396 34.0482 58.7305 34.0391 58.7305 34.0391C58.6029 33.9844 58.4753 33.9388 58.3477 33.9023C58.2201 33.8477 58.1016 33.7656 57.9922 33.6562C57.8646 33.5651 57.7188 33.3919 57.5547 33.1367C57.3906 32.8815 57.2904 32.6719 57.2539 32.5078C57.0898 32.1068 56.9987 31.6784 56.9805 31.2227C56.944 30.5664 57.026 29.9648 57.2266 29.418C57.3359 29.0169 57.5547 28.707 57.8828 28.4883C58.2292 28.2878 58.5664 28.1966 58.8945 28.2148C59.4414 28.3242 59.9974 28.4883 60.5625 28.707C60.599 28.8346 60.6536 29.0078 60.7266 29.2266C60.7266 29.2812 60.7357 29.3268 60.7539 29.3633C60.7721 29.3997 60.7904 29.4362 60.8086 29.4727C60.9544 29.9102 61.2279 30.1654 61.6289 30.2383C62.0299 30.3112 62.4036 30.2201 62.75 29.9648C62.7865 29.9284 62.8138 29.9102 62.832 29.9102C62.8685 29.8919 62.9141 29.8828 62.9688 29.8828C62.9688 29.8828 62.9779 29.8828 62.9961 29.8828C63.0143 29.8646 63.0417 29.8555 63.0781 29.8555ZM65.8945 31.1133C66.0404 31.2956 66.1771 31.5052 66.3047 31.7422C66.724 32.599 66.7969 33.4648 66.5234 34.3398C66.4688 34.5039 66.4141 34.6589 66.3594 34.8047C66.3047 34.9505 66.25 35.0964 66.1953 35.2422C65.6484 36.5729 64.8737 37.6393 63.8711 38.4414C62.9961 39.1341 62.0664 39.5807 61.082 39.7812C60.1159 39.9635 59.0951 40.0182 58.0195 39.9453C57.8008 39.9453 57.582 39.9271 57.3633 39.8906C57.1628 39.8542 56.9531 39.8177 56.7344 39.7812C56.5156 39.7448 56.306 39.7083 56.1055 39.6719C55.9232 39.6172 55.7409 39.5625 55.5586 39.5078C54.3008 39.2161 53.2617 38.6693 52.4414 37.8672C52.3503 37.8125 52.2227 37.6758 52.0586 37.457C51.0924 36.3086 50.9284 35.1055 51.5664 33.8477C51.4935 33.6107 51.4388 33.3464 51.4023 33.0547C51.3477 32.5443 51.3568 32.0885 51.4297 31.6875C51.4844 31.2682 51.5573 30.8125 51.6484 30.3203C51.7031 30.0651 51.776 29.819 51.8672 29.582C51.9401 29.3268 52.0039 29.0625 52.0586 28.7891C52.0404 28.2057 52.168 27.5859 52.4414 26.9297C52.8971 26.0182 53.5807 25.2982 54.4922 24.7695C54.5469 24.7331 54.6016 24.6966 54.6562 24.6602C54.7292 24.6237 54.793 24.5781 54.8477 24.5234C54.9206 24.4688 54.9935 24.4141 55.0664 24.3594C55.1393 24.2865 55.2305 24.2227 55.3398 24.168C55.8867 23.8216 56.5065 23.5482 57.1992 23.3477C57.7461 23.2018 58.2656 23.1289 58.7578 23.1289C60.1979 23.0742 61.4648 23.3112 62.5586 23.8398C63.8164 24.4596 64.8099 25.362 65.5391 26.5469C65.5755 26.6198 65.6484 26.7292 65.7578 26.875C66.2135 27.5495 66.4688 28.224 66.5234 28.8984C66.5964 29.737 66.3867 30.4753 65.8945 31.1133ZM59.0586 31.9062C59.0586 31.888 59.0586 31.8789 59.0586 31.8789C59.0951 31.8242 59.1315 31.7604 59.168 31.6875C59.2044 31.6146 59.25 31.5417 59.3047 31.4688C59.3047 31.4688 59.3229 31.4505 59.3594 31.4141C59.2135 31.1953 59.1133 31.0221 59.0586 30.8945C59.0221 31.0404 59.0039 31.2682 59.0039 31.5781C59.0039 31.6875 59.0221 31.7969 59.0586 31.9062ZM77.2695 28.7617C77.3789 28.4701 77.388 28.1602 77.2969 27.832C77.2969 27.832 77.2878 27.832 77.2695 27.832C77.2695 27.8138 77.2695 27.7956 77.2695 27.7773C77.1419 27.3398 76.8594 26.875 76.4219 26.3828C75.7474 25.7266 74.9909 25.2617 74.1523 24.9883C73.806 24.8971 73.4779 24.8242 73.168 24.7695C72.8763 24.6966 72.5573 24.651 72.2109 24.6328C71.3177 24.6146 70.5339 24.6784 69.8594 24.8242C69.0573 25.0065 68.2643 25.3711 67.4805 25.918C67.207 26.1367 67.0612 26.2552 67.043 26.2734C66.8971 26.3828 66.7878 26.474 66.7148 26.5469C66.168 27.0573 66.0768 27.5859 66.4414 28.1328C66.4414 28.1693 66.4505 28.2057 66.4688 28.2422C66.5052 28.2604 66.5326 28.2786 66.5508 28.2969C66.2227 29.1172 66.0586 30.0651 66.0586 31.1406C66.0221 32.526 66.4323 33.793 67.2891 34.9414C67.7266 35.5247 68.0729 35.944 68.3281 36.1992C68.7474 36.6732 69.1576 36.9922 69.5586 37.1562C69.8867 37.3203 70.2148 37.3841 70.543 37.3477C70.5612 37.3477 70.5794 37.3477 70.5977 37.3477C70.6341 37.3477 70.6706 37.3477 70.707 37.3477C70.944 37.3841 71.1536 37.4297 71.3359 37.4844C71.5365 37.5391 71.7734 37.5482 72.0469 37.5117C72.1562 37.5117 72.2656 37.5117 72.375 37.5117C72.5026 37.5117 72.6211 37.5026 72.7305 37.4844C73.332 37.4661 73.9518 37.3021 74.5898 36.9922C75.4466 36.6276 76.2214 36.0169 76.9141 35.1602C77.1328 34.8867 77.3698 34.4583 77.625 33.875C77.7708 33.4922 77.8893 33.0456 77.9805 32.5352C78.0898 32.0247 78.1263 31.5508 78.0898 31.1133C78.0352 30.457 77.8438 29.819 77.5156 29.1992C77.4609 29.0898 77.3789 28.944 77.2695 28.7617ZM69.7773 31.2227C69.7773 30.8581 69.8138 30.4297 69.8867 29.9375C69.9596 29.4453 70.1419 29.0625 70.4336 28.7891C70.7435 28.5156 71.0807 28.3242 71.4453 28.2148C71.5 28.1966 71.5547 28.1784 71.6094 28.1602C71.6641 28.1419 71.7188 28.1146 71.7734 28.0781C71.8828 28.0599 72.0651 28.0599 72.3203 28.0781C72.776 28.1693 73.2227 28.4245 73.6602 28.8438C73.8424 28.9896 73.9792 29.1536 74.0703 29.3359C74.2891 29.7734 74.3984 30.3568 74.3984 31.0859C74.3984 31.4688 74.3529 31.8698 74.2617 32.2891C74.1888 32.6901 74.0156 33.0365 73.7422 33.3281C73.3047 33.7839 72.7487 34.0117 72.0742 34.0117C71.418 34.0117 70.8802 33.7839 70.4609 33.3281C70.0052 32.8542 69.7773 32.1523 69.7773 31.2227ZM79.4023 28.8984C79.8034 29.7005 80.0495 30.5391 80.1406 31.4141C80.2135 32.6354 80.0039 33.8659 79.5117 35.1055C79.2565 35.7617 78.9284 36.3542 78.5273 36.8828C77.6523 37.9766 76.6224 38.7878 75.4375 39.3164C74.526 39.7174 73.6784 39.9362 72.8945 39.9727C72.7852 39.9727 72.6758 39.9727 72.5664 39.9727C72.4753 39.9727 72.3841 39.9727 72.293 39.9727C71.9102 39.9909 71.6003 39.9818 71.3633 39.9453C71.1445 39.9089 70.8893 39.8633 70.5977 39.8086C69.9779 39.8451 69.3672 39.7266 68.7656 39.4531C68.1823 39.1979 67.5807 38.7513 66.9609 38.1133C66.7057 37.8945 66.4779 37.6576 66.2773 37.4023C66.0951 37.1471 65.9036 36.8828 65.7031 36.6094C64.6276 35.0964 64.0898 33.4284 64.0898 31.6055C64.1263 30.5482 64.2448 29.6458 64.4453 28.8984C64.0807 27.6771 64.3815 26.5742 65.3477 25.5898C65.4388 25.4987 65.5938 25.362 65.8125 25.1797C66.0312 24.9974 66.2044 24.8607 66.332 24.7695C67.2617 24.0768 68.3008 23.5938 69.4492 23.3203C69.9414 23.2109 70.4154 23.1471 70.8711 23.1289C71.3268 23.1107 71.8099 23.1016 72.3203 23.1016C73.1589 23.1745 73.9792 23.3203 74.7812 23.5391C76.0026 23.9401 77.0417 24.5872 77.8984 25.4805C78.5365 26.1367 78.9831 26.8659 79.2383 27.668C79.2383 27.6862 79.2383 27.7044 79.2383 27.7227C79.2565 27.7227 79.2656 27.7227 79.2656 27.7227C79.375 28.1419 79.4206 28.5339 79.4023 28.8984ZM72.3477 30.8125C72.3477 30.8125 72.3385 30.8125 72.3203 30.8125C72.3203 30.7943 72.3203 30.776 72.3203 30.7578C72.3932 30.7943 72.3203 30.7396 72.1016 30.5938C72.1016 30.5938 72.0924 30.5938 72.0742 30.5938C71.9831 30.6302 71.9375 30.6484 71.9375 30.6484C71.8828 30.7943 71.8464 30.9766 71.8281 31.1953C71.8281 31.4141 71.8281 31.5781 71.8281 31.6875C71.8281 31.7786 71.8281 31.9154 71.8281 32.0977C71.8464 32.2617 71.8919 32.3711 71.9648 32.4258C71.9648 32.4258 71.9648 32.4349 71.9648 32.4531C71.9831 32.4714 71.9922 32.4805 71.9922 32.4805C71.9922 32.4805 72.0104 32.4805 72.0469 32.4805C72.0833 32.4805 72.1107 32.4805 72.1289 32.4805C72.1289 32.4805 72.1471 32.4805 72.1836 32.4805C72.2201 32.4805 72.2474 32.4805 72.2656 32.4805C72.2839 32.4622 72.293 32.444 72.293 32.4258C72.3477 32.3711 72.3841 32.2435 72.4023 32.043C72.4206 31.8242 72.4297 31.6602 72.4297 31.5508C72.4297 31.2591 72.4023 31.013 72.3477 30.8125ZM83.4766 31.9609C84.0052 32.7812 84.5339 33.5924 85.0625 34.3945C85.6094 35.1784 86.1562 35.9714 86.7031 36.7734C86.9219 37.1198 87.2409 37.293 87.6602 37.293C87.7513 37.293 87.8424 37.293 87.9336 37.293C88.0247 37.293 88.125 37.293 88.2344 37.293C88.3984 37.5664 88.6081 37.7852 88.8633 37.9492C89.4102 38.2773 89.9023 38.2773 90.3398 37.9492C90.7956 37.6029 90.9688 37.1289 90.8594 36.5273C90.8594 36.4727 90.8411 36.3906 90.8047 36.2812C90.7318 35.9896 90.668 35.6888 90.6133 35.3789C90.5768 35.0508 90.5404 34.7227 90.5039 34.3945C90.4492 34.0664 90.4036 33.7383 90.3672 33.4102C90.349 33.0638 90.3216 32.7266 90.2852 32.3984C90.2852 32.2708 90.276 32.125 90.2578 31.9609C90.2396 31.7786 90.2396 31.6146 90.2578 31.4688C90.276 31.0859 90.2852 30.7031 90.2852 30.3203C90.3034 29.9193 90.3125 29.5273 90.3125 29.1445C90.276 28.6706 90.2578 28.3242 90.2578 28.1055C90.2396 28.0143 90.2214 27.9323 90.2031 27.8594C90.2031 27.7682 90.2031 27.6771 90.2031 27.5859C90.1667 27.2578 90.112 26.7839 90.0391 26.1641C90.0026 26 89.9753 25.8451 89.957 25.6992C89.9388 25.5352 89.9206 25.3711 89.9023 25.207C89.8841 25.1706 89.8659 25.1432 89.8477 25.125C89.8477 25.0885 89.8477 25.043 89.8477 24.9883C89.9935 24.6419 89.9388 24.2773 89.6836 23.8945C89.3555 23.457 88.9271 23.2565 88.3984 23.293C87.8698 23.3294 87.5143 23.6211 87.332 24.168C87.2773 24.3503 87.25 24.5781 87.25 24.8516C86.8125 25.0703 86.5938 25.4258 86.5938 25.918C86.5938 26.5742 86.5938 27.2305 86.5938 27.8867C86.5938 28.543 86.5938 29.1992 86.5938 29.8555C86.5573 29.8372 86.5299 29.819 86.5117 29.8008C86.4935 29.7643 86.4753 29.7279 86.457 29.6914C86.2747 29.3815 86.0651 29.0625 85.8281 28.7344C85.6094 28.4609 85.4089 28.1784 85.2266 27.8867C85.0443 27.5951 84.862 27.3034 84.6797 27.0117C84.6068 26.9023 84.5339 26.793 84.4609 26.6836C84.388 26.5742 84.3242 26.4648 84.2695 26.3555C84.0143 25.9909 83.7591 25.6536 83.5039 25.3438C83.2122 24.9792 82.8294 24.8516 82.3555 24.9609C82.2826 24.9245 82.2188 24.8971 82.1641 24.8789C81.9635 24.7878 81.7721 24.7513 81.5898 24.7695C81.5716 24.7695 81.5534 24.7695 81.5352 24.7695C81.5169 24.7513 81.5078 24.7422 81.5078 24.7422C80.7422 24.5417 80.1862 24.6419 79.8398 25.043C79.6393 25.2799 79.5391 25.526 79.5391 25.7812C79.5208 25.9818 79.5846 26.2552 79.7305 26.6016C79.7852 26.7839 79.8034 26.9935 79.7852 27.2305C79.7852 27.4674 79.7943 27.6771 79.8125 27.8594C79.8307 28.0417 79.8398 28.306 79.8398 28.6523C79.8398 29.8737 79.8398 31.1042 79.8398 32.3438C79.8398 33.5651 79.8398 34.7773 79.8398 35.9805C79.8034 36.5273 80.0039 36.9193 80.4414 37.1562C80.8789 37.375 81.3164 37.3294 81.7539 37.0195C81.9909 37.2018 82.2826 37.2383 82.6289 37.1289C83.1576 36.9648 83.4401 36.6003 83.4766 36.0352C83.4766 35.9987 83.4766 35.9622 83.4766 35.9258C83.4766 35.8711 83.4766 35.8164 83.4766 35.7617C83.4766 35.1419 83.4766 34.513 83.4766 33.875C83.4766 33.237 83.4766 32.599 83.4766 31.9609ZM85.3633 24.332C85.3997 24.1862 85.4362 24.0768 85.4727 24.0039C85.8919 22.6914 86.7669 21.9531 88.0977 21.7891C89.4284 21.6068 90.5039 22.0625 91.3242 23.1562C91.8346 23.8854 92.0352 24.6602 91.9258 25.4805C91.944 25.6263 91.9622 25.7721 91.9805 25.918C91.9987 26.0638 92.026 26.2096 92.0625 26.3555C92.0807 26.6107 92.1081 26.8659 92.1445 27.1211C92.181 27.3763 92.2083 27.6224 92.2266 27.8594C92.263 28.151 92.2812 28.3698 92.2812 28.5156C92.3177 28.9896 92.3359 29.3451 92.3359 29.582C92.3542 30.3477 92.3359 31.1771 92.2812 32.0703C92.2812 32.2526 92.2995 32.4531 92.3359 32.6719C92.3542 33 92.3724 33.3281 92.3906 33.6562C92.4271 33.9844 92.4727 34.3034 92.5273 34.6133C92.582 35.2331 92.6732 35.7891 92.8008 36.2812C92.819 36.3724 92.8464 36.4909 92.8828 36.6367C93.1198 38.0951 92.6549 39.2253 91.4883 40.0273C90.3398 40.8294 89.1367 40.8568 87.8789 40.1094C87.6237 39.9635 87.4414 39.8451 87.332 39.7539C86.3477 39.6445 85.5911 39.1797 85.0625 38.3594C85.0443 38.3229 85.0169 38.2865 84.9805 38.25C84.5612 38.8698 83.987 39.2891 83.2578 39.5078C82.8385 39.6536 82.401 39.6901 81.9453 39.6172C80.9245 39.8906 79.9857 39.7174 79.1289 39.0977C78.2721 38.4596 77.862 37.5664 77.8984 36.418C77.8984 35.2148 77.8984 34.0026 77.8984 32.7812C77.8984 31.5599 77.8984 30.3385 77.8984 29.1172C77.8984 28.8438 77.8893 28.6341 77.8711 28.4883C77.8711 28.3607 77.8711 28.224 77.8711 28.0781C77.8711 27.9323 77.862 27.7956 77.8438 27.668C77.7708 27.4128 77.707 27.1758 77.6523 26.957C77.5977 26.7201 77.5794 26.4466 77.5977 26.1367C77.6341 25.4076 77.8984 24.7604 78.3906 24.1953C79.2474 23.1927 80.4232 22.8737 81.918 23.2383C82.2461 23.2747 82.5104 23.3294 82.7109 23.4023C83.6589 23.4023 84.4518 23.7852 85.0898 24.5508C85.1263 24.5872 85.1445 24.6055 85.1445 24.6055C85.2174 24.5326 85.2904 24.4414 85.3633 24.332ZM96.3555 31.9609C96.8841 32.7812 97.4128 33.5924 97.9414 34.3945C98.4883 35.1784 99.0352 35.9714 99.582 36.7734C99.8008 37.1198 100.12 37.293 100.539 37.293C100.63 37.293 100.721 37.293 100.812 37.293C100.904 37.293 101.004 37.293 101.113 37.293C101.277 37.5664 101.487 37.7852 101.742 37.9492C102.289 38.2773 102.781 38.2773 103.219 37.9492C103.674 37.6029 103.848 37.1289 103.738 36.5273C103.738 36.4727 103.72 36.3906 103.684 36.2812C103.611 35.9896 103.547 35.6888 103.492 35.3789C103.456 35.0508 103.419 34.7227 103.383 34.3945C103.328 34.0664 103.283 33.7383 103.246 33.4102C103.228 33.0638 103.201 32.7266 103.164 32.3984C103.164 32.2708 103.155 32.125 103.137 31.9609C103.118 31.7786 103.118 31.6146 103.137 31.4688C103.155 31.0859 103.164 30.7031 103.164 30.3203C103.182 29.9193 103.191 29.5273 103.191 29.1445C103.155 28.6706 103.137 28.3242 103.137 28.1055C103.118 28.0143 103.1 27.9323 103.082 27.8594C103.082 27.7682 103.082 27.6771 103.082 27.5859C103.046 27.2578 102.991 26.7839 102.918 26.1641C102.882 26 102.854 25.8451 102.836 25.6992C102.818 25.5352 102.799 25.3711 102.781 25.207C102.763 25.1706 102.745 25.1432 102.727 25.125C102.727 25.0885 102.727 25.043 102.727 24.9883C102.872 24.6419 102.818 24.2773 102.562 23.8945C102.234 23.457 101.806 23.2565 101.277 23.293C100.749 23.3294 100.393 23.6211 100.211 24.168C100.156 24.3503 100.129 24.5781 100.129 24.8516C99.6914 25.0703 99.4727 25.4258 99.4727 25.918C99.4727 26.5742 99.4727 27.2305 99.4727 27.8867C99.4727 28.543 99.4727 29.1992 99.4727 29.8555C99.4362 29.8372 99.4089 29.819 99.3906 29.8008C99.3724 29.7643 99.3542 29.7279 99.3359 29.6914C99.1536 29.3815 98.944 29.0625 98.707 28.7344C98.4883 28.4609 98.2878 28.1784 98.1055 27.8867C97.9232 27.5951 97.7409 27.3034 97.5586 27.0117C97.4857 26.9023 97.4128 26.793 97.3398 26.6836C97.2669 26.5742 97.2031 26.4648 97.1484 26.3555C96.8932 25.9909 96.638 25.6536 96.3828 25.3438C96.0911 24.9792 95.7083 24.8516 95.2344 24.9609C95.1615 24.9245 95.0977 24.8971 95.043 24.8789C94.8424 24.7878 94.651 24.7513 94.4688 24.7695C94.4505 24.7695 94.4323 24.7695 94.4141 24.7695C94.3958 24.7513 94.3867 24.7422 94.3867 24.7422C93.6211 24.5417 93.0651 24.6419 92.7188 25.043C92.5182 25.2799 92.418 25.526 92.418 25.7812C92.3997 25.9818 92.4635 26.2552 92.6094 26.6016C92.6641 26.7839 92.6823 26.9935 92.6641 27.2305C92.6641 27.4674 92.6732 27.6771 92.6914 27.8594C92.7096 28.0417 92.7188 28.306 92.7188 28.6523C92.7188 29.8737 92.7188 31.1042 92.7188 32.3438C92.7188 33.5651 92.7188 34.7773 92.7188 35.9805C92.6823 36.5273 92.8828 36.9193 93.3203 37.1562C93.7578 37.375 94.1953 37.3294 94.6328 37.0195C94.8698 37.2018 95.1615 37.2383 95.5078 37.1289C96.0365 36.9648 96.319 36.6003 96.3555 36.0352C96.3555 35.9987 96.3555 35.9622 96.3555 35.9258C96.3555 35.8711 96.3555 35.8164 96.3555 35.7617C96.3555 35.1419 96.3555 34.513 96.3555 33.875C96.3555 33.237 96.3555 32.599 96.3555 31.9609ZM98.2422 24.332C98.2786 24.1862 98.3151 24.0768 98.3516 24.0039C98.7708 22.6914 99.6458 21.9531 100.977 21.7891C102.307 21.6068 103.383 22.0625 104.203 23.1562C104.714 23.8854 104.914 24.6602 104.805 25.4805C104.823 25.6263 104.841 25.7721 104.859 25.918C104.878 26.0638 104.905 26.2096 104.941 26.3555C104.96 26.6107 104.987 26.8659 105.023 27.1211C105.06 27.3763 105.087 27.6224 105.105 27.8594C105.142 28.151 105.16 28.3698 105.16 28.5156C105.197 28.9896 105.215 29.3451 105.215 29.582C105.233 30.3477 105.215 31.1771 105.16 32.0703C105.16 32.2526 105.178 32.4531 105.215 32.6719C105.233 33 105.251 33.3281 105.27 33.6562C105.306 33.9844 105.352 34.3034 105.406 34.6133C105.461 35.2331 105.552 35.7891 105.68 36.2812C105.698 36.3724 105.725 36.4909 105.762 36.6367C105.999 38.0951 105.534 39.2253 104.367 40.0273C103.219 40.8294 102.016 40.8568 100.758 40.1094C100.503 39.9635 100.32 39.8451 100.211 39.7539C99.2266 39.6445 98.4701 39.1797 97.9414 38.3594C97.9232 38.3229 97.8958 38.2865 97.8594 38.25C97.4401 38.8698 96.8659 39.2891 96.1367 39.5078C95.7174 39.6536 95.2799 39.6901 94.8242 39.6172C93.8034 39.8906 92.8646 39.7174 92.0078 39.0977C91.151 38.4596 90.7409 37.5664 90.7773 36.418C90.7773 35.2148 90.7773 34.0026 90.7773 32.7812C90.7773 31.5599 90.7773 30.3385 90.7773 29.1172C90.7773 28.8438 90.7682 28.6341 90.75 28.4883C90.75 28.3607 90.75 28.224 90.75 28.0781C90.75 27.9323 90.7409 27.7956 90.7227 27.668C90.6497 27.4128 90.5859 27.1758 90.5312 26.957C90.4766 26.7201 90.4583 26.4466 90.4766 26.1367C90.513 25.4076 90.7773 24.7604 91.2695 24.1953C92.1263 23.1927 93.3021 22.8737 94.7969 23.2383C95.125 23.2747 95.3893 23.3294 95.5898 23.4023C96.5378 23.4023 97.3307 23.7852 97.9688 24.5508C98.0052 24.5872 98.0234 24.6055 98.0234 24.6055C98.0964 24.5326 98.1693 24.4414 98.2422 24.332ZM110.109 37.375C110.328 37.4297 110.556 37.457 110.793 37.457C111.03 37.457 111.23 37.457 111.395 37.457C111.486 37.457 111.577 37.457 111.668 37.457C111.777 37.457 111.878 37.457 111.969 37.457C112.333 37.4753 112.689 37.4844 113.035 37.4844C113.4 37.4661 113.764 37.457 114.129 37.457C114.366 37.457 114.612 37.457 114.867 37.457C115.122 37.457 115.387 37.457 115.66 37.457C116.007 37.4935 116.316 37.3841 116.59 37.1289C116.553 37.1836 116.626 37.1198 116.809 36.9375C117.283 36.5182 117.474 36.026 117.383 35.4609C117.31 35.1146 117.055 34.7409 116.617 34.3398C116.398 34.1758 116.262 34.0755 116.207 34.0391C116.061 33.9844 115.861 33.957 115.605 33.957C115.35 33.957 115.141 33.957 114.977 33.957C114.867 33.957 114.758 33.9661 114.648 33.9844C114.557 33.9844 114.466 33.9753 114.375 33.957C114.029 33.9388 113.509 33.9297 112.816 33.9297C112.561 33.9297 112.306 33.9297 112.051 33.9297C111.814 33.9297 111.586 33.9297 111.367 33.9297C111.221 33.9297 111.085 33.9297 110.957 33.9297C110.829 33.9297 110.702 33.9297 110.574 33.9297C110.574 33.7474 110.574 33.5651 110.574 33.3828C110.574 33.1823 110.574 32.9818 110.574 32.7812C111.285 32.7812 112.005 32.7812 112.734 32.7812C113.464 32.7812 114.193 32.7812 114.922 32.7812C115.414 32.8359 115.779 32.6628 116.016 32.2617C116.253 31.8607 116.262 31.4414 116.043 31.0039C115.988 30.8945 115.915 30.7943 115.824 30.7031C115.861 30.5573 115.861 30.3841 115.824 30.1836C115.697 29.5638 115.323 29.2539 114.703 29.2539C114.32 29.2539 113.947 29.2539 113.582 29.2539C113.236 29.2539 112.88 29.2539 112.516 29.2539C112.242 29.2539 111.978 29.2539 111.723 29.2539C111.467 29.2357 111.203 29.2266 110.93 29.2266C110.875 29.2266 110.811 29.2357 110.738 29.2539C110.684 29.2539 110.629 29.2539 110.574 29.2539C110.574 29.1263 110.574 28.9987 110.574 28.8711C110.574 28.7253 110.574 28.5885 110.574 28.4609C110.574 28.4609 110.583 28.4609 110.602 28.4609C110.62 28.4609 110.638 28.4609 110.656 28.4609C111.112 28.4427 111.568 28.4427 112.023 28.4609C112.279 28.4609 112.525 28.4609 112.762 28.4609C113.017 28.4609 113.281 28.4609 113.555 28.4609C113.846 28.4609 114.138 28.4701 114.43 28.4883C114.74 28.5065 115.049 28.5065 115.359 28.4883C115.943 28.4701 116.298 28.1693 116.426 27.5859C116.499 27.3125 116.462 27.0391 116.316 26.7656C116.572 26.401 116.599 26.0091 116.398 25.5898C116.18 25.1523 115.824 24.9336 115.332 24.9336C115.314 24.9336 115.286 24.9336 115.25 24.9336C115.232 24.9336 115.214 24.9336 115.195 24.9336C114.247 24.9336 113.309 24.9336 112.379 24.9336C111.449 24.9336 110.52 24.9336 109.59 24.9336C109.316 24.9336 109.052 24.9336 108.797 24.9336C108.56 24.9336 108.323 24.9336 108.086 24.9336C107.302 24.9336 106.901 25.3073 106.883 26.0547C106.883 26.1823 106.865 26.319 106.828 26.4648C106.81 26.5924 106.801 26.7109 106.801 26.8203C106.746 27.2396 106.773 27.7682 106.883 28.4062C106.883 28.5521 106.901 28.707 106.938 28.8711C106.974 29.0169 107.001 29.1628 107.02 29.3086C106.655 29.3633 106.29 29.4635 105.926 29.6094C105.561 29.737 105.352 30.0286 105.297 30.4844C105.224 30.9036 105.342 31.2591 105.652 31.5508C105.816 31.7513 106.017 31.888 106.254 31.9609C106.491 32.0156 106.719 32.0703 106.938 32.125C106.956 32.4167 106.965 32.6081 106.965 32.6992C106.928 33.0273 106.91 33.2734 106.91 33.4375C106.91 33.4375 106.91 33.6016 106.91 33.9297C106.892 34.2578 106.883 34.7409 106.883 35.3789C106.883 35.5247 106.883 35.6706 106.883 35.8164C106.901 35.9622 106.91 36.1081 106.91 36.2539C106.874 37.0378 107.238 37.4388 108.004 37.457C108.022 37.4753 108.059 37.4844 108.113 37.4844C108.733 37.5573 109.398 37.5208 110.109 37.375ZM104.941 33.9844C104.668 33.8203 104.449 33.6289 104.285 33.4102C103.52 32.6628 103.219 31.7422 103.383 30.6484C103.547 29.6458 104.03 28.8984 104.832 28.4062C104.796 27.8594 104.796 27.431 104.832 27.1211C104.832 27.0117 104.841 26.9023 104.859 26.793C104.878 26.6654 104.896 26.5469 104.914 26.4375C104.951 25.5807 105.279 24.8607 105.898 24.2773C106.536 23.694 107.293 23.4023 108.168 23.4023C108.387 23.4023 108.615 23.4023 108.852 23.4023C109.107 23.4023 109.362 23.4023 109.617 23.4023C110.547 23.4023 111.477 23.4023 112.406 23.4023C113.354 23.4023 114.302 23.4023 115.25 23.4023C115.25 23.4023 115.259 23.4023 115.277 23.4023C115.296 23.4023 115.323 23.4023 115.359 23.4023C116.69 23.4023 117.647 23.9948 118.23 25.1797C118.559 25.8542 118.641 26.5742 118.477 27.3398C118.513 27.7044 118.495 28.0872 118.422 28.4883C118.312 28.9805 118.085 29.4453 117.738 29.8828C117.757 29.9557 117.784 30.0833 117.82 30.2656C117.857 30.4115 117.875 30.5299 117.875 30.6211C118.331 31.5326 118.367 32.4258 117.984 33.3008C118.75 33.9753 119.224 34.7318 119.406 35.5703C119.625 36.8646 119.224 37.9766 118.203 38.9062C118.094 38.9792 118.012 39.043 117.957 39.0977C117.301 39.6992 116.526 39.9818 115.633 39.9453C115.378 39.9453 115.122 39.9453 114.867 39.9453C114.63 39.9453 114.393 39.9453 114.156 39.9453C113.773 39.9453 113.4 39.9453 113.035 39.9453C112.689 39.9453 112.333 39.9453 111.969 39.9453C111.896 39.9453 111.814 39.9453 111.723 39.9453C111.632 39.9271 111.559 39.918 111.504 39.918C111.212 39.9544 110.775 39.9453 110.191 39.8906C109.517 39.9818 108.77 40 107.949 39.9453C107.931 39.9453 107.913 39.9453 107.895 39.9453C107.038 39.8906 106.318 39.5443 105.734 38.9062C105.151 38.2682 104.887 37.5208 104.941 36.6641C104.941 36.5365 104.932 36.4089 104.914 36.2812C104.914 36.1354 104.914 35.9896 104.914 35.8438C104.914 35.1693 104.923 34.6589 104.941 34.3125C104.941 34.2578 104.941 34.2031 104.941 34.1484C104.941 34.0938 104.941 34.0391 104.941 33.9844ZM128.074 29.8555C128.384 29.9466 128.685 29.8919 128.977 29.6914C129.378 29.4362 129.551 29.0807 129.496 28.625C129.46 28.2786 129.323 27.9323 129.086 27.5859C129.031 27.513 128.977 27.4401 128.922 27.3672C128.867 27.2943 128.812 27.2122 128.758 27.1211C128.247 26.2461 127.546 25.599 126.652 25.1797C125.832 24.7786 124.884 24.6055 123.809 24.6602C123.426 24.6602 123.061 24.7148 122.715 24.8242C122.15 24.9883 121.703 25.1797 121.375 25.3984C121.284 25.4531 121.202 25.5078 121.129 25.5625C121.074 25.6172 121.01 25.6628 120.938 25.6992C120.81 25.8086 120.664 25.9089 120.5 26C119.898 26.3828 119.461 26.8385 119.188 27.3672C119.023 27.6953 118.969 27.987 119.023 28.2422C119.005 28.3151 119.014 28.4154 119.051 28.543C119.014 28.5977 118.978 28.7161 118.941 28.8984C118.759 29.3906 118.632 29.8464 118.559 30.2656C118.467 30.6484 118.395 30.9948 118.34 31.3047C118.285 31.5964 118.285 31.9336 118.34 32.3164C118.376 32.7539 118.495 33.2461 118.695 33.793C118.513 33.9753 118.422 34.0664 118.422 34.0664C118.003 34.5951 118.048 35.1419 118.559 35.707C118.595 35.7617 118.668 35.8438 118.777 35.9531C119.324 36.5 120.053 36.8737 120.965 37.0742C121.129 37.1289 121.293 37.1836 121.457 37.2383C121.639 37.2747 121.831 37.3021 122.031 37.3203C122.214 37.3568 122.396 37.3932 122.578 37.4297C122.779 37.4661 122.979 37.4844 123.18 37.4844C123.982 37.5573 124.747 37.5299 125.477 37.4023C126.224 37.2747 126.935 36.9375 127.609 36.3906C128.339 35.8073 128.895 35.0234 129.277 34.0391C129.387 33.7656 129.487 33.5104 129.578 33.2734C129.688 32.9089 129.66 32.5443 129.496 32.1797C129.168 31.5599 128.694 31.2773 128.074 31.332C127.746 31.332 127.409 31.4596 127.062 31.7148C126.57 31.6419 126.178 31.7969 125.887 32.1797C125.868 32.2161 125.85 32.2526 125.832 32.2891C125.814 32.3073 125.805 32.3255 125.805 32.3438C125.786 32.362 125.768 32.3802 125.75 32.3984C125.75 32.4167 125.75 32.4258 125.75 32.4258C125.75 32.4622 125.741 32.4896 125.723 32.5078C125.595 32.8177 125.422 33.1367 125.203 33.4648C124.984 33.7383 124.711 33.957 124.383 34.1211C124.383 34.1211 124.374 34.1302 124.355 34.1484C124.246 34.0938 124.055 34.0664 123.781 34.0664C123.781 34.0664 123.772 34.0664 123.754 34.0664C123.736 34.0482 123.727 34.0391 123.727 34.0391C123.599 33.9844 123.471 33.9388 123.344 33.9023C123.216 33.8477 123.098 33.7656 122.988 33.6562C122.861 33.5651 122.715 33.3919 122.551 33.1367C122.387 32.8815 122.286 32.6719 122.25 32.5078C122.086 32.1068 121.995 31.6784 121.977 31.2227C121.94 30.5664 122.022 29.9648 122.223 29.418C122.332 29.0169 122.551 28.707 122.879 28.4883C123.225 28.2878 123.562 28.1966 123.891 28.2148C124.438 28.3242 124.993 28.4883 125.559 28.707C125.595 28.8346 125.65 29.0078 125.723 29.2266C125.723 29.2812 125.732 29.3268 125.75 29.3633C125.768 29.3997 125.786 29.4362 125.805 29.4727C125.951 29.9102 126.224 30.1654 126.625 30.2383C127.026 30.3112 127.4 30.2201 127.746 29.9648C127.783 29.9284 127.81 29.9102 127.828 29.9102C127.865 29.8919 127.91 29.8828 127.965 29.8828C127.965 29.8828 127.974 29.8828 127.992 29.8828C128.01 29.8646 128.038 29.8555 128.074 29.8555ZM130.891 31.1133C131.036 31.2956 131.173 31.5052 131.301 31.7422C131.72 32.599 131.793 33.4648 131.52 34.3398C131.465 34.5039 131.41 34.6589 131.355 34.8047C131.301 34.9505 131.246 35.0964 131.191 35.2422C130.645 36.5729 129.87 37.6393 128.867 38.4414C127.992 39.1341 127.062 39.5807 126.078 39.7812C125.112 39.9635 124.091 40.0182 123.016 39.9453C122.797 39.9453 122.578 39.9271 122.359 39.8906C122.159 39.8542 121.949 39.8177 121.73 39.7812C121.512 39.7448 121.302 39.7083 121.102 39.6719C120.919 39.6172 120.737 39.5625 120.555 39.5078C119.297 39.2161 118.258 38.6693 117.438 37.8672C117.346 37.8125 117.219 37.6758 117.055 37.457C116.089 36.3086 115.924 35.1055 116.562 33.8477C116.49 33.6107 116.435 33.3464 116.398 33.0547C116.344 32.5443 116.353 32.0885 116.426 31.6875C116.48 31.2682 116.553 30.8125 116.645 30.3203C116.699 30.0651 116.772 29.819 116.863 29.582C116.936 29.3268 117 29.0625 117.055 28.7891C117.036 28.2057 117.164 27.5859 117.438 26.9297C117.893 26.0182 118.577 25.2982 119.488 24.7695C119.543 24.7331 119.598 24.6966 119.652 24.6602C119.725 24.6237 119.789 24.5781 119.844 24.5234C119.917 24.4688 119.99 24.4141 120.062 24.3594C120.135 24.2865 120.227 24.2227 120.336 24.168C120.883 23.8216 121.503 23.5482 122.195 23.3477C122.742 23.2018 123.262 23.1289 123.754 23.1289C125.194 23.0742 126.461 23.3112 127.555 23.8398C128.812 24.4596 129.806 25.362 130.535 26.5469C130.572 26.6198 130.645 26.7292 130.754 26.875C131.21 27.5495 131.465 28.224 131.52 28.8984C131.592 29.737 131.383 30.4753 130.891 31.1133ZM124.055 31.9062C124.055 31.888 124.055 31.8789 124.055 31.8789C124.091 31.8242 124.128 31.7604 124.164 31.6875C124.201 31.6146 124.246 31.5417 124.301 31.4688C124.301 31.4688 124.319 31.4505 124.355 31.4141C124.21 31.1953 124.109 31.0221 124.055 30.8945C124.018 31.0404 124 31.2682 124 31.5781C124 31.6875 124.018 31.7969 124.055 31.9062ZM134.363 32.4805C134.309 32.5898 134.263 32.7539 134.227 32.9727C134.227 33.0273 134.227 33.0729 134.227 33.1094C134.227 33.1458 134.227 33.1823 134.227 33.2188C134.227 33.2734 134.227 33.3281 134.227 33.3828C134.245 33.4193 134.254 33.4557 134.254 33.4922C134.254 33.6562 134.254 33.8294 134.254 34.0117C134.254 34.194 134.254 34.3672 134.254 34.5312C134.217 34.7682 134.181 35.1419 134.145 35.6523C134.108 36.4727 134.445 37.0013 135.156 37.2383C135.174 37.2565 135.211 37.2656 135.266 37.2656C135.43 37.3203 135.612 37.3294 135.812 37.293C136.25 37.5846 136.678 37.612 137.098 37.375C137.535 37.138 137.809 36.7279 137.918 36.1445C137.918 36.0898 137.918 36.0352 137.918 35.9805C137.936 35.9076 137.954 35.8438 137.973 35.7891C137.973 35.6797 137.973 35.5794 137.973 35.4883C137.973 35.3789 137.973 35.2695 137.973 35.1602C137.936 34.7227 137.918 34.3854 137.918 34.1484C137.918 33 137.918 31.8516 137.918 30.7031C137.918 29.5365 137.918 28.3789 137.918 27.2305C138.009 27.2305 138.1 27.2305 138.191 27.2305C138.301 27.2305 138.41 27.2305 138.52 27.2305C138.738 27.2305 138.957 27.2305 139.176 27.2305C139.413 27.2305 139.641 27.2305 139.859 27.2305C140.406 27.2305 140.798 27.0755 141.035 26.7656C141.145 26.5833 141.208 26.4557 141.227 26.3828C141.245 26.3828 141.254 26.3737 141.254 26.3555C141.546 26.2279 141.81 26.0547 142.047 25.8359C142.302 25.599 142.439 25.2891 142.457 24.9062C142.457 24.3776 142.184 23.9766 141.637 23.7031C141.4 23.5938 141.008 23.5573 140.461 23.5938C139.841 23.6302 139.376 23.6393 139.066 23.6211C138.848 23.6211 138.638 23.6393 138.438 23.6758C138.237 23.694 138.027 23.7031 137.809 23.7031C137.626 23.7031 137.435 23.7031 137.234 23.7031C137.052 23.7031 136.87 23.7031 136.688 23.7031C136.56 23.7031 136.432 23.7031 136.305 23.7031C136.177 23.7031 136.059 23.7031 135.949 23.7031C135.84 23.7031 135.721 23.7031 135.594 23.7031C135.466 23.7031 135.348 23.7031 135.238 23.7031C134.728 23.7031 134.208 23.7031 133.68 23.7031C133.169 23.7031 132.659 23.7031 132.148 23.7031C131.711 23.6849 131.365 23.8398 131.109 24.168C130.854 24.4779 130.79 24.8333 130.918 25.2344C130.991 25.4896 131.118 25.6992 131.301 25.8633C131.264 25.9909 131.264 26.1094 131.301 26.2188C131.392 26.8568 131.747 27.1849 132.367 27.2031C132.695 27.2214 133.188 27.2305 133.844 27.2305C133.844 27.2305 133.853 27.2305 133.871 27.2305C133.908 27.2305 133.944 27.2305 133.98 27.2305C133.908 27.7773 133.971 28.4336 134.172 29.1992C134.19 29.3268 134.208 29.4544 134.227 29.582C134.245 29.7096 134.272 29.8281 134.309 29.9375C134.327 30.2109 134.372 30.4115 134.445 30.5391C134.445 30.5755 134.436 30.612 134.418 30.6484C134.418 30.6667 134.418 30.6849 134.418 30.7031C134.418 30.8307 134.418 30.9583 134.418 31.0859C134.436 31.2135 134.445 31.332 134.445 31.4414C134.409 31.5326 134.372 31.7422 134.336 32.0703C134.336 32.1432 134.336 32.2161 134.336 32.2891C134.354 32.362 134.363 32.4258 134.363 32.4805ZM132.148 29.6641C131.438 29.6094 130.827 29.3359 130.316 28.8438C129.806 28.3333 129.487 27.7227 129.359 27.0117C129.214 26.7383 129.113 26.4831 129.059 26.2461C128.767 25.207 128.949 24.2591 129.605 23.4023C130.262 22.5273 131.137 22.1172 132.23 22.1719C132.723 22.1719 133.224 22.1719 133.734 22.1719C134.245 22.1719 134.755 22.1719 135.266 22.1719C135.375 22.1719 135.493 22.1719 135.621 22.1719C135.749 22.1719 135.876 22.1719 136.004 22.1719C136.113 22.1719 136.232 22.1719 136.359 22.1719C136.505 22.1719 136.642 22.1719 136.77 22.1719C136.934 22.1719 137.107 22.1719 137.289 22.1719C137.471 22.1719 137.654 22.1719 137.836 22.1719C138.055 22.1719 138.264 22.1628 138.465 22.1445C138.684 22.1081 138.902 22.0898 139.121 22.0898C139.668 22.0898 140.078 22.0807 140.352 22.0625C140.734 22.0443 141.099 22.0534 141.445 22.0898C141.792 22.1081 142.156 22.1992 142.539 22.3633C143.833 23.0013 144.48 24.013 144.48 25.3984C144.48 26.638 143.906 27.6133 142.758 28.3242C142.74 28.3607 142.712 28.3971 142.676 28.4336C142.056 29.2721 141.145 29.7005 139.941 29.7188C139.941 30.5391 139.941 31.3594 139.941 32.1797C139.941 32.9818 139.941 33.793 139.941 34.6133C139.941 34.7773 139.951 34.9414 139.969 35.1055C139.987 35.2513 139.996 35.3971 139.996 35.543C140.014 35.8711 140.014 36.1901 139.996 36.5C139.978 36.5911 139.96 36.6732 139.941 36.7461C139.941 36.819 139.941 36.8919 139.941 36.9648C139.741 38.0586 139.185 38.8971 138.273 39.4805C137.362 40.0456 136.414 40.1458 135.43 39.7812C135.229 39.7812 135.038 39.7539 134.855 39.6992C134.673 39.6628 134.555 39.6263 134.5 39.5898C133.771 39.3346 133.188 38.8698 132.75 38.1953C132.331 37.5026 132.139 36.7734 132.176 36.0078C132.212 35.4609 132.249 35.0417 132.285 34.75C132.285 34.6589 132.285 34.5495 132.285 34.4219C132.285 34.276 132.285 34.1484 132.285 34.0391C132.285 34.0026 132.276 33.9661 132.258 33.9297C132.258 33.875 132.258 33.8203 132.258 33.7656C132.258 33.7109 132.258 33.6471 132.258 33.5742C132.258 33.5013 132.258 33.4284 132.258 33.3555C132.294 33.0273 132.331 32.7904 132.367 32.6445C132.367 32.6263 132.367 32.6081 132.367 32.5898C132.367 32.5534 132.367 32.5169 132.367 32.4805C132.404 32.1159 132.44 31.8424 132.477 31.6602C132.477 31.6055 132.467 31.5508 132.449 31.4961C132.449 31.4232 132.449 31.3594 132.449 31.3047C132.413 31.1771 132.376 30.9857 132.34 30.7305C132.303 30.4753 132.267 30.2656 132.23 30.1016C132.194 29.9193 132.167 29.7734 132.148 29.6641ZM159.902 29.7461C159.793 29.2721 159.702 28.8711 159.629 28.543C159.592 28.4701 159.565 28.388 159.547 28.2969C159.529 28.2057 159.51 28.1055 159.492 27.9961C159.438 27.8138 159.392 27.6224 159.355 27.4219C159.337 27.2031 159.301 26.9844 159.246 26.7656C159.191 26.5833 159.137 26.401 159.082 26.2188C159.046 26.0182 159.009 25.8177 158.973 25.6172C158.809 24.9974 158.426 24.6875 157.824 24.6875C157.496 24.6875 157.214 24.7695 156.977 24.9336C156.648 24.7695 156.311 24.7695 155.965 24.9336C155.327 25.2253 155.126 25.7083 155.363 26.3828C155.473 26.6927 155.555 26.9661 155.609 27.2031C155.646 27.4219 155.691 27.6406 155.746 27.8594C155.801 28.0599 155.855 28.2695 155.91 28.4883C155.983 28.7435 156.074 29.1263 156.184 29.6367C156.22 29.8008 156.257 29.9648 156.293 30.1289C156.329 30.2747 156.375 30.4297 156.43 30.5938C156.466 30.776 156.493 30.9583 156.512 31.1406C156.548 31.3229 156.594 31.4961 156.648 31.6602C156.703 31.9883 156.767 32.3073 156.84 32.6172C156.913 32.9271 157.004 33.2279 157.113 33.5195C157.168 33.6836 157.232 33.8385 157.305 33.9844C157.378 34.1302 157.441 34.2669 157.496 34.3945C157.551 34.5586 157.605 34.7227 157.66 34.8867C157.733 35.0326 157.806 35.1784 157.879 35.3242C158.007 35.6523 158.098 35.8529 158.152 35.9258C158.152 36.1263 158.171 36.2721 158.207 36.3633C158.207 36.6185 158.307 36.8737 158.508 37.1289C158.745 37.4206 159.064 37.5482 159.465 37.5117C159.556 37.5117 159.693 37.4935 159.875 37.457C160.221 37.3477 160.531 37.1471 160.805 36.8555C161.352 36.8008 161.671 36.4818 161.762 35.8984C161.762 35.8438 161.771 35.7617 161.789 35.6523C161.807 35.543 161.826 35.4518 161.844 35.3789C161.953 35.1602 162.081 34.7591 162.227 34.1758C162.299 33.957 162.409 33.6107 162.555 33.1367C162.609 32.8815 162.673 32.6263 162.746 32.3711C162.819 32.1159 162.892 31.8516 162.965 31.5781C162.965 31.5781 162.965 31.569 162.965 31.5508C162.983 31.5326 162.992 31.5234 162.992 31.5234C163.138 31.888 163.257 32.1615 163.348 32.3438C163.348 32.3438 163.348 32.3529 163.348 32.3711C163.348 32.3893 163.357 32.3984 163.375 32.3984C163.375 32.4167 163.375 32.4349 163.375 32.4531C163.375 32.4714 163.375 32.4805 163.375 32.4805C163.375 32.5352 163.375 32.5898 163.375 32.6445C163.393 32.6992 163.402 32.7448 163.402 32.7812C163.421 33.0547 163.475 33.3099 163.566 33.5469C163.639 33.8385 163.694 34.0482 163.73 34.1758C163.822 34.5586 163.913 34.9323 164.004 35.2969C164.113 35.6615 164.223 36.0169 164.332 36.3633C164.441 36.8372 164.715 37.1107 165.152 37.1836C165.408 37.3659 165.69 37.457 166 37.457C166.365 37.4388 166.629 37.3385 166.793 37.1562C166.975 36.974 167.158 36.7734 167.34 36.5547C167.759 36.4271 168.005 36.1172 168.078 35.625C168.078 35.5703 168.078 35.5156 168.078 35.4609C168.096 35.388 168.115 35.3242 168.133 35.2695C168.206 34.9961 168.251 34.8138 168.27 34.7227C168.288 34.668 168.306 34.5859 168.324 34.4766C168.342 34.3672 168.361 34.276 168.379 34.2031C168.452 34.0573 168.543 33.8385 168.652 33.5469C168.707 33.3281 168.762 33.1003 168.816 32.8633C168.889 32.6263 168.962 32.3893 169.035 32.1523C169.126 31.7878 169.217 31.4232 169.309 31.0586C169.418 30.6758 169.527 30.293 169.637 29.9102C169.801 29.3086 169.965 28.6979 170.129 28.0781C170.311 27.4583 170.493 26.8385 170.676 26.2188C170.676 26.1823 170.676 26.1458 170.676 26.1094C170.694 26.0729 170.703 26.0273 170.703 25.9727V25.9453C170.721 25.5625 170.585 25.2435 170.293 24.9883C170.293 24.9336 170.293 24.8789 170.293 24.8242C170.293 24.7695 170.293 24.7148 170.293 24.6602C170.202 24.0768 169.901 23.6849 169.391 23.4844C168.898 23.2656 168.434 23.375 167.996 23.8125C167.65 24.1589 167.44 24.5234 167.367 24.9062C167.258 25.2344 167.167 25.4805 167.094 25.6445C166.893 26.082 166.757 26.4648 166.684 26.793C166.629 27.0117 166.565 27.3398 166.492 27.7773C166.456 27.9232 166.419 28.069 166.383 28.2148C166.365 28.3424 166.346 28.4701 166.328 28.5977C166.292 28.707 166.264 28.8255 166.246 28.9531C166.246 29.0625 166.237 29.1719 166.219 29.2812C166.201 29.3542 166.173 29.4271 166.137 29.5C166.118 29.5729 166.109 29.6367 166.109 29.6914C166.055 29.5273 166 29.3633 165.945 29.1992C165.909 29.0169 165.872 28.8438 165.836 28.6797C165.781 28.5339 165.727 28.3971 165.672 28.2695C165.635 28.1419 165.599 28.0052 165.562 27.8594C165.508 27.7318 165.453 27.5951 165.398 27.4492C165.344 27.3034 165.307 27.1576 165.289 27.0117C165.216 26.5013 165.143 26.0911 165.07 25.7812C164.87 25.2161 164.505 24.9336 163.977 24.9336C163.247 24.4049 162.527 24.3138 161.816 24.6602C161.452 24.8424 161.224 25.0977 161.133 25.4258C161.042 25.6445 160.969 25.8633 160.914 26.082C160.878 26.2826 160.832 26.4831 160.777 26.6836C160.613 27.2122 160.513 27.6406 160.477 27.9688C160.404 28.3333 160.404 28.6159 160.477 28.8164C160.44 28.8711 160.404 28.9258 160.367 28.9805C160.349 29.0169 160.331 29.0625 160.312 29.1172C160.258 29.2266 160.203 29.3268 160.148 29.418C160.094 29.4909 160.039 29.5729 159.984 29.6641C159.966 29.6823 159.948 29.7005 159.93 29.7188C159.911 29.737 159.902 29.7461 159.902 29.7461ZM170.32 35.3516C170.32 35.4062 170.302 35.5065 170.266 35.6523C170.229 35.7617 170.202 35.862 170.184 35.9531C170.165 36.0443 170.147 36.1354 170.129 36.2266C170.111 36.263 170.102 36.3086 170.102 36.3633C169.956 37.3659 169.473 38.1224 168.652 38.6328C168.306 39.0156 167.951 39.3255 167.586 39.5625C167.221 39.7812 166.738 39.8997 166.137 39.918C165.48 39.9544 164.888 39.8177 164.359 39.5078C163.776 39.3073 163.293 38.9427 162.91 38.4141C162.582 38.7422 162.227 38.9792 161.844 39.125C161.406 39.4714 160.96 39.7083 160.504 39.8359C160.23 39.9271 159.948 39.9818 159.656 40C158.526 40.0182 157.642 39.6536 157.004 38.9062C156.548 38.3958 156.302 37.8216 156.266 37.1836C156.247 37.1471 156.229 37.1107 156.211 37.0742C156.211 37.0378 156.211 36.9922 156.211 36.9375C156.174 36.8828 156.138 36.819 156.102 36.7461C156.065 36.6732 156.038 36.5911 156.02 36.5C155.965 36.3542 155.901 36.2083 155.828 36.0625C155.773 35.9167 155.719 35.7617 155.664 35.5977C155.609 35.4518 155.546 35.306 155.473 35.1602C155.4 35.0143 155.336 34.8594 155.281 34.6953C155.135 34.3672 155.017 34.0299 154.926 33.6836C154.853 33.319 154.78 32.9544 154.707 32.5898C154.652 32.4258 154.616 32.2617 154.598 32.0977C154.579 31.9154 154.552 31.7422 154.516 31.5781C154.461 31.4141 154.424 31.25 154.406 31.0859C154.388 30.9036 154.352 30.7305 154.297 30.5664C154.26 30.4023 154.224 30.2292 154.188 30.0469C154.151 29.8464 154.105 29.6549 154.051 29.4727C153.887 28.8893 153.768 28.4154 153.695 28.0508C153.695 27.9596 153.677 27.8776 153.641 27.8047C153.604 27.7135 153.568 27.6133 153.531 27.5039C153.276 26.7383 153.303 25.9909 153.613 25.2617C153.905 24.5143 154.406 23.9583 155.117 23.5938C155.682 23.3203 156.266 23.2201 156.867 23.293C157.232 23.2018 157.569 23.1562 157.879 23.1562C158.699 23.1562 159.41 23.4388 160.012 24.0039C160.267 23.7487 160.586 23.5299 160.969 23.3477C162.227 22.7279 163.484 22.7734 164.742 23.4844C165.125 23.5938 165.48 23.7578 165.809 23.9766C166.027 23.5573 166.292 23.1927 166.602 22.8828C167.586 21.862 168.716 21.5703 169.992 22.0078C171.286 22.4453 172.052 23.3385 172.289 24.6875C172.635 25.2708 172.781 25.8906 172.727 26.5469V26.5742C172.727 26.8112 172.699 27.0208 172.645 27.2031C172.462 27.8229 172.289 28.4427 172.125 29.0625C171.961 29.6823 171.797 30.293 171.633 30.8945C171.523 31.2773 171.414 31.6602 171.305 32.043C171.214 32.4076 171.113 32.7812 171.004 33.1641C170.931 33.401 170.858 33.6471 170.785 33.9023C170.73 34.1393 170.667 34.3763 170.594 34.6133C170.557 34.7773 170.466 35.0234 170.32 35.3516ZM178.715 25.8086C178.788 25.7539 178.888 25.7266 179.016 25.7266C179.052 25.7812 179.089 25.8359 179.125 25.8906C179.18 25.9453 179.225 25.9818 179.262 26C179.462 26.401 179.59 26.6927 179.645 26.875C179.681 26.9844 179.699 27.0573 179.699 27.0938C179.663 27.276 179.645 27.5404 179.645 27.8867C179.645 28.069 179.635 28.2057 179.617 28.2969C179.526 28.2969 179.444 28.306 179.371 28.3242C179.298 28.3242 179.234 28.3242 179.18 28.3242C179.052 28.3242 178.924 28.3333 178.797 28.3516C178.669 28.3516 178.542 28.3516 178.414 28.3516C178.414 28.2422 178.414 28.1237 178.414 27.9961C178.432 27.8503 178.441 27.7135 178.441 27.5859C178.441 27.4401 178.432 27.2943 178.414 27.1484C178.414 27.0026 178.423 26.8477 178.441 26.6836C178.441 26.556 178.451 26.4102 178.469 26.2461C178.505 26.0638 178.587 25.918 178.715 25.8086ZM177.867 22.582C177.503 22.6732 177.257 22.901 177.129 23.2656C177.074 23.3932 177.02 23.5208 176.965 23.6484C176.928 23.7578 176.892 23.8672 176.855 23.9766C176.673 24.3776 176.536 24.7695 176.445 25.1523C176.372 25.3711 176.272 25.6081 176.145 25.8633C176.053 26.0456 175.971 26.237 175.898 26.4375C175.826 26.6198 175.762 26.793 175.707 26.957C175.579 27.2852 175.507 27.4948 175.488 27.5859C175.452 27.6771 175.424 27.7591 175.406 27.832C175.388 27.9049 175.37 27.9779 175.352 28.0508C175.315 28.0872 175.279 28.1784 175.242 28.3242C175.133 28.3424 174.96 28.3516 174.723 28.3516C174.285 28.3698 173.784 28.4245 173.219 28.5156C172.654 28.6068 172.362 28.9622 172.344 29.582C172.307 30.2747 172.654 30.6849 173.383 30.8125C173.438 30.8307 173.529 30.849 173.656 30.8672C173.784 30.8854 173.921 30.9036 174.066 30.9219C173.975 31.1771 173.884 31.4323 173.793 31.6875C173.72 31.9427 173.638 32.1888 173.547 32.4258C173.438 32.7357 173.301 33.082 173.137 33.4648C173.082 33.5924 173.018 33.7383 172.945 33.9023C172.872 34.0482 172.809 34.1758 172.754 34.2852C172.645 34.4492 172.508 34.6862 172.344 34.9961C172.198 35.2878 172.107 35.5156 172.07 35.6797C171.979 36.0807 172.052 36.4362 172.289 36.7461C172.49 37.0195 172.763 37.1654 173.109 37.1836C173.456 37.2383 173.757 37.138 174.012 36.8828C174.194 36.7188 174.358 36.5273 174.504 36.3086C174.559 36.2539 174.641 36.1536 174.75 36.0078C174.878 35.8438 175.005 35.6797 175.133 35.5156C175.26 35.3333 175.379 35.1419 175.488 34.9414C175.507 34.9232 175.516 34.9049 175.516 34.8867C175.57 34.9049 175.661 34.9141 175.789 34.9141C176.336 34.9141 176.701 34.6589 176.883 34.1484C177.029 33.6745 177.147 33.3281 177.238 33.1094C177.293 32.9271 177.357 32.7448 177.43 32.5625C177.503 32.362 177.576 32.1615 177.648 31.9609H180.328C180.328 31.9792 180.337 31.9974 180.355 32.0156C180.392 32.1432 180.428 32.2708 180.465 32.3984C180.52 32.526 180.574 32.6445 180.629 32.7539C180.775 33.1914 180.93 33.5286 181.094 33.7656C181.094 33.7656 181.094 33.7747 181.094 33.793C181.112 33.8112 181.121 33.8203 181.121 33.8203C181.121 33.8932 181.13 33.9661 181.148 34.0391C181.167 34.0938 181.185 34.1484 181.203 34.2031C181.312 34.6406 181.586 34.9141 182.023 35.0234C182.115 35.0599 182.224 35.1784 182.352 35.3789C182.497 35.5794 182.598 35.7161 182.652 35.7891C182.762 36.0078 182.88 36.2266 183.008 36.4453C183.135 36.6458 183.281 36.8281 183.445 36.9922C183.737 37.4115 184.138 37.5846 184.648 37.5117C184.685 37.5117 184.721 37.5117 184.758 37.5117C184.794 37.4935 184.84 37.4753 184.895 37.457C185.095 37.457 185.305 37.4023 185.523 37.293C185.943 37.0378 186.143 36.6458 186.125 36.1172C186.089 35.9167 185.997 35.6979 185.852 35.4609C185.724 35.224 185.624 34.9961 185.551 34.7773C185.496 34.6497 185.432 34.5221 185.359 34.3945C185.305 34.2487 185.25 34.0938 185.195 33.9297C185.049 33.5651 184.885 33.2096 184.703 32.8633C184.539 32.4987 184.402 32.125 184.293 31.7422C184.202 31.4688 184.047 31.0768 183.828 30.5664C183.755 30.4023 183.646 30.1745 183.5 29.8828C183.5 29.8646 183.491 29.8464 183.473 29.8281C183.418 29.737 183.336 29.6094 183.227 29.4453C183.117 29.3359 183.026 29.263 182.953 29.2266C182.971 29.0625 182.971 28.8984 182.953 28.7344C182.917 28.625 182.88 28.5339 182.844 28.4609C182.807 28.388 182.771 28.2969 182.734 28.1875C182.68 28.0599 182.625 27.9323 182.57 27.8047C182.534 27.6589 182.497 27.513 182.461 27.3672C182.37 27.1849 182.288 26.9935 182.215 26.793C182.16 26.5924 182.096 26.3919 182.023 26.1914C181.951 26.0456 181.887 25.8997 181.832 25.7539C181.777 25.5898 181.723 25.4258 181.668 25.2617C181.577 25.0612 181.495 24.8607 181.422 24.6602C181.367 24.4414 181.285 24.2318 181.176 24.0312C181.158 24.013 181.139 23.9948 181.121 23.9766C181.103 23.9583 181.094 23.931 181.094 23.8945C181.039 23.7669 180.948 23.6302 180.82 23.4844C180.693 23.3568 180.565 23.2383 180.438 23.1289C180.128 22.8919 179.863 22.6914 179.645 22.5273C179.025 22.1081 178.432 22.1263 177.867 22.582ZM185.195 39.918C185.141 39.9362 185.095 39.9544 185.059 39.9727C185.022 39.9727 184.986 39.9727 184.949 39.9727C183.673 40.1185 182.661 39.6992 181.914 38.7148C181.732 38.4961 181.568 38.2682 181.422 38.0312C181.276 37.7943 181.13 37.5573 180.984 37.3203C180.966 37.3021 180.948 37.2839 180.93 37.2656C180.911 37.2474 180.902 37.2201 180.902 37.1836C180.064 36.8008 179.526 36.1354 179.289 35.1875C179.289 35.1328 179.271 35.0508 179.234 34.9414C179.198 34.8867 179.161 34.832 179.125 34.7773C179.089 34.7044 179.061 34.6315 179.043 34.5586C178.988 34.6862 178.943 34.8138 178.906 34.9414C178.888 35.069 178.852 35.1875 178.797 35.2969C178.451 36.3177 177.758 36.974 176.719 37.2656C176.646 37.3568 176.573 37.4479 176.5 37.5391C176.445 37.612 176.391 37.6758 176.336 37.7305C176.263 37.8398 176.199 37.9219 176.145 37.9766C175.962 38.25 175.716 38.5417 175.406 38.8516C174.677 39.4896 173.866 39.763 172.973 39.6719C172.025 39.599 171.286 39.1797 170.758 38.4141C170.138 37.5938 169.947 36.6732 170.184 35.6523C170.275 35.3424 170.411 35.0234 170.594 34.6953C170.758 34.349 170.922 34.0299 171.086 33.7383C171.141 33.6471 171.177 33.5469 171.195 33.4375C171.232 33.3281 171.277 33.2188 171.332 33.1094C171.423 32.9271 171.496 32.7539 171.551 32.5898C170.767 31.8971 170.384 31.0312 170.402 29.9922C170.439 29.1172 170.767 28.3789 171.387 27.7773C171.751 27.4492 172.134 27.2305 172.535 27.1211C172.954 26.9935 173.383 26.9023 173.82 26.8477C173.82 26.8294 173.82 26.8112 173.82 26.793C173.839 26.7747 173.857 26.7474 173.875 26.7109C173.948 26.5104 174.021 26.319 174.094 26.1367C174.167 25.9362 174.249 25.7266 174.34 25.5078C174.449 25.2708 174.513 25.1341 174.531 25.0977C174.586 24.8789 174.65 24.6602 174.723 24.4414C174.814 24.2044 174.905 23.9674 174.996 23.7305C175.051 23.6211 175.096 23.5117 175.133 23.4023C175.188 23.2747 175.242 23.1471 175.297 23.0195C175.607 22.1992 176.163 21.6159 176.965 21.2695C178.223 20.4492 179.499 20.4674 180.793 21.3242C180.993 21.4701 181.276 21.6888 181.641 21.9805C181.951 22.2174 182.197 22.4362 182.379 22.6367C182.598 22.9102 182.798 23.2201 182.98 23.5664C183.108 23.8216 183.208 24.0677 183.281 24.3047C183.354 24.5234 183.445 24.7604 183.555 25.0156C183.609 25.1797 183.664 25.3346 183.719 25.4805C183.792 25.6263 183.855 25.763 183.91 25.8906C184.02 26.1641 184.165 26.5742 184.348 27.1211C184.402 27.2852 184.448 27.4401 184.484 27.5859C184.539 27.7135 184.594 27.8411 184.648 27.9688C184.812 28.3516 184.913 28.6432 184.949 28.8438C185.077 29.026 185.186 29.1992 185.277 29.3633C185.277 29.3815 185.286 29.4089 185.305 29.4453C185.323 29.4635 185.341 29.4727 185.359 29.4727C185.505 29.8008 185.615 30.056 185.688 30.2383C185.906 30.7122 186.079 31.1497 186.207 31.5508C186.335 31.9336 186.48 32.2982 186.645 32.6445C186.809 32.9909 186.964 33.3372 187.109 33.6836C187.164 33.8659 187.264 34.1211 187.41 34.4492C187.574 34.7956 187.72 35.1055 187.848 35.3789C187.993 35.6341 188.094 35.9714 188.148 36.3906C188.294 37.776 187.766 38.8151 186.562 39.5078C186.107 39.763 185.651 39.8997 185.195 39.918ZM191.238 33.9844C191.238 33.9479 191.238 33.9115 191.238 33.875C191.238 33.8385 191.238 33.8021 191.238 33.7656C191.238 33.5469 191.229 33.3281 191.211 33.1094C191.211 32.8724 191.22 32.6354 191.238 32.3984C191.238 32.1979 191.238 31.9974 191.238 31.7969C191.238 31.5964 191.238 31.3867 191.238 31.168C191.238 30.9492 191.238 30.7305 191.238 30.5117C191.257 30.293 191.266 30.0651 191.266 29.8281C191.266 29.6094 191.257 29.3906 191.238 29.1719C191.238 28.9531 191.247 28.7344 191.266 28.5156C191.266 28.1328 191.257 27.7409 191.238 27.3398C191.238 26.9388 191.238 26.5378 191.238 26.1367C191.238 25.7174 191.056 25.3893 190.691 25.1523C190.345 24.9518 189.971 24.9336 189.57 25.0977C189.534 25.1159 189.497 25.1432 189.461 25.1797C189.424 25.1979 189.397 25.207 189.379 25.207C188.996 24.9518 188.604 24.9245 188.203 25.125C187.747 25.3802 187.538 25.7357 187.574 26.1914C187.574 26.3008 187.574 26.4102 187.574 26.5195C187.574 26.6289 187.574 26.7383 187.574 26.8477C187.574 27.0117 187.574 27.1667 187.574 27.3125C187.574 27.4583 187.574 27.6042 187.574 27.75C187.574 29.1719 187.574 30.6029 187.574 32.043C187.574 33.4831 187.574 34.9141 187.574 36.3359C187.574 37.1198 187.957 37.5117 188.723 37.5117C189.105 37.5117 189.479 37.5117 189.844 37.5117C190.208 37.5117 190.582 37.5117 190.965 37.5117C191.22 37.5299 191.475 37.5391 191.73 37.5391C191.986 37.5208 192.25 37.5117 192.523 37.5117C192.706 37.5117 192.897 37.5026 193.098 37.4844C193.298 37.4661 193.49 37.457 193.672 37.457C194.292 37.4935 194.766 37.5117 195.094 37.5117C195.148 37.5117 195.185 37.5026 195.203 37.4844C195.513 37.4661 195.768 37.3568 195.969 37.1562C196.169 37.0469 196.352 36.9557 196.516 36.8828C196.698 36.8099 196.871 36.6549 197.035 36.418C197.345 35.9805 197.391 35.5521 197.172 35.1328C196.953 34.7135 196.625 34.4219 196.188 34.2578C196.115 34.2214 196.005 34.1849 195.859 34.1484C195.786 34.112 195.695 34.0664 195.586 34.0117C195.477 33.9935 195.349 33.9844 195.203 33.9844C195.057 33.9844 194.93 33.9844 194.82 33.9844C194.383 33.9844 193.945 33.9844 193.508 33.9844C193.07 33.9844 192.642 33.9844 192.223 33.9844C192.059 33.9844 191.895 33.9844 191.73 33.9844C191.566 33.9844 191.402 33.9844 191.238 33.9844ZM196.652 32.7539C196.689 32.7721 196.725 32.7904 196.762 32.8086C196.816 32.8268 196.871 32.8359 196.926 32.8359C198.001 33.2552 198.74 33.9844 199.141 35.0234C199.542 36.0625 199.396 37.0742 198.703 38.0586C198.43 38.4414 198.184 38.7057 197.965 38.8516C197.746 38.9792 197.473 39.125 197.145 39.2891C196.616 39.6901 196.042 39.918 195.422 39.9727C195.367 39.9727 195.312 39.9727 195.258 39.9727C195.221 39.9727 195.185 39.9727 195.148 39.9727C194.438 39.9727 193.909 39.9635 193.562 39.9453C193.417 39.9453 193.253 39.9544 193.07 39.9727C192.906 39.9727 192.751 39.9727 192.605 39.9727C192.241 39.9909 191.685 40 190.938 40C190.573 40 190.208 40 189.844 40C189.479 39.9818 189.124 39.9727 188.777 39.9727C187.902 39.9727 187.164 39.6628 186.562 39.043C185.943 38.4232 185.633 37.6758 185.633 36.8008C185.633 35.3789 185.633 33.957 185.633 32.5352C185.633 31.0951 185.633 29.6549 185.633 28.2148C185.633 28.069 185.633 27.9323 185.633 27.8047C185.633 27.6589 185.633 27.5039 185.633 27.3398C185.633 27.2305 185.633 27.1211 185.633 27.0117C185.633 26.9023 185.624 26.793 185.605 26.6836C185.605 25.3893 186.18 24.4323 187.328 23.8125C187.966 23.5026 188.65 23.4115 189.379 23.5391C190.217 23.3568 191.02 23.4844 191.785 23.9219C192.788 24.5417 193.289 25.4258 193.289 26.5742C193.289 26.9935 193.289 27.4036 193.289 27.8047C193.289 28.2057 193.289 28.5977 193.289 28.9805C193.289 29.2174 193.289 29.4544 193.289 29.6914C193.307 29.9102 193.316 30.1289 193.316 30.3477C193.298 30.6393 193.289 31.0768 193.289 31.6602C193.289 31.7878 193.289 31.9245 193.289 32.0703C193.289 32.1979 193.289 32.3164 193.289 32.4258C193.544 32.4258 193.799 32.4258 194.055 32.4258C194.328 32.4258 194.602 32.4258 194.875 32.4258C195.094 32.444 195.303 32.4622 195.504 32.4805C195.723 32.4805 195.951 32.5078 196.188 32.5625C196.406 32.6354 196.561 32.6992 196.652 32.7539ZM202.641 33.9844C202.641 33.9479 202.641 33.9115 202.641 33.875C202.641 33.8385 202.641 33.8021 202.641 33.7656C202.641 33.5469 202.632 33.3281 202.613 33.1094C202.613 32.8724 202.622 32.6354 202.641 32.3984C202.641 32.1979 202.641 31.9974 202.641 31.7969C202.641 31.5964 202.641 31.3867 202.641 31.168C202.641 30.9492 202.641 30.7305 202.641 30.5117C202.659 30.293 202.668 30.0651 202.668 29.8281C202.668 29.6094 202.659 29.3906 202.641 29.1719C202.641 28.9531 202.65 28.7344 202.668 28.5156C202.668 28.1328 202.659 27.7409 202.641 27.3398C202.641 26.9388 202.641 26.5378 202.641 26.1367C202.641 25.7174 202.458 25.3893 202.094 25.1523C201.747 24.9518 201.374 24.9336 200.973 25.0977C200.936 25.1159 200.9 25.1432 200.863 25.1797C200.827 25.1979 200.799 25.207 200.781 25.207C200.398 24.9518 200.007 24.9245 199.605 25.125C199.15 25.3802 198.94 25.7357 198.977 26.1914C198.977 26.3008 198.977 26.4102 198.977 26.5195C198.977 26.6289 198.977 26.7383 198.977 26.8477C198.977 27.0117 198.977 27.1667 198.977 27.3125C198.977 27.4583 198.977 27.6042 198.977 27.75C198.977 29.1719 198.977 30.6029 198.977 32.043C198.977 33.4831 198.977 34.9141 198.977 36.3359C198.977 37.1198 199.359 37.5117 200.125 37.5117C200.508 37.5117 200.882 37.5117 201.246 37.5117C201.611 37.5117 201.984 37.5117 202.367 37.5117C202.622 37.5299 202.878 37.5391 203.133 37.5391C203.388 37.5208 203.652 37.5117 203.926 37.5117C204.108 37.5117 204.299 37.5026 204.5 37.4844C204.701 37.4661 204.892 37.457 205.074 37.457C205.694 37.4935 206.168 37.5117 206.496 37.5117C206.551 37.5117 206.587 37.5026 206.605 37.4844C206.915 37.4661 207.171 37.3568 207.371 37.1562C207.572 37.0469 207.754 36.9557 207.918 36.8828C208.1 36.8099 208.273 36.6549 208.438 36.418C208.747 35.9805 208.793 35.5521 208.574 35.1328C208.355 34.7135 208.027 34.4219 207.59 34.2578C207.517 34.2214 207.408 34.1849 207.262 34.1484C207.189 34.112 207.098 34.0664 206.988 34.0117C206.879 33.9935 206.751 33.9844 206.605 33.9844C206.46 33.9844 206.332 33.9844 206.223 33.9844C205.785 33.9844 205.348 33.9844 204.91 33.9844C204.473 33.9844 204.044 33.9844 203.625 33.9844C203.461 33.9844 203.297 33.9844 203.133 33.9844C202.969 33.9844 202.805 33.9844 202.641 33.9844ZM208.055 32.7539C208.091 32.7721 208.128 32.7904 208.164 32.8086C208.219 32.8268 208.273 32.8359 208.328 32.8359C209.404 33.2552 210.142 33.9844 210.543 35.0234C210.944 36.0625 210.798 37.0742 210.105 38.0586C209.832 38.4414 209.586 38.7057 209.367 38.8516C209.148 38.9792 208.875 39.125 208.547 39.2891C208.018 39.6901 207.444 39.918 206.824 39.9727C206.77 39.9727 206.715 39.9727 206.66 39.9727C206.624 39.9727 206.587 39.9727 206.551 39.9727C205.84 39.9727 205.311 39.9635 204.965 39.9453C204.819 39.9453 204.655 39.9544 204.473 39.9727C204.309 39.9727 204.154 39.9727 204.008 39.9727C203.643 39.9909 203.087 40 202.34 40C201.975 40 201.611 40 201.246 40C200.882 39.9818 200.526 39.9727 200.18 39.9727C199.305 39.9727 198.566 39.6628 197.965 39.043C197.345 38.4232 197.035 37.6758 197.035 36.8008C197.035 35.3789 197.035 33.957 197.035 32.5352C197.035 31.0951 197.035 29.6549 197.035 28.2148C197.035 28.069 197.035 27.9323 197.035 27.8047C197.035 27.6589 197.035 27.5039 197.035 27.3398C197.035 27.2305 197.035 27.1211 197.035 27.0117C197.035 26.9023 197.026 26.793 197.008 26.6836C197.008 25.3893 197.582 24.4323 198.73 23.8125C199.368 23.5026 200.052 23.4115 200.781 23.5391C201.62 23.3568 202.422 23.4844 203.188 23.9219C204.19 24.5417 204.691 25.4258 204.691 26.5742C204.691 26.9935 204.691 27.4036 204.691 27.8047C204.691 28.2057 204.691 28.5977 204.691 28.9805C204.691 29.2174 204.691 29.4544 204.691 29.6914C204.71 29.9102 204.719 30.1289 204.719 30.3477C204.701 30.6393 204.691 31.0768 204.691 31.6602C204.691 31.7878 204.691 31.9245 204.691 32.0703C204.691 32.1979 204.691 32.3164 204.691 32.4258C204.947 32.4258 205.202 32.4258 205.457 32.4258C205.73 32.4258 206.004 32.4258 206.277 32.4258C206.496 32.444 206.706 32.4622 206.906 32.4805C207.125 32.4805 207.353 32.5078 207.59 32.5625C207.809 32.6354 207.964 32.6992 208.055 32.7539ZM215.191 37.375C215.41 37.4297 215.638 37.457 215.875 37.457C216.112 37.457 216.312 37.457 216.477 37.457C216.568 37.457 216.659 37.457 216.75 37.457C216.859 37.457 216.96 37.457 217.051 37.457C217.415 37.4753 217.771 37.4844 218.117 37.4844C218.482 37.4661 218.846 37.457 219.211 37.457C219.448 37.457 219.694 37.457 219.949 37.457C220.204 37.457 220.469 37.457 220.742 37.457C221.089 37.4935 221.398 37.3841 221.672 37.1289C221.635 37.1836 221.708 37.1198 221.891 36.9375C222.365 36.5182 222.556 36.026 222.465 35.4609C222.392 35.1146 222.137 34.7409 221.699 34.3398C221.48 34.1758 221.344 34.0755 221.289 34.0391C221.143 33.9844 220.943 33.957 220.688 33.957C220.432 33.957 220.223 33.957 220.059 33.957C219.949 33.957 219.84 33.9661 219.73 33.9844C219.639 33.9844 219.548 33.9753 219.457 33.957C219.111 33.9388 218.591 33.9297 217.898 33.9297C217.643 33.9297 217.388 33.9297 217.133 33.9297C216.896 33.9297 216.668 33.9297 216.449 33.9297C216.303 33.9297 216.167 33.9297 216.039 33.9297C215.911 33.9297 215.784 33.9297 215.656 33.9297C215.656 33.7474 215.656 33.5651 215.656 33.3828C215.656 33.1823 215.656 32.9818 215.656 32.7812C216.367 32.7812 217.087 32.7812 217.816 32.7812C218.546 32.7812 219.275 32.7812 220.004 32.7812C220.496 32.8359 220.861 32.6628 221.098 32.2617C221.335 31.8607 221.344 31.4414 221.125 31.0039C221.07 30.8945 220.997 30.7943 220.906 30.7031C220.943 30.5573 220.943 30.3841 220.906 30.1836C220.779 29.5638 220.405 29.2539 219.785 29.2539C219.402 29.2539 219.029 29.2539 218.664 29.2539C218.318 29.2539 217.962 29.2539 217.598 29.2539C217.324 29.2539 217.06 29.2539 216.805 29.2539C216.549 29.2357 216.285 29.2266 216.012 29.2266C215.957 29.2266 215.893 29.2357 215.82 29.2539C215.766 29.2539 215.711 29.2539 215.656 29.2539C215.656 29.1263 215.656 28.9987 215.656 28.8711C215.656 28.7253 215.656 28.5885 215.656 28.4609C215.656 28.4609 215.665 28.4609 215.684 28.4609C215.702 28.4609 215.72 28.4609 215.738 28.4609C216.194 28.4427 216.65 28.4427 217.105 28.4609C217.361 28.4609 217.607 28.4609 217.844 28.4609C218.099 28.4609 218.363 28.4609 218.637 28.4609C218.928 28.4609 219.22 28.4701 219.512 28.4883C219.822 28.5065 220.132 28.5065 220.441 28.4883C221.025 28.4701 221.38 28.1693 221.508 27.5859C221.581 27.3125 221.544 27.0391 221.398 26.7656C221.654 26.401 221.681 26.0091 221.48 25.5898C221.262 25.1523 220.906 24.9336 220.414 24.9336C220.396 24.9336 220.368 24.9336 220.332 24.9336C220.314 24.9336 220.296 24.9336 220.277 24.9336C219.329 24.9336 218.391 24.9336 217.461 24.9336C216.531 24.9336 215.602 24.9336 214.672 24.9336C214.398 24.9336 214.134 24.9336 213.879 24.9336C213.642 24.9336 213.405 24.9336 213.168 24.9336C212.384 24.9336 211.983 25.3073 211.965 26.0547C211.965 26.1823 211.947 26.319 211.91 26.4648C211.892 26.5924 211.883 26.7109 211.883 26.8203C211.828 27.2396 211.855 27.7682 211.965 28.4062C211.965 28.5521 211.983 28.707 212.02 28.8711C212.056 29.0169 212.083 29.1628 212.102 29.3086C211.737 29.3633 211.372 29.4635 211.008 29.6094C210.643 29.737 210.434 30.0286 210.379 30.4844C210.306 30.9036 210.424 31.2591 210.734 31.5508C210.898 31.7513 211.099 31.888 211.336 31.9609C211.573 32.0156 211.801 32.0703 212.02 32.125C212.038 32.4167 212.047 32.6081 212.047 32.6992C212.01 33.0273 211.992 33.2734 211.992 33.4375C211.992 33.4375 211.992 33.6016 211.992 33.9297C211.974 34.2578 211.965 34.7409 211.965 35.3789C211.965 35.5247 211.965 35.6706 211.965 35.8164C211.983 35.9622 211.992 36.1081 211.992 36.2539C211.956 37.0378 212.32 37.4388 213.086 37.457C213.104 37.4753 213.141 37.4844 213.195 37.4844C213.815 37.5573 214.48 37.5208 215.191 37.375ZM210.023 33.9844C209.75 33.8203 209.531 33.6289 209.367 33.4102C208.602 32.6628 208.301 31.7422 208.465 30.6484C208.629 29.6458 209.112 28.8984 209.914 28.4062C209.878 27.8594 209.878 27.431 209.914 27.1211C209.914 27.0117 209.923 26.9023 209.941 26.793C209.96 26.6654 209.978 26.5469 209.996 26.4375C210.033 25.5807 210.361 24.8607 210.98 24.2773C211.618 23.694 212.375 23.4023 213.25 23.4023C213.469 23.4023 213.697 23.4023 213.934 23.4023C214.189 23.4023 214.444 23.4023 214.699 23.4023C215.629 23.4023 216.559 23.4023 217.488 23.4023C218.436 23.4023 219.384 23.4023 220.332 23.4023C220.332 23.4023 220.341 23.4023 220.359 23.4023C220.378 23.4023 220.405 23.4023 220.441 23.4023C221.772 23.4023 222.729 23.9948 223.312 25.1797C223.641 25.8542 223.723 26.5742 223.559 27.3398C223.595 27.7044 223.577 28.0872 223.504 28.4883C223.395 28.9805 223.167 29.4453 222.82 29.8828C222.839 29.9557 222.866 30.0833 222.902 30.2656C222.939 30.4115 222.957 30.5299 222.957 30.6211C223.413 31.5326 223.449 32.4258 223.066 33.3008C223.832 33.9753 224.306 34.7318 224.488 35.5703C224.707 36.8646 224.306 37.9766 223.285 38.9062C223.176 38.9792 223.094 39.043 223.039 39.0977C222.383 39.6992 221.608 39.9818 220.715 39.9453C220.46 39.9453 220.204 39.9453 219.949 39.9453C219.712 39.9453 219.475 39.9453 219.238 39.9453C218.855 39.9453 218.482 39.9453 218.117 39.9453C217.771 39.9453 217.415 39.9453 217.051 39.9453C216.978 39.9453 216.896 39.9453 216.805 39.9453C216.714 39.9271 216.641 39.918 216.586 39.918C216.294 39.9544 215.857 39.9453 215.273 39.8906C214.599 39.9818 213.852 40 213.031 39.9453C213.013 39.9453 212.995 39.9453 212.977 39.9453C212.12 39.8906 211.4 39.5443 210.816 38.9062C210.233 38.2682 209.969 37.5208 210.023 36.6641C210.023 36.5365 210.014 36.4089 209.996 36.2812C209.996 36.1354 209.996 35.9896 209.996 35.8438C209.996 35.1693 210.005 34.6589 210.023 34.3125C210.023 34.2578 210.023 34.2031 210.023 34.1484C210.023 34.0938 210.023 34.0391 210.023 33.9844ZM226.566 32.4805C226.512 32.5898 226.466 32.7539 226.43 32.9727C226.43 33.0273 226.43 33.0729 226.43 33.1094C226.43 33.1458 226.43 33.1823 226.43 33.2188C226.43 33.2734 226.43 33.3281 226.43 33.3828C226.448 33.4193 226.457 33.4557 226.457 33.4922C226.457 33.6562 226.457 33.8294 226.457 34.0117C226.457 34.194 226.457 34.3672 226.457 34.5312C226.421 34.7682 226.384 35.1419 226.348 35.6523C226.311 36.4727 226.648 37.0013 227.359 37.2383C227.378 37.2565 227.414 37.2656 227.469 37.2656C227.633 37.3203 227.815 37.3294 228.016 37.293C228.453 37.5846 228.882 37.612 229.301 37.375C229.738 37.138 230.012 36.7279 230.121 36.1445C230.121 36.0898 230.121 36.0352 230.121 35.9805C230.139 35.9076 230.158 35.8438 230.176 35.7891C230.176 35.6797 230.176 35.5794 230.176 35.4883C230.176 35.3789 230.176 35.2695 230.176 35.1602C230.139 34.7227 230.121 34.3854 230.121 34.1484C230.121 33 230.121 31.8516 230.121 30.7031C230.121 29.5365 230.121 28.3789 230.121 27.2305C230.212 27.2305 230.303 27.2305 230.395 27.2305C230.504 27.2305 230.613 27.2305 230.723 27.2305C230.941 27.2305 231.16 27.2305 231.379 27.2305C231.616 27.2305 231.844 27.2305 232.062 27.2305C232.609 27.2305 233.001 27.0755 233.238 26.7656C233.348 26.5833 233.411 26.4557 233.43 26.3828C233.448 26.3828 233.457 26.3737 233.457 26.3555C233.749 26.2279 234.013 26.0547 234.25 25.8359C234.505 25.599 234.642 25.2891 234.66 24.9062C234.66 24.3776 234.387 23.9766 233.84 23.7031C233.603 23.5938 233.211 23.5573 232.664 23.5938C232.044 23.6302 231.579 23.6393 231.27 23.6211C231.051 23.6211 230.841 23.6393 230.641 23.6758C230.44 23.694 230.23 23.7031 230.012 23.7031C229.829 23.7031 229.638 23.7031 229.438 23.7031C229.255 23.7031 229.073 23.7031 228.891 23.7031C228.763 23.7031 228.635 23.7031 228.508 23.7031C228.38 23.7031 228.262 23.7031 228.152 23.7031C228.043 23.7031 227.924 23.7031 227.797 23.7031C227.669 23.7031 227.551 23.7031 227.441 23.7031C226.931 23.7031 226.411 23.7031 225.883 23.7031C225.372 23.7031 224.862 23.7031 224.352 23.7031C223.914 23.6849 223.568 23.8398 223.312 24.168C223.057 24.4779 222.993 24.8333 223.121 25.2344C223.194 25.4896 223.322 25.6992 223.504 25.8633C223.467 25.9909 223.467 26.1094 223.504 26.2188C223.595 26.8568 223.951 27.1849 224.57 27.2031C224.898 27.2214 225.391 27.2305 226.047 27.2305C226.047 27.2305 226.056 27.2305 226.074 27.2305C226.111 27.2305 226.147 27.2305 226.184 27.2305C226.111 27.7773 226.174 28.4336 226.375 29.1992C226.393 29.3268 226.411 29.4544 226.43 29.582C226.448 29.7096 226.475 29.8281 226.512 29.9375C226.53 30.2109 226.576 30.4115 226.648 30.5391C226.648 30.5755 226.639 30.612 226.621 30.6484C226.621 30.6667 226.621 30.6849 226.621 30.7031C226.621 30.8307 226.621 30.9583 226.621 31.0859C226.639 31.2135 226.648 31.332 226.648 31.4414C226.612 31.5326 226.576 31.7422 226.539 32.0703C226.539 32.1432 226.539 32.2161 226.539 32.2891C226.557 32.362 226.566 32.4258 226.566 32.4805ZM224.352 29.6641C223.641 29.6094 223.03 29.3359 222.52 28.8438C222.009 28.3333 221.69 27.7227 221.562 27.0117C221.417 26.7383 221.316 26.4831 221.262 26.2461C220.97 25.207 221.152 24.2591 221.809 23.4023C222.465 22.5273 223.34 22.1172 224.434 22.1719C224.926 22.1719 225.427 22.1719 225.938 22.1719C226.448 22.1719 226.958 22.1719 227.469 22.1719C227.578 22.1719 227.697 22.1719 227.824 22.1719C227.952 22.1719 228.079 22.1719 228.207 22.1719C228.316 22.1719 228.435 22.1719 228.562 22.1719C228.708 22.1719 228.845 22.1719 228.973 22.1719C229.137 22.1719 229.31 22.1719 229.492 22.1719C229.674 22.1719 229.857 22.1719 230.039 22.1719C230.258 22.1719 230.467 22.1628 230.668 22.1445C230.887 22.1081 231.105 22.0898 231.324 22.0898C231.871 22.0898 232.281 22.0807 232.555 22.0625C232.938 22.0443 233.302 22.0534 233.648 22.0898C233.995 22.1081 234.359 22.1992 234.742 22.3633C236.036 23.0013 236.684 24.013 236.684 25.3984C236.684 26.638 236.109 27.6133 234.961 28.3242C234.943 28.3607 234.915 28.3971 234.879 28.4336C234.259 29.2721 233.348 29.7005 232.145 29.7188C232.145 30.5391 232.145 31.3594 232.145 32.1797C232.145 32.9818 232.145 33.793 232.145 34.6133C232.145 34.7773 232.154 34.9414 232.172 35.1055C232.19 35.2513 232.199 35.3971 232.199 35.543C232.217 35.8711 232.217 36.1901 232.199 36.5C232.181 36.5911 232.163 36.6732 232.145 36.7461C232.145 36.819 232.145 36.8919 232.145 36.9648C231.944 38.0586 231.388 38.8971 230.477 39.4805C229.565 40.0456 228.617 40.1458 227.633 39.7812C227.432 39.7812 227.241 39.7539 227.059 39.6992C226.876 39.6628 226.758 39.6263 226.703 39.5898C225.974 39.3346 225.391 38.8698 224.953 38.1953C224.534 37.5026 224.342 36.7734 224.379 36.0078C224.415 35.4609 224.452 35.0417 224.488 34.75C224.488 34.6589 224.488 34.5495 224.488 34.4219C224.488 34.276 224.488 34.1484 224.488 34.0391C224.488 34.0026 224.479 33.9661 224.461 33.9297C224.461 33.875 224.461 33.8203 224.461 33.7656C224.461 33.7109 224.461 33.6471 224.461 33.5742C224.461 33.5013 224.461 33.4284 224.461 33.3555C224.497 33.0273 224.534 32.7904 224.57 32.6445C224.57 32.6263 224.57 32.6081 224.57 32.5898C224.57 32.5534 224.57 32.5169 224.57 32.4805C224.607 32.1159 224.643 31.8424 224.68 31.6602C224.68 31.6055 224.671 31.5508 224.652 31.4961C224.652 31.4232 224.652 31.3594 224.652 31.3047C224.616 31.1771 224.579 30.9857 224.543 30.7305C224.507 30.4753 224.47 30.2656 224.434 30.1016C224.397 29.9193 224.37 29.7734 224.352 29.6641Z" fill="black"/>
</svg>
