<svg width="278" height="76" viewBox="0 0 278 76" fill="none" xmlns="http://www.w3.org/2000/svg">
<path d="M245.107 62C244.841 62 244.587 62.1054 244.399 62.2929L233.793 72.8995C233.507 73.1855 233.421 73.6156 233.576 73.9893C233.731 74.363 234.096 74.6066 234.5 74.6066C243.201 74.6066 251.079 71.0779 256.778 65.376C256.778 65.3759 256.778 65.3759 256.779 65.3758L267.376 54.7786L267.376 54.7784C267.766 54.3879 267.766 53.7548 267.376 53.3643C266.986 52.9737 266.352 52.9737 265.962 53.3641C265.962 53.3641 265.962 53.3642 265.962 53.3642C265.961 53.3649 265.96 53.3655 265.96 53.3661C260.621 58.7019 253.25 62 245.107 62Z" fill="#ADFEFF" stroke="#8EA7FF" stroke-width="2" stroke-linejoin="round"/>
<path d="M43.1066 62C42.8414 62 42.587 62.1054 42.3995 62.2929L31.7929 72.8995C31.5069 73.1855 31.4213 73.6156 31.5761 73.9893C31.7309 74.363 32.0955 74.6066 32.5 74.6066H234.5C234.765 74.6066 235.02 74.5012 235.207 74.3137L245.814 63.7071C246.1 63.4211 246.185 62.991 246.03 62.6173C245.876 62.2436 245.511 62 245.107 62H43.1066Z" fill="#ADFEFF" stroke="#8EA7FF" stroke-width="2" stroke-linejoin="round"/>
<path d="M13.3137 33.2071C13.5012 33.0196 13.6066 32.7652 13.6066 32.5C13.6066 24.3566 16.9049 16.9854 22.241 11.6463C22.2415 11.6458 22.2419 11.6454 22.2424 11.6449C22.2425 11.6448 22.2425 11.6448 22.2426 11.6447C22.633 11.2542 22.6329 10.621 22.2423 10.2306C21.8518 9.84014 21.2187 9.84017 20.8282 10.2307L20.8281 10.2308L10.2308 20.8281C10.2308 20.8281 10.2307 20.8282 10.2307 20.8282C4.52872 26.5278 1 34.4061 1 43.1066C1 43.5111 1.24364 43.8757 1.61732 44.0305C1.99099 44.1853 2.42111 44.0997 2.70711 43.8137L13.3137 33.2071Z" fill="#ADFEFF" stroke="#8EA7FF" stroke-width="2" stroke-linejoin="round"/>
<path d="M13.6066 32.5C13.6066 32.0955 13.363 31.7309 12.9893 31.5761C12.6156 31.4213 12.1855 31.5069 11.8995 31.7929L1.29289 42.3995C1.10536 42.587 1 42.8414 1 43.1066C1 60.5036 15.103 74.6066 32.5 74.6066C32.7652 74.6066 33.0196 74.5012 33.2071 74.3137L43.8137 63.7071C44.0997 63.4211 44.1853 62.991 44.0305 62.6173C43.8757 62.2436 43.5111 62 43.1066 62C26.8142 62 13.6066 48.7924 13.6066 32.5Z" fill="#ADFEFF" stroke="#8EA7FF" stroke-width="2" stroke-linejoin="round"/>
<rect x="12" y="1" width="265" height="63" rx="31.5" fill="white" stroke="#8EA7FF" stroke-width="2"/>
<path d="M37.5449 37.4023C37.7819 37.4753 38.0189 37.5117 38.2559 37.5117C38.4928 37.5117 38.7389 37.5117 38.9941 37.5117C39.3587 37.5117 39.7142 37.5117 40.0605 37.5117C40.4251 37.5117 40.7988 37.5117 41.1816 37.5117C41.8926 37.5117 42.5306 37.4388 43.0957 37.293C43.7155 37.1471 44.2441 36.9193 44.6816 36.6094C45.1191 36.3542 45.5293 35.9531 45.9121 35.4062C46.2767 34.9141 46.5684 34.3034 46.7871 33.5742C47.0059 32.8086 47.1152 32.0156 47.1152 31.1953C47.1152 30.138 46.9512 29.1901 46.623 28.3516C46.2585 27.4219 45.748 26.6836 45.0918 26.1367C44.5085 25.6628 43.8431 25.3346 43.0957 25.1523C42.6035 25.043 42.1113 24.9883 41.6191 24.9883C41.4004 24.9883 41.1908 24.9883 40.9902 24.9883C40.7897 24.9883 40.5892 24.9883 40.3887 24.9883C40.2611 24.9883 40.1335 24.9883 40.0059 24.9883C39.8783 24.9883 39.7598 24.9883 39.6504 24.9883C39.4316 25.0065 39.222 25.0156 39.0215 25.0156C38.821 24.9974 38.6296 24.9883 38.4473 24.9883C38.3743 24.9883 38.3014 24.9883 38.2285 24.9883C38.1556 24.9701 38.0918 24.9518 38.0371 24.9336C37.5996 24.8789 37.235 25.0156 36.9434 25.3438C36.5788 25.526 36.3327 25.8359 36.2051 26.2734C36.1139 26.5469 36.0957 26.8203 36.1504 27.0938C36.2051 27.3672 36.2507 27.6315 36.2871 27.8867C36.2871 28.1055 36.2871 28.3242 36.2871 28.543C36.3053 28.7435 36.3236 28.9531 36.3418 29.1719C36.3418 29.7005 36.3509 30.1016 36.3691 30.375C36.3691 30.4844 36.3691 30.6029 36.3691 30.7305C36.3691 30.8398 36.3691 30.9492 36.3691 31.0586C36.3509 31.332 36.3418 31.7422 36.3418 32.2891C36.3418 32.5443 36.3418 32.7995 36.3418 33.0547C36.3418 33.2917 36.3874 33.5286 36.4785 33.7656C36.4785 33.7839 36.4876 33.8021 36.5059 33.8203C36.4329 34.0391 36.4147 34.112 36.4512 34.0391C36.3418 34.4766 36.2598 34.8867 36.2051 35.2695C36.1686 35.6341 36.196 36.0352 36.2871 36.4727C36.4147 37.1654 36.834 37.4753 37.5449 37.4023ZM41.209 34.3945C41.0267 34.2669 40.8535 34.1667 40.6895 34.0938C40.5801 34.0573 40.3613 34.0208 40.0332 33.9844C40.0332 33.0729 40.0332 32.1615 40.0332 31.25C40.0332 30.3385 40.0332 29.4271 40.0332 28.5156C40.252 28.5156 40.416 28.5247 40.5254 28.543C40.7441 28.5977 40.972 28.6523 41.209 28.707C41.446 28.7617 41.6738 28.8164 41.8926 28.8711C42.1478 28.944 42.321 29.0169 42.4121 29.0898C42.5215 29.1628 42.6855 29.2812 42.9043 29.4453C43.0866 29.6276 43.278 29.737 43.4785 29.7734C43.5514 29.901 43.6061 29.9922 43.6426 30.0469C43.6608 30.0469 43.6699 30.0469 43.6699 30.0469C43.5059 30.2292 43.4147 30.4844 43.3965 30.8125C43.3965 31.0677 43.3783 31.25 43.3418 31.3594C43.3053 31.5781 43.2507 31.8151 43.1777 32.0703C43.1048 32.3255 43.0046 32.5352 42.877 32.6992C42.6035 33.0273 42.2207 33.3919 41.7285 33.793C41.4733 34.0117 41.3092 34.2122 41.2363 34.3945C41.2181 34.3945 41.209 34.3945 41.209 34.3945ZM37.3535 39.8906C36.6243 39.8724 35.9863 39.6263 35.4395 39.1523C34.8926 38.6784 34.5371 38.0768 34.373 37.3477C34.2637 36.8008 34.2363 36.2995 34.291 35.8438C34.3275 35.3698 34.4004 34.8776 34.5098 34.3672C34.4551 34.0938 34.4277 33.8294 34.4277 33.5742C34.4095 33.319 34.4004 33.0456 34.4004 32.7539C34.4004 32.1523 34.4095 31.7057 34.4277 31.4141C34.4277 31.3594 34.4277 31.2956 34.4277 31.2227C34.4277 31.1497 34.4277 31.0768 34.4277 31.0039C34.4095 30.7852 34.4004 30.5664 34.4004 30.3477C34.4004 30.1289 34.4004 29.9102 34.4004 29.6914C34.4004 29.5091 34.4004 29.3268 34.4004 29.1445C34.3822 28.944 34.3639 28.7435 34.3457 28.543C34.3092 28.0872 34.2637 27.7044 34.209 27.3945C34.1543 27.0846 34.1908 26.6836 34.3184 26.1914C34.5918 25.3346 35.0658 24.6693 35.7402 24.1953C36.5059 23.5208 37.39 23.2656 38.3926 23.4297C38.4108 23.4297 38.429 23.4297 38.4473 23.4297C38.4837 23.4297 38.5202 23.4297 38.5566 23.4297C38.9941 23.4844 39.3405 23.4935 39.5957 23.457C39.7233 23.457 39.86 23.457 40.0059 23.457C40.1517 23.457 40.3066 23.457 40.4707 23.457C40.6712 23.457 40.8717 23.457 41.0723 23.457C41.2728 23.457 41.4824 23.457 41.7012 23.457C42.3574 23.457 42.9863 23.5208 43.5879 23.6484C44.6816 23.9219 45.6296 24.3958 46.4316 25.0703C47.3796 25.8906 48.0814 26.9023 48.5371 28.1055C48.9382 29.1445 49.1387 30.3294 49.1387 31.6602C49.1387 32.7721 49.002 33.7565 48.7285 34.6133C48.4551 35.5612 48.0723 36.3724 47.5801 37.0469C47.0697 37.7578 46.4863 38.332 45.8301 38.7695C45.1556 39.2253 44.4173 39.5443 43.6152 39.7266C42.9225 39.8906 42.1204 39.9727 41.209 39.9727C40.8444 39.9727 40.4798 39.9818 40.1152 40C39.7507 40 39.3861 40 39.0215 40C38.7116 40 38.4199 40 38.1465 40C37.8913 39.9818 37.627 39.9453 37.3535 39.8906ZM51.4902 34.3672C51.1803 34.3672 51.0254 34.3672 51.0254 34.3672C50.4056 34.4036 50.0137 34.6862 49.8496 35.2148C49.6491 35.707 49.7493 36.1445 50.1504 36.5273C50.5332 36.8919 51.0072 37.138 51.5723 37.2656C51.7181 37.3021 51.9551 37.3568 52.2832 37.4297C52.666 37.5391 52.9759 37.5755 53.2129 37.5391C53.4499 37.4844 53.7415 37.4388 54.0879 37.4023C54.3978 37.4023 54.6439 37.3477 54.8262 37.2383C54.8991 37.2018 54.9993 37.1654 55.127 37.1289C55.2728 37.0924 55.4004 37.0469 55.5098 36.9922C56.1296 36.7188 56.4395 36.2721 56.4395 35.6523C56.4577 35.0326 56.1296 34.6133 55.4551 34.3945C55.3457 34.3581 55.2546 34.3398 55.1816 34.3398C55.1634 33.2826 55.1543 32.2253 55.1543 31.168C55.1725 30.1107 55.1816 29.0443 55.1816 27.9688C55.1816 27.8594 55.1725 27.7682 55.1543 27.6953C55.1725 27.6953 55.1908 27.6953 55.209 27.6953C55.2272 27.6771 55.2546 27.6589 55.291 27.6406C55.6191 27.5312 55.9382 27.3763 56.248 27.1758C56.5579 26.9753 56.7129 26.6471 56.7129 26.1914C56.7129 25.8268 56.5671 25.4987 56.2754 25.207C56.0749 25.043 55.7923 24.9336 55.4277 24.8789C55.0632 24.806 54.7441 24.7786 54.4707 24.7969C54.3249 24.8151 54.1517 24.8333 53.9512 24.8516C53.7689 24.8698 53.6139 24.8698 53.4863 24.8516C53.1582 24.7969 52.8392 24.7695 52.5293 24.7695C52.0918 24.7695 51.5449 24.8516 50.8887 25.0156C50.7246 25.0703 50.5697 25.1159 50.4238 25.1523C50.278 25.1888 50.123 25.2344 49.959 25.2891C49.8132 25.362 49.6947 25.4258 49.6035 25.4805C49.0566 25.8086 48.8743 26.2643 49.0566 26.8477C49.2389 27.4492 49.7311 27.7318 50.5332 27.6953C50.5514 27.6771 50.5788 27.668 50.6152 27.668C50.7246 27.6862 50.8887 27.6953 51.1074 27.6953C51.1257 27.6953 51.153 27.6953 51.1895 27.6953C51.2259 27.6953 51.2624 27.6953 51.2988 27.6953C51.2806 27.75 51.2715 27.8503 51.2715 27.9961C51.2715 28.069 51.2715 28.1419 51.2715 28.2148C51.2897 28.2878 51.2988 28.3516 51.2988 28.4062C51.3171 28.7708 51.3809 29.1172 51.4902 29.4453C51.5996 29.7734 51.6908 30.1016 51.7637 30.4297C51.6908 30.5391 51.6452 30.6211 51.627 30.6758C51.5358 30.9492 51.4902 31.2044 51.4902 31.4414C51.5085 31.6602 51.5267 31.888 51.5449 32.125C51.5449 32.2891 51.5358 32.444 51.5176 32.5898C51.4993 32.7357 51.4902 32.8815 51.4902 33.0273C51.4902 33.2643 51.4902 33.4922 51.4902 33.7109C51.4902 33.9297 51.4902 34.1484 51.4902 34.3672ZM49.5215 33.2188C49.5579 32.9635 49.5762 32.7812 49.5762 32.6719C49.5579 32.3073 49.5397 31.9792 49.5215 31.6875C49.5215 31.3958 49.5762 31.0768 49.6855 30.7305C49.6491 30.6211 49.6126 30.5117 49.5762 30.4023C49.5579 30.293 49.5397 30.1836 49.5215 30.0742C48.3548 29.819 47.5801 29.0898 47.1973 27.8867C46.9967 27.194 47.0241 26.5104 47.2793 25.8359C47.5345 25.1615 47.9629 24.6328 48.5645 24.25C48.6738 24.1953 48.7741 24.1406 48.8652 24.0859C48.9564 24.0312 49.0566 23.9766 49.166 23.9219C49.2025 23.9219 49.2298 23.9128 49.248 23.8945C49.4303 23.8216 49.6126 23.7669 49.7949 23.7305C49.9772 23.6758 50.1777 23.6211 50.3965 23.5664C51.1621 23.3477 51.8822 23.2383 52.5566 23.2383C52.9395 23.2383 53.3405 23.2656 53.7598 23.3203C53.9056 23.3203 54.0697 23.3021 54.252 23.2656C54.7988 23.2109 55.3913 23.2565 56.0293 23.4023C56.6673 23.5482 57.2051 23.8125 57.6426 24.1953C58.4082 24.888 58.7819 25.7266 58.7637 26.7109C58.7272 27.8958 58.2077 28.7982 57.2051 29.418C57.2051 30.1107 57.2051 30.8034 57.2051 31.4961C57.2051 32.1706 57.2051 32.8451 57.2051 33.5195C58.1895 34.2852 58.6087 35.2969 58.4629 36.5547C58.3353 37.8125 57.6426 38.724 56.3848 39.2891C56.2754 39.3438 56.166 39.3893 56.0566 39.4258C55.9473 39.444 55.847 39.4714 55.7559 39.5078C55.2454 39.763 54.7259 39.8906 54.1973 39.8906C54.0879 39.8906 53.9785 39.9089 53.8691 39.9453C53.7598 39.9635 53.6504 39.9727 53.541 39.9727C52.8118 39.9909 52.2285 39.9453 51.791 39.8359C51.6816 39.8177 51.5723 39.7995 51.4629 39.7812C51.3535 39.763 51.2533 39.7357 51.1621 39.6992C50.2324 39.4987 49.4395 39.0794 48.7832 38.4414C47.8171 37.4388 47.5618 36.2904 48.0176 34.9961C48.2363 34.2487 48.7376 33.6562 49.5215 33.2188ZM62.8379 27.832C62.8197 27.8138 62.8014 27.7956 62.7832 27.7773C62.7832 27.7409 62.7832 27.7044 62.7832 27.668C62.765 27.6315 62.7559 27.5677 62.7559 27.4766C62.7559 27.2943 62.8561 27.1302 63.0566 26.9844C63.2207 26.8568 63.4486 26.7747 63.7402 26.7383C64.0319 26.7018 64.2871 26.6836 64.5059 26.6836C65.0163 26.6836 65.4264 26.7474 65.7363 26.875C65.8822 26.9661 65.9915 27.0573 66.0645 27.1484C66.4473 27.6042 66.9303 27.7409 67.5137 27.5586C67.5319 27.5586 67.5501 27.5586 67.5684 27.5586C67.6048 27.5404 67.6413 27.5221 67.6777 27.5039C68.1335 27.5951 68.5345 27.4857 68.8809 27.1758C69.446 26.6654 69.5189 26.082 69.0996 25.4258C68.7533 24.8789 68.252 24.4141 67.5957 24.0312C66.7572 23.5026 65.9368 23.2383 65.1348 23.2383C64.2962 23.2201 63.5944 23.2747 63.0293 23.4023C62.7741 23.457 62.4095 23.5573 61.9355 23.7031C61.9355 23.7031 61.8444 23.7487 61.6621 23.8398C61.5345 23.9128 61.3249 24.0039 61.0332 24.1133C60.4863 24.4414 60.0944 24.7786 59.8574 25.125C59.1829 26.1276 59.1829 27.1758 59.8574 28.2695C59.9303 28.4154 60.0215 28.5339 60.1309 28.625C60.3132 28.8438 60.4499 28.9987 60.541 29.0898C60.5775 29.1263 60.5957 29.1445 60.5957 29.1445C60.304 29.8737 60.4863 30.4297 61.1426 30.8125C61.2155 30.849 61.2702 30.8854 61.3066 30.9219C61.8535 31.25 62.446 31.487 63.084 31.6328C63.722 31.7786 64.3509 31.9336 64.9707 32.0977C65.153 32.1523 65.4355 32.2617 65.8184 32.4258C66.2012 32.5716 66.5202 32.7266 66.7754 32.8906C66.7754 32.9453 66.7663 33 66.748 33.0547C66.748 33.0911 66.748 33.1367 66.748 33.1914C66.7298 33.4648 66.5931 33.6745 66.3379 33.8203C66.0827 33.9661 65.8366 34.0573 65.5996 34.0938C64.8522 34.2396 64.1413 34.194 63.4668 33.957C63.3392 33.9206 63.1842 33.8294 63.002 33.6836C62.8379 33.5378 62.7103 33.4102 62.6191 33.3008C62.6921 33.3372 62.6191 33.2826 62.4004 33.1367C62.4004 33.0456 62.3913 32.9635 62.373 32.8906C62.373 32.8177 62.3548 32.7083 62.3184 32.5625C62.1543 31.8151 61.7077 31.4505 60.9785 31.4688C60.9785 31.4688 60.9056 31.4323 60.7598 31.3594C60.6139 31.3047 60.459 31.2591 60.2949 31.2227C60.1309 31.168 59.9759 31.1133 59.8301 31.0586C59.1191 30.9128 58.6178 31.1589 58.3262 31.7969C57.9798 32.4167 58.0892 32.9544 58.6543 33.4102C58.6725 33.4466 58.6999 33.4831 58.7363 33.5195C58.7728 33.5378 58.8092 33.556 58.8457 33.5742C58.8457 33.5924 58.8457 33.6107 58.8457 33.6289C58.8639 33.6471 58.873 33.6562 58.873 33.6562C59.2376 34.4766 59.5931 35.1419 59.9395 35.6523C60.304 36.1445 60.9238 36.582 61.7988 36.9648C62.4004 37.2565 63.1478 37.4297 64.041 37.4844C64.6973 37.5391 65.3626 37.5208 66.0371 37.4297C66.7116 37.3203 67.3405 37.0924 67.9238 36.7461C68.252 36.5456 68.5345 36.2995 68.7715 36.0078C68.8262 35.9531 68.89 35.8984 68.9629 35.8438C69.0358 35.7708 69.0996 35.707 69.1543 35.6523C69.7559 35.0872 70.1113 34.4674 70.2207 33.793C70.3848 32.7357 70.166 31.7331 69.5645 30.7852C69.1087 30.1471 68.4616 29.6276 67.623 29.2266C67.1855 29.0443 66.7936 28.9167 66.4473 28.8438C66.2832 28.8073 66.11 28.7708 65.9277 28.7344C65.7637 28.6797 65.5996 28.625 65.4355 28.5703C65.2168 28.5339 64.8887 28.4427 64.4512 28.2969C64.2324 28.2422 64.0046 28.1875 63.7676 28.1328C63.5306 28.0781 63.321 28.0052 63.1387 27.9141C62.9199 27.8594 62.8197 27.832 62.8379 27.832ZM70.3301 29.0625C70.6764 29.3906 70.9863 29.7552 71.2598 30.1562C72.153 31.5052 72.472 32.9818 72.2168 34.5859C72.0527 35.6615 71.515 36.6549 70.6035 37.5664C70.5488 37.6211 70.4941 37.6667 70.4395 37.7031C70.403 37.7396 70.3574 37.776 70.3027 37.8125C69.9564 38.25 69.5098 38.6237 68.9629 38.9336C68.1973 39.3893 67.377 39.6901 66.502 39.8359C65.627 39.9818 64.7611 40.0273 63.9043 39.9727C62.7741 39.8815 61.8079 39.6445 61.0059 39.2617C59.9668 38.806 59.1829 38.2682 58.6543 37.6484C58.1439 37.0286 57.679 36.2357 57.2598 35.2695C56.7493 34.7773 56.4303 34.1758 56.3027 33.4648C56.1569 32.7357 56.248 32.0339 56.5762 31.3594C56.959 30.6302 57.4967 30.1107 58.1895 29.8008C57.0957 27.9596 57.1139 26.1823 58.2441 24.4688C58.7363 23.7578 59.3652 23.2109 60.1309 22.8281C60.222 22.7734 60.3132 22.7279 60.4043 22.6914C60.5137 22.6549 60.6139 22.6094 60.7051 22.5547C60.8327 22.4818 61.0241 22.3906 61.2793 22.2812C61.571 22.1901 62.0085 22.0716 62.5918 21.9258C63.0111 21.8164 63.4395 21.7526 63.877 21.7344C64.3145 21.6979 64.752 21.6797 65.1895 21.6797C66.3379 21.7161 67.4954 22.0807 68.6621 22.7734C69.61 23.375 70.3301 24.0495 70.8223 24.7969C71.2598 25.4896 71.4329 26.237 71.3418 27.0391C71.2507 27.8411 70.9134 28.5156 70.3301 29.0625ZM81.1035 29.8555C81.4134 29.9466 81.7142 29.8919 82.0059 29.6914C82.4069 29.4362 82.5801 29.0807 82.5254 28.625C82.4889 28.2786 82.3522 27.9323 82.1152 27.5859C82.0605 27.513 82.0059 27.4401 81.9512 27.3672C81.8965 27.2943 81.8418 27.2122 81.7871 27.1211C81.2767 26.2461 80.5749 25.599 79.6816 25.1797C78.8613 24.7786 77.9134 24.6055 76.8379 24.6602C76.4551 24.6602 76.0905 24.7148 75.7441 24.8242C75.179 24.9883 74.7324 25.1797 74.4043 25.3984C74.3132 25.4531 74.2311 25.5078 74.1582 25.5625C74.1035 25.6172 74.0397 25.6628 73.9668 25.6992C73.8392 25.8086 73.6934 25.9089 73.5293 26C72.9277 26.3828 72.4902 26.8385 72.2168 27.3672C72.0527 27.6953 71.998 27.987 72.0527 28.2422C72.0345 28.3151 72.0436 28.4154 72.0801 28.543C72.0436 28.5977 72.0072 28.7161 71.9707 28.8984C71.7884 29.3906 71.6608 29.8464 71.5879 30.2656C71.4967 30.6484 71.4238 30.9948 71.3691 31.3047C71.3145 31.5964 71.3145 31.9336 71.3691 32.3164C71.4056 32.7539 71.5241 33.2461 71.7246 33.793C71.5423 33.9753 71.4512 34.0664 71.4512 34.0664C71.0319 34.5951 71.0775 35.1419 71.5879 35.707C71.6243 35.7617 71.6973 35.8438 71.8066 35.9531C72.3535 36.5 73.0827 36.8737 73.9941 37.0742C74.1582 37.1289 74.3223 37.1836 74.4863 37.2383C74.6686 37.2747 74.86 37.3021 75.0605 37.3203C75.2428 37.3568 75.4251 37.3932 75.6074 37.4297C75.8079 37.4661 76.0085 37.4844 76.209 37.4844C77.0111 37.5573 77.7767 37.5299 78.5059 37.4023C79.2533 37.2747 79.9642 36.9375 80.6387 36.3906C81.3678 35.8073 81.9238 35.0234 82.3066 34.0391C82.416 33.7656 82.5163 33.5104 82.6074 33.2734C82.7168 32.9089 82.6895 32.5443 82.5254 32.1797C82.1973 31.5599 81.7233 31.2773 81.1035 31.332C80.7754 31.332 80.4382 31.4596 80.0918 31.7148C79.5996 31.6419 79.2077 31.7969 78.916 32.1797C78.8978 32.2161 78.8796 32.2526 78.8613 32.2891C78.8431 32.3073 78.834 32.3255 78.834 32.3438C78.8158 32.362 78.7975 32.3802 78.7793 32.3984C78.7793 32.4167 78.7793 32.4258 78.7793 32.4258C78.7793 32.4622 78.7702 32.4896 78.752 32.5078C78.6243 32.8177 78.4512 33.1367 78.2324 33.4648C78.0137 33.7383 77.7402 33.957 77.4121 34.1211C77.4121 34.1211 77.403 34.1302 77.3848 34.1484C77.2754 34.0938 77.084 34.0664 76.8105 34.0664C76.8105 34.0664 76.8014 34.0664 76.7832 34.0664C76.765 34.0482 76.7559 34.0391 76.7559 34.0391C76.6283 33.9844 76.5007 33.9388 76.373 33.9023C76.2454 33.8477 76.127 33.7656 76.0176 33.6562C75.89 33.5651 75.7441 33.3919 75.5801 33.1367C75.416 32.8815 75.3158 32.6719 75.2793 32.5078C75.1152 32.1068 75.0241 31.6784 75.0059 31.2227C74.9694 30.5664 75.0514 29.9648 75.252 29.418C75.3613 29.0169 75.5801 28.707 75.9082 28.4883C76.2546 28.2878 76.5918 28.1966 76.9199 28.2148C77.4668 28.3242 78.0228 28.4883 78.5879 28.707C78.6243 28.8346 78.679 29.0078 78.752 29.2266C78.752 29.2812 78.7611 29.3268 78.7793 29.3633C78.7975 29.3997 78.8158 29.4362 78.834 29.4727C78.9798 29.9102 79.2533 30.1654 79.6543 30.2383C80.0553 30.3112 80.429 30.2201 80.7754 29.9648C80.8118 29.9284 80.8392 29.9102 80.8574 29.9102C80.8939 29.8919 80.9395 29.8828 80.9941 29.8828C80.9941 29.8828 81.0033 29.8828 81.0215 29.8828C81.0397 29.8646 81.0671 29.8555 81.1035 29.8555ZM83.9199 31.1133C84.0658 31.2956 84.2025 31.5052 84.3301 31.7422C84.7493 32.599 84.8223 33.4648 84.5488 34.3398C84.4941 34.5039 84.4395 34.6589 84.3848 34.8047C84.3301 34.9505 84.2754 35.0964 84.2207 35.2422C83.6738 36.5729 82.8991 37.6393 81.8965 38.4414C81.0215 39.1341 80.0918 39.5807 79.1074 39.7812C78.1413 39.9635 77.1204 40.0182 76.0449 39.9453C75.8262 39.9453 75.6074 39.9271 75.3887 39.8906C75.1882 39.8542 74.9785 39.8177 74.7598 39.7812C74.541 39.7448 74.3314 39.7083 74.1309 39.6719C73.9486 39.6172 73.7663 39.5625 73.584 39.5078C72.3262 39.2161 71.2871 38.6693 70.4668 37.8672C70.3757 37.8125 70.248 37.6758 70.084 37.457C69.1178 36.3086 68.9538 35.1055 69.5918 33.8477C69.5189 33.6107 69.4642 33.3464 69.4277 33.0547C69.373 32.5443 69.3822 32.0885 69.4551 31.6875C69.5098 31.2682 69.5827 30.8125 69.6738 30.3203C69.7285 30.0651 69.8014 29.819 69.8926 29.582C69.9655 29.3268 70.0293 29.0625 70.084 28.7891C70.0658 28.2057 70.1934 27.5859 70.4668 26.9297C70.9225 26.0182 71.6061 25.2982 72.5176 24.7695C72.5723 24.7331 72.627 24.6966 72.6816 24.6602C72.7546 24.6237 72.8184 24.5781 72.873 24.5234C72.946 24.4688 73.0189 24.4141 73.0918 24.3594C73.1647 24.2865 73.2559 24.2227 73.3652 24.168C73.9121 23.8216 74.5319 23.5482 75.2246 23.3477C75.7715 23.2018 76.291 23.1289 76.7832 23.1289C78.2233 23.0742 79.4902 23.3112 80.584 23.8398C81.8418 24.4596 82.8353 25.362 83.5645 26.5469C83.6009 26.6198 83.6738 26.7292 83.7832 26.875C84.2389 27.5495 84.4941 28.224 84.5488 28.8984C84.6217 29.737 84.4121 30.4753 83.9199 31.1133ZM77.084 31.9062C77.084 31.888 77.084 31.8789 77.084 31.8789C77.1204 31.8242 77.1569 31.7604 77.1934 31.6875C77.2298 31.6146 77.2754 31.5417 77.3301 31.4688C77.3301 31.4688 77.3483 31.4505 77.3848 31.4141C77.2389 31.1953 77.1387 31.0221 77.084 30.8945C77.0475 31.0404 77.0293 31.2682 77.0293 31.5781C77.0293 31.6875 77.0475 31.7969 77.084 31.9062ZM95.2949 28.7617C95.4043 28.4701 95.4134 28.1602 95.3223 27.832C95.3223 27.832 95.3132 27.832 95.2949 27.832C95.2949 27.8138 95.2949 27.7956 95.2949 27.7773C95.1673 27.3398 94.8848 26.875 94.4473 26.3828C93.7728 25.7266 93.0163 25.2617 92.1777 24.9883C91.8314 24.8971 91.5033 24.8242 91.1934 24.7695C90.9017 24.6966 90.5827 24.651 90.2363 24.6328C89.3431 24.6146 88.5592 24.6784 87.8848 24.8242C87.0827 25.0065 86.2897 25.3711 85.5059 25.918C85.2324 26.1367 85.0866 26.2552 85.0684 26.2734C84.9225 26.3828 84.8132 26.474 84.7402 26.5469C84.1934 27.0573 84.1022 27.5859 84.4668 28.1328C84.4668 28.1693 84.4759 28.2057 84.4941 28.2422C84.5306 28.2604 84.5579 28.2786 84.5762 28.2969C84.248 29.1172 84.084 30.0651 84.084 31.1406C84.0475 32.526 84.4577 33.793 85.3145 34.9414C85.752 35.5247 86.0983 35.944 86.3535 36.1992C86.7728 36.6732 87.1829 36.9922 87.584 37.1562C87.9121 37.3203 88.2402 37.3841 88.5684 37.3477C88.5866 37.3477 88.6048 37.3477 88.623 37.3477C88.6595 37.3477 88.696 37.3477 88.7324 37.3477C88.9694 37.3841 89.179 37.4297 89.3613 37.4844C89.5618 37.5391 89.7988 37.5482 90.0723 37.5117C90.1816 37.5117 90.291 37.5117 90.4004 37.5117C90.528 37.5117 90.6465 37.5026 90.7559 37.4844C91.3574 37.4661 91.9772 37.3021 92.6152 36.9922C93.472 36.6276 94.2467 36.0169 94.9395 35.1602C95.1582 34.8867 95.3952 34.4583 95.6504 33.875C95.7962 33.4922 95.9147 33.0456 96.0059 32.5352C96.1152 32.0247 96.1517 31.5508 96.1152 31.1133C96.0605 30.457 95.8691 29.819 95.541 29.1992C95.4863 29.0898 95.4043 28.944 95.2949 28.7617ZM87.8027 31.2227C87.8027 30.8581 87.8392 30.4297 87.9121 29.9375C87.985 29.4453 88.1673 29.0625 88.459 28.7891C88.7689 28.5156 89.1061 28.3242 89.4707 28.2148C89.5254 28.1966 89.5801 28.1784 89.6348 28.1602C89.6895 28.1419 89.7441 28.1146 89.7988 28.0781C89.9082 28.0599 90.0905 28.0599 90.3457 28.0781C90.8014 28.1693 91.248 28.4245 91.6855 28.8438C91.8678 28.9896 92.0046 29.1536 92.0957 29.3359C92.3145 29.7734 92.4238 30.3568 92.4238 31.0859C92.4238 31.4688 92.3783 31.8698 92.2871 32.2891C92.2142 32.6901 92.041 33.0365 91.7676 33.3281C91.3301 33.7839 90.7741 34.0117 90.0996 34.0117C89.4434 34.0117 88.9056 33.7839 88.4863 33.3281C88.0306 32.8542 87.8027 32.1523 87.8027 31.2227ZM97.4277 28.8984C97.8288 29.7005 98.0749 30.5391 98.166 31.4141C98.2389 32.6354 98.0293 33.8659 97.5371 35.1055C97.2819 35.7617 96.9538 36.3542 96.5527 36.8828C95.6777 37.9766 94.6478 38.7878 93.4629 39.3164C92.5514 39.7174 91.7038 39.9362 90.9199 39.9727C90.8105 39.9727 90.7012 39.9727 90.5918 39.9727C90.5007 39.9727 90.4095 39.9727 90.3184 39.9727C89.9355 39.9909 89.6257 39.9818 89.3887 39.9453C89.1699 39.9089 88.9147 39.8633 88.623 39.8086C88.0033 39.8451 87.3926 39.7266 86.791 39.4531C86.2077 39.1979 85.6061 38.7513 84.9863 38.1133C84.7311 37.8945 84.5033 37.6576 84.3027 37.4023C84.1204 37.1471 83.929 36.8828 83.7285 36.6094C82.653 35.0964 82.1152 33.4284 82.1152 31.6055C82.1517 30.5482 82.2702 29.6458 82.4707 28.8984C82.1061 27.6771 82.4069 26.5742 83.373 25.5898C83.4642 25.4987 83.6191 25.362 83.8379 25.1797C84.0566 24.9974 84.2298 24.8607 84.3574 24.7695C85.2871 24.0768 86.3262 23.5938 87.4746 23.3203C87.9668 23.2109 88.4408 23.1471 88.8965 23.1289C89.3522 23.1107 89.8353 23.1016 90.3457 23.1016C91.1842 23.1745 92.0046 23.3203 92.8066 23.5391C94.028 23.9401 95.0671 24.5872 95.9238 25.4805C96.5618 26.1367 97.0085 26.8659 97.2637 27.668C97.2637 27.6862 97.2637 27.7044 97.2637 27.7227C97.2819 27.7227 97.291 27.7227 97.291 27.7227C97.4004 28.1419 97.446 28.5339 97.4277 28.8984ZM90.373 30.8125C90.373 30.8125 90.3639 30.8125 90.3457 30.8125C90.3457 30.7943 90.3457 30.776 90.3457 30.7578C90.4186 30.7943 90.3457 30.7396 90.127 30.5938C90.127 30.5938 90.1178 30.5938 90.0996 30.5938C90.0085 30.6302 89.9629 30.6484 89.9629 30.6484C89.9082 30.7943 89.8717 30.9766 89.8535 31.1953C89.8535 31.4141 89.8535 31.5781 89.8535 31.6875C89.8535 31.7786 89.8535 31.9154 89.8535 32.0977C89.8717 32.2617 89.9173 32.3711 89.9902 32.4258C89.9902 32.4258 89.9902 32.4349 89.9902 32.4531C90.0085 32.4714 90.0176 32.4805 90.0176 32.4805C90.0176 32.4805 90.0358 32.4805 90.0723 32.4805C90.1087 32.4805 90.1361 32.4805 90.1543 32.4805C90.1543 32.4805 90.1725 32.4805 90.209 32.4805C90.2454 32.4805 90.2728 32.4805 90.291 32.4805C90.3092 32.4622 90.3184 32.444 90.3184 32.4258C90.373 32.3711 90.4095 32.2435 90.4277 32.043C90.446 31.8242 90.4551 31.6602 90.4551 31.5508C90.4551 31.2591 90.4277 31.013 90.373 30.8125ZM101.502 31.9609C102.031 32.7812 102.559 33.5924 103.088 34.3945C103.635 35.1784 104.182 35.9714 104.729 36.7734C104.947 37.1198 105.266 37.293 105.686 37.293C105.777 37.293 105.868 37.293 105.959 37.293C106.05 37.293 106.15 37.293 106.26 37.293C106.424 37.5664 106.633 37.7852 106.889 37.9492C107.436 38.2773 107.928 38.2773 108.365 37.9492C108.821 37.6029 108.994 37.1289 108.885 36.5273C108.885 36.4727 108.867 36.3906 108.83 36.2812C108.757 35.9896 108.693 35.6888 108.639 35.3789C108.602 35.0508 108.566 34.7227 108.529 34.3945C108.475 34.0664 108.429 33.7383 108.393 33.4102C108.374 33.0638 108.347 32.7266 108.311 32.3984C108.311 32.2708 108.301 32.125 108.283 31.9609C108.265 31.7786 108.265 31.6146 108.283 31.4688C108.301 31.0859 108.311 30.7031 108.311 30.3203C108.329 29.9193 108.338 29.5273 108.338 29.1445C108.301 28.6706 108.283 28.3242 108.283 28.1055C108.265 28.0143 108.247 27.9323 108.229 27.8594C108.229 27.7682 108.229 27.6771 108.229 27.5859C108.192 27.2578 108.137 26.7839 108.064 26.1641C108.028 26 108.001 25.8451 107.982 25.6992C107.964 25.5352 107.946 25.3711 107.928 25.207C107.91 25.1706 107.891 25.1432 107.873 25.125C107.873 25.0885 107.873 25.043 107.873 24.9883C108.019 24.6419 107.964 24.2773 107.709 23.8945C107.381 23.457 106.952 23.2565 106.424 23.293C105.895 23.3294 105.54 23.6211 105.357 24.168C105.303 24.3503 105.275 24.5781 105.275 24.8516C104.838 25.0703 104.619 25.4258 104.619 25.918C104.619 26.5742 104.619 27.2305 104.619 27.8867C104.619 28.543 104.619 29.1992 104.619 29.8555C104.583 29.8372 104.555 29.819 104.537 29.8008C104.519 29.7643 104.501 29.7279 104.482 29.6914C104.3 29.3815 104.09 29.0625 103.854 28.7344C103.635 28.4609 103.434 28.1784 103.252 27.8867C103.07 27.5951 102.887 27.3034 102.705 27.0117C102.632 26.9023 102.559 26.793 102.486 26.6836C102.413 26.5742 102.35 26.4648 102.295 26.3555C102.04 25.9909 101.785 25.6536 101.529 25.3438C101.238 24.9792 100.855 24.8516 100.381 24.9609C100.308 24.9245 100.244 24.8971 100.189 24.8789C99.9889 24.7878 99.7975 24.7513 99.6152 24.7695C99.597 24.7695 99.5788 24.7695 99.5605 24.7695C99.5423 24.7513 99.5332 24.7422 99.5332 24.7422C98.7676 24.5417 98.2116 24.6419 97.8652 25.043C97.6647 25.2799 97.5645 25.526 97.5645 25.7812C97.5462 25.9818 97.61 26.2552 97.7559 26.6016C97.8105 26.7839 97.8288 26.9935 97.8105 27.2305C97.8105 27.4674 97.8197 27.6771 97.8379 27.8594C97.8561 28.0417 97.8652 28.306 97.8652 28.6523C97.8652 29.8737 97.8652 31.1042 97.8652 32.3438C97.8652 33.5651 97.8652 34.7773 97.8652 35.9805C97.8288 36.5273 98.0293 36.9193 98.4668 37.1562C98.9043 37.375 99.3418 37.3294 99.7793 37.0195C100.016 37.2018 100.308 37.2383 100.654 37.1289C101.183 36.9648 101.465 36.6003 101.502 36.0352C101.502 35.9987 101.502 35.9622 101.502 35.9258C101.502 35.8711 101.502 35.8164 101.502 35.7617C101.502 35.1419 101.502 34.513 101.502 33.875C101.502 33.237 101.502 32.599 101.502 31.9609ZM103.389 24.332C103.425 24.1862 103.462 24.0768 103.498 24.0039C103.917 22.6914 104.792 21.9531 106.123 21.7891C107.454 21.6068 108.529 22.0625 109.35 23.1562C109.86 23.8854 110.061 24.6602 109.951 25.4805C109.969 25.6263 109.988 25.7721 110.006 25.918C110.024 26.0638 110.051 26.2096 110.088 26.3555C110.106 26.6107 110.133 26.8659 110.17 27.1211C110.206 27.3763 110.234 27.6224 110.252 27.8594C110.288 28.151 110.307 28.3698 110.307 28.5156C110.343 28.9896 110.361 29.3451 110.361 29.582C110.38 30.3477 110.361 31.1771 110.307 32.0703C110.307 32.2526 110.325 32.4531 110.361 32.6719C110.38 33 110.398 33.3281 110.416 33.6562C110.452 33.9844 110.498 34.3034 110.553 34.6133C110.607 35.2331 110.699 35.7891 110.826 36.2812C110.844 36.3724 110.872 36.4909 110.908 36.6367C111.145 38.0951 110.68 39.2253 109.514 40.0273C108.365 40.8294 107.162 40.8568 105.904 40.1094C105.649 39.9635 105.467 39.8451 105.357 39.7539C104.373 39.6445 103.617 39.1797 103.088 38.3594C103.07 38.3229 103.042 38.2865 103.006 38.25C102.587 38.8698 102.012 39.2891 101.283 39.5078C100.864 39.6536 100.426 39.6901 99.9707 39.6172C98.9499 39.8906 98.0111 39.7174 97.1543 39.0977C96.2975 38.4596 95.8874 37.5664 95.9238 36.418C95.9238 35.2148 95.9238 34.0026 95.9238 32.7812C95.9238 31.5599 95.9238 30.3385 95.9238 29.1172C95.9238 28.8438 95.9147 28.6341 95.8965 28.4883C95.8965 28.3607 95.8965 28.224 95.8965 28.0781C95.8965 27.9323 95.8874 27.7956 95.8691 27.668C95.7962 27.4128 95.7324 27.1758 95.6777 26.957C95.623 26.7201 95.6048 26.4466 95.623 26.1367C95.6595 25.4076 95.9238 24.7604 96.416 24.1953C97.2728 23.1927 98.4486 22.8737 99.9434 23.2383C100.271 23.2747 100.536 23.3294 100.736 23.4023C101.684 23.4023 102.477 23.7852 103.115 24.5508C103.152 24.5872 103.17 24.6055 103.17 24.6055C103.243 24.5326 103.316 24.4414 103.389 24.332ZM114.381 31.9609C114.91 32.7812 115.438 33.5924 115.967 34.3945C116.514 35.1784 117.061 35.9714 117.607 36.7734C117.826 37.1198 118.145 37.293 118.564 37.293C118.656 37.293 118.747 37.293 118.838 37.293C118.929 37.293 119.029 37.293 119.139 37.293C119.303 37.5664 119.512 37.7852 119.768 37.9492C120.314 38.2773 120.807 38.2773 121.244 37.9492C121.7 37.6029 121.873 37.1289 121.764 36.5273C121.764 36.4727 121.745 36.3906 121.709 36.2812C121.636 35.9896 121.572 35.6888 121.518 35.3789C121.481 35.0508 121.445 34.7227 121.408 34.3945C121.354 34.0664 121.308 33.7383 121.271 33.4102C121.253 33.0638 121.226 32.7266 121.189 32.3984C121.189 32.2708 121.18 32.125 121.162 31.9609C121.144 31.7786 121.144 31.6146 121.162 31.4688C121.18 31.0859 121.189 30.7031 121.189 30.3203C121.208 29.9193 121.217 29.5273 121.217 29.1445C121.18 28.6706 121.162 28.3242 121.162 28.1055C121.144 28.0143 121.126 27.9323 121.107 27.8594C121.107 27.7682 121.107 27.6771 121.107 27.5859C121.071 27.2578 121.016 26.7839 120.943 26.1641C120.907 26 120.88 25.8451 120.861 25.6992C120.843 25.5352 120.825 25.3711 120.807 25.207C120.788 25.1706 120.77 25.1432 120.752 25.125C120.752 25.0885 120.752 25.043 120.752 24.9883C120.898 24.6419 120.843 24.2773 120.588 23.8945C120.26 23.457 119.831 23.2565 119.303 23.293C118.774 23.3294 118.419 23.6211 118.236 24.168C118.182 24.3503 118.154 24.5781 118.154 24.8516C117.717 25.0703 117.498 25.4258 117.498 25.918C117.498 26.5742 117.498 27.2305 117.498 27.8867C117.498 28.543 117.498 29.1992 117.498 29.8555C117.462 29.8372 117.434 29.819 117.416 29.8008C117.398 29.7643 117.38 29.7279 117.361 29.6914C117.179 29.3815 116.969 29.0625 116.732 28.7344C116.514 28.4609 116.313 28.1784 116.131 27.8867C115.949 27.5951 115.766 27.3034 115.584 27.0117C115.511 26.9023 115.438 26.793 115.365 26.6836C115.292 26.5742 115.229 26.4648 115.174 26.3555C114.919 25.9909 114.663 25.6536 114.408 25.3438C114.117 24.9792 113.734 24.8516 113.26 24.9609C113.187 24.9245 113.123 24.8971 113.068 24.8789C112.868 24.7878 112.676 24.7513 112.494 24.7695C112.476 24.7695 112.458 24.7695 112.439 24.7695C112.421 24.7513 112.412 24.7422 112.412 24.7422C111.646 24.5417 111.09 24.6419 110.744 25.043C110.544 25.2799 110.443 25.526 110.443 25.7812C110.425 25.9818 110.489 26.2552 110.635 26.6016C110.689 26.7839 110.708 26.9935 110.689 27.2305C110.689 27.4674 110.699 27.6771 110.717 27.8594C110.735 28.0417 110.744 28.306 110.744 28.6523C110.744 29.8737 110.744 31.1042 110.744 32.3438C110.744 33.5651 110.744 34.7773 110.744 35.9805C110.708 36.5273 110.908 36.9193 111.346 37.1562C111.783 37.375 112.221 37.3294 112.658 37.0195C112.895 37.2018 113.187 37.2383 113.533 37.1289C114.062 36.9648 114.344 36.6003 114.381 36.0352C114.381 35.9987 114.381 35.9622 114.381 35.9258C114.381 35.8711 114.381 35.8164 114.381 35.7617C114.381 35.1419 114.381 34.513 114.381 33.875C114.381 33.237 114.381 32.599 114.381 31.9609ZM116.268 24.332C116.304 24.1862 116.34 24.0768 116.377 24.0039C116.796 22.6914 117.671 21.9531 119.002 21.7891C120.333 21.6068 121.408 22.0625 122.229 23.1562C122.739 23.8854 122.939 24.6602 122.83 25.4805C122.848 25.6263 122.867 25.7721 122.885 25.918C122.903 26.0638 122.93 26.2096 122.967 26.3555C122.985 26.6107 123.012 26.8659 123.049 27.1211C123.085 27.3763 123.113 27.6224 123.131 27.8594C123.167 28.151 123.186 28.3698 123.186 28.5156C123.222 28.9896 123.24 29.3451 123.24 29.582C123.258 30.3477 123.24 31.1771 123.186 32.0703C123.186 32.2526 123.204 32.4531 123.24 32.6719C123.258 33 123.277 33.3281 123.295 33.6562C123.331 33.9844 123.377 34.3034 123.432 34.6133C123.486 35.2331 123.577 35.7891 123.705 36.2812C123.723 36.3724 123.751 36.4909 123.787 36.6367C124.024 38.0951 123.559 39.2253 122.393 40.0273C121.244 40.8294 120.041 40.8568 118.783 40.1094C118.528 39.9635 118.346 39.8451 118.236 39.7539C117.252 39.6445 116.495 39.1797 115.967 38.3594C115.949 38.3229 115.921 38.2865 115.885 38.25C115.465 38.8698 114.891 39.2891 114.162 39.5078C113.743 39.6536 113.305 39.6901 112.85 39.6172C111.829 39.8906 110.89 39.7174 110.033 39.0977C109.176 38.4596 108.766 37.5664 108.803 36.418C108.803 35.2148 108.803 34.0026 108.803 32.7812C108.803 31.5599 108.803 30.3385 108.803 29.1172C108.803 28.8438 108.794 28.6341 108.775 28.4883C108.775 28.3607 108.775 28.224 108.775 28.0781C108.775 27.9323 108.766 27.7956 108.748 27.668C108.675 27.4128 108.611 27.1758 108.557 26.957C108.502 26.7201 108.484 26.4466 108.502 26.1367C108.538 25.4076 108.803 24.7604 109.295 24.1953C110.152 23.1927 111.327 22.8737 112.822 23.2383C113.15 23.2747 113.415 23.3294 113.615 23.4023C114.563 23.4023 115.356 23.7852 115.994 24.5508C116.031 24.5872 116.049 24.6055 116.049 24.6055C116.122 24.5326 116.195 24.4414 116.268 24.332ZM128.135 37.375C128.354 37.4297 128.581 37.457 128.818 37.457C129.055 37.457 129.256 37.457 129.42 37.457C129.511 37.457 129.602 37.457 129.693 37.457C129.803 37.457 129.903 37.457 129.994 37.457C130.359 37.4753 130.714 37.4844 131.061 37.4844C131.425 37.4661 131.79 37.457 132.154 37.457C132.391 37.457 132.637 37.457 132.893 37.457C133.148 37.457 133.412 37.457 133.686 37.457C134.032 37.4935 134.342 37.3841 134.615 37.1289C134.579 37.1836 134.652 37.1198 134.834 36.9375C135.308 36.5182 135.499 36.026 135.408 35.4609C135.335 35.1146 135.08 34.7409 134.643 34.3398C134.424 34.1758 134.287 34.0755 134.232 34.0391C134.087 33.9844 133.886 33.957 133.631 33.957C133.376 33.957 133.166 33.957 133.002 33.957C132.893 33.957 132.783 33.9661 132.674 33.9844C132.583 33.9844 132.492 33.9753 132.4 33.957C132.054 33.9388 131.535 33.9297 130.842 33.9297C130.587 33.9297 130.331 33.9297 130.076 33.9297C129.839 33.9297 129.611 33.9297 129.393 33.9297C129.247 33.9297 129.11 33.9297 128.982 33.9297C128.855 33.9297 128.727 33.9297 128.6 33.9297C128.6 33.7474 128.6 33.5651 128.6 33.3828C128.6 33.1823 128.6 32.9818 128.6 32.7812C129.311 32.7812 130.031 32.7812 130.76 32.7812C131.489 32.7812 132.218 32.7812 132.947 32.7812C133.439 32.8359 133.804 32.6628 134.041 32.2617C134.278 31.8607 134.287 31.4414 134.068 31.0039C134.014 30.8945 133.941 30.7943 133.85 30.7031C133.886 30.5573 133.886 30.3841 133.85 30.1836C133.722 29.5638 133.348 29.2539 132.729 29.2539C132.346 29.2539 131.972 29.2539 131.607 29.2539C131.261 29.2539 130.906 29.2539 130.541 29.2539C130.268 29.2539 130.003 29.2539 129.748 29.2539C129.493 29.2357 129.229 29.2266 128.955 29.2266C128.9 29.2266 128.837 29.2357 128.764 29.2539C128.709 29.2539 128.654 29.2539 128.6 29.2539C128.6 29.1263 128.6 28.9987 128.6 28.8711C128.6 28.7253 128.6 28.5885 128.6 28.4609C128.6 28.4609 128.609 28.4609 128.627 28.4609C128.645 28.4609 128.663 28.4609 128.682 28.4609C129.137 28.4427 129.593 28.4427 130.049 28.4609C130.304 28.4609 130.55 28.4609 130.787 28.4609C131.042 28.4609 131.307 28.4609 131.58 28.4609C131.872 28.4609 132.163 28.4701 132.455 28.4883C132.765 28.5065 133.075 28.5065 133.385 28.4883C133.968 28.4701 134.324 28.1693 134.451 27.5859C134.524 27.3125 134.488 27.0391 134.342 26.7656C134.597 26.401 134.624 26.0091 134.424 25.5898C134.205 25.1523 133.85 24.9336 133.357 24.9336C133.339 24.9336 133.312 24.9336 133.275 24.9336C133.257 24.9336 133.239 24.9336 133.221 24.9336C132.273 24.9336 131.334 24.9336 130.404 24.9336C129.475 24.9336 128.545 24.9336 127.615 24.9336C127.342 24.9336 127.077 24.9336 126.822 24.9336C126.585 24.9336 126.348 24.9336 126.111 24.9336C125.327 24.9336 124.926 25.3073 124.908 26.0547C124.908 26.1823 124.89 26.319 124.854 26.4648C124.835 26.5924 124.826 26.7109 124.826 26.8203C124.771 27.2396 124.799 27.7682 124.908 28.4062C124.908 28.5521 124.926 28.707 124.963 28.8711C124.999 29.0169 125.027 29.1628 125.045 29.3086C124.68 29.3633 124.316 29.4635 123.951 29.6094C123.587 29.737 123.377 30.0286 123.322 30.4844C123.249 30.9036 123.368 31.2591 123.678 31.5508C123.842 31.7513 124.042 31.888 124.279 31.9609C124.516 32.0156 124.744 32.0703 124.963 32.125C124.981 32.4167 124.99 32.6081 124.99 32.6992C124.954 33.0273 124.936 33.2734 124.936 33.4375C124.936 33.4375 124.936 33.6016 124.936 33.9297C124.917 34.2578 124.908 34.7409 124.908 35.3789C124.908 35.5247 124.908 35.6706 124.908 35.8164C124.926 35.9622 124.936 36.1081 124.936 36.2539C124.899 37.0378 125.264 37.4388 126.029 37.457C126.048 37.4753 126.084 37.4844 126.139 37.4844C126.758 37.5573 127.424 37.5208 128.135 37.375ZM122.967 33.9844C122.693 33.8203 122.475 33.6289 122.311 33.4102C121.545 32.6628 121.244 31.7422 121.408 30.6484C121.572 29.6458 122.055 28.8984 122.857 28.4062C122.821 27.8594 122.821 27.431 122.857 27.1211C122.857 27.0117 122.867 26.9023 122.885 26.793C122.903 26.6654 122.921 26.5469 122.939 26.4375C122.976 25.5807 123.304 24.8607 123.924 24.2773C124.562 23.694 125.318 23.4023 126.193 23.4023C126.412 23.4023 126.64 23.4023 126.877 23.4023C127.132 23.4023 127.387 23.4023 127.643 23.4023C128.572 23.4023 129.502 23.4023 130.432 23.4023C131.38 23.4023 132.327 23.4023 133.275 23.4023C133.275 23.4023 133.285 23.4023 133.303 23.4023C133.321 23.4023 133.348 23.4023 133.385 23.4023C134.715 23.4023 135.673 23.9948 136.256 25.1797C136.584 25.8542 136.666 26.5742 136.502 27.3398C136.538 27.7044 136.52 28.0872 136.447 28.4883C136.338 28.9805 136.11 29.4453 135.764 29.8828C135.782 29.9557 135.809 30.0833 135.846 30.2656C135.882 30.4115 135.9 30.5299 135.9 30.6211C136.356 31.5326 136.393 32.4258 136.01 33.3008C136.775 33.9753 137.249 34.7318 137.432 35.5703C137.65 36.8646 137.249 37.9766 136.229 38.9062C136.119 38.9792 136.037 39.043 135.982 39.0977C135.326 39.6992 134.551 39.9818 133.658 39.9453C133.403 39.9453 133.148 39.9453 132.893 39.9453C132.656 39.9453 132.419 39.9453 132.182 39.9453C131.799 39.9453 131.425 39.9453 131.061 39.9453C130.714 39.9453 130.359 39.9453 129.994 39.9453C129.921 39.9453 129.839 39.9453 129.748 39.9453C129.657 39.9271 129.584 39.918 129.529 39.918C129.238 39.9544 128.8 39.9453 128.217 39.8906C127.542 39.9818 126.795 40 125.975 39.9453C125.956 39.9453 125.938 39.9453 125.92 39.9453C125.063 39.8906 124.343 39.5443 123.76 38.9062C123.176 38.2682 122.912 37.5208 122.967 36.6641C122.967 36.5365 122.958 36.4089 122.939 36.2812C122.939 36.1354 122.939 35.9896 122.939 35.8438C122.939 35.1693 122.949 34.6589 122.967 34.3125C122.967 34.2578 122.967 34.2031 122.967 34.1484C122.967 34.0938 122.967 34.0391 122.967 33.9844ZM146.1 29.8555C146.41 29.9466 146.71 29.8919 147.002 29.6914C147.403 29.4362 147.576 29.0807 147.521 28.625C147.485 28.2786 147.348 27.9323 147.111 27.5859C147.057 27.513 147.002 27.4401 146.947 27.3672C146.893 27.2943 146.838 27.2122 146.783 27.1211C146.273 26.2461 145.571 25.599 144.678 25.1797C143.857 24.7786 142.91 24.6055 141.834 24.6602C141.451 24.6602 141.087 24.7148 140.74 24.8242C140.175 24.9883 139.729 25.1797 139.4 25.3984C139.309 25.4531 139.227 25.5078 139.154 25.5625C139.1 25.6172 139.036 25.6628 138.963 25.6992C138.835 25.8086 138.689 25.9089 138.525 26C137.924 26.3828 137.486 26.8385 137.213 27.3672C137.049 27.6953 136.994 27.987 137.049 28.2422C137.031 28.3151 137.04 28.4154 137.076 28.543C137.04 28.5977 137.003 28.7161 136.967 28.8984C136.785 29.3906 136.657 29.8464 136.584 30.2656C136.493 30.6484 136.42 30.9948 136.365 31.3047C136.311 31.5964 136.311 31.9336 136.365 32.3164C136.402 32.7539 136.52 33.2461 136.721 33.793C136.538 33.9753 136.447 34.0664 136.447 34.0664C136.028 34.5951 136.074 35.1419 136.584 35.707C136.62 35.7617 136.693 35.8438 136.803 35.9531C137.35 36.5 138.079 36.8737 138.99 37.0742C139.154 37.1289 139.318 37.1836 139.482 37.2383C139.665 37.2747 139.856 37.3021 140.057 37.3203C140.239 37.3568 140.421 37.3932 140.604 37.4297C140.804 37.4661 141.005 37.4844 141.205 37.4844C142.007 37.5573 142.773 37.5299 143.502 37.4023C144.249 37.2747 144.96 36.9375 145.635 36.3906C146.364 35.8073 146.92 35.0234 147.303 34.0391C147.412 33.7656 147.512 33.5104 147.604 33.2734C147.713 32.9089 147.686 32.5443 147.521 32.1797C147.193 31.5599 146.719 31.2773 146.1 31.332C145.771 31.332 145.434 31.4596 145.088 31.7148C144.596 31.6419 144.204 31.7969 143.912 32.1797C143.894 32.2161 143.876 32.2526 143.857 32.2891C143.839 32.3073 143.83 32.3255 143.83 32.3438C143.812 32.362 143.794 32.3802 143.775 32.3984C143.775 32.4167 143.775 32.4258 143.775 32.4258C143.775 32.4622 143.766 32.4896 143.748 32.5078C143.62 32.8177 143.447 33.1367 143.229 33.4648C143.01 33.7383 142.736 33.957 142.408 34.1211C142.408 34.1211 142.399 34.1302 142.381 34.1484C142.271 34.0938 142.08 34.0664 141.807 34.0664C141.807 34.0664 141.798 34.0664 141.779 34.0664C141.761 34.0482 141.752 34.0391 141.752 34.0391C141.624 33.9844 141.497 33.9388 141.369 33.9023C141.242 33.8477 141.123 33.7656 141.014 33.6562C140.886 33.5651 140.74 33.3919 140.576 33.1367C140.412 32.8815 140.312 32.6719 140.275 32.5078C140.111 32.1068 140.02 31.6784 140.002 31.2227C139.965 30.5664 140.048 29.9648 140.248 29.418C140.357 29.0169 140.576 28.707 140.904 28.4883C141.251 28.2878 141.588 28.1966 141.916 28.2148C142.463 28.3242 143.019 28.4883 143.584 28.707C143.62 28.8346 143.675 29.0078 143.748 29.2266C143.748 29.2812 143.757 29.3268 143.775 29.3633C143.794 29.3997 143.812 29.4362 143.83 29.4727C143.976 29.9102 144.249 30.1654 144.65 30.2383C145.051 30.3112 145.425 30.2201 145.771 29.9648C145.808 29.9284 145.835 29.9102 145.854 29.9102C145.89 29.8919 145.936 29.8828 145.99 29.8828C145.99 29.8828 145.999 29.8828 146.018 29.8828C146.036 29.8646 146.063 29.8555 146.1 29.8555ZM148.916 31.1133C149.062 31.2956 149.199 31.5052 149.326 31.7422C149.745 32.599 149.818 33.4648 149.545 34.3398C149.49 34.5039 149.436 34.6589 149.381 34.8047C149.326 34.9505 149.271 35.0964 149.217 35.2422C148.67 36.5729 147.895 37.6393 146.893 38.4414C146.018 39.1341 145.088 39.5807 144.104 39.7812C143.137 39.9635 142.117 40.0182 141.041 39.9453C140.822 39.9453 140.604 39.9271 140.385 39.8906C140.184 39.8542 139.975 39.8177 139.756 39.7812C139.537 39.7448 139.327 39.7083 139.127 39.6719C138.945 39.6172 138.762 39.5625 138.58 39.5078C137.322 39.2161 136.283 38.6693 135.463 37.8672C135.372 37.8125 135.244 37.6758 135.08 37.457C134.114 36.3086 133.95 35.1055 134.588 33.8477C134.515 33.6107 134.46 33.3464 134.424 33.0547C134.369 32.5443 134.378 32.0885 134.451 31.6875C134.506 31.2682 134.579 30.8125 134.67 30.3203C134.725 30.0651 134.798 29.819 134.889 29.582C134.962 29.3268 135.025 29.0625 135.08 28.7891C135.062 28.2057 135.189 27.5859 135.463 26.9297C135.919 26.0182 136.602 25.2982 137.514 24.7695C137.568 24.7331 137.623 24.6966 137.678 24.6602C137.751 24.6237 137.814 24.5781 137.869 24.5234C137.942 24.4688 138.015 24.4141 138.088 24.3594C138.161 24.2865 138.252 24.2227 138.361 24.168C138.908 23.8216 139.528 23.5482 140.221 23.3477C140.768 23.2018 141.287 23.1289 141.779 23.1289C143.219 23.0742 144.486 23.3112 145.58 23.8398C146.838 24.4596 147.831 25.362 148.561 26.5469C148.597 26.6198 148.67 26.7292 148.779 26.875C149.235 27.5495 149.49 28.224 149.545 28.8984C149.618 29.737 149.408 30.4753 148.916 31.1133ZM142.08 31.9062C142.08 31.888 142.08 31.8789 142.08 31.8789C142.117 31.8242 142.153 31.7604 142.189 31.6875C142.226 31.6146 142.271 31.5417 142.326 31.4688C142.326 31.4688 142.344 31.4505 142.381 31.4141C142.235 31.1953 142.135 31.0221 142.08 30.8945C142.044 31.0404 142.025 31.2682 142.025 31.5781C142.025 31.6875 142.044 31.7969 142.08 31.9062ZM152.389 32.4805C152.334 32.5898 152.288 32.7539 152.252 32.9727C152.252 33.0273 152.252 33.0729 152.252 33.1094C152.252 33.1458 152.252 33.1823 152.252 33.2188C152.252 33.2734 152.252 33.3281 152.252 33.3828C152.27 33.4193 152.279 33.4557 152.279 33.4922C152.279 33.6562 152.279 33.8294 152.279 34.0117C152.279 34.194 152.279 34.3672 152.279 34.5312C152.243 34.7682 152.206 35.1419 152.17 35.6523C152.133 36.4727 152.471 37.0013 153.182 37.2383C153.2 37.2565 153.236 37.2656 153.291 37.2656C153.455 37.3203 153.637 37.3294 153.838 37.293C154.275 37.5846 154.704 37.612 155.123 37.375C155.561 37.138 155.834 36.7279 155.943 36.1445C155.943 36.0898 155.943 36.0352 155.943 35.9805C155.962 35.9076 155.98 35.8438 155.998 35.7891C155.998 35.6797 155.998 35.5794 155.998 35.4883C155.998 35.3789 155.998 35.2695 155.998 35.1602C155.962 34.7227 155.943 34.3854 155.943 34.1484C155.943 33 155.943 31.8516 155.943 30.7031C155.943 29.5365 155.943 28.3789 155.943 27.2305C156.035 27.2305 156.126 27.2305 156.217 27.2305C156.326 27.2305 156.436 27.2305 156.545 27.2305C156.764 27.2305 156.982 27.2305 157.201 27.2305C157.438 27.2305 157.666 27.2305 157.885 27.2305C158.432 27.2305 158.824 27.0755 159.061 26.7656C159.17 26.5833 159.234 26.4557 159.252 26.3828C159.27 26.3828 159.279 26.3737 159.279 26.3555C159.571 26.2279 159.835 26.0547 160.072 25.8359C160.327 25.599 160.464 25.2891 160.482 24.9062C160.482 24.3776 160.209 23.9766 159.662 23.7031C159.425 23.5938 159.033 23.5573 158.486 23.5938C157.867 23.6302 157.402 23.6393 157.092 23.6211C156.873 23.6211 156.663 23.6393 156.463 23.6758C156.262 23.694 156.053 23.7031 155.834 23.7031C155.652 23.7031 155.46 23.7031 155.26 23.7031C155.077 23.7031 154.895 23.7031 154.713 23.7031C154.585 23.7031 154.458 23.7031 154.33 23.7031C154.202 23.7031 154.084 23.7031 153.975 23.7031C153.865 23.7031 153.747 23.7031 153.619 23.7031C153.492 23.7031 153.373 23.7031 153.264 23.7031C152.753 23.7031 152.234 23.7031 151.705 23.7031C151.195 23.7031 150.684 23.7031 150.174 23.7031C149.736 23.6849 149.39 23.8398 149.135 24.168C148.88 24.4779 148.816 24.8333 148.943 25.2344C149.016 25.4896 149.144 25.6992 149.326 25.8633C149.29 25.9909 149.29 26.1094 149.326 26.2188C149.417 26.8568 149.773 27.1849 150.393 27.2031C150.721 27.2214 151.213 27.2305 151.869 27.2305C151.869 27.2305 151.878 27.2305 151.896 27.2305C151.933 27.2305 151.969 27.2305 152.006 27.2305C151.933 27.7773 151.997 28.4336 152.197 29.1992C152.215 29.3268 152.234 29.4544 152.252 29.582C152.27 29.7096 152.298 29.8281 152.334 29.9375C152.352 30.2109 152.398 30.4115 152.471 30.5391C152.471 30.5755 152.462 30.612 152.443 30.6484C152.443 30.6667 152.443 30.6849 152.443 30.7031C152.443 30.8307 152.443 30.9583 152.443 31.0859C152.462 31.2135 152.471 31.332 152.471 31.4414C152.434 31.5326 152.398 31.7422 152.361 32.0703C152.361 32.1432 152.361 32.2161 152.361 32.2891C152.38 32.362 152.389 32.4258 152.389 32.4805ZM150.174 29.6641C149.463 29.6094 148.852 29.3359 148.342 28.8438C147.831 28.3333 147.512 27.7227 147.385 27.0117C147.239 26.7383 147.139 26.4831 147.084 26.2461C146.792 25.207 146.975 24.2591 147.631 23.4023C148.287 22.5273 149.162 22.1172 150.256 22.1719C150.748 22.1719 151.249 22.1719 151.76 22.1719C152.27 22.1719 152.781 22.1719 153.291 22.1719C153.4 22.1719 153.519 22.1719 153.646 22.1719C153.774 22.1719 153.902 22.1719 154.029 22.1719C154.139 22.1719 154.257 22.1719 154.385 22.1719C154.531 22.1719 154.667 22.1719 154.795 22.1719C154.959 22.1719 155.132 22.1719 155.314 22.1719C155.497 22.1719 155.679 22.1719 155.861 22.1719C156.08 22.1719 156.29 22.1628 156.49 22.1445C156.709 22.1081 156.928 22.0898 157.146 22.0898C157.693 22.0898 158.104 22.0807 158.377 22.0625C158.76 22.0443 159.124 22.0534 159.471 22.0898C159.817 22.1081 160.182 22.1992 160.564 22.3633C161.859 23.0013 162.506 24.013 162.506 25.3984C162.506 26.638 161.932 27.6133 160.783 28.3242C160.765 28.3607 160.738 28.3971 160.701 28.4336C160.081 29.2721 159.17 29.7005 157.967 29.7188C157.967 30.5391 157.967 31.3594 157.967 32.1797C157.967 32.9818 157.967 33.793 157.967 34.6133C157.967 34.7773 157.976 34.9414 157.994 35.1055C158.012 35.2513 158.021 35.3971 158.021 35.543C158.04 35.8711 158.04 36.1901 158.021 36.5C158.003 36.5911 157.985 36.6732 157.967 36.7461C157.967 36.819 157.967 36.8919 157.967 36.9648C157.766 38.0586 157.21 38.8971 156.299 39.4805C155.387 40.0456 154.439 40.1458 153.455 39.7812C153.255 39.7812 153.063 39.7539 152.881 39.6992C152.699 39.6628 152.58 39.6263 152.525 39.5898C151.796 39.3346 151.213 38.8698 150.775 38.1953C150.356 37.5026 150.165 36.7734 150.201 36.0078C150.238 35.4609 150.274 35.0417 150.311 34.75C150.311 34.6589 150.311 34.5495 150.311 34.4219C150.311 34.276 150.311 34.1484 150.311 34.0391C150.311 34.0026 150.301 33.9661 150.283 33.9297C150.283 33.875 150.283 33.8203 150.283 33.7656C150.283 33.7109 150.283 33.6471 150.283 33.5742C150.283 33.5013 150.283 33.4284 150.283 33.3555C150.32 33.0273 150.356 32.7904 150.393 32.6445C150.393 32.6263 150.393 32.6081 150.393 32.5898C150.393 32.5534 150.393 32.5169 150.393 32.4805C150.429 32.1159 150.465 31.8424 150.502 31.6602C150.502 31.6055 150.493 31.5508 150.475 31.4961C150.475 31.4232 150.475 31.3594 150.475 31.3047C150.438 31.1771 150.402 30.9857 150.365 30.7305C150.329 30.4753 150.292 30.2656 150.256 30.1016C150.219 29.9193 150.192 29.7734 150.174 29.6641ZM177.928 29.7461C177.818 29.2721 177.727 28.8711 177.654 28.543C177.618 28.4701 177.59 28.388 177.572 28.2969C177.554 28.2057 177.536 28.1055 177.518 27.9961C177.463 27.8138 177.417 27.6224 177.381 27.4219C177.363 27.2031 177.326 26.9844 177.271 26.7656C177.217 26.5833 177.162 26.401 177.107 26.2188C177.071 26.0182 177.035 25.8177 176.998 25.6172C176.834 24.9974 176.451 24.6875 175.85 24.6875C175.521 24.6875 175.239 24.7695 175.002 24.9336C174.674 24.7695 174.337 24.7695 173.99 24.9336C173.352 25.2253 173.152 25.7083 173.389 26.3828C173.498 26.6927 173.58 26.9661 173.635 27.2031C173.671 27.4219 173.717 27.6406 173.771 27.8594C173.826 28.0599 173.881 28.2695 173.936 28.4883C174.008 28.7435 174.1 29.1263 174.209 29.6367C174.245 29.8008 174.282 29.9648 174.318 30.1289C174.355 30.2747 174.4 30.4297 174.455 30.5938C174.492 30.776 174.519 30.9583 174.537 31.1406C174.574 31.3229 174.619 31.4961 174.674 31.6602C174.729 31.9883 174.792 32.3073 174.865 32.6172C174.938 32.9271 175.029 33.2279 175.139 33.5195C175.193 33.6836 175.257 33.8385 175.33 33.9844C175.403 34.1302 175.467 34.2669 175.521 34.3945C175.576 34.5586 175.631 34.7227 175.686 34.8867C175.758 35.0326 175.831 35.1784 175.904 35.3242C176.032 35.6523 176.123 35.8529 176.178 35.9258C176.178 36.1263 176.196 36.2721 176.232 36.3633C176.232 36.6185 176.333 36.8737 176.533 37.1289C176.77 37.4206 177.089 37.5482 177.49 37.5117C177.581 37.5117 177.718 37.4935 177.9 37.457C178.247 37.3477 178.557 37.1471 178.83 36.8555C179.377 36.8008 179.696 36.4818 179.787 35.8984C179.787 35.8438 179.796 35.7617 179.814 35.6523C179.833 35.543 179.851 35.4518 179.869 35.3789C179.979 35.1602 180.106 34.7591 180.252 34.1758C180.325 33.957 180.434 33.6107 180.58 33.1367C180.635 32.8815 180.699 32.6263 180.771 32.3711C180.844 32.1159 180.917 31.8516 180.99 31.5781C180.99 31.5781 180.99 31.569 180.99 31.5508C181.008 31.5326 181.018 31.5234 181.018 31.5234C181.163 31.888 181.282 32.1615 181.373 32.3438C181.373 32.3438 181.373 32.3529 181.373 32.3711C181.373 32.3893 181.382 32.3984 181.4 32.3984C181.4 32.4167 181.4 32.4349 181.4 32.4531C181.4 32.4714 181.4 32.4805 181.4 32.4805C181.4 32.5352 181.4 32.5898 181.4 32.6445C181.419 32.6992 181.428 32.7448 181.428 32.7812C181.446 33.0547 181.501 33.3099 181.592 33.5469C181.665 33.8385 181.719 34.0482 181.756 34.1758C181.847 34.5586 181.938 34.9323 182.029 35.2969C182.139 35.6615 182.248 36.0169 182.357 36.3633C182.467 36.8372 182.74 37.1107 183.178 37.1836C183.433 37.3659 183.715 37.457 184.025 37.457C184.39 37.4388 184.654 37.3385 184.818 37.1562C185.001 36.974 185.183 36.7734 185.365 36.5547C185.785 36.4271 186.031 36.1172 186.104 35.625C186.104 35.5703 186.104 35.5156 186.104 35.4609C186.122 35.388 186.14 35.3242 186.158 35.2695C186.231 34.9961 186.277 34.8138 186.295 34.7227C186.313 34.668 186.331 34.5859 186.35 34.4766C186.368 34.3672 186.386 34.276 186.404 34.2031C186.477 34.0573 186.568 33.8385 186.678 33.5469C186.732 33.3281 186.787 33.1003 186.842 32.8633C186.915 32.6263 186.988 32.3893 187.061 32.1523C187.152 31.7878 187.243 31.4232 187.334 31.0586C187.443 30.6758 187.553 30.293 187.662 29.9102C187.826 29.3086 187.99 28.6979 188.154 28.0781C188.337 27.4583 188.519 26.8385 188.701 26.2188C188.701 26.1823 188.701 26.1458 188.701 26.1094C188.719 26.0729 188.729 26.0273 188.729 25.9727V25.9453C188.747 25.5625 188.61 25.2435 188.318 24.9883C188.318 24.9336 188.318 24.8789 188.318 24.8242C188.318 24.7695 188.318 24.7148 188.318 24.6602C188.227 24.0768 187.926 23.6849 187.416 23.4844C186.924 23.2656 186.459 23.375 186.021 23.8125C185.675 24.1589 185.465 24.5234 185.393 24.9062C185.283 25.2344 185.192 25.4805 185.119 25.6445C184.919 26.082 184.782 26.4648 184.709 26.793C184.654 27.0117 184.59 27.3398 184.518 27.7773C184.481 27.9232 184.445 28.069 184.408 28.2148C184.39 28.3424 184.372 28.4701 184.354 28.5977C184.317 28.707 184.29 28.8255 184.271 28.9531C184.271 29.0625 184.262 29.1719 184.244 29.2812C184.226 29.3542 184.199 29.4271 184.162 29.5C184.144 29.5729 184.135 29.6367 184.135 29.6914C184.08 29.5273 184.025 29.3633 183.971 29.1992C183.934 29.0169 183.898 28.8438 183.861 28.6797C183.807 28.5339 183.752 28.3971 183.697 28.2695C183.661 28.1419 183.624 28.0052 183.588 27.8594C183.533 27.7318 183.479 27.5951 183.424 27.4492C183.369 27.3034 183.333 27.1576 183.314 27.0117C183.242 26.5013 183.169 26.0911 183.096 25.7812C182.895 25.2161 182.531 24.9336 182.002 24.9336C181.273 24.4049 180.553 24.3138 179.842 24.6602C179.477 24.8424 179.249 25.0977 179.158 25.4258C179.067 25.6445 178.994 25.8633 178.939 26.082C178.903 26.2826 178.857 26.4831 178.803 26.6836C178.639 27.2122 178.538 27.6406 178.502 27.9688C178.429 28.3333 178.429 28.6159 178.502 28.8164C178.465 28.8711 178.429 28.9258 178.393 28.9805C178.374 29.0169 178.356 29.0625 178.338 29.1172C178.283 29.2266 178.229 29.3268 178.174 29.418C178.119 29.4909 178.064 29.5729 178.01 29.6641C177.992 29.6823 177.973 29.7005 177.955 29.7188C177.937 29.737 177.928 29.7461 177.928 29.7461ZM188.346 35.3516C188.346 35.4062 188.327 35.5065 188.291 35.6523C188.255 35.7617 188.227 35.862 188.209 35.9531C188.191 36.0443 188.173 36.1354 188.154 36.2266C188.136 36.263 188.127 36.3086 188.127 36.3633C187.981 37.3659 187.498 38.1224 186.678 38.6328C186.331 39.0156 185.976 39.3255 185.611 39.5625C185.247 39.7812 184.764 39.8997 184.162 39.918C183.506 39.9544 182.913 39.8177 182.385 39.5078C181.801 39.3073 181.318 38.9427 180.936 38.4141C180.607 38.7422 180.252 38.9792 179.869 39.125C179.432 39.4714 178.985 39.7083 178.529 39.8359C178.256 39.9271 177.973 39.9818 177.682 40C176.551 40.0182 175.667 39.6536 175.029 38.9062C174.574 38.3958 174.327 37.8216 174.291 37.1836C174.273 37.1471 174.255 37.1107 174.236 37.0742C174.236 37.0378 174.236 36.9922 174.236 36.9375C174.2 36.8828 174.163 36.819 174.127 36.7461C174.09 36.6732 174.063 36.5911 174.045 36.5C173.99 36.3542 173.926 36.2083 173.854 36.0625C173.799 35.9167 173.744 35.7617 173.689 35.5977C173.635 35.4518 173.571 35.306 173.498 35.1602C173.425 35.0143 173.361 34.8594 173.307 34.6953C173.161 34.3672 173.042 34.0299 172.951 33.6836C172.878 33.319 172.805 32.9544 172.732 32.5898C172.678 32.4258 172.641 32.2617 172.623 32.0977C172.605 31.9154 172.577 31.7422 172.541 31.5781C172.486 31.4141 172.45 31.25 172.432 31.0859C172.413 30.9036 172.377 30.7305 172.322 30.5664C172.286 30.4023 172.249 30.2292 172.213 30.0469C172.176 29.8464 172.131 29.6549 172.076 29.4727C171.912 28.8893 171.794 28.4154 171.721 28.0508C171.721 27.9596 171.702 27.8776 171.666 27.8047C171.63 27.7135 171.593 27.6133 171.557 27.5039C171.301 26.7383 171.329 25.9909 171.639 25.2617C171.93 24.5143 172.432 23.9583 173.143 23.5938C173.708 23.3203 174.291 23.2201 174.893 23.293C175.257 23.2018 175.594 23.1562 175.904 23.1562C176.725 23.1562 177.436 23.4388 178.037 24.0039C178.292 23.7487 178.611 23.5299 178.994 23.3477C180.252 22.7279 181.51 22.7734 182.768 23.4844C183.15 23.5938 183.506 23.7578 183.834 23.9766C184.053 23.5573 184.317 23.1927 184.627 22.8828C185.611 21.862 186.742 21.5703 188.018 22.0078C189.312 22.4453 190.077 23.3385 190.314 24.6875C190.661 25.2708 190.807 25.8906 190.752 26.5469V26.5742C190.752 26.8112 190.725 27.0208 190.67 27.2031C190.488 27.8229 190.314 28.4427 190.15 29.0625C189.986 29.6823 189.822 30.293 189.658 30.8945C189.549 31.2773 189.439 31.6602 189.33 32.043C189.239 32.4076 189.139 32.7812 189.029 33.1641C188.956 33.401 188.883 33.6471 188.811 33.9023C188.756 34.1393 188.692 34.3763 188.619 34.6133C188.583 34.7773 188.492 35.0234 188.346 35.3516ZM196.74 25.8086C196.813 25.7539 196.913 25.7266 197.041 25.7266C197.077 25.7812 197.114 25.8359 197.15 25.8906C197.205 25.9453 197.251 25.9818 197.287 26C197.488 26.401 197.615 26.6927 197.67 26.875C197.706 26.9844 197.725 27.0573 197.725 27.0938C197.688 27.276 197.67 27.5404 197.67 27.8867C197.67 28.069 197.661 28.2057 197.643 28.2969C197.551 28.2969 197.469 28.306 197.396 28.3242C197.324 28.3242 197.26 28.3242 197.205 28.3242C197.077 28.3242 196.95 28.3333 196.822 28.3516C196.695 28.3516 196.567 28.3516 196.439 28.3516C196.439 28.2422 196.439 28.1237 196.439 27.9961C196.458 27.8503 196.467 27.7135 196.467 27.5859C196.467 27.4401 196.458 27.2943 196.439 27.1484C196.439 27.0026 196.449 26.8477 196.467 26.6836C196.467 26.556 196.476 26.4102 196.494 26.2461C196.531 26.0638 196.613 25.918 196.74 25.8086ZM195.893 22.582C195.528 22.6732 195.282 22.901 195.154 23.2656C195.1 23.3932 195.045 23.5208 194.99 23.6484C194.954 23.7578 194.917 23.8672 194.881 23.9766C194.699 24.3776 194.562 24.7695 194.471 25.1523C194.398 25.3711 194.298 25.6081 194.17 25.8633C194.079 26.0456 193.997 26.237 193.924 26.4375C193.851 26.6198 193.787 26.793 193.732 26.957C193.605 27.2852 193.532 27.4948 193.514 27.5859C193.477 27.6771 193.45 27.7591 193.432 27.832C193.413 27.9049 193.395 27.9779 193.377 28.0508C193.34 28.0872 193.304 28.1784 193.268 28.3242C193.158 28.3424 192.985 28.3516 192.748 28.3516C192.311 28.3698 191.809 28.4245 191.244 28.5156C190.679 28.6068 190.387 28.9622 190.369 29.582C190.333 30.2747 190.679 30.6849 191.408 30.8125C191.463 30.8307 191.554 30.849 191.682 30.8672C191.809 30.8854 191.946 30.9036 192.092 30.9219C192.001 31.1771 191.91 31.4323 191.818 31.6875C191.745 31.9427 191.663 32.1888 191.572 32.4258C191.463 32.7357 191.326 33.082 191.162 33.4648C191.107 33.5924 191.044 33.7383 190.971 33.9023C190.898 34.0482 190.834 34.1758 190.779 34.2852C190.67 34.4492 190.533 34.6862 190.369 34.9961C190.223 35.2878 190.132 35.5156 190.096 35.6797C190.005 36.0807 190.077 36.4362 190.314 36.7461C190.515 37.0195 190.788 37.1654 191.135 37.1836C191.481 37.2383 191.782 37.138 192.037 36.8828C192.219 36.7188 192.383 36.5273 192.529 36.3086C192.584 36.2539 192.666 36.1536 192.775 36.0078C192.903 35.8438 193.031 35.6797 193.158 35.5156C193.286 35.3333 193.404 35.1419 193.514 34.9414C193.532 34.9232 193.541 34.9049 193.541 34.8867C193.596 34.9049 193.687 34.9141 193.814 34.9141C194.361 34.9141 194.726 34.6589 194.908 34.1484C195.054 33.6745 195.173 33.3281 195.264 33.1094C195.318 32.9271 195.382 32.7448 195.455 32.5625C195.528 32.362 195.601 32.1615 195.674 31.9609H198.354C198.354 31.9792 198.363 31.9974 198.381 32.0156C198.417 32.1432 198.454 32.2708 198.49 32.3984C198.545 32.526 198.6 32.6445 198.654 32.7539C198.8 33.1914 198.955 33.5286 199.119 33.7656C199.119 33.7656 199.119 33.7747 199.119 33.793C199.137 33.8112 199.146 33.8203 199.146 33.8203C199.146 33.8932 199.156 33.9661 199.174 34.0391C199.192 34.0938 199.21 34.1484 199.229 34.2031C199.338 34.6406 199.611 34.9141 200.049 35.0234C200.14 35.0599 200.249 35.1784 200.377 35.3789C200.523 35.5794 200.623 35.7161 200.678 35.7891C200.787 36.0078 200.906 36.2266 201.033 36.4453C201.161 36.6458 201.307 36.8281 201.471 36.9922C201.762 37.4115 202.163 37.5846 202.674 37.5117C202.71 37.5117 202.747 37.5117 202.783 37.5117C202.82 37.4935 202.865 37.4753 202.92 37.457C203.12 37.457 203.33 37.4023 203.549 37.293C203.968 37.0378 204.169 36.6458 204.15 36.1172C204.114 35.9167 204.023 35.6979 203.877 35.4609C203.749 35.224 203.649 34.9961 203.576 34.7773C203.521 34.6497 203.458 34.5221 203.385 34.3945C203.33 34.2487 203.275 34.0938 203.221 33.9297C203.075 33.5651 202.911 33.2096 202.729 32.8633C202.564 32.4987 202.428 32.125 202.318 31.7422C202.227 31.4688 202.072 31.0768 201.854 30.5664C201.781 30.4023 201.671 30.1745 201.525 29.8828C201.525 29.8646 201.516 29.8464 201.498 29.8281C201.443 29.737 201.361 29.6094 201.252 29.4453C201.143 29.3359 201.051 29.263 200.979 29.2266C200.997 29.0625 200.997 28.8984 200.979 28.7344C200.942 28.625 200.906 28.5339 200.869 28.4609C200.833 28.388 200.796 28.2969 200.76 28.1875C200.705 28.0599 200.65 27.9323 200.596 27.8047C200.559 27.6589 200.523 27.513 200.486 27.3672C200.395 27.1849 200.313 26.9935 200.24 26.793C200.186 26.5924 200.122 26.3919 200.049 26.1914C199.976 26.0456 199.912 25.8997 199.857 25.7539C199.803 25.5898 199.748 25.4258 199.693 25.2617C199.602 25.0612 199.52 24.8607 199.447 24.6602C199.393 24.4414 199.311 24.2318 199.201 24.0312C199.183 24.013 199.165 23.9948 199.146 23.9766C199.128 23.9583 199.119 23.931 199.119 23.8945C199.064 23.7669 198.973 23.6302 198.846 23.4844C198.718 23.3568 198.59 23.2383 198.463 23.1289C198.153 22.8919 197.889 22.6914 197.67 22.5273C197.05 22.1081 196.458 22.1263 195.893 22.582ZM203.221 39.918C203.166 39.9362 203.12 39.9544 203.084 39.9727C203.048 39.9727 203.011 39.9727 202.975 39.9727C201.699 40.1185 200.687 39.6992 199.939 38.7148C199.757 38.4961 199.593 38.2682 199.447 38.0312C199.301 37.7943 199.156 37.5573 199.01 37.3203C198.992 37.3021 198.973 37.2839 198.955 37.2656C198.937 37.2474 198.928 37.2201 198.928 37.1836C198.089 36.8008 197.551 36.1354 197.314 35.1875C197.314 35.1328 197.296 35.0508 197.26 34.9414C197.223 34.8867 197.187 34.832 197.15 34.7773C197.114 34.7044 197.087 34.6315 197.068 34.5586C197.014 34.6862 196.968 34.8138 196.932 34.9414C196.913 35.069 196.877 35.1875 196.822 35.2969C196.476 36.3177 195.783 36.974 194.744 37.2656C194.671 37.3568 194.598 37.4479 194.525 37.5391C194.471 37.612 194.416 37.6758 194.361 37.7305C194.288 37.8398 194.225 37.9219 194.17 37.9766C193.988 38.25 193.742 38.5417 193.432 38.8516C192.702 39.4896 191.891 39.763 190.998 39.6719C190.05 39.599 189.312 39.1797 188.783 38.4141C188.163 37.5938 187.972 36.6732 188.209 35.6523C188.3 35.3424 188.437 35.0234 188.619 34.6953C188.783 34.349 188.947 34.0299 189.111 33.7383C189.166 33.6471 189.202 33.5469 189.221 33.4375C189.257 33.3281 189.303 33.2188 189.357 33.1094C189.449 32.9271 189.521 32.7539 189.576 32.5898C188.792 31.8971 188.41 31.0312 188.428 29.9922C188.464 29.1172 188.792 28.3789 189.412 27.7773C189.777 27.4492 190.16 27.2305 190.561 27.1211C190.98 26.9935 191.408 26.9023 191.846 26.8477C191.846 26.8294 191.846 26.8112 191.846 26.793C191.864 26.7747 191.882 26.7474 191.9 26.7109C191.973 26.5104 192.046 26.319 192.119 26.1367C192.192 25.9362 192.274 25.7266 192.365 25.5078C192.475 25.2708 192.538 25.1341 192.557 25.0977C192.611 24.8789 192.675 24.6602 192.748 24.4414C192.839 24.2044 192.93 23.9674 193.021 23.7305C193.076 23.6211 193.122 23.5117 193.158 23.4023C193.213 23.2747 193.268 23.1471 193.322 23.0195C193.632 22.1992 194.188 21.6159 194.99 21.2695C196.248 20.4492 197.524 20.4674 198.818 21.3242C199.019 21.4701 199.301 21.6888 199.666 21.9805C199.976 22.2174 200.222 22.4362 200.404 22.6367C200.623 22.9102 200.824 23.2201 201.006 23.5664C201.133 23.8216 201.234 24.0677 201.307 24.3047C201.38 24.5234 201.471 24.7604 201.58 25.0156C201.635 25.1797 201.689 25.3346 201.744 25.4805C201.817 25.6263 201.881 25.763 201.936 25.8906C202.045 26.1641 202.191 26.5742 202.373 27.1211C202.428 27.2852 202.473 27.4401 202.51 27.5859C202.564 27.7135 202.619 27.8411 202.674 27.9688C202.838 28.3516 202.938 28.6432 202.975 28.8438C203.102 29.026 203.212 29.1992 203.303 29.3633C203.303 29.3815 203.312 29.4089 203.33 29.4453C203.348 29.4635 203.367 29.4727 203.385 29.4727C203.531 29.8008 203.64 30.056 203.713 30.2383C203.932 30.7122 204.105 31.1497 204.232 31.5508C204.36 31.9336 204.506 32.2982 204.67 32.6445C204.834 32.9909 204.989 33.3372 205.135 33.6836C205.189 33.8659 205.29 34.1211 205.436 34.4492C205.6 34.7956 205.745 35.1055 205.873 35.3789C206.019 35.6341 206.119 35.9714 206.174 36.3906C206.32 37.776 205.791 38.8151 204.588 39.5078C204.132 39.763 203.676 39.8997 203.221 39.918ZM209.264 33.9844C209.264 33.9479 209.264 33.9115 209.264 33.875C209.264 33.8385 209.264 33.8021 209.264 33.7656C209.264 33.5469 209.255 33.3281 209.236 33.1094C209.236 32.8724 209.245 32.6354 209.264 32.3984C209.264 32.1979 209.264 31.9974 209.264 31.7969C209.264 31.5964 209.264 31.3867 209.264 31.168C209.264 30.9492 209.264 30.7305 209.264 30.5117C209.282 30.293 209.291 30.0651 209.291 29.8281C209.291 29.6094 209.282 29.3906 209.264 29.1719C209.264 28.9531 209.273 28.7344 209.291 28.5156C209.291 28.1328 209.282 27.7409 209.264 27.3398C209.264 26.9388 209.264 26.5378 209.264 26.1367C209.264 25.7174 209.081 25.3893 208.717 25.1523C208.37 24.9518 207.997 24.9336 207.596 25.0977C207.559 25.1159 207.523 25.1432 207.486 25.1797C207.45 25.1979 207.423 25.207 207.404 25.207C207.021 24.9518 206.63 24.9245 206.229 25.125C205.773 25.3802 205.563 25.7357 205.6 26.1914C205.6 26.3008 205.6 26.4102 205.6 26.5195C205.6 26.6289 205.6 26.7383 205.6 26.8477C205.6 27.0117 205.6 27.1667 205.6 27.3125C205.6 27.4583 205.6 27.6042 205.6 27.75C205.6 29.1719 205.6 30.6029 205.6 32.043C205.6 33.4831 205.6 34.9141 205.6 36.3359C205.6 37.1198 205.982 37.5117 206.748 37.5117C207.131 37.5117 207.505 37.5117 207.869 37.5117C208.234 37.5117 208.607 37.5117 208.99 37.5117C209.245 37.5299 209.501 37.5391 209.756 37.5391C210.011 37.5208 210.275 37.5117 210.549 37.5117C210.731 37.5117 210.923 37.5026 211.123 37.4844C211.324 37.4661 211.515 37.457 211.697 37.457C212.317 37.4935 212.791 37.5117 213.119 37.5117C213.174 37.5117 213.21 37.5026 213.229 37.4844C213.538 37.4661 213.794 37.3568 213.994 37.1562C214.195 37.0469 214.377 36.9557 214.541 36.8828C214.723 36.8099 214.896 36.6549 215.061 36.418C215.37 35.9805 215.416 35.5521 215.197 35.1328C214.979 34.7135 214.65 34.4219 214.213 34.2578C214.14 34.2214 214.031 34.1849 213.885 34.1484C213.812 34.112 213.721 34.0664 213.611 34.0117C213.502 33.9935 213.374 33.9844 213.229 33.9844C213.083 33.9844 212.955 33.9844 212.846 33.9844C212.408 33.9844 211.971 33.9844 211.533 33.9844C211.096 33.9844 210.667 33.9844 210.248 33.9844C210.084 33.9844 209.92 33.9844 209.756 33.9844C209.592 33.9844 209.428 33.9844 209.264 33.9844ZM214.678 32.7539C214.714 32.7721 214.751 32.7904 214.787 32.8086C214.842 32.8268 214.896 32.8359 214.951 32.8359C216.027 33.2552 216.765 33.9844 217.166 35.0234C217.567 36.0625 217.421 37.0742 216.729 38.0586C216.455 38.4414 216.209 38.7057 215.99 38.8516C215.771 38.9792 215.498 39.125 215.17 39.2891C214.641 39.6901 214.067 39.918 213.447 39.9727C213.393 39.9727 213.338 39.9727 213.283 39.9727C213.247 39.9727 213.21 39.9727 213.174 39.9727C212.463 39.9727 211.934 39.9635 211.588 39.9453C211.442 39.9453 211.278 39.9544 211.096 39.9727C210.932 39.9727 210.777 39.9727 210.631 39.9727C210.266 39.9909 209.71 40 208.963 40C208.598 40 208.234 40 207.869 40C207.505 39.9818 207.149 39.9727 206.803 39.9727C205.928 39.9727 205.189 39.6628 204.588 39.043C203.968 38.4232 203.658 37.6758 203.658 36.8008C203.658 35.3789 203.658 33.957 203.658 32.5352C203.658 31.0951 203.658 29.6549 203.658 28.2148C203.658 28.069 203.658 27.9323 203.658 27.8047C203.658 27.6589 203.658 27.5039 203.658 27.3398C203.658 27.2305 203.658 27.1211 203.658 27.0117C203.658 26.9023 203.649 26.793 203.631 26.6836C203.631 25.3893 204.205 24.4323 205.354 23.8125C205.992 23.5026 206.675 23.4115 207.404 23.5391C208.243 23.3568 209.045 23.4844 209.811 23.9219C210.813 24.5417 211.314 25.4258 211.314 26.5742C211.314 26.9935 211.314 27.4036 211.314 27.8047C211.314 28.2057 211.314 28.5977 211.314 28.9805C211.314 29.2174 211.314 29.4544 211.314 29.6914C211.333 29.9102 211.342 30.1289 211.342 30.3477C211.324 30.6393 211.314 31.0768 211.314 31.6602C211.314 31.7878 211.314 31.9245 211.314 32.0703C211.314 32.1979 211.314 32.3164 211.314 32.4258C211.57 32.4258 211.825 32.4258 212.08 32.4258C212.354 32.4258 212.627 32.4258 212.9 32.4258C213.119 32.444 213.329 32.4622 213.529 32.4805C213.748 32.4805 213.976 32.5078 214.213 32.5625C214.432 32.6354 214.587 32.6992 214.678 32.7539ZM220.666 33.9844C220.666 33.9479 220.666 33.9115 220.666 33.875C220.666 33.8385 220.666 33.8021 220.666 33.7656C220.666 33.5469 220.657 33.3281 220.639 33.1094C220.639 32.8724 220.648 32.6354 220.666 32.3984C220.666 32.1979 220.666 31.9974 220.666 31.7969C220.666 31.5964 220.666 31.3867 220.666 31.168C220.666 30.9492 220.666 30.7305 220.666 30.5117C220.684 30.293 220.693 30.0651 220.693 29.8281C220.693 29.6094 220.684 29.3906 220.666 29.1719C220.666 28.9531 220.675 28.7344 220.693 28.5156C220.693 28.1328 220.684 27.7409 220.666 27.3398C220.666 26.9388 220.666 26.5378 220.666 26.1367C220.666 25.7174 220.484 25.3893 220.119 25.1523C219.773 24.9518 219.399 24.9336 218.998 25.0977C218.962 25.1159 218.925 25.1432 218.889 25.1797C218.852 25.1979 218.825 25.207 218.807 25.207C218.424 24.9518 218.032 24.9245 217.631 25.125C217.175 25.3802 216.965 25.7357 217.002 26.1914C217.002 26.3008 217.002 26.4102 217.002 26.5195C217.002 26.6289 217.002 26.7383 217.002 26.8477C217.002 27.0117 217.002 27.1667 217.002 27.3125C217.002 27.4583 217.002 27.6042 217.002 27.75C217.002 29.1719 217.002 30.6029 217.002 32.043C217.002 33.4831 217.002 34.9141 217.002 36.3359C217.002 37.1198 217.385 37.5117 218.15 37.5117C218.533 37.5117 218.907 37.5117 219.271 37.5117C219.636 37.5117 220.01 37.5117 220.393 37.5117C220.648 37.5299 220.903 37.5391 221.158 37.5391C221.413 37.5208 221.678 37.5117 221.951 37.5117C222.133 37.5117 222.325 37.5026 222.525 37.4844C222.726 37.4661 222.917 37.457 223.1 37.457C223.719 37.4935 224.193 37.5117 224.521 37.5117C224.576 37.5117 224.613 37.5026 224.631 37.4844C224.941 37.4661 225.196 37.3568 225.396 37.1562C225.597 37.0469 225.779 36.9557 225.943 36.8828C226.126 36.8099 226.299 36.6549 226.463 36.418C226.773 35.9805 226.818 35.5521 226.6 35.1328C226.381 34.7135 226.053 34.4219 225.615 34.2578C225.542 34.2214 225.433 34.1849 225.287 34.1484C225.214 34.112 225.123 34.0664 225.014 34.0117C224.904 33.9935 224.777 33.9844 224.631 33.9844C224.485 33.9844 224.357 33.9844 224.248 33.9844C223.811 33.9844 223.373 33.9844 222.936 33.9844C222.498 33.9844 222.07 33.9844 221.65 33.9844C221.486 33.9844 221.322 33.9844 221.158 33.9844C220.994 33.9844 220.83 33.9844 220.666 33.9844ZM226.08 32.7539C226.117 32.7721 226.153 32.7904 226.189 32.8086C226.244 32.8268 226.299 32.8359 226.354 32.8359C227.429 33.2552 228.167 33.9844 228.568 35.0234C228.969 36.0625 228.824 37.0742 228.131 38.0586C227.857 38.4414 227.611 38.7057 227.393 38.8516C227.174 38.9792 226.9 39.125 226.572 39.2891C226.044 39.6901 225.469 39.918 224.85 39.9727C224.795 39.9727 224.74 39.9727 224.686 39.9727C224.649 39.9727 224.613 39.9727 224.576 39.9727C223.865 39.9727 223.337 39.9635 222.99 39.9453C222.844 39.9453 222.68 39.9544 222.498 39.9727C222.334 39.9727 222.179 39.9727 222.033 39.9727C221.669 39.9909 221.113 40 220.365 40C220.001 40 219.636 40 219.271 40C218.907 39.9818 218.551 39.9727 218.205 39.9727C217.33 39.9727 216.592 39.6628 215.99 39.043C215.37 38.4232 215.061 37.6758 215.061 36.8008C215.061 35.3789 215.061 33.957 215.061 32.5352C215.061 31.0951 215.061 29.6549 215.061 28.2148C215.061 28.069 215.061 27.9323 215.061 27.8047C215.061 27.6589 215.061 27.5039 215.061 27.3398C215.061 27.2305 215.061 27.1211 215.061 27.0117C215.061 26.9023 215.051 26.793 215.033 26.6836C215.033 25.3893 215.607 24.4323 216.756 23.8125C217.394 23.5026 218.077 23.4115 218.807 23.5391C219.645 23.3568 220.447 23.4844 221.213 23.9219C222.215 24.5417 222.717 25.4258 222.717 26.5742C222.717 26.9935 222.717 27.4036 222.717 27.8047C222.717 28.2057 222.717 28.5977 222.717 28.9805C222.717 29.2174 222.717 29.4544 222.717 29.6914C222.735 29.9102 222.744 30.1289 222.744 30.3477C222.726 30.6393 222.717 31.0768 222.717 31.6602C222.717 31.7878 222.717 31.9245 222.717 32.0703C222.717 32.1979 222.717 32.3164 222.717 32.4258C222.972 32.4258 223.227 32.4258 223.482 32.4258C223.756 32.4258 224.029 32.4258 224.303 32.4258C224.521 32.444 224.731 32.4622 224.932 32.4805C225.15 32.4805 225.378 32.5078 225.615 32.5625C225.834 32.6354 225.989 32.6992 226.08 32.7539ZM233.217 37.375C233.436 37.4297 233.663 37.457 233.9 37.457C234.137 37.457 234.338 37.457 234.502 37.457C234.593 37.457 234.684 37.457 234.775 37.457C234.885 37.457 234.985 37.457 235.076 37.457C235.441 37.4753 235.796 37.4844 236.143 37.4844C236.507 37.4661 236.872 37.457 237.236 37.457C237.473 37.457 237.719 37.457 237.975 37.457C238.23 37.457 238.494 37.457 238.768 37.457C239.114 37.4935 239.424 37.3841 239.697 37.1289C239.661 37.1836 239.734 37.1198 239.916 36.9375C240.39 36.5182 240.581 36.026 240.49 35.4609C240.417 35.1146 240.162 34.7409 239.725 34.3398C239.506 34.1758 239.369 34.0755 239.314 34.0391C239.169 33.9844 238.968 33.957 238.713 33.957C238.458 33.957 238.248 33.957 238.084 33.957C237.975 33.957 237.865 33.9661 237.756 33.9844C237.665 33.9844 237.574 33.9753 237.482 33.957C237.136 33.9388 236.617 33.9297 235.924 33.9297C235.669 33.9297 235.413 33.9297 235.158 33.9297C234.921 33.9297 234.693 33.9297 234.475 33.9297C234.329 33.9297 234.192 33.9297 234.064 33.9297C233.937 33.9297 233.809 33.9297 233.682 33.9297C233.682 33.7474 233.682 33.5651 233.682 33.3828C233.682 33.1823 233.682 32.9818 233.682 32.7812C234.393 32.7812 235.113 32.7812 235.842 32.7812C236.571 32.7812 237.3 32.7812 238.029 32.7812C238.521 32.8359 238.886 32.6628 239.123 32.2617C239.36 31.8607 239.369 31.4414 239.15 31.0039C239.096 30.8945 239.023 30.7943 238.932 30.7031C238.968 30.5573 238.968 30.3841 238.932 30.1836C238.804 29.5638 238.43 29.2539 237.811 29.2539C237.428 29.2539 237.054 29.2539 236.689 29.2539C236.343 29.2539 235.988 29.2539 235.623 29.2539C235.35 29.2539 235.085 29.2539 234.83 29.2539C234.575 29.2357 234.311 29.2266 234.037 29.2266C233.982 29.2266 233.919 29.2357 233.846 29.2539C233.791 29.2539 233.736 29.2539 233.682 29.2539C233.682 29.1263 233.682 28.9987 233.682 28.8711C233.682 28.7253 233.682 28.5885 233.682 28.4609C233.682 28.4609 233.691 28.4609 233.709 28.4609C233.727 28.4609 233.745 28.4609 233.764 28.4609C234.219 28.4427 234.675 28.4427 235.131 28.4609C235.386 28.4609 235.632 28.4609 235.869 28.4609C236.124 28.4609 236.389 28.4609 236.662 28.4609C236.954 28.4609 237.245 28.4701 237.537 28.4883C237.847 28.5065 238.157 28.5065 238.467 28.4883C239.05 28.4701 239.406 28.1693 239.533 27.5859C239.606 27.3125 239.57 27.0391 239.424 26.7656C239.679 26.401 239.706 26.0091 239.506 25.5898C239.287 25.1523 238.932 24.9336 238.439 24.9336C238.421 24.9336 238.394 24.9336 238.357 24.9336C238.339 24.9336 238.321 24.9336 238.303 24.9336C237.355 24.9336 236.416 24.9336 235.486 24.9336C234.557 24.9336 233.627 24.9336 232.697 24.9336C232.424 24.9336 232.16 24.9336 231.904 24.9336C231.667 24.9336 231.43 24.9336 231.193 24.9336C230.41 24.9336 230.008 25.3073 229.99 26.0547C229.99 26.1823 229.972 26.319 229.936 26.4648C229.917 26.5924 229.908 26.7109 229.908 26.8203C229.854 27.2396 229.881 27.7682 229.99 28.4062C229.99 28.5521 230.008 28.707 230.045 28.8711C230.081 29.0169 230.109 29.1628 230.127 29.3086C229.762 29.3633 229.398 29.4635 229.033 29.6094C228.669 29.737 228.459 30.0286 228.404 30.4844C228.331 30.9036 228.45 31.2591 228.76 31.5508C228.924 31.7513 229.124 31.888 229.361 31.9609C229.598 32.0156 229.826 32.0703 230.045 32.125C230.063 32.4167 230.072 32.6081 230.072 32.6992C230.036 33.0273 230.018 33.2734 230.018 33.4375C230.018 33.4375 230.018 33.6016 230.018 33.9297C229.999 34.2578 229.99 34.7409 229.99 35.3789C229.99 35.5247 229.99 35.6706 229.99 35.8164C230.008 35.9622 230.018 36.1081 230.018 36.2539C229.981 37.0378 230.346 37.4388 231.111 37.457C231.13 37.4753 231.166 37.4844 231.221 37.4844C231.84 37.5573 232.506 37.5208 233.217 37.375ZM228.049 33.9844C227.775 33.8203 227.557 33.6289 227.393 33.4102C226.627 32.6628 226.326 31.7422 226.49 30.6484C226.654 29.6458 227.137 28.8984 227.939 28.4062C227.903 27.8594 227.903 27.431 227.939 27.1211C227.939 27.0117 227.949 26.9023 227.967 26.793C227.985 26.6654 228.003 26.5469 228.021 26.4375C228.058 25.5807 228.386 24.8607 229.006 24.2773C229.644 23.694 230.4 23.4023 231.275 23.4023C231.494 23.4023 231.722 23.4023 231.959 23.4023C232.214 23.4023 232.469 23.4023 232.725 23.4023C233.654 23.4023 234.584 23.4023 235.514 23.4023C236.462 23.4023 237.41 23.4023 238.357 23.4023C238.357 23.4023 238.367 23.4023 238.385 23.4023C238.403 23.4023 238.43 23.4023 238.467 23.4023C239.798 23.4023 240.755 23.9948 241.338 25.1797C241.666 25.8542 241.748 26.5742 241.584 27.3398C241.62 27.7044 241.602 28.0872 241.529 28.4883C241.42 28.9805 241.192 29.4453 240.846 29.8828C240.864 29.9557 240.891 30.0833 240.928 30.2656C240.964 30.4115 240.982 30.5299 240.982 30.6211C241.438 31.5326 241.475 32.4258 241.092 33.3008C241.857 33.9753 242.331 34.7318 242.514 35.5703C242.732 36.8646 242.331 37.9766 241.311 38.9062C241.201 38.9792 241.119 39.043 241.064 39.0977C240.408 39.6992 239.633 39.9818 238.74 39.9453C238.485 39.9453 238.23 39.9453 237.975 39.9453C237.738 39.9453 237.501 39.9453 237.264 39.9453C236.881 39.9453 236.507 39.9453 236.143 39.9453C235.796 39.9453 235.441 39.9453 235.076 39.9453C235.003 39.9453 234.921 39.9453 234.83 39.9453C234.739 39.9271 234.666 39.918 234.611 39.918C234.32 39.9544 233.882 39.9453 233.299 39.8906C232.624 39.9818 231.877 40 231.057 39.9453C231.038 39.9453 231.02 39.9453 231.002 39.9453C230.145 39.8906 229.425 39.5443 228.842 38.9062C228.258 38.2682 227.994 37.5208 228.049 36.6641C228.049 36.5365 228.04 36.4089 228.021 36.2812C228.021 36.1354 228.021 35.9896 228.021 35.8438C228.021 35.1693 228.031 34.6589 228.049 34.3125C228.049 34.2578 228.049 34.2031 228.049 34.1484C228.049 34.0938 228.049 34.0391 228.049 33.9844ZM244.592 32.4805C244.537 32.5898 244.492 32.7539 244.455 32.9727C244.455 33.0273 244.455 33.0729 244.455 33.1094C244.455 33.1458 244.455 33.1823 244.455 33.2188C244.455 33.2734 244.455 33.3281 244.455 33.3828C244.473 33.4193 244.482 33.4557 244.482 33.4922C244.482 33.6562 244.482 33.8294 244.482 34.0117C244.482 34.194 244.482 34.3672 244.482 34.5312C244.446 34.7682 244.41 35.1419 244.373 35.6523C244.337 36.4727 244.674 37.0013 245.385 37.2383C245.403 37.2565 245.439 37.2656 245.494 37.2656C245.658 37.3203 245.84 37.3294 246.041 37.293C246.479 37.5846 246.907 37.612 247.326 37.375C247.764 37.138 248.037 36.7279 248.146 36.1445C248.146 36.0898 248.146 36.0352 248.146 35.9805C248.165 35.9076 248.183 35.8438 248.201 35.7891C248.201 35.6797 248.201 35.5794 248.201 35.4883C248.201 35.3789 248.201 35.2695 248.201 35.1602C248.165 34.7227 248.146 34.3854 248.146 34.1484C248.146 33 248.146 31.8516 248.146 30.7031C248.146 29.5365 248.146 28.3789 248.146 27.2305C248.238 27.2305 248.329 27.2305 248.42 27.2305C248.529 27.2305 248.639 27.2305 248.748 27.2305C248.967 27.2305 249.186 27.2305 249.404 27.2305C249.641 27.2305 249.869 27.2305 250.088 27.2305C250.635 27.2305 251.027 27.0755 251.264 26.7656C251.373 26.5833 251.437 26.4557 251.455 26.3828C251.473 26.3828 251.482 26.3737 251.482 26.3555C251.774 26.2279 252.038 26.0547 252.275 25.8359C252.531 25.599 252.667 25.2891 252.686 24.9062C252.686 24.3776 252.412 23.9766 251.865 23.7031C251.628 23.5938 251.236 23.5573 250.689 23.5938C250.07 23.6302 249.605 23.6393 249.295 23.6211C249.076 23.6211 248.867 23.6393 248.666 23.6758C248.465 23.694 248.256 23.7031 248.037 23.7031C247.855 23.7031 247.663 23.7031 247.463 23.7031C247.281 23.7031 247.098 23.7031 246.916 23.7031C246.788 23.7031 246.661 23.7031 246.533 23.7031C246.406 23.7031 246.287 23.7031 246.178 23.7031C246.068 23.7031 245.95 23.7031 245.822 23.7031C245.695 23.7031 245.576 23.7031 245.467 23.7031C244.956 23.7031 244.437 23.7031 243.908 23.7031C243.398 23.7031 242.887 23.7031 242.377 23.7031C241.939 23.6849 241.593 23.8398 241.338 24.168C241.083 24.4779 241.019 24.8333 241.146 25.2344C241.219 25.4896 241.347 25.6992 241.529 25.8633C241.493 25.9909 241.493 26.1094 241.529 26.2188C241.62 26.8568 241.976 27.1849 242.596 27.2031C242.924 27.2214 243.416 27.2305 244.072 27.2305C244.072 27.2305 244.081 27.2305 244.1 27.2305C244.136 27.2305 244.173 27.2305 244.209 27.2305C244.136 27.7773 244.2 28.4336 244.4 29.1992C244.419 29.3268 244.437 29.4544 244.455 29.582C244.473 29.7096 244.501 29.8281 244.537 29.9375C244.555 30.2109 244.601 30.4115 244.674 30.5391C244.674 30.5755 244.665 30.612 244.646 30.6484C244.646 30.6667 244.646 30.6849 244.646 30.7031C244.646 30.8307 244.646 30.9583 244.646 31.0859C244.665 31.2135 244.674 31.332 244.674 31.4414C244.637 31.5326 244.601 31.7422 244.564 32.0703C244.564 32.1432 244.564 32.2161 244.564 32.2891C244.583 32.362 244.592 32.4258 244.592 32.4805ZM242.377 29.6641C241.666 29.6094 241.055 29.3359 240.545 28.8438C240.035 28.3333 239.715 27.7227 239.588 27.0117C239.442 26.7383 239.342 26.4831 239.287 26.2461C238.995 25.207 239.178 24.2591 239.834 23.4023C240.49 22.5273 241.365 22.1172 242.459 22.1719C242.951 22.1719 243.452 22.1719 243.963 22.1719C244.473 22.1719 244.984 22.1719 245.494 22.1719C245.604 22.1719 245.722 22.1719 245.85 22.1719C245.977 22.1719 246.105 22.1719 246.232 22.1719C246.342 22.1719 246.46 22.1719 246.588 22.1719C246.734 22.1719 246.87 22.1719 246.998 22.1719C247.162 22.1719 247.335 22.1719 247.518 22.1719C247.7 22.1719 247.882 22.1719 248.064 22.1719C248.283 22.1719 248.493 22.1628 248.693 22.1445C248.912 22.1081 249.131 22.0898 249.35 22.0898C249.896 22.0898 250.307 22.0807 250.58 22.0625C250.963 22.0443 251.327 22.0534 251.674 22.0898C252.02 22.1081 252.385 22.1992 252.768 22.3633C254.062 23.0013 254.709 24.013 254.709 25.3984C254.709 26.638 254.135 27.6133 252.986 28.3242C252.968 28.3607 252.941 28.3971 252.904 28.4336C252.285 29.2721 251.373 29.7005 250.17 29.7188C250.17 30.5391 250.17 31.3594 250.17 32.1797C250.17 32.9818 250.17 33.793 250.17 34.6133C250.17 34.7773 250.179 34.9414 250.197 35.1055C250.215 35.2513 250.225 35.3971 250.225 35.543C250.243 35.8711 250.243 36.1901 250.225 36.5C250.206 36.5911 250.188 36.6732 250.17 36.7461C250.17 36.819 250.17 36.8919 250.17 36.9648C249.969 38.0586 249.413 38.8971 248.502 39.4805C247.59 40.0456 246.643 40.1458 245.658 39.7812C245.458 39.7812 245.266 39.7539 245.084 39.6992C244.902 39.6628 244.783 39.6263 244.729 39.5898C243.999 39.3346 243.416 38.8698 242.979 38.1953C242.559 37.5026 242.368 36.7734 242.404 36.0078C242.441 35.4609 242.477 35.0417 242.514 34.75C242.514 34.6589 242.514 34.5495 242.514 34.4219C242.514 34.276 242.514 34.1484 242.514 34.0391C242.514 34.0026 242.505 33.9661 242.486 33.9297C242.486 33.875 242.486 33.8203 242.486 33.7656C242.486 33.7109 242.486 33.6471 242.486 33.5742C242.486 33.5013 242.486 33.4284 242.486 33.3555C242.523 33.0273 242.559 32.7904 242.596 32.6445C242.596 32.6263 242.596 32.6081 242.596 32.5898C242.596 32.5534 242.596 32.5169 242.596 32.4805C242.632 32.1159 242.669 31.8424 242.705 31.6602C242.705 31.6055 242.696 31.5508 242.678 31.4961C242.678 31.4232 242.678 31.3594 242.678 31.3047C242.641 31.1771 242.605 30.9857 242.568 30.7305C242.532 30.4753 242.495 30.2656 242.459 30.1016C242.423 29.9193 242.395 29.7734 242.377 29.6641Z" fill="black"/>
</svg>
