<svg width="83" height="83" viewBox="0 0 83 83" fill="none" xmlns="http://www.w3.org/2000/svg">
<path d="M64.5964 69.8023L63.6705 70.7283L63.6704 70.7283C57.2428 77.1586 48.4614 81.2338 38.729 81.5509L44.7807 75.4993C52.0503 75.4603 58.8371 73.3799 64.5964 69.8023Z" fill="#ADFEFF" stroke="#8EA7FF" stroke-linejoin="round"/>
<path d="M11.3335 18.4138L12.2705 17.4768C8.69298 23.2361 6.61248 30.023 6.57358 37.2925L0.521914 43.3442C0.838814 33.6174 4.90953 24.8405 11.3334 18.4139C11.3335 18.4139 11.3335 18.4138 11.3335 18.4138Z" fill="#ADFEFF" stroke="#8EA7FF" stroke-linejoin="round"/>
<path d="M6.59126 38.6889C7.20719 58.7308 23.3422 74.8658 43.3842 75.4818L37.2954 81.5705C17.0247 81.4597 0.613316 65.0483 0.502517 44.7776L6.59126 38.6889Z" fill="#ADFEFF" stroke="#8EA7FF" stroke-linejoin="round"/>
<circle cx="44.5742" cy="37.5" r="36.5" fill="white" stroke="#8EA7FF" stroke-width="2"/>
<path d="M43.6676 45.6667C44.3343 46.5 45.6676 46.5 46.3343 45.6667L56.3343 35.1667C57.1676 34.3333 56.3343 33 55.001 33H48.3343C48.3343 33 48.6676 25.3333 48.3343 21.3333C48.1676 19.5 46.8343 18 45.001 18C43.1676 18 41.8343 19.5 41.6676 21.3333C41.3343 25.1667 41.6676 33 41.6676 33H35.001C33.6676 33 32.8343 34.3333 33.6676 35.3333L43.6676 45.6667Z" stroke="black" stroke-opacity="0.68" stroke-width="4"/>
<path d="M31 53.5557C31 53.5558 31 53.5559 31 53.5557C31 53.5556 31 53.5556 31 53.5556M31 53.5557L31 53.5556M31 53.5557C31 53.5559 31 53.5557 31 53.5556M31 53.5557L31 53.5556M33.3333 52.3335H56.6667C57.4117 52.3335 58.0465 52.5386 58.4661 52.8183C58.8665 53.0852 58.9849 53.3489 58.9986 53.5211C58.9952 53.5236 58.9914 53.5263 58.987 53.5292C58.9059 53.5833 58.7 53.6668 58.3333 53.6668H31.6667C31.3 53.6668 31.0941 53.5833 31.013 53.5292C31.0086 53.5263 31.0048 53.5236 31.0014 53.5211C31.0151 53.3489 31.1335 53.0852 31.5339 52.8183C31.9535 52.5386 32.5883 52.3335 33.3333 52.3335Z" stroke="black" stroke-opacity="0.68" stroke-width="2"/>
</svg>
