<svg width="31" height="37" viewBox="0 0 31 37" fill="none" xmlns="http://www.w3.org/2000/svg">
<path d="M14.4505 27.042L14.421 27.0051L14.3882 26.9712L4.41975 16.6705C4.35382 16.5841 4.33928 16.5187 4.33651 16.4784C4.33318 16.4299 4.34409 16.3691 4.38468 16.3004C4.46742 16.1604 4.67353 16 5.00292 16H11.6696H12.713L12.6687 14.9575L11.6696 15L12.6687 14.9575L12.6687 14.9573L12.6686 14.9563L12.6685 14.9523L12.6678 14.9359L12.6651 14.8707C12.6628 14.8131 12.6594 14.7278 12.6552 14.6178C12.6468 14.3977 12.6351 14.0785 12.6222 13.6834C12.5963 12.8929 12.5652 11.7993 12.5444 10.5871C12.5028 8.14847 12.5042 5.28083 12.6656 3.42207C12.7968 1.98792 13.7968 1 15.0029 1C16.2085 1 17.2083 1.98713 17.34 3.42035C17.5018 5.36503 17.503 8.23444 17.4614 10.6494C17.4407 11.8511 17.4096 12.9289 17.3837 13.7063C17.3707 14.0948 17.3591 14.4081 17.3507 14.6239C17.3465 14.7318 17.3431 14.8153 17.3408 14.8716L17.3381 14.9355L17.3374 14.9515L17.3372 14.9554L17.3372 14.9563L17.3372 14.9565L18.3363 15L17.3372 14.9566L17.2918 16H18.3363H25.0029C25.3358 16 25.5498 16.1647 25.6318 16.2972C25.6712 16.3608 25.6701 16.3976 25.6698 16.4015C25.6697 16.4024 25.6697 16.4032 25.6694 16.4043C25.6691 16.4058 25.6685 16.4077 25.6671 16.4106C25.6648 16.4156 25.6559 16.4328 25.6291 16.4596L25.6205 16.4682L25.6121 16.477L15.6121 26.977L15.5824 27.0083L15.5554 27.042C15.289 27.3749 14.7168 27.3749 14.4505 27.042Z" stroke="black" stroke-opacity="0.68" stroke-width="2"/>
<path d="M1.00195 35.5555C1.00195 35.5556 1.00195 35.5556 1.00195 35.5555C1.00195 35.5554 1.00195 35.5554 1.00195 35.5554M1.00195 35.5555L1.00195 35.5554M1.00195 35.5555C1.00195 35.5557 1.00195 35.5555 1.00195 35.5554M1.00195 35.5555L1.00195 35.5554M3.33529 34.3333H26.6686C27.4137 34.3333 28.0484 34.5383 28.4681 34.8181C28.8684 35.085 28.9868 35.3486 29.0005 35.5208C28.9972 35.5233 28.9933 35.5261 28.9889 35.529C28.9078 35.5831 28.702 35.6666 28.3353 35.6666H1.66862C1.30191 35.6666 1.0961 35.5831 1.01499 35.529C1.01059 35.5261 1.00673 35.5233 1.00336 35.5208C1.01708 35.3486 1.13547 35.085 1.53582 34.8181C1.95547 34.5383 2.59022 34.3333 3.33529 34.3333ZM29.0209 35.5031C29.0209 35.5031 29.0208 35.5033 29.0205 35.5037L29.0209 35.5031Z" stroke="black" stroke-opacity="0.68" stroke-width="2"/>
</svg>
