<svg width="83" height="83" viewBox="0 0 83 83" fill="none" xmlns="http://www.w3.org/2000/svg">
<path d="M64.5964 69.8023L63.6705 70.7283L63.6704 70.7283C57.2428 77.1586 48.4614 81.2338 38.729 81.5509L44.7807 75.4993C52.0503 75.4603 58.8371 73.3799 64.5964 69.8023Z" fill="#ADFEFF" stroke="#8EA7FF" stroke-linejoin="round"/>
<path d="M12.2705 17.4768C8.69298 23.2361 6.61248 30.023 6.57358 37.2925L0.521914 43.3442C0.838814 33.6174 4.90953 24.8405 11.3334 18.4139C11.3335 18.4139 11.3335 18.4138 11.3335 18.4138L12.2705 17.4768Z" fill="#ADFEFF" stroke="#8EA7FF" stroke-linejoin="round"/>
<path d="M0.502517 44.7776L6.59126 38.6889C7.20719 58.7308 23.3422 74.8658 43.3842 75.4818L37.2954 81.5705C17.0247 81.4597 0.613316 65.0483 0.502517 44.7776Z" fill="#ADFEFF" stroke="#8EA7FF" stroke-linejoin="round"/>
<circle cx="44.5742" cy="37.5" r="36.5" fill="white" stroke="#8EA7FF" stroke-width="2"/>
<path d="M54.002 41C52.1971 41 50.582 41.8014 49.4817 43.0629L41.8681 39.2562C41.9543 38.8509 42.002 38.4309 42.002 38C42.002 37.5691 41.9543 37.1491 41.8681 36.7441L49.4817 32.9371C50.5816 34.199 52.1971 35 54.002 35C57.3155 35 60.002 32.3135 60.002 29C60.002 25.6865 57.3155 23 54.002 23C50.6885 23 48.002 25.6865 48.002 29C48.002 29.4309 48.0496 29.8509 48.1358 30.2559L40.5222 34.0629C39.4223 32.801 37.8072 32 36.002 32C32.6885 32 30.002 34.6865 30.002 38C30.002 41.3135 32.6885 44 36.002 44C37.8072 44 39.422 43.1986 40.5222 41.9371L48.1362 45.7441C48.0496 46.1491 48.002 46.5691 48.002 47C48.002 50.3135 50.6885 53 54.002 53C57.3155 53 60.002 50.3135 60.002 47C60.002 43.6865 57.3155 41 54.002 41ZM54.002 26C55.6587 26 57.002 27.3432 57.002 29C57.002 30.6568 55.6587 32 54.002 32C52.3452 32 51.002 30.6568 51.002 29C51.002 27.3432 52.3452 26 54.002 26ZM36.002 41C34.3452 41 33.002 39.6567 33.002 38C33.002 36.3433 34.3452 35 36.002 35C37.6587 35 39.002 36.3433 39.002 38C39.002 39.6567 37.6587 41 36.002 41ZM54.002 50C52.3452 50 51.002 48.6567 51.002 47C51.002 45.3433 52.3452 44 54.002 44C55.6587 44 57.002 45.3433 57.002 47C57.002 48.6567 55.6587 50 54.002 50Z" fill="black" fill-opacity="0.68"/>
</svg>
