<svg width="31" height="37" viewBox="0 0 31 37" fill="none" xmlns="http://www.w3.org/2000/svg">
<path d="M24.002 18C22.1971 18 20.582 18.8014 19.4817 20.0629L11.8681 16.2562C11.9543 15.8509 12.002 15.4309 12.002 15C12.002 14.5691 11.9543 14.1491 11.8681 13.7441L19.4817 9.93713C20.5816 11.199 22.1971 12 24.002 12C27.3155 12 30.002 9.3135 30.002 6C30.002 2.6865 27.3155 0 24.002 0C20.6885 0 18.002 2.6865 18.002 6C18.002 6.43087 18.0496 6.85088 18.1358 7.25588L10.5222 11.0629C9.42233 9.801 7.8072 9 6.00195 9C2.68845 9 0.00195312 11.6865 0.00195312 15C0.00195312 18.3135 2.68845 21 6.00195 21C7.8072 21 9.42195 20.1986 10.5222 18.9371L18.1362 22.7441C18.0496 23.1491 18.002 23.5691 18.002 24C18.002 27.3135 20.6885 30 24.002 30C27.3155 30 30.002 27.3135 30.002 24C30.002 20.6865 27.3155 18 24.002 18ZM24.002 3C25.6587 3 27.002 4.34325 27.002 6C27.002 7.65675 25.6587 9 24.002 9C22.3452 9 21.002 7.65675 21.002 6C21.002 4.34325 22.3452 3 24.002 3ZM6.00195 18C4.3452 18 3.00195 16.6567 3.00195 15C3.00195 13.3433 4.3452 12 6.00195 12C7.6587 12 9.00195 13.3433 9.00195 15C9.00195 16.6567 7.6587 18 6.00195 18ZM24.002 27C22.3452 27 21.002 25.6567 21.002 24C21.002 22.3433 22.3452 21 24.002 21C25.6587 21 27.002 22.3433 27.002 24C27.002 25.6567 25.6587 27 24.002 27Z" fill="black" fill-opacity="0.68"/>
</svg>
