<svg width="278" height="76" viewBox="0 0 278 76" fill="none" xmlns="http://www.w3.org/2000/svg">
<path d="M234.5 11.6067H32.5C23.8042 11.6067 15.9297 15.1316 10.2308 20.8281C4.52878 26.5278 1 34.4061 1 43.1067C1 60.5037 15.103 74.6067 32.5 74.6067H234.5C243.201 74.6067 251.079 71.0779 256.779 65.3759C262.475 59.677 266 51.8025 266 43.1067C266 25.7097 251.897 11.6067 234.5 11.6067Z" fill="#ADFEFF" stroke="#8EA7FF" stroke-width="2"/>
<path d="M245.107 1C244.841 1 244.587 1.10536 244.399 1.29289L233.793 11.8995C233.507 12.1855 233.421 12.6156 233.576 12.9893C233.731 13.363 234.096 13.6066 234.5 13.6066C250.792 13.6066 264 26.8142 264 43.1066C264 43.5111 264.244 43.8757 264.617 44.0305C264.991 44.1853 265.421 44.0997 265.707 43.8137L276.314 33.2071C276.501 33.0196 276.607 32.7652 276.607 32.5C276.607 15.103 262.504 1 245.107 1Z" fill="#ADFEFF" stroke="#8EA7FF" stroke-width="2" stroke-linejoin="round"/>
<path d="M275.988 31.5761C276.362 31.7309 276.606 32.0955 276.606 32.5C276.606 41.1958 273.081 49.0703 267.384 54.7692L267.384 54.7693L256.778 65.3758M275.988 31.5761L256.778 65.3758M275.988 31.5761C275.615 31.4213 275.185 31.5069 274.899 31.7929L264.292 42.3995C264.104 42.587 263.999 42.8414 263.999 43.1066C263.999 51.2497 260.701 58.6207 255.365 63.9597M275.988 31.5761L255.365 63.9597M256.778 65.3758L256.777 65.3759C256.387 65.7664 255.754 65.7665 255.363 65.376C254.973 64.9856 254.973 64.3524 255.363 63.9619C255.363 63.9618 255.363 63.9618 255.363 63.9617C255.364 63.961 255.365 63.9604 255.365 63.9597M256.778 65.3758C258.652 63.5007 260.291 61.39 261.647 59.0921L266.677 54.0622C271.876 48.8613 275.205 41.792 275.572 33.948L276.313 33.2071L275.606 32.5H274.606C274.606 32.8404 274.6 33.1795 274.588 33.5172L264.999 43.1066C264.999 48.711 263.487 53.9624 260.85 58.4752L255.365 63.9597" fill="#ADFEFF" stroke="#8EA7FF" stroke-width="2" stroke-linejoin="round"/>
<path d="M265.971 53.3552L265.962 53.3641C265.962 53.3641 265.962 53.3641 265.962 53.3641C265.962 53.3641 265.962 53.3642 265.962 53.3642C265.961 53.3649 265.96 53.3655 265.96 53.3661C260.621 58.7019 253.25 62 245.107 62C244.841 62 244.587 62.1054 244.399 62.2929L233.793 72.8995C233.507 73.1855 233.421 73.6156 233.576 73.9893C233.731 74.363 234.096 74.6066 234.5 74.6066C243.201 74.6066 251.079 71.0779 256.778 65.376C256.778 65.3759 256.778 65.3759 256.779 65.3758L267.376 54.7786L267.376 54.7785L267.376 54.7784C267.376 54.7781 267.377 54.7777 267.377 54.7774L267.385 54.7693L267.385 54.7693C267.766 54.3781 267.763 53.7518 267.376 53.3643C266.989 52.9767 266.362 52.9737 265.971 53.3552L265.971 53.3552Z" fill="#ADFEFF" stroke="#8EA7FF" stroke-width="2" stroke-linejoin="round"/>
<path d="M43.1066 1C42.8414 1 42.587 1.10536 42.3995 1.29289L31.7929 11.8995C31.5069 12.1855 31.4213 12.6156 31.5761 12.9893C31.7309 13.363 32.0955 13.6066 32.5 13.6066H234.5C234.765 13.6066 235.02 13.5012 235.207 13.3137L245.814 2.70711C246.1 2.42111 246.185 1.99099 246.03 1.61732C245.876 1.24364 245.511 1 245.107 1H43.1066Z" fill="#ADFEFF" stroke="#8EA7FF" stroke-width="2" stroke-linejoin="round"/>
<path d="M245.814 63.7071C246.1 63.4211 246.185 62.991 246.03 62.6173C245.876 62.2436 245.511 62 245.107 62H43.1066C42.8414 62 42.587 62.1054 42.3995 62.2929L31.7929 72.8995C31.5069 73.1855 31.4213 73.6156 31.5761 73.9893C31.7309 74.363 32.0955 74.6066 32.5 74.6066H234.5C234.765 74.6066 235.02 74.5012 235.207 74.3137L245.814 63.7071Z" fill="#ADFEFF" stroke="#8EA7FF" stroke-width="2" stroke-linejoin="round"/>
<path d="M43.8134 2.70711C44.0994 2.42111 44.185 1.99099 44.0302 1.61732C43.8754 1.24364 43.5108 1 43.1063 1C34.4105 1 26.5361 4.52492 20.8371 10.2215L20.837 10.2216L10.2305 20.8281L10.2304 20.8282C9.8399 21.2187 9.83986 21.8518 10.2303 22.2423C10.6208 22.6329 11.2539 22.633 11.6445 22.2426C11.6445 22.2425 11.6446 22.2425 11.6446 22.2424C11.6451 22.2419 11.6456 22.2415 11.646 22.241C16.9851 16.9049 24.3563 13.6066 32.4997 13.6066C32.7649 13.6066 33.0193 13.5012 33.2068 13.3137L43.8134 2.70711Z" fill="#ADFEFF" stroke="#8EA7FF" stroke-width="2" stroke-linejoin="round"/>
<path d="M10.2308 20.8281L10.2307 20.8282C4.52872 26.5278 1 34.4061 1 43.1066C1 43.5111 1.24364 43.8757 1.61732 44.0305C1.99099 44.1853 2.42111 44.0997 2.70711 43.8137L13.3137 33.2071C13.5012 33.0196 13.6066 32.7652 13.6066 32.5C13.6066 24.3566 16.9049 16.9854 22.241 11.6463C22.2415 11.6458 22.2419 11.6454 22.2424 11.6449C22.2425 11.6448 22.2425 11.6448 22.2426 11.6447C22.2427 11.6446 22.2429 11.6444 22.2431 11.6442L22.2513 11.636L22.2512 11.636C22.633 11.2447 22.63 10.6181 22.2423 10.2306C21.8549 9.84322 21.2287 9.84019 20.8375 10.2215L20.8375 10.2214L20.8282 10.2307L10.9378 21.5353L10.2308 20.8281ZM10.2308 20.8281L20.828 10.2308L10.2308 20.8281ZM21.535 10.9375L21.5353 10.9377L21.5353 10.9378L21.535 10.9375ZM21.5354 10.9378L21.5353 10.9378L21.5354 10.9378Z" fill="#ADFEFF" stroke="#8EA7FF" stroke-width="2" stroke-linejoin="round"/>
<path d="M43.8137 63.7071C44.0997 63.4211 44.1853 62.991 44.0305 62.6173C43.8757 62.2436 43.5111 62 43.1066 62C26.8142 62 13.6066 48.7924 13.6066 32.5C13.6066 32.0955 13.363 31.7309 12.9893 31.5761C12.6156 31.4213 12.1855 31.5069 11.8995 31.7929L1.29289 42.3995C1.10536 42.587 1 42.8414 1 43.1066C1 60.5036 15.103 74.6066 32.5 74.6066C32.7652 74.6066 33.0196 74.5012 33.2071 74.3137L43.8137 63.7071Z" fill="#ADFEFF" stroke="#8EA7FF" stroke-width="2" stroke-linejoin="round"/>
<rect x="12" y="1" width="265" height="63" rx="31.5" fill="white" stroke="#8EA7FF" stroke-width="2"/>
<path d="M57.7402 27.832C57.722 27.8138 57.7038 27.7956 57.6855 27.7773C57.6855 27.7409 57.6855 27.7044 57.6855 27.668C57.6673 27.6315 57.6582 27.5677 57.6582 27.4766C57.6582 27.2943 57.7585 27.1302 57.959 26.9844C58.123 26.8568 58.3509 26.7747 58.6426 26.7383C58.9342 26.7018 59.1895 26.6836 59.4082 26.6836C59.9186 26.6836 60.3288 26.7474 60.6387 26.875C60.7845 26.9661 60.8939 27.0573 60.9668 27.1484C61.3496 27.6042 61.8327 27.7409 62.416 27.5586C62.4342 27.5586 62.4525 27.5586 62.4707 27.5586C62.5072 27.5404 62.5436 27.5221 62.5801 27.5039C63.0358 27.5951 63.4368 27.4857 63.7832 27.1758C64.3483 26.6654 64.4212 26.082 64.002 25.4258C63.6556 24.8789 63.1543 24.4141 62.498 24.0312C61.6595 23.5026 60.8392 23.2383 60.0371 23.2383C59.1986 23.2201 58.4967 23.2747 57.9316 23.4023C57.6764 23.457 57.3118 23.5573 56.8379 23.7031C56.8379 23.7031 56.7467 23.7487 56.5645 23.8398C56.4368 23.9128 56.2272 24.0039 55.9355 24.1133C55.3887 24.4414 54.9967 24.7786 54.7598 25.125C54.0853 26.1276 54.0853 27.1758 54.7598 28.2695C54.8327 28.4154 54.9238 28.5339 55.0332 28.625C55.2155 28.8438 55.3522 28.9987 55.4434 29.0898C55.4798 29.1263 55.498 29.1445 55.498 29.1445C55.2064 29.8737 55.3887 30.4297 56.0449 30.8125C56.1178 30.849 56.1725 30.8854 56.209 30.9219C56.7559 31.25 57.3483 31.487 57.9863 31.6328C58.6243 31.7786 59.2533 31.9336 59.873 32.0977C60.0553 32.1523 60.3379 32.2617 60.7207 32.4258C61.1035 32.5716 61.4225 32.7266 61.6777 32.8906C61.6777 32.9453 61.6686 33 61.6504 33.0547C61.6504 33.0911 61.6504 33.1367 61.6504 33.1914C61.6322 33.4648 61.4954 33.6745 61.2402 33.8203C60.985 33.9661 60.7389 34.0573 60.502 34.0938C59.7546 34.2396 59.0436 34.194 58.3691 33.957C58.2415 33.9206 58.0866 33.8294 57.9043 33.6836C57.7402 33.5378 57.6126 33.4102 57.5215 33.3008C57.5944 33.3372 57.5215 33.2826 57.3027 33.1367C57.3027 33.0456 57.2936 32.9635 57.2754 32.8906C57.2754 32.8177 57.2572 32.7083 57.2207 32.5625C57.0566 31.8151 56.61 31.4505 55.8809 31.4688C55.8809 31.4688 55.8079 31.4323 55.6621 31.3594C55.5163 31.3047 55.3613 31.2591 55.1973 31.2227C55.0332 31.168 54.8783 31.1133 54.7324 31.0586C54.0215 30.9128 53.5202 31.1589 53.2285 31.7969C52.8822 32.4167 52.9915 32.9544 53.5566 33.4102C53.5749 33.4466 53.6022 33.4831 53.6387 33.5195C53.6751 33.5378 53.7116 33.556 53.748 33.5742C53.748 33.5924 53.748 33.6107 53.748 33.6289C53.7663 33.6471 53.7754 33.6562 53.7754 33.6562C54.14 34.4766 54.4954 35.1419 54.8418 35.6523C55.2064 36.1445 55.8262 36.582 56.7012 36.9648C57.3027 37.2565 58.0501 37.4297 58.9434 37.4844C59.5996 37.5391 60.265 37.5208 60.9395 37.4297C61.6139 37.3203 62.2428 37.0924 62.8262 36.7461C63.1543 36.5456 63.4368 36.2995 63.6738 36.0078C63.7285 35.9531 63.7923 35.8984 63.8652 35.8438C63.9382 35.7708 64.002 35.707 64.0566 35.6523C64.6582 35.0872 65.0137 34.4674 65.123 33.793C65.2871 32.7357 65.0684 31.7331 64.4668 30.7852C64.0111 30.1471 63.3639 29.6276 62.5254 29.2266C62.0879 29.0443 61.696 28.9167 61.3496 28.8438C61.1855 28.8073 61.0124 28.7708 60.8301 28.7344C60.666 28.6797 60.502 28.625 60.3379 28.5703C60.1191 28.5339 59.791 28.4427 59.3535 28.2969C59.1348 28.2422 58.9069 28.1875 58.6699 28.1328C58.4329 28.0781 58.2233 28.0052 58.041 27.9141C57.8223 27.8594 57.722 27.832 57.7402 27.832ZM65.2324 29.0625C65.5788 29.3906 65.8887 29.7552 66.1621 30.1562C67.0553 31.5052 67.3743 32.9818 67.1191 34.5859C66.9551 35.6615 66.4173 36.6549 65.5059 37.5664C65.4512 37.6211 65.3965 37.6667 65.3418 37.7031C65.3053 37.7396 65.2598 37.776 65.2051 37.8125C64.8587 38.25 64.4121 38.6237 63.8652 38.9336C63.0996 39.3893 62.2793 39.6901 61.4043 39.8359C60.5293 39.9818 59.6634 40.0273 58.8066 39.9727C57.6764 39.8815 56.7103 39.6445 55.9082 39.2617C54.8691 38.806 54.0853 38.2682 53.5566 37.6484C53.0462 37.0286 52.5814 36.2357 52.1621 35.2695C51.6517 34.7773 51.3327 34.1758 51.2051 33.4648C51.0592 32.7357 51.1504 32.0339 51.4785 31.3594C51.8613 30.6302 52.3991 30.1107 53.0918 29.8008C51.998 27.9596 52.0163 26.1823 53.1465 24.4688C53.6387 23.7578 54.2676 23.2109 55.0332 22.8281C55.1243 22.7734 55.2155 22.7279 55.3066 22.6914C55.416 22.6549 55.5163 22.6094 55.6074 22.5547C55.735 22.4818 55.9264 22.3906 56.1816 22.2812C56.4733 22.1901 56.9108 22.0716 57.4941 21.9258C57.9134 21.8164 58.3418 21.7526 58.7793 21.7344C59.2168 21.6979 59.6543 21.6797 60.0918 21.6797C61.2402 21.7161 62.3978 22.0807 63.5645 22.7734C64.5124 23.375 65.2324 24.0495 65.7246 24.7969C66.1621 25.4896 66.3353 26.237 66.2441 27.0391C66.153 27.8411 65.8158 28.5156 65.2324 29.0625ZM70.7012 29.7461C70.5918 29.2721 70.5007 28.8711 70.4277 28.543C70.3913 28.4701 70.3639 28.388 70.3457 28.2969C70.3275 28.2057 70.3092 28.1055 70.291 27.9961C70.2363 27.8138 70.1908 27.6224 70.1543 27.4219C70.1361 27.2031 70.0996 26.9844 70.0449 26.7656C69.9902 26.5833 69.9355 26.401 69.8809 26.2188C69.8444 26.0182 69.8079 25.8177 69.7715 25.6172C69.6074 24.9974 69.2246 24.6875 68.623 24.6875C68.2949 24.6875 68.0124 24.7695 67.7754 24.9336C67.4473 24.7695 67.11 24.7695 66.7637 24.9336C66.1257 25.2253 65.9251 25.7083 66.1621 26.3828C66.2715 26.6927 66.3535 26.9661 66.4082 27.2031C66.4447 27.4219 66.4902 27.6406 66.5449 27.8594C66.5996 28.0599 66.6543 28.2695 66.709 28.4883C66.7819 28.7435 66.873 29.1263 66.9824 29.6367C67.0189 29.8008 67.0553 29.9648 67.0918 30.1289C67.1283 30.2747 67.1738 30.4297 67.2285 30.5938C67.265 30.776 67.2923 30.9583 67.3105 31.1406C67.347 31.3229 67.3926 31.4961 67.4473 31.6602C67.502 31.9883 67.5658 32.3073 67.6387 32.6172C67.7116 32.9271 67.8027 33.2279 67.9121 33.5195C67.9668 33.6836 68.0306 33.8385 68.1035 33.9844C68.1764 34.1302 68.2402 34.2669 68.2949 34.3945C68.3496 34.5586 68.4043 34.7227 68.459 34.8867C68.5319 35.0326 68.6048 35.1784 68.6777 35.3242C68.8053 35.6523 68.8965 35.8529 68.9512 35.9258C68.9512 36.1263 68.9694 36.2721 69.0059 36.3633C69.0059 36.6185 69.1061 36.8737 69.3066 37.1289C69.5436 37.4206 69.8626 37.5482 70.2637 37.5117C70.3548 37.5117 70.4915 37.4935 70.6738 37.457C71.0202 37.3477 71.3301 37.1471 71.6035 36.8555C72.1504 36.8008 72.4694 36.4818 72.5605 35.8984C72.5605 35.8438 72.5697 35.7617 72.5879 35.6523C72.6061 35.543 72.6243 35.4518 72.6426 35.3789C72.752 35.1602 72.8796 34.7591 73.0254 34.1758C73.0983 33.957 73.2077 33.6107 73.3535 33.1367C73.4082 32.8815 73.472 32.6263 73.5449 32.3711C73.6178 32.1159 73.6908 31.8516 73.7637 31.5781C73.7637 31.5781 73.7637 31.569 73.7637 31.5508C73.7819 31.5326 73.791 31.5234 73.791 31.5234C73.9368 31.888 74.0553 32.1615 74.1465 32.3438C74.1465 32.3438 74.1465 32.3529 74.1465 32.3711C74.1465 32.3893 74.1556 32.3984 74.1738 32.3984C74.1738 32.4167 74.1738 32.4349 74.1738 32.4531C74.1738 32.4714 74.1738 32.4805 74.1738 32.4805C74.1738 32.5352 74.1738 32.5898 74.1738 32.6445C74.1921 32.6992 74.2012 32.7448 74.2012 32.7812C74.2194 33.0547 74.2741 33.3099 74.3652 33.5469C74.4382 33.8385 74.4928 34.0482 74.5293 34.1758C74.6204 34.5586 74.7116 34.9323 74.8027 35.2969C74.9121 35.6615 75.0215 36.0169 75.1309 36.3633C75.2402 36.8372 75.5137 37.1107 75.9512 37.1836C76.2064 37.3659 76.4889 37.457 76.7988 37.457C77.1634 37.4388 77.4277 37.3385 77.5918 37.1562C77.7741 36.974 77.9564 36.7734 78.1387 36.5547C78.5579 36.4271 78.804 36.1172 78.877 35.625C78.877 35.5703 78.877 35.5156 78.877 35.4609C78.8952 35.388 78.9134 35.3242 78.9316 35.2695C79.0046 34.9961 79.0501 34.8138 79.0684 34.7227C79.0866 34.668 79.1048 34.5859 79.123 34.4766C79.1413 34.3672 79.1595 34.276 79.1777 34.2031C79.2507 34.0573 79.3418 33.8385 79.4512 33.5469C79.5059 33.3281 79.5605 33.1003 79.6152 32.8633C79.6882 32.6263 79.7611 32.3893 79.834 32.1523C79.9251 31.7878 80.0163 31.4232 80.1074 31.0586C80.2168 30.6758 80.3262 30.293 80.4355 29.9102C80.5996 29.3086 80.7637 28.6979 80.9277 28.0781C81.11 27.4583 81.2923 26.8385 81.4746 26.2188C81.4746 26.1823 81.4746 26.1458 81.4746 26.1094C81.4928 26.0729 81.502 26.0273 81.502 25.9727V25.9453C81.5202 25.5625 81.3835 25.2435 81.0918 24.9883C81.0918 24.9336 81.0918 24.8789 81.0918 24.8242C81.0918 24.7695 81.0918 24.7148 81.0918 24.6602C81.0007 24.0768 80.6999 23.6849 80.1895 23.4844C79.6973 23.2656 79.2324 23.375 78.7949 23.8125C78.4486 24.1589 78.2389 24.5234 78.166 24.9062C78.0566 25.2344 77.9655 25.4805 77.8926 25.6445C77.6921 26.082 77.5553 26.4648 77.4824 26.793C77.4277 27.0117 77.3639 27.3398 77.291 27.7773C77.2546 27.9232 77.2181 28.069 77.1816 28.2148C77.1634 28.3424 77.1452 28.4701 77.127 28.5977C77.0905 28.707 77.0632 28.8255 77.0449 28.9531C77.0449 29.0625 77.0358 29.1719 77.0176 29.2812C76.9993 29.3542 76.972 29.4271 76.9355 29.5C76.9173 29.5729 76.9082 29.6367 76.9082 29.6914C76.8535 29.5273 76.7988 29.3633 76.7441 29.1992C76.7077 29.0169 76.6712 28.8438 76.6348 28.6797C76.5801 28.5339 76.5254 28.3971 76.4707 28.2695C76.4342 28.1419 76.3978 28.0052 76.3613 27.8594C76.3066 27.7318 76.252 27.5951 76.1973 27.4492C76.1426 27.3034 76.1061 27.1576 76.0879 27.0117C76.015 26.5013 75.9421 26.0911 75.8691 25.7812C75.6686 25.2161 75.304 24.9336 74.7754 24.9336C74.0462 24.4049 73.3262 24.3138 72.6152 24.6602C72.2507 24.8424 72.0228 25.0977 71.9316 25.4258C71.8405 25.6445 71.7676 25.8633 71.7129 26.082C71.6764 26.2826 71.6309 26.4831 71.5762 26.6836C71.4121 27.2122 71.3118 27.6406 71.2754 27.9688C71.2025 28.3333 71.2025 28.6159 71.2754 28.8164C71.2389 28.8711 71.2025 28.9258 71.166 28.9805C71.1478 29.0169 71.1296 29.0625 71.1113 29.1172C71.0566 29.2266 71.002 29.3268 70.9473 29.418C70.8926 29.4909 70.8379 29.5729 70.7832 29.6641C70.765 29.6823 70.7467 29.7005 70.7285 29.7188C70.7103 29.737 70.7012 29.7461 70.7012 29.7461ZM81.1191 35.3516C81.1191 35.4062 81.1009 35.5065 81.0645 35.6523C81.028 35.7617 81.0007 35.862 80.9824 35.9531C80.9642 36.0443 80.946 36.1354 80.9277 36.2266C80.9095 36.263 80.9004 36.3086 80.9004 36.3633C80.7546 37.3659 80.2715 38.1224 79.4512 38.6328C79.1048 39.0156 78.7493 39.3255 78.3848 39.5625C78.0202 39.7812 77.5371 39.8997 76.9355 39.918C76.2793 39.9544 75.6868 39.8177 75.1582 39.5078C74.5749 39.3073 74.0918 38.9427 73.709 38.4141C73.3809 38.7422 73.0254 38.9792 72.6426 39.125C72.2051 39.4714 71.7585 39.7083 71.3027 39.8359C71.0293 39.9271 70.7467 39.9818 70.4551 40C69.3249 40.0182 68.4408 39.6536 67.8027 38.9062C67.347 38.3958 67.1009 37.8216 67.0645 37.1836C67.0462 37.1471 67.028 37.1107 67.0098 37.0742C67.0098 37.0378 67.0098 36.9922 67.0098 36.9375C66.9733 36.8828 66.9368 36.819 66.9004 36.7461C66.8639 36.6732 66.8366 36.5911 66.8184 36.5C66.7637 36.3542 66.6999 36.2083 66.627 36.0625C66.5723 35.9167 66.5176 35.7617 66.4629 35.5977C66.4082 35.4518 66.3444 35.306 66.2715 35.1602C66.1986 35.0143 66.1348 34.8594 66.0801 34.6953C65.9342 34.3672 65.8158 34.0299 65.7246 33.6836C65.6517 33.319 65.5788 32.9544 65.5059 32.5898C65.4512 32.4258 65.4147 32.2617 65.3965 32.0977C65.3783 31.9154 65.3509 31.7422 65.3145 31.5781C65.2598 31.4141 65.2233 31.25 65.2051 31.0859C65.1868 30.9036 65.1504 30.7305 65.0957 30.5664C65.0592 30.4023 65.0228 30.2292 64.9863 30.0469C64.9499 29.8464 64.9043 29.6549 64.8496 29.4727C64.6855 28.8893 64.5671 28.4154 64.4941 28.0508C64.4941 27.9596 64.4759 27.8776 64.4395 27.8047C64.403 27.7135 64.3665 27.6133 64.3301 27.5039C64.0749 26.7383 64.1022 25.9909 64.4121 25.2617C64.7038 24.5143 65.2051 23.9583 65.916 23.5938C66.4811 23.3203 67.0645 23.2201 67.666 23.293C68.0306 23.2018 68.3678 23.1562 68.6777 23.1562C69.498 23.1562 70.209 23.4388 70.8105 24.0039C71.0658 23.7487 71.3848 23.5299 71.7676 23.3477C73.0254 22.7279 74.2832 22.7734 75.541 23.4844C75.9238 23.5938 76.2793 23.7578 76.6074 23.9766C76.8262 23.5573 77.0905 23.1927 77.4004 22.8828C78.3848 21.862 79.515 21.5703 80.791 22.0078C82.0853 22.4453 82.8509 23.3385 83.0879 24.6875C83.4342 25.2708 83.5801 25.8906 83.5254 26.5469V26.5742C83.5254 26.8112 83.498 27.0208 83.4434 27.2031C83.2611 27.8229 83.0879 28.4427 82.9238 29.0625C82.7598 29.6823 82.5957 30.293 82.4316 30.8945C82.3223 31.2773 82.2129 31.6602 82.1035 32.043C82.0124 32.4076 81.9121 32.7812 81.8027 33.1641C81.7298 33.401 81.6569 33.6471 81.584 33.9023C81.5293 34.1393 81.4655 34.3763 81.3926 34.6133C81.3561 34.7773 81.265 35.0234 81.1191 35.3516ZM85.3027 34.3672C84.9928 34.3672 84.8379 34.3672 84.8379 34.3672C84.2181 34.4036 83.8262 34.6862 83.6621 35.2148C83.4616 35.707 83.5618 36.1445 83.9629 36.5273C84.3457 36.8919 84.8197 37.138 85.3848 37.2656C85.5306 37.3021 85.7676 37.3568 86.0957 37.4297C86.4785 37.5391 86.7884 37.5755 87.0254 37.5391C87.2624 37.4844 87.554 37.4388 87.9004 37.4023C88.2103 37.4023 88.4564 37.3477 88.6387 37.2383C88.7116 37.2018 88.8118 37.1654 88.9395 37.1289C89.0853 37.0924 89.2129 37.0469 89.3223 36.9922C89.9421 36.7188 90.252 36.2721 90.252 35.6523C90.2702 35.0326 89.9421 34.6133 89.2676 34.3945C89.1582 34.3581 89.0671 34.3398 88.9941 34.3398C88.9759 33.2826 88.9668 32.2253 88.9668 31.168C88.985 30.1107 88.9941 29.0443 88.9941 27.9688C88.9941 27.8594 88.985 27.7682 88.9668 27.6953C88.985 27.6953 89.0033 27.6953 89.0215 27.6953C89.0397 27.6771 89.0671 27.6589 89.1035 27.6406C89.4316 27.5312 89.7507 27.3763 90.0605 27.1758C90.3704 26.9753 90.5254 26.6471 90.5254 26.1914C90.5254 25.8268 90.3796 25.4987 90.0879 25.207C89.8874 25.043 89.6048 24.9336 89.2402 24.8789C88.8757 24.806 88.5566 24.7786 88.2832 24.7969C88.1374 24.8151 87.9642 24.8333 87.7637 24.8516C87.5814 24.8698 87.4264 24.8698 87.2988 24.8516C86.9707 24.7969 86.6517 24.7695 86.3418 24.7695C85.9043 24.7695 85.3574 24.8516 84.7012 25.0156C84.5371 25.0703 84.3822 25.1159 84.2363 25.1523C84.0905 25.1888 83.9355 25.2344 83.7715 25.2891C83.6257 25.362 83.5072 25.4258 83.416 25.4805C82.8691 25.8086 82.6868 26.2643 82.8691 26.8477C83.0514 27.4492 83.5436 27.7318 84.3457 27.6953C84.3639 27.6771 84.3913 27.668 84.4277 27.668C84.5371 27.6862 84.7012 27.6953 84.9199 27.6953C84.9382 27.6953 84.9655 27.6953 85.002 27.6953C85.0384 27.6953 85.0749 27.6953 85.1113 27.6953C85.0931 27.75 85.084 27.8503 85.084 27.9961C85.084 28.069 85.084 28.1419 85.084 28.2148C85.1022 28.2878 85.1113 28.3516 85.1113 28.4062C85.1296 28.7708 85.1934 29.1172 85.3027 29.4453C85.4121 29.7734 85.5033 30.1016 85.5762 30.4297C85.5033 30.5391 85.4577 30.6211 85.4395 30.6758C85.3483 30.9492 85.3027 31.2044 85.3027 31.4414C85.321 31.6602 85.3392 31.888 85.3574 32.125C85.3574 32.2891 85.3483 32.444 85.3301 32.5898C85.3118 32.7357 85.3027 32.8815 85.3027 33.0273C85.3027 33.2643 85.3027 33.4922 85.3027 33.7109C85.3027 33.9297 85.3027 34.1484 85.3027 34.3672ZM83.334 33.2188C83.3704 32.9635 83.3887 32.7812 83.3887 32.6719C83.3704 32.3073 83.3522 31.9792 83.334 31.6875C83.334 31.3958 83.3887 31.0768 83.498 30.7305C83.4616 30.6211 83.4251 30.5117 83.3887 30.4023C83.3704 30.293 83.3522 30.1836 83.334 30.0742C82.1673 29.819 81.3926 29.0898 81.0098 27.8867C80.8092 27.194 80.8366 26.5104 81.0918 25.8359C81.347 25.1615 81.7754 24.6328 82.377 24.25C82.4863 24.1953 82.5866 24.1406 82.6777 24.0859C82.7689 24.0312 82.8691 23.9766 82.9785 23.9219C83.015 23.9219 83.0423 23.9128 83.0605 23.8945C83.2428 23.8216 83.4251 23.7669 83.6074 23.7305C83.7897 23.6758 83.9902 23.6211 84.209 23.5664C84.9746 23.3477 85.6947 23.2383 86.3691 23.2383C86.752 23.2383 87.153 23.2656 87.5723 23.3203C87.7181 23.3203 87.8822 23.3021 88.0645 23.2656C88.6113 23.2109 89.2038 23.2565 89.8418 23.4023C90.4798 23.5482 91.0176 23.8125 91.4551 24.1953C92.2207 24.888 92.5944 25.7266 92.5762 26.7109C92.5397 27.8958 92.0202 28.7982 91.0176 29.418C91.0176 30.1107 91.0176 30.8034 91.0176 31.4961C91.0176 32.1706 91.0176 32.8451 91.0176 33.5195C92.002 34.2852 92.4212 35.2969 92.2754 36.5547C92.1478 37.8125 91.4551 38.724 90.1973 39.2891C90.0879 39.3438 89.9785 39.3893 89.8691 39.4258C89.7598 39.444 89.6595 39.4714 89.5684 39.5078C89.0579 39.763 88.5384 39.8906 88.0098 39.8906C87.9004 39.8906 87.791 39.9089 87.6816 39.9453C87.5723 39.9635 87.4629 39.9727 87.3535 39.9727C86.6243 39.9909 86.041 39.9453 85.6035 39.8359C85.4941 39.8177 85.3848 39.7995 85.2754 39.7812C85.166 39.763 85.0658 39.7357 84.9746 39.6992C84.0449 39.4987 83.252 39.0794 82.5957 38.4414C81.6296 37.4388 81.3743 36.2904 81.8301 34.9961C82.0488 34.2487 82.5501 33.6562 83.334 33.2188ZM95.3105 32.4805C95.2559 32.5898 95.2103 32.7539 95.1738 32.9727C95.1738 33.0273 95.1738 33.0729 95.1738 33.1094C95.1738 33.1458 95.1738 33.1823 95.1738 33.2188C95.1738 33.2734 95.1738 33.3281 95.1738 33.3828C95.1921 33.4193 95.2012 33.4557 95.2012 33.4922C95.2012 33.6562 95.2012 33.8294 95.2012 34.0117C95.2012 34.194 95.2012 34.3672 95.2012 34.5312C95.1647 34.7682 95.1283 35.1419 95.0918 35.6523C95.0553 36.4727 95.3926 37.0013 96.1035 37.2383C96.1217 37.2565 96.1582 37.2656 96.2129 37.2656C96.377 37.3203 96.5592 37.3294 96.7598 37.293C97.1973 37.5846 97.6257 37.612 98.0449 37.375C98.4824 37.138 98.7559 36.7279 98.8652 36.1445C98.8652 36.0898 98.8652 36.0352 98.8652 35.9805C98.8835 35.9076 98.9017 35.8438 98.9199 35.7891C98.9199 35.6797 98.9199 35.5794 98.9199 35.4883C98.9199 35.3789 98.9199 35.2695 98.9199 35.1602C98.8835 34.7227 98.8652 34.3854 98.8652 34.1484C98.8652 33 98.8652 31.8516 98.8652 30.7031C98.8652 29.5365 98.8652 28.3789 98.8652 27.2305C98.9564 27.2305 99.0475 27.2305 99.1387 27.2305C99.248 27.2305 99.3574 27.2305 99.4668 27.2305C99.6855 27.2305 99.9043 27.2305 100.123 27.2305C100.36 27.2305 100.588 27.2305 100.807 27.2305C101.354 27.2305 101.745 27.0755 101.982 26.7656C102.092 26.5833 102.156 26.4557 102.174 26.3828C102.192 26.3828 102.201 26.3737 102.201 26.3555C102.493 26.2279 102.757 26.0547 102.994 25.8359C103.249 25.599 103.386 25.2891 103.404 24.9062C103.404 24.3776 103.131 23.9766 102.584 23.7031C102.347 23.5938 101.955 23.5573 101.408 23.5938C100.788 23.6302 100.324 23.6393 100.014 23.6211C99.7949 23.6211 99.5853 23.6393 99.3848 23.6758C99.1842 23.694 98.9746 23.7031 98.7559 23.7031C98.5736 23.7031 98.3822 23.7031 98.1816 23.7031C97.9993 23.7031 97.8171 23.7031 97.6348 23.7031C97.5072 23.7031 97.3796 23.7031 97.252 23.7031C97.1243 23.7031 97.0059 23.7031 96.8965 23.7031C96.7871 23.7031 96.6686 23.7031 96.541 23.7031C96.4134 23.7031 96.2949 23.7031 96.1855 23.7031C95.6751 23.7031 95.1556 23.7031 94.627 23.7031C94.1165 23.7031 93.6061 23.7031 93.0957 23.7031C92.6582 23.6849 92.3118 23.8398 92.0566 24.168C91.8014 24.4779 91.7376 24.8333 91.8652 25.2344C91.9382 25.4896 92.0658 25.6992 92.248 25.8633C92.2116 25.9909 92.2116 26.1094 92.248 26.2188C92.3392 26.8568 92.6947 27.1849 93.3145 27.2031C93.6426 27.2214 94.1348 27.2305 94.791 27.2305C94.791 27.2305 94.8001 27.2305 94.8184 27.2305C94.8548 27.2305 94.8913 27.2305 94.9277 27.2305C94.8548 27.7773 94.9186 28.4336 95.1191 29.1992C95.1374 29.3268 95.1556 29.4544 95.1738 29.582C95.1921 29.7096 95.2194 29.8281 95.2559 29.9375C95.2741 30.2109 95.3197 30.4115 95.3926 30.5391C95.3926 30.5755 95.3835 30.612 95.3652 30.6484C95.3652 30.6667 95.3652 30.6849 95.3652 30.7031C95.3652 30.8307 95.3652 30.9583 95.3652 31.0859C95.3835 31.2135 95.3926 31.332 95.3926 31.4414C95.3561 31.5326 95.3197 31.7422 95.2832 32.0703C95.2832 32.1432 95.2832 32.2161 95.2832 32.2891C95.3014 32.362 95.3105 32.4258 95.3105 32.4805ZM93.0957 29.6641C92.3848 29.6094 91.7741 29.3359 91.2637 28.8438C90.7533 28.3333 90.4342 27.7227 90.3066 27.0117C90.1608 26.7383 90.0605 26.4831 90.0059 26.2461C89.7142 25.207 89.8965 24.2591 90.5527 23.4023C91.209 22.5273 92.084 22.1172 93.1777 22.1719C93.6699 22.1719 94.1712 22.1719 94.6816 22.1719C95.1921 22.1719 95.7025 22.1719 96.2129 22.1719C96.3223 22.1719 96.4408 22.1719 96.5684 22.1719C96.696 22.1719 96.8236 22.1719 96.9512 22.1719C97.0605 22.1719 97.179 22.1719 97.3066 22.1719C97.4525 22.1719 97.5892 22.1719 97.7168 22.1719C97.8809 22.1719 98.054 22.1719 98.2363 22.1719C98.4186 22.1719 98.6009 22.1719 98.7832 22.1719C99.002 22.1719 99.2116 22.1628 99.4121 22.1445C99.6309 22.1081 99.8496 22.0898 100.068 22.0898C100.615 22.0898 101.025 22.0807 101.299 22.0625C101.682 22.0443 102.046 22.0534 102.393 22.0898C102.739 22.1081 103.104 22.1992 103.486 22.3633C104.781 23.0013 105.428 24.013 105.428 25.3984C105.428 26.638 104.854 27.6133 103.705 28.3242C103.687 28.3607 103.66 28.3971 103.623 28.4336C103.003 29.2721 102.092 29.7005 100.889 29.7188C100.889 30.5391 100.889 31.3594 100.889 32.1797C100.889 32.9818 100.889 33.793 100.889 34.6133C100.889 34.7773 100.898 34.9414 100.916 35.1055C100.934 35.2513 100.943 35.3971 100.943 35.543C100.962 35.8711 100.962 36.1901 100.943 36.5C100.925 36.5911 100.907 36.6732 100.889 36.7461C100.889 36.819 100.889 36.8919 100.889 36.9648C100.688 38.0586 100.132 38.8971 99.2207 39.4805C98.3092 40.0456 97.3613 40.1458 96.377 39.7812C96.1764 39.7812 95.985 39.7539 95.8027 39.6992C95.6204 39.6628 95.502 39.6263 95.4473 39.5898C94.7181 39.3346 94.1348 38.8698 93.6973 38.1953C93.278 37.5026 93.0866 36.7734 93.123 36.0078C93.1595 35.4609 93.196 35.0417 93.2324 34.75C93.2324 34.6589 93.2324 34.5495 93.2324 34.4219C93.2324 34.276 93.2324 34.1484 93.2324 34.0391C93.2324 34.0026 93.2233 33.9661 93.2051 33.9297C93.2051 33.875 93.2051 33.8203 93.2051 33.7656C93.2051 33.7109 93.2051 33.6471 93.2051 33.5742C93.2051 33.5013 93.2051 33.4284 93.2051 33.3555C93.2415 33.0273 93.278 32.7904 93.3145 32.6445C93.3145 32.6263 93.3145 32.6081 93.3145 32.5898C93.3145 32.5534 93.3145 32.5169 93.3145 32.4805C93.3509 32.1159 93.3874 31.8424 93.4238 31.6602C93.4238 31.6055 93.4147 31.5508 93.3965 31.4961C93.3965 31.4232 93.3965 31.3594 93.3965 31.3047C93.36 31.1771 93.3236 30.9857 93.2871 30.7305C93.2507 30.4753 93.2142 30.2656 93.1777 30.1016C93.1413 29.9193 93.1139 29.7734 93.0957 29.6641ZM115.217 29.8555C115.527 29.9466 115.827 29.8919 116.119 29.6914C116.52 29.4362 116.693 29.0807 116.639 28.625C116.602 28.2786 116.465 27.9323 116.229 27.5859C116.174 27.513 116.119 27.4401 116.064 27.3672C116.01 27.2943 115.955 27.2122 115.9 27.1211C115.39 26.2461 114.688 25.599 113.795 25.1797C112.975 24.7786 112.027 24.6055 110.951 24.6602C110.568 24.6602 110.204 24.7148 109.857 24.8242C109.292 24.9883 108.846 25.1797 108.518 25.3984C108.426 25.4531 108.344 25.5078 108.271 25.5625C108.217 25.6172 108.153 25.6628 108.08 25.6992C107.952 25.8086 107.807 25.9089 107.643 26C107.041 26.3828 106.604 26.8385 106.33 27.3672C106.166 27.6953 106.111 27.987 106.166 28.2422C106.148 28.3151 106.157 28.4154 106.193 28.543C106.157 28.5977 106.12 28.7161 106.084 28.8984C105.902 29.3906 105.774 29.8464 105.701 30.2656C105.61 30.6484 105.537 30.9948 105.482 31.3047C105.428 31.5964 105.428 31.9336 105.482 32.3164C105.519 32.7539 105.637 33.2461 105.838 33.793C105.656 33.9753 105.564 34.0664 105.564 34.0664C105.145 34.5951 105.191 35.1419 105.701 35.707C105.738 35.7617 105.811 35.8438 105.92 35.9531C106.467 36.5 107.196 36.8737 108.107 37.0742C108.271 37.1289 108.436 37.1836 108.6 37.2383C108.782 37.2747 108.973 37.3021 109.174 37.3203C109.356 37.3568 109.538 37.3932 109.721 37.4297C109.921 37.4661 110.122 37.4844 110.322 37.4844C111.124 37.5573 111.89 37.5299 112.619 37.4023C113.367 37.2747 114.077 36.9375 114.752 36.3906C115.481 35.8073 116.037 35.0234 116.42 34.0391C116.529 33.7656 116.63 33.5104 116.721 33.2734C116.83 32.9089 116.803 32.5443 116.639 32.1797C116.311 31.5599 115.837 31.2773 115.217 31.332C114.889 31.332 114.551 31.4596 114.205 31.7148C113.713 31.6419 113.321 31.7969 113.029 32.1797C113.011 32.2161 112.993 32.2526 112.975 32.2891C112.956 32.3073 112.947 32.3255 112.947 32.3438C112.929 32.362 112.911 32.3802 112.893 32.3984C112.893 32.4167 112.893 32.4258 112.893 32.4258C112.893 32.4622 112.883 32.4896 112.865 32.5078C112.738 32.8177 112.564 33.1367 112.346 33.4648C112.127 33.7383 111.854 33.957 111.525 34.1211C111.525 34.1211 111.516 34.1302 111.498 34.1484C111.389 34.0938 111.197 34.0664 110.924 34.0664C110.924 34.0664 110.915 34.0664 110.896 34.0664C110.878 34.0482 110.869 34.0391 110.869 34.0391C110.742 33.9844 110.614 33.9388 110.486 33.9023C110.359 33.8477 110.24 33.7656 110.131 33.6562C110.003 33.5651 109.857 33.3919 109.693 33.1367C109.529 32.8815 109.429 32.6719 109.393 32.5078C109.229 32.1068 109.137 31.6784 109.119 31.2227C109.083 30.5664 109.165 29.9648 109.365 29.418C109.475 29.0169 109.693 28.707 110.021 28.4883C110.368 28.2878 110.705 28.1966 111.033 28.2148C111.58 28.3242 112.136 28.4883 112.701 28.707C112.738 28.8346 112.792 29.0078 112.865 29.2266C112.865 29.2812 112.874 29.3268 112.893 29.3633C112.911 29.3997 112.929 29.4362 112.947 29.4727C113.093 29.9102 113.367 30.1654 113.768 30.2383C114.169 30.3112 114.542 30.2201 114.889 29.9648C114.925 29.9284 114.952 29.9102 114.971 29.9102C115.007 29.8919 115.053 29.8828 115.107 29.8828C115.107 29.8828 115.117 29.8828 115.135 29.8828C115.153 29.8646 115.18 29.8555 115.217 29.8555ZM118.033 31.1133C118.179 31.2956 118.316 31.5052 118.443 31.7422C118.863 32.599 118.936 33.4648 118.662 34.3398C118.607 34.5039 118.553 34.6589 118.498 34.8047C118.443 34.9505 118.389 35.0964 118.334 35.2422C117.787 36.5729 117.012 37.6393 116.01 38.4414C115.135 39.1341 114.205 39.5807 113.221 39.7812C112.255 39.9635 111.234 40.0182 110.158 39.9453C109.939 39.9453 109.721 39.9271 109.502 39.8906C109.301 39.8542 109.092 39.8177 108.873 39.7812C108.654 39.7448 108.445 39.7083 108.244 39.6719C108.062 39.6172 107.88 39.5625 107.697 39.5078C106.439 39.2161 105.4 38.6693 104.58 37.8672C104.489 37.8125 104.361 37.6758 104.197 37.457C103.231 36.3086 103.067 35.1055 103.705 33.8477C103.632 33.6107 103.577 33.3464 103.541 33.0547C103.486 32.5443 103.495 32.0885 103.568 31.6875C103.623 31.2682 103.696 30.8125 103.787 30.3203C103.842 30.0651 103.915 29.819 104.006 29.582C104.079 29.3268 104.143 29.0625 104.197 28.7891C104.179 28.2057 104.307 27.5859 104.58 26.9297C105.036 26.0182 105.719 25.2982 106.631 24.7695C106.686 24.7331 106.74 24.6966 106.795 24.6602C106.868 24.6237 106.932 24.5781 106.986 24.5234C107.059 24.4688 107.132 24.4141 107.205 24.3594C107.278 24.2865 107.369 24.2227 107.479 24.168C108.025 23.8216 108.645 23.5482 109.338 23.3477C109.885 23.2018 110.404 23.1289 110.896 23.1289C112.337 23.0742 113.604 23.3112 114.697 23.8398C115.955 24.4596 116.949 25.362 117.678 26.5469C117.714 26.6198 117.787 26.7292 117.896 26.875C118.352 27.5495 118.607 28.224 118.662 28.8984C118.735 29.737 118.525 30.4753 118.033 31.1133ZM111.197 31.9062C111.197 31.888 111.197 31.8789 111.197 31.8789C111.234 31.8242 111.27 31.7604 111.307 31.6875C111.343 31.6146 111.389 31.5417 111.443 31.4688C111.443 31.4688 111.462 31.4505 111.498 31.4141C111.352 31.1953 111.252 31.0221 111.197 30.8945C111.161 31.0404 111.143 31.2682 111.143 31.5781C111.143 31.6875 111.161 31.7969 111.197 31.9062ZM125.58 23.7578C125.179 23.9766 124.979 24.3503 124.979 24.8789C124.979 25.3711 124.979 25.8724 124.979 26.3828C124.979 26.875 124.979 27.3672 124.979 27.8594H122.053V24.8242C122.053 24.0404 121.661 23.6484 120.877 23.6484C120.84 23.6484 120.804 23.6484 120.768 23.6484C120.731 23.6484 120.704 23.6484 120.686 23.6484C120.339 23.6849 120.038 23.8125 119.783 24.0312C119.583 23.9948 119.428 23.9857 119.318 24.0039C118.662 24.1133 118.334 24.4961 118.334 25.1523C118.334 25.2799 118.334 25.4076 118.334 25.5352C118.334 25.6445 118.334 25.7539 118.334 25.8633C118.334 26.1732 118.307 26.4831 118.252 26.793C118.215 27.0846 118.197 27.3854 118.197 27.6953C118.197 28.3333 118.206 28.8164 118.225 29.1445C118.225 29.181 118.225 29.2083 118.225 29.2266C118.243 29.2448 118.252 29.263 118.252 29.2812C118.252 29.5365 118.261 29.737 118.279 29.8828C118.316 30.1927 118.434 30.4388 118.635 30.6211C118.598 30.7122 118.562 30.849 118.525 31.0312C118.489 31.2135 118.489 31.3776 118.525 31.5234C118.562 31.6693 118.598 31.8242 118.635 31.9883C118.635 32.0977 118.644 32.1979 118.662 32.2891C118.68 32.3802 118.699 32.4714 118.717 32.5625C118.607 32.7448 118.544 32.9544 118.525 33.1914C118.489 33.2643 118.471 33.3372 118.471 33.4102C118.398 33.6836 118.361 33.957 118.361 34.2305C118.361 34.4857 118.361 34.75 118.361 35.0234C118.361 35.3698 118.48 35.6432 118.717 35.8438C118.844 35.9896 118.981 36.0807 119.127 36.1172C119.218 36.4453 119.355 36.7643 119.537 37.0742C119.738 37.3659 120.057 37.5117 120.494 37.5117C120.877 37.5482 121.214 37.3932 121.506 37.0469C121.67 36.8464 121.77 36.6367 121.807 36.418C121.843 36.181 121.898 35.944 121.971 35.707C122.025 35.4336 122.053 35.224 122.053 35.0781C122.035 34.9141 122.025 34.75 122.025 34.5859C122.044 34.4036 122.053 34.2214 122.053 34.0391C122.053 33.9479 122.053 33.8568 122.053 33.7656C122.053 33.6562 122.053 33.5469 122.053 33.4375C122.053 33.1276 122.053 32.8177 122.053 32.5078C122.053 32.1797 122.053 31.8516 122.053 31.5234C122.381 31.4141 122.636 31.3411 122.818 31.3047C123.074 31.2682 123.265 31.2318 123.393 31.1953C123.465 31.2318 123.529 31.2591 123.584 31.2773C123.602 31.2773 123.611 31.2773 123.611 31.2773C123.721 31.332 123.903 31.3685 124.158 31.3867C124.432 31.3867 124.705 31.3867 124.979 31.3867C124.979 31.9883 124.979 32.599 124.979 33.2188C124.979 33.8203 124.979 34.4219 124.979 35.0234C124.979 35.4609 125.179 35.7982 125.58 36.0352C125.653 36.181 125.689 36.2539 125.689 36.2539C126.072 36.8008 126.519 37.0378 127.029 36.9648C127.54 36.8919 127.959 36.5911 128.287 36.0625C128.324 36.026 128.36 35.9714 128.396 35.8984C128.469 35.7891 128.542 35.6615 128.615 35.5156C128.67 35.3698 128.688 35.1328 128.67 34.8047C128.67 34.4766 128.67 34.2214 128.67 34.0391C128.67 33.8568 128.661 33.6745 128.643 33.4922C128.643 33.2917 128.643 33.1003 128.643 32.918C128.661 32.6445 128.67 32.2344 128.67 31.6875C128.67 31.6146 128.661 31.5143 128.643 31.3867C128.643 31.2591 128.661 31.1589 128.697 31.0859C128.752 30.8307 128.816 30.612 128.889 30.4297C128.98 30.2474 129.044 30.0013 129.08 29.6914C129.098 28.8164 128.907 28.0052 128.506 27.2578C128.469 27.1849 128.451 27.1393 128.451 27.1211C128.542 26.9206 128.606 26.7201 128.643 26.5195C128.661 26.4648 128.67 26.3646 128.67 26.2188C128.67 26 128.67 25.7721 128.67 25.5352C128.67 25.2982 128.67 25.0612 128.67 24.8242C128.67 24.3503 128.46 23.9948 128.041 23.7578C127.986 23.7214 127.932 23.6849 127.877 23.6484C127.822 23.5938 127.768 23.5391 127.713 23.4844C126.984 23.0104 126.273 23.1016 125.58 23.7578ZM123.748 37.5117C123.602 38.0039 123.393 38.4232 123.119 38.7695C122.463 39.5898 121.57 40 120.439 40C119.072 39.9635 118.097 39.2617 117.514 37.8945C117.477 37.8763 117.441 37.8581 117.404 37.8398C117.368 37.8034 117.34 37.7669 117.322 37.7305C116.721 37.1107 116.42 36.3633 116.42 35.4883C116.42 35.1419 116.429 34.8047 116.447 34.4766C116.465 34.1484 116.502 33.8112 116.557 33.4648C116.575 33.4284 116.593 33.3919 116.611 33.3555C116.611 33.319 116.611 33.2734 116.611 33.2188C116.648 33.0365 116.684 32.8997 116.721 32.8086C116.702 32.7904 116.693 32.7721 116.693 32.7539C116.657 32.5169 116.63 32.3073 116.611 32.125C116.575 31.9245 116.566 31.6966 116.584 31.4414C116.475 31.1862 116.402 30.9219 116.365 30.6484C116.329 30.4661 116.311 30.2109 116.311 29.8828C116.311 29.8828 116.311 29.8737 116.311 29.8555C116.292 29.819 116.283 29.7917 116.283 29.7734C116.283 29.5 116.274 29.2357 116.256 28.9805C116.238 28.707 116.229 28.4336 116.229 28.1602C116.229 27.8503 116.256 27.5495 116.311 27.2578C116.365 26.9479 116.393 26.6471 116.393 26.3555C116.393 26.2461 116.393 26.1276 116.393 26C116.374 25.8724 116.365 25.7448 116.365 25.6172C116.383 24.8516 116.648 24.168 117.158 23.5664C117.65 22.9648 118.279 22.6094 119.045 22.5C119.081 22.5 119.118 22.5 119.154 22.5C119.191 22.4818 119.227 22.4727 119.264 22.4727C119.646 22.3086 120.084 22.1901 120.576 22.1172C120.631 22.1172 120.686 22.1172 120.74 22.1172C120.813 22.1172 120.877 22.1172 120.932 22.1172C122.062 22.1172 122.928 22.582 123.529 23.5117C123.748 23.1654 124.04 22.8737 124.404 22.6367C125.042 22.0716 125.762 21.7526 126.564 21.6797C127.367 21.5885 128.141 21.7982 128.889 22.3086C129.071 22.4544 129.189 22.5547 129.244 22.6094C130.229 23.2474 130.721 24.1589 130.721 25.3438C130.702 25.5807 130.693 25.8268 130.693 26.082C130.712 26.319 130.721 26.5469 130.721 26.7656C130.702 26.875 130.684 26.9753 130.666 27.0664C130.666 27.1393 130.666 27.2122 130.666 27.2852C130.666 27.3216 130.657 27.3581 130.639 27.3945C130.639 27.4128 130.639 27.431 130.639 27.4492C131.003 28.3242 131.158 29.263 131.104 30.2656C131.085 30.6484 131.031 30.9583 130.939 31.1953C130.867 31.4141 130.785 31.6602 130.693 31.9336C130.712 31.9701 130.721 32.043 130.721 32.1523C130.721 32.3711 130.712 32.5898 130.693 32.8086C130.693 33.0273 130.693 33.237 130.693 33.4375C130.675 33.6198 130.675 33.8021 130.693 33.9844C130.712 34.1667 130.721 34.3398 130.721 34.5039C130.721 34.8685 130.721 35.2331 130.721 35.5977C130.721 35.944 130.666 36.2812 130.557 36.6094C130.557 36.6276 130.548 36.6458 130.529 36.6641C130.42 36.9557 130.292 37.2109 130.146 37.4297C130.11 37.4661 130.074 37.5208 130.037 37.5938C129.326 38.7422 128.351 39.3529 127.111 39.4258C125.89 39.4987 124.887 38.9792 124.104 37.8672C123.958 37.776 123.839 37.6576 123.748 37.5117ZM145.514 31.9609C146.042 32.7812 146.571 33.5924 147.1 34.3945C147.646 35.1784 148.193 35.9714 148.74 36.7734C148.959 37.1198 149.278 37.293 149.697 37.293C149.788 37.293 149.88 37.293 149.971 37.293C150.062 37.293 150.162 37.293 150.271 37.293C150.436 37.5664 150.645 37.7852 150.9 37.9492C151.447 38.2773 151.939 38.2773 152.377 37.9492C152.833 37.6029 153.006 37.1289 152.896 36.5273C152.896 36.4727 152.878 36.3906 152.842 36.2812C152.769 35.9896 152.705 35.6888 152.65 35.3789C152.614 35.0508 152.577 34.7227 152.541 34.3945C152.486 34.0664 152.441 33.7383 152.404 33.4102C152.386 33.0638 152.359 32.7266 152.322 32.3984C152.322 32.2708 152.313 32.125 152.295 31.9609C152.277 31.7786 152.277 31.6146 152.295 31.4688C152.313 31.0859 152.322 30.7031 152.322 30.3203C152.34 29.9193 152.35 29.5273 152.35 29.1445C152.313 28.6706 152.295 28.3242 152.295 28.1055C152.277 28.0143 152.258 27.9323 152.24 27.8594C152.24 27.7682 152.24 27.6771 152.24 27.5859C152.204 27.2578 152.149 26.7839 152.076 26.1641C152.04 26 152.012 25.8451 151.994 25.6992C151.976 25.5352 151.958 25.3711 151.939 25.207C151.921 25.1706 151.903 25.1432 151.885 25.125C151.885 25.0885 151.885 25.043 151.885 24.9883C152.031 24.6419 151.976 24.2773 151.721 23.8945C151.393 23.457 150.964 23.2565 150.436 23.293C149.907 23.3294 149.551 23.6211 149.369 24.168C149.314 24.3503 149.287 24.5781 149.287 24.8516C148.85 25.0703 148.631 25.4258 148.631 25.918C148.631 26.5742 148.631 27.2305 148.631 27.8867C148.631 28.543 148.631 29.1992 148.631 29.8555C148.594 29.8372 148.567 29.819 148.549 29.8008C148.531 29.7643 148.512 29.7279 148.494 29.6914C148.312 29.3815 148.102 29.0625 147.865 28.7344C147.646 28.4609 147.446 28.1784 147.264 27.8867C147.081 27.5951 146.899 27.3034 146.717 27.0117C146.644 26.9023 146.571 26.793 146.498 26.6836C146.425 26.5742 146.361 26.4648 146.307 26.3555C146.051 25.9909 145.796 25.6536 145.541 25.3438C145.249 24.9792 144.867 24.8516 144.393 24.9609C144.32 24.9245 144.256 24.8971 144.201 24.8789C144.001 24.7878 143.809 24.7513 143.627 24.7695C143.609 24.7695 143.59 24.7695 143.572 24.7695C143.554 24.7513 143.545 24.7422 143.545 24.7422C142.779 24.5417 142.223 24.6419 141.877 25.043C141.676 25.2799 141.576 25.526 141.576 25.7812C141.558 25.9818 141.622 26.2552 141.768 26.6016C141.822 26.7839 141.84 26.9935 141.822 27.2305C141.822 27.4674 141.831 27.6771 141.85 27.8594C141.868 28.0417 141.877 28.306 141.877 28.6523C141.877 29.8737 141.877 31.1042 141.877 32.3438C141.877 33.5651 141.877 34.7773 141.877 35.9805C141.84 36.5273 142.041 36.9193 142.479 37.1562C142.916 37.375 143.354 37.3294 143.791 37.0195C144.028 37.2018 144.32 37.2383 144.666 37.1289C145.195 36.9648 145.477 36.6003 145.514 36.0352C145.514 35.9987 145.514 35.9622 145.514 35.9258C145.514 35.8711 145.514 35.8164 145.514 35.7617C145.514 35.1419 145.514 34.513 145.514 33.875C145.514 33.237 145.514 32.599 145.514 31.9609ZM147.4 24.332C147.437 24.1862 147.473 24.0768 147.51 24.0039C147.929 22.6914 148.804 21.9531 150.135 21.7891C151.465 21.6068 152.541 22.0625 153.361 23.1562C153.872 23.8854 154.072 24.6602 153.963 25.4805C153.981 25.6263 153.999 25.7721 154.018 25.918C154.036 26.0638 154.063 26.2096 154.1 26.3555C154.118 26.6107 154.145 26.8659 154.182 27.1211C154.218 27.3763 154.245 27.6224 154.264 27.8594C154.3 28.151 154.318 28.3698 154.318 28.5156C154.355 28.9896 154.373 29.3451 154.373 29.582C154.391 30.3477 154.373 31.1771 154.318 32.0703C154.318 32.2526 154.337 32.4531 154.373 32.6719C154.391 33 154.41 33.3281 154.428 33.6562C154.464 33.9844 154.51 34.3034 154.564 34.6133C154.619 35.2331 154.71 35.7891 154.838 36.2812C154.856 36.3724 154.883 36.4909 154.92 36.6367C155.157 38.0951 154.692 39.2253 153.525 40.0273C152.377 40.8294 151.174 40.8568 149.916 40.1094C149.661 39.9635 149.479 39.8451 149.369 39.7539C148.385 39.6445 147.628 39.1797 147.1 38.3594C147.081 38.3229 147.054 38.2865 147.018 38.25C146.598 38.8698 146.024 39.2891 145.295 39.5078C144.876 39.6536 144.438 39.6901 143.982 39.6172C142.962 39.8906 142.023 39.7174 141.166 39.0977C140.309 38.4596 139.899 37.5664 139.936 36.418C139.936 35.2148 139.936 34.0026 139.936 32.7812C139.936 31.5599 139.936 30.3385 139.936 29.1172C139.936 28.8438 139.926 28.6341 139.908 28.4883C139.908 28.3607 139.908 28.224 139.908 28.0781C139.908 27.9323 139.899 27.7956 139.881 27.668C139.808 27.4128 139.744 27.1758 139.689 26.957C139.635 26.7201 139.617 26.4466 139.635 26.1367C139.671 25.4076 139.936 24.7604 140.428 24.1953C141.285 23.1927 142.46 22.8737 143.955 23.2383C144.283 23.2747 144.548 23.3294 144.748 23.4023C145.696 23.4023 146.489 23.7852 147.127 24.5508C147.163 24.5872 147.182 24.6055 147.182 24.6055C147.255 24.5326 147.327 24.4414 147.4 24.332ZM159.268 37.375C159.486 37.4297 159.714 37.457 159.951 37.457C160.188 37.457 160.389 37.457 160.553 37.457C160.644 37.457 160.735 37.457 160.826 37.457C160.936 37.457 161.036 37.457 161.127 37.457C161.492 37.4753 161.847 37.4844 162.193 37.4844C162.558 37.4661 162.923 37.457 163.287 37.457C163.524 37.457 163.77 37.457 164.025 37.457C164.281 37.457 164.545 37.457 164.818 37.457C165.165 37.4935 165.475 37.3841 165.748 37.1289C165.712 37.1836 165.785 37.1198 165.967 36.9375C166.441 36.5182 166.632 36.026 166.541 35.4609C166.468 35.1146 166.213 34.7409 165.775 34.3398C165.557 34.1758 165.42 34.0755 165.365 34.0391C165.219 33.9844 165.019 33.957 164.764 33.957C164.508 33.957 164.299 33.957 164.135 33.957C164.025 33.957 163.916 33.9661 163.807 33.9844C163.715 33.9844 163.624 33.9753 163.533 33.957C163.187 33.9388 162.667 33.9297 161.975 33.9297C161.719 33.9297 161.464 33.9297 161.209 33.9297C160.972 33.9297 160.744 33.9297 160.525 33.9297C160.38 33.9297 160.243 33.9297 160.115 33.9297C159.988 33.9297 159.86 33.9297 159.732 33.9297C159.732 33.7474 159.732 33.5651 159.732 33.3828C159.732 33.1823 159.732 32.9818 159.732 32.7812C160.443 32.7812 161.163 32.7812 161.893 32.7812C162.622 32.7812 163.351 32.7812 164.08 32.7812C164.572 32.8359 164.937 32.6628 165.174 32.2617C165.411 31.8607 165.42 31.4414 165.201 31.0039C165.146 30.8945 165.074 30.7943 164.982 30.7031C165.019 30.5573 165.019 30.3841 164.982 30.1836C164.855 29.5638 164.481 29.2539 163.861 29.2539C163.479 29.2539 163.105 29.2539 162.74 29.2539C162.394 29.2539 162.038 29.2539 161.674 29.2539C161.4 29.2539 161.136 29.2539 160.881 29.2539C160.626 29.2357 160.361 29.2266 160.088 29.2266C160.033 29.2266 159.969 29.2357 159.896 29.2539C159.842 29.2539 159.787 29.2539 159.732 29.2539C159.732 29.1263 159.732 28.9987 159.732 28.8711C159.732 28.7253 159.732 28.5885 159.732 28.4609C159.732 28.4609 159.742 28.4609 159.76 28.4609C159.778 28.4609 159.796 28.4609 159.814 28.4609C160.27 28.4427 160.726 28.4427 161.182 28.4609C161.437 28.4609 161.683 28.4609 161.92 28.4609C162.175 28.4609 162.439 28.4609 162.713 28.4609C163.005 28.4609 163.296 28.4701 163.588 28.4883C163.898 28.5065 164.208 28.5065 164.518 28.4883C165.101 28.4701 165.456 28.1693 165.584 27.5859C165.657 27.3125 165.62 27.0391 165.475 26.7656C165.73 26.401 165.757 26.0091 165.557 25.5898C165.338 25.1523 164.982 24.9336 164.49 24.9336C164.472 24.9336 164.445 24.9336 164.408 24.9336C164.39 24.9336 164.372 24.9336 164.354 24.9336C163.406 24.9336 162.467 24.9336 161.537 24.9336C160.607 24.9336 159.678 24.9336 158.748 24.9336C158.475 24.9336 158.21 24.9336 157.955 24.9336C157.718 24.9336 157.481 24.9336 157.244 24.9336C156.46 24.9336 156.059 25.3073 156.041 26.0547C156.041 26.1823 156.023 26.319 155.986 26.4648C155.968 26.5924 155.959 26.7109 155.959 26.8203C155.904 27.2396 155.932 27.7682 156.041 28.4062C156.041 28.5521 156.059 28.707 156.096 28.8711C156.132 29.0169 156.16 29.1628 156.178 29.3086C155.813 29.3633 155.449 29.4635 155.084 29.6094C154.719 29.737 154.51 30.0286 154.455 30.4844C154.382 30.9036 154.501 31.2591 154.811 31.5508C154.975 31.7513 155.175 31.888 155.412 31.9609C155.649 32.0156 155.877 32.0703 156.096 32.125C156.114 32.4167 156.123 32.6081 156.123 32.6992C156.087 33.0273 156.068 33.2734 156.068 33.4375C156.068 33.4375 156.068 33.6016 156.068 33.9297C156.05 34.2578 156.041 34.7409 156.041 35.3789C156.041 35.5247 156.041 35.6706 156.041 35.8164C156.059 35.9622 156.068 36.1081 156.068 36.2539C156.032 37.0378 156.396 37.4388 157.162 37.457C157.18 37.4753 157.217 37.4844 157.271 37.4844C157.891 37.5573 158.557 37.5208 159.268 37.375ZM154.1 33.9844C153.826 33.8203 153.607 33.6289 153.443 33.4102C152.678 32.6628 152.377 31.7422 152.541 30.6484C152.705 29.6458 153.188 28.8984 153.99 28.4062C153.954 27.8594 153.954 27.431 153.99 27.1211C153.99 27.0117 153.999 26.9023 154.018 26.793C154.036 26.6654 154.054 26.5469 154.072 26.4375C154.109 25.5807 154.437 24.8607 155.057 24.2773C155.695 23.694 156.451 23.4023 157.326 23.4023C157.545 23.4023 157.773 23.4023 158.01 23.4023C158.265 23.4023 158.52 23.4023 158.775 23.4023C159.705 23.4023 160.635 23.4023 161.564 23.4023C162.512 23.4023 163.46 23.4023 164.408 23.4023C164.408 23.4023 164.417 23.4023 164.436 23.4023C164.454 23.4023 164.481 23.4023 164.518 23.4023C165.848 23.4023 166.805 23.9948 167.389 25.1797C167.717 25.8542 167.799 26.5742 167.635 27.3398C167.671 27.7044 167.653 28.0872 167.58 28.4883C167.471 28.9805 167.243 29.4453 166.896 29.8828C166.915 29.9557 166.942 30.0833 166.979 30.2656C167.015 30.4115 167.033 30.5299 167.033 30.6211C167.489 31.5326 167.525 32.4258 167.143 33.3008C167.908 33.9753 168.382 34.7318 168.564 35.5703C168.783 36.8646 168.382 37.9766 167.361 38.9062C167.252 38.9792 167.17 39.043 167.115 39.0977C166.459 39.6992 165.684 39.9818 164.791 39.9453C164.536 39.9453 164.281 39.9453 164.025 39.9453C163.788 39.9453 163.551 39.9453 163.314 39.9453C162.932 39.9453 162.558 39.9453 162.193 39.9453C161.847 39.9453 161.492 39.9453 161.127 39.9453C161.054 39.9453 160.972 39.9453 160.881 39.9453C160.79 39.9271 160.717 39.918 160.662 39.918C160.37 39.9544 159.933 39.9453 159.35 39.8906C158.675 39.9818 157.928 40 157.107 39.9453C157.089 39.9453 157.071 39.9453 157.053 39.9453C156.196 39.8906 155.476 39.5443 154.893 38.9062C154.309 38.2682 154.045 37.5208 154.1 36.6641C154.1 36.5365 154.09 36.4089 154.072 36.2812C154.072 36.1354 154.072 35.9896 154.072 35.8438C154.072 35.1693 154.081 34.6589 154.1 34.3125C154.1 34.2578 154.1 34.2031 154.1 34.1484C154.1 34.0938 154.1 34.0391 154.1 33.9844ZM170.643 32.4805C170.588 32.5898 170.542 32.7539 170.506 32.9727C170.506 33.0273 170.506 33.0729 170.506 33.1094C170.506 33.1458 170.506 33.1823 170.506 33.2188C170.506 33.2734 170.506 33.3281 170.506 33.3828C170.524 33.4193 170.533 33.4557 170.533 33.4922C170.533 33.6562 170.533 33.8294 170.533 34.0117C170.533 34.194 170.533 34.3672 170.533 34.5312C170.497 34.7682 170.46 35.1419 170.424 35.6523C170.387 36.4727 170.725 37.0013 171.436 37.2383C171.454 37.2565 171.49 37.2656 171.545 37.2656C171.709 37.3203 171.891 37.3294 172.092 37.293C172.529 37.5846 172.958 37.612 173.377 37.375C173.814 37.138 174.088 36.7279 174.197 36.1445C174.197 36.0898 174.197 36.0352 174.197 35.9805C174.215 35.9076 174.234 35.8438 174.252 35.7891C174.252 35.6797 174.252 35.5794 174.252 35.4883C174.252 35.3789 174.252 35.2695 174.252 35.1602C174.215 34.7227 174.197 34.3854 174.197 34.1484C174.197 33 174.197 31.8516 174.197 30.7031C174.197 29.5365 174.197 28.3789 174.197 27.2305C174.288 27.2305 174.38 27.2305 174.471 27.2305C174.58 27.2305 174.689 27.2305 174.799 27.2305C175.018 27.2305 175.236 27.2305 175.455 27.2305C175.692 27.2305 175.92 27.2305 176.139 27.2305C176.686 27.2305 177.077 27.0755 177.314 26.7656C177.424 26.5833 177.488 26.4557 177.506 26.3828C177.524 26.3828 177.533 26.3737 177.533 26.3555C177.825 26.2279 178.089 26.0547 178.326 25.8359C178.581 25.599 178.718 25.2891 178.736 24.9062C178.736 24.3776 178.463 23.9766 177.916 23.7031C177.679 23.5938 177.287 23.5573 176.74 23.5938C176.12 23.6302 175.656 23.6393 175.346 23.6211C175.127 23.6211 174.917 23.6393 174.717 23.6758C174.516 23.694 174.307 23.7031 174.088 23.7031C173.906 23.7031 173.714 23.7031 173.514 23.7031C173.331 23.7031 173.149 23.7031 172.967 23.7031C172.839 23.7031 172.712 23.7031 172.584 23.7031C172.456 23.7031 172.338 23.7031 172.229 23.7031C172.119 23.7031 172.001 23.7031 171.873 23.7031C171.745 23.7031 171.627 23.7031 171.518 23.7031C171.007 23.7031 170.488 23.7031 169.959 23.7031C169.449 23.7031 168.938 23.7031 168.428 23.7031C167.99 23.6849 167.644 23.8398 167.389 24.168C167.133 24.4779 167.07 24.8333 167.197 25.2344C167.27 25.4896 167.398 25.6992 167.58 25.8633C167.544 25.9909 167.544 26.1094 167.58 26.2188C167.671 26.8568 168.027 27.1849 168.646 27.2031C168.975 27.2214 169.467 27.2305 170.123 27.2305C170.123 27.2305 170.132 27.2305 170.15 27.2305C170.187 27.2305 170.223 27.2305 170.26 27.2305C170.187 27.7773 170.251 28.4336 170.451 29.1992C170.469 29.3268 170.488 29.4544 170.506 29.582C170.524 29.7096 170.551 29.8281 170.588 29.9375C170.606 30.2109 170.652 30.4115 170.725 30.5391C170.725 30.5755 170.715 30.612 170.697 30.6484C170.697 30.6667 170.697 30.6849 170.697 30.7031C170.697 30.8307 170.697 30.9583 170.697 31.0859C170.715 31.2135 170.725 31.332 170.725 31.4414C170.688 31.5326 170.652 31.7422 170.615 32.0703C170.615 32.1432 170.615 32.2161 170.615 32.2891C170.633 32.362 170.643 32.4258 170.643 32.4805ZM168.428 29.6641C167.717 29.6094 167.106 29.3359 166.596 28.8438C166.085 28.3333 165.766 27.7227 165.639 27.0117C165.493 26.7383 165.393 26.4831 165.338 26.2461C165.046 25.207 165.229 24.2591 165.885 23.4023C166.541 22.5273 167.416 22.1172 168.51 22.1719C169.002 22.1719 169.503 22.1719 170.014 22.1719C170.524 22.1719 171.035 22.1719 171.545 22.1719C171.654 22.1719 171.773 22.1719 171.9 22.1719C172.028 22.1719 172.156 22.1719 172.283 22.1719C172.393 22.1719 172.511 22.1719 172.639 22.1719C172.785 22.1719 172.921 22.1719 173.049 22.1719C173.213 22.1719 173.386 22.1719 173.568 22.1719C173.751 22.1719 173.933 22.1719 174.115 22.1719C174.334 22.1719 174.544 22.1628 174.744 22.1445C174.963 22.1081 175.182 22.0898 175.4 22.0898C175.947 22.0898 176.357 22.0807 176.631 22.0625C177.014 22.0443 177.378 22.0534 177.725 22.0898C178.071 22.1081 178.436 22.1992 178.818 22.3633C180.113 23.0013 180.76 24.013 180.76 25.3984C180.76 26.638 180.186 27.6133 179.037 28.3242C179.019 28.3607 178.992 28.3971 178.955 28.4336C178.335 29.2721 177.424 29.7005 176.221 29.7188C176.221 30.5391 176.221 31.3594 176.221 32.1797C176.221 32.9818 176.221 33.793 176.221 34.6133C176.221 34.7773 176.23 34.9414 176.248 35.1055C176.266 35.2513 176.275 35.3971 176.275 35.543C176.294 35.8711 176.294 36.1901 176.275 36.5C176.257 36.5911 176.239 36.6732 176.221 36.7461C176.221 36.819 176.221 36.8919 176.221 36.9648C176.02 38.0586 175.464 38.8971 174.553 39.4805C173.641 40.0456 172.693 40.1458 171.709 39.7812C171.508 39.7812 171.317 39.7539 171.135 39.6992C170.952 39.6628 170.834 39.6263 170.779 39.5898C170.05 39.3346 169.467 38.8698 169.029 38.1953C168.61 37.5026 168.419 36.7734 168.455 36.0078C168.492 35.4609 168.528 35.0417 168.564 34.75C168.564 34.6589 168.564 34.5495 168.564 34.4219C168.564 34.276 168.564 34.1484 168.564 34.0391C168.564 34.0026 168.555 33.9661 168.537 33.9297C168.537 33.875 168.537 33.8203 168.537 33.7656C168.537 33.7109 168.537 33.6471 168.537 33.5742C168.537 33.5013 168.537 33.4284 168.537 33.3555C168.574 33.0273 168.61 32.7904 168.646 32.6445C168.646 32.6263 168.646 32.6081 168.646 32.5898C168.646 32.5534 168.646 32.5169 168.646 32.4805C168.683 32.1159 168.719 31.8424 168.756 31.6602C168.756 31.6055 168.747 31.5508 168.729 31.4961C168.729 31.4232 168.729 31.3594 168.729 31.3047C168.692 31.1771 168.656 30.9857 168.619 30.7305C168.583 30.4753 168.546 30.2656 168.51 30.1016C168.473 29.9193 168.446 29.7734 168.428 29.6641ZM185.244 29.7461C185.135 29.2721 185.044 28.8711 184.971 28.543C184.934 28.4701 184.907 28.388 184.889 28.2969C184.87 28.2057 184.852 28.1055 184.834 27.9961C184.779 27.8138 184.734 27.6224 184.697 27.4219C184.679 27.2031 184.643 26.9844 184.588 26.7656C184.533 26.5833 184.479 26.401 184.424 26.2188C184.387 26.0182 184.351 25.8177 184.314 25.6172C184.15 24.9974 183.768 24.6875 183.166 24.6875C182.838 24.6875 182.555 24.7695 182.318 24.9336C181.99 24.7695 181.653 24.7695 181.307 24.9336C180.669 25.2253 180.468 25.7083 180.705 26.3828C180.814 26.6927 180.896 26.9661 180.951 27.2031C180.988 27.4219 181.033 27.6406 181.088 27.8594C181.143 28.0599 181.197 28.2695 181.252 28.4883C181.325 28.7435 181.416 29.1263 181.525 29.6367C181.562 29.8008 181.598 29.9648 181.635 30.1289C181.671 30.2747 181.717 30.4297 181.771 30.5938C181.808 30.776 181.835 30.9583 181.854 31.1406C181.89 31.3229 181.936 31.4961 181.99 31.6602C182.045 31.9883 182.109 32.3073 182.182 32.6172C182.255 32.9271 182.346 33.2279 182.455 33.5195C182.51 33.6836 182.574 33.8385 182.646 33.9844C182.719 34.1302 182.783 34.2669 182.838 34.3945C182.893 34.5586 182.947 34.7227 183.002 34.8867C183.075 35.0326 183.148 35.1784 183.221 35.3242C183.348 35.6523 183.439 35.8529 183.494 35.9258C183.494 36.1263 183.512 36.2721 183.549 36.3633C183.549 36.6185 183.649 36.8737 183.85 37.1289C184.087 37.4206 184.406 37.5482 184.807 37.5117C184.898 37.5117 185.035 37.4935 185.217 37.457C185.563 37.3477 185.873 37.1471 186.146 36.8555C186.693 36.8008 187.012 36.4818 187.104 35.8984C187.104 35.8438 187.113 35.7617 187.131 35.6523C187.149 35.543 187.167 35.4518 187.186 35.3789C187.295 35.1602 187.423 34.7591 187.568 34.1758C187.641 33.957 187.751 33.6107 187.896 33.1367C187.951 32.8815 188.015 32.6263 188.088 32.3711C188.161 32.1159 188.234 31.8516 188.307 31.5781C188.307 31.5781 188.307 31.569 188.307 31.5508C188.325 31.5326 188.334 31.5234 188.334 31.5234C188.48 31.888 188.598 32.1615 188.689 32.3438C188.689 32.3438 188.689 32.3529 188.689 32.3711C188.689 32.3893 188.699 32.3984 188.717 32.3984C188.717 32.4167 188.717 32.4349 188.717 32.4531C188.717 32.4714 188.717 32.4805 188.717 32.4805C188.717 32.5352 188.717 32.5898 188.717 32.6445C188.735 32.6992 188.744 32.7448 188.744 32.7812C188.762 33.0547 188.817 33.3099 188.908 33.5469C188.981 33.8385 189.036 34.0482 189.072 34.1758C189.163 34.5586 189.255 34.9323 189.346 35.2969C189.455 35.6615 189.564 36.0169 189.674 36.3633C189.783 36.8372 190.057 37.1107 190.494 37.1836C190.749 37.3659 191.032 37.457 191.342 37.457C191.706 37.4388 191.971 37.3385 192.135 37.1562C192.317 36.974 192.499 36.7734 192.682 36.5547C193.101 36.4271 193.347 36.1172 193.42 35.625C193.42 35.5703 193.42 35.5156 193.42 35.4609C193.438 35.388 193.456 35.3242 193.475 35.2695C193.548 34.9961 193.593 34.8138 193.611 34.7227C193.63 34.668 193.648 34.5859 193.666 34.4766C193.684 34.3672 193.702 34.276 193.721 34.2031C193.794 34.0573 193.885 33.8385 193.994 33.5469C194.049 33.3281 194.104 33.1003 194.158 32.8633C194.231 32.6263 194.304 32.3893 194.377 32.1523C194.468 31.7878 194.559 31.4232 194.65 31.0586C194.76 30.6758 194.869 30.293 194.979 29.9102C195.143 29.3086 195.307 28.6979 195.471 28.0781C195.653 27.4583 195.835 26.8385 196.018 26.2188C196.018 26.1823 196.018 26.1458 196.018 26.1094C196.036 26.0729 196.045 26.0273 196.045 25.9727V25.9453C196.063 25.5625 195.926 25.2435 195.635 24.9883C195.635 24.9336 195.635 24.8789 195.635 24.8242C195.635 24.7695 195.635 24.7148 195.635 24.6602C195.544 24.0768 195.243 23.6849 194.732 23.4844C194.24 23.2656 193.775 23.375 193.338 23.8125C192.992 24.1589 192.782 24.5234 192.709 24.9062C192.6 25.2344 192.508 25.4805 192.436 25.6445C192.235 26.082 192.098 26.4648 192.025 26.793C191.971 27.0117 191.907 27.3398 191.834 27.7773C191.798 27.9232 191.761 28.069 191.725 28.2148C191.706 28.3424 191.688 28.4701 191.67 28.5977C191.633 28.707 191.606 28.8255 191.588 28.9531C191.588 29.0625 191.579 29.1719 191.561 29.2812C191.542 29.3542 191.515 29.4271 191.479 29.5C191.46 29.5729 191.451 29.6367 191.451 29.6914C191.396 29.5273 191.342 29.3633 191.287 29.1992C191.251 29.0169 191.214 28.8438 191.178 28.6797C191.123 28.5339 191.068 28.3971 191.014 28.2695C190.977 28.1419 190.941 28.0052 190.904 27.8594C190.85 27.7318 190.795 27.5951 190.74 27.4492C190.686 27.3034 190.649 27.1576 190.631 27.0117C190.558 26.5013 190.485 26.0911 190.412 25.7812C190.212 25.2161 189.847 24.9336 189.318 24.9336C188.589 24.4049 187.869 24.3138 187.158 24.6602C186.794 24.8424 186.566 25.0977 186.475 25.4258C186.383 25.6445 186.311 25.8633 186.256 26.082C186.219 26.2826 186.174 26.4831 186.119 26.6836C185.955 27.2122 185.855 27.6406 185.818 27.9688C185.745 28.3333 185.745 28.6159 185.818 28.8164C185.782 28.8711 185.745 28.9258 185.709 28.9805C185.691 29.0169 185.673 29.0625 185.654 29.1172C185.6 29.2266 185.545 29.3268 185.49 29.418C185.436 29.4909 185.381 29.5729 185.326 29.6641C185.308 29.6823 185.29 29.7005 185.271 29.7188C185.253 29.737 185.244 29.7461 185.244 29.7461ZM195.662 35.3516C195.662 35.4062 195.644 35.5065 195.607 35.6523C195.571 35.7617 195.544 35.862 195.525 35.9531C195.507 36.0443 195.489 36.1354 195.471 36.2266C195.452 36.263 195.443 36.3086 195.443 36.3633C195.298 37.3659 194.814 38.1224 193.994 38.6328C193.648 39.0156 193.292 39.3255 192.928 39.5625C192.563 39.7812 192.08 39.8997 191.479 39.918C190.822 39.9544 190.23 39.8177 189.701 39.5078C189.118 39.3073 188.635 38.9427 188.252 38.4141C187.924 38.7422 187.568 38.9792 187.186 39.125C186.748 39.4714 186.301 39.7083 185.846 39.8359C185.572 39.9271 185.29 39.9818 184.998 40C183.868 40.0182 182.984 39.6536 182.346 38.9062C181.89 38.3958 181.644 37.8216 181.607 37.1836C181.589 37.1471 181.571 37.1107 181.553 37.0742C181.553 37.0378 181.553 36.9922 181.553 36.9375C181.516 36.8828 181.48 36.819 181.443 36.7461C181.407 36.6732 181.38 36.5911 181.361 36.5C181.307 36.3542 181.243 36.2083 181.17 36.0625C181.115 35.9167 181.061 35.7617 181.006 35.5977C180.951 35.4518 180.887 35.306 180.814 35.1602C180.742 35.0143 180.678 34.8594 180.623 34.6953C180.477 34.3672 180.359 34.0299 180.268 33.6836C180.195 33.319 180.122 32.9544 180.049 32.5898C179.994 32.4258 179.958 32.2617 179.939 32.0977C179.921 31.9154 179.894 31.7422 179.857 31.5781C179.803 31.4141 179.766 31.25 179.748 31.0859C179.73 30.9036 179.693 30.7305 179.639 30.5664C179.602 30.4023 179.566 30.2292 179.529 30.0469C179.493 29.8464 179.447 29.6549 179.393 29.4727C179.229 28.8893 179.11 28.4154 179.037 28.0508C179.037 27.9596 179.019 27.8776 178.982 27.8047C178.946 27.7135 178.91 27.6133 178.873 27.5039C178.618 26.7383 178.645 25.9909 178.955 25.2617C179.247 24.5143 179.748 23.9583 180.459 23.5938C181.024 23.3203 181.607 23.2201 182.209 23.293C182.574 23.2018 182.911 23.1562 183.221 23.1562C184.041 23.1562 184.752 23.4388 185.354 24.0039C185.609 23.7487 185.928 23.5299 186.311 23.3477C187.568 22.7279 188.826 22.7734 190.084 23.4844C190.467 23.5938 190.822 23.7578 191.15 23.9766C191.369 23.5573 191.633 23.1927 191.943 22.8828C192.928 21.862 194.058 21.5703 195.334 22.0078C196.628 22.4453 197.394 23.3385 197.631 24.6875C197.977 25.2708 198.123 25.8906 198.068 26.5469V26.5742C198.068 26.8112 198.041 27.0208 197.986 27.2031C197.804 27.8229 197.631 28.4427 197.467 29.0625C197.303 29.6823 197.139 30.293 196.975 30.8945C196.865 31.2773 196.756 31.6602 196.646 32.043C196.555 32.4076 196.455 32.7812 196.346 33.1641C196.273 33.401 196.2 33.6471 196.127 33.9023C196.072 34.1393 196.008 34.3763 195.936 34.6133C195.899 34.7773 195.808 35.0234 195.662 35.3516ZM208.596 28.7617C208.705 28.4701 208.714 28.1602 208.623 27.832C208.623 27.832 208.614 27.832 208.596 27.832C208.596 27.8138 208.596 27.7956 208.596 27.7773C208.468 27.3398 208.186 26.875 207.748 26.3828C207.074 25.7266 206.317 25.2617 205.479 24.9883C205.132 24.8971 204.804 24.8242 204.494 24.7695C204.202 24.6966 203.883 24.651 203.537 24.6328C202.644 24.6146 201.86 24.6784 201.186 24.8242C200.383 25.0065 199.59 25.3711 198.807 25.918C198.533 26.1367 198.387 26.2552 198.369 26.2734C198.223 26.3828 198.114 26.474 198.041 26.5469C197.494 27.0573 197.403 27.5859 197.768 28.1328C197.768 28.1693 197.777 28.2057 197.795 28.2422C197.831 28.2604 197.859 28.2786 197.877 28.2969C197.549 29.1172 197.385 30.0651 197.385 31.1406C197.348 32.526 197.758 33.793 198.615 34.9414C199.053 35.5247 199.399 35.944 199.654 36.1992C200.074 36.6732 200.484 36.9922 200.885 37.1562C201.213 37.3203 201.541 37.3841 201.869 37.3477C201.887 37.3477 201.906 37.3477 201.924 37.3477C201.96 37.3477 201.997 37.3477 202.033 37.3477C202.27 37.3841 202.48 37.4297 202.662 37.4844C202.863 37.5391 203.1 37.5482 203.373 37.5117C203.482 37.5117 203.592 37.5117 203.701 37.5117C203.829 37.5117 203.947 37.5026 204.057 37.4844C204.658 37.4661 205.278 37.3021 205.916 36.9922C206.773 36.6276 207.548 36.0169 208.24 35.1602C208.459 34.8867 208.696 34.4583 208.951 33.875C209.097 33.4922 209.215 33.0456 209.307 32.5352C209.416 32.0247 209.452 31.5508 209.416 31.1133C209.361 30.457 209.17 29.819 208.842 29.1992C208.787 29.0898 208.705 28.944 208.596 28.7617ZM201.104 31.2227C201.104 30.8581 201.14 30.4297 201.213 29.9375C201.286 29.4453 201.468 29.0625 201.76 28.7891C202.07 28.5156 202.407 28.3242 202.771 28.2148C202.826 28.1966 202.881 28.1784 202.936 28.1602C202.99 28.1419 203.045 28.1146 203.1 28.0781C203.209 28.0599 203.391 28.0599 203.646 28.0781C204.102 28.1693 204.549 28.4245 204.986 28.8438C205.169 28.9896 205.305 29.1536 205.396 29.3359C205.615 29.7734 205.725 30.3568 205.725 31.0859C205.725 31.4688 205.679 31.8698 205.588 32.2891C205.515 32.6901 205.342 33.0365 205.068 33.3281C204.631 33.7839 204.075 34.0117 203.4 34.0117C202.744 34.0117 202.206 33.7839 201.787 33.3281C201.331 32.8542 201.104 32.1523 201.104 31.2227ZM210.729 28.8984C211.13 29.7005 211.376 30.5391 211.467 31.4141C211.54 32.6354 211.33 33.8659 210.838 35.1055C210.583 35.7617 210.255 36.3542 209.854 36.8828C208.979 37.9766 207.949 38.7878 206.764 39.3164C205.852 39.7174 205.005 39.9362 204.221 39.9727C204.111 39.9727 204.002 39.9727 203.893 39.9727C203.801 39.9727 203.71 39.9727 203.619 39.9727C203.236 39.9909 202.926 39.9818 202.689 39.9453C202.471 39.9089 202.215 39.8633 201.924 39.8086C201.304 39.8451 200.693 39.7266 200.092 39.4531C199.508 39.1979 198.907 38.7513 198.287 38.1133C198.032 37.8945 197.804 37.6576 197.604 37.4023C197.421 37.1471 197.23 36.8828 197.029 36.6094C195.954 35.0964 195.416 33.4284 195.416 31.6055C195.452 30.5482 195.571 29.6458 195.771 28.8984C195.407 27.6771 195.708 26.5742 196.674 25.5898C196.765 25.4987 196.92 25.362 197.139 25.1797C197.357 24.9974 197.531 24.8607 197.658 24.7695C198.588 24.0768 199.627 23.5938 200.775 23.3203C201.268 23.2109 201.742 23.1471 202.197 23.1289C202.653 23.1107 203.136 23.1016 203.646 23.1016C204.485 23.1745 205.305 23.3203 206.107 23.5391C207.329 23.9401 208.368 24.5872 209.225 25.4805C209.863 26.1367 210.309 26.8659 210.564 27.668C210.564 27.6862 210.564 27.7044 210.564 27.7227C210.583 27.7227 210.592 27.7227 210.592 27.7227C210.701 28.1419 210.747 28.5339 210.729 28.8984ZM203.674 30.8125C203.674 30.8125 203.665 30.8125 203.646 30.8125C203.646 30.7943 203.646 30.776 203.646 30.7578C203.719 30.7943 203.646 30.7396 203.428 30.5938C203.428 30.5938 203.419 30.5938 203.4 30.5938C203.309 30.6302 203.264 30.6484 203.264 30.6484C203.209 30.7943 203.173 30.9766 203.154 31.1953C203.154 31.4141 203.154 31.5781 203.154 31.6875C203.154 31.7786 203.154 31.9154 203.154 32.0977C203.173 32.2617 203.218 32.3711 203.291 32.4258C203.291 32.4258 203.291 32.4349 203.291 32.4531C203.309 32.4714 203.318 32.4805 203.318 32.4805C203.318 32.4805 203.337 32.4805 203.373 32.4805C203.41 32.4805 203.437 32.4805 203.455 32.4805C203.455 32.4805 203.473 32.4805 203.51 32.4805C203.546 32.4805 203.574 32.4805 203.592 32.4805C203.61 32.4622 203.619 32.444 203.619 32.4258C203.674 32.3711 203.71 32.2435 203.729 32.043C203.747 31.8242 203.756 31.6602 203.756 31.5508C203.756 31.2591 203.729 31.013 203.674 30.8125ZM219.943 32.5625C220.126 32.4349 220.317 32.2708 220.518 32.0703C221.192 31.3776 221.529 30.5026 221.529 29.4453C221.529 28.6615 221.329 27.9414 220.928 27.2852C220.454 26.5013 219.807 26 218.986 25.7812C218.494 25.6536 218.066 25.681 217.701 25.8633C217.592 25.918 217.528 25.9544 217.51 25.9727C217.327 25.8997 217.182 25.8542 217.072 25.8359C216.817 25.7812 216.589 25.7266 216.389 25.6719C216.206 25.599 215.997 25.5625 215.76 25.5625C215.705 25.5078 215.605 25.4258 215.459 25.3164C215.295 25.2435 215.104 25.1797 214.885 25.125C214.684 25.0521 214.502 24.9883 214.338 24.9336C213.773 24.8242 213.326 24.7878 212.998 24.8242C212.779 24.8242 212.488 24.9154 212.123 25.0977C211.23 25.4805 210.811 26.1185 210.865 27.0117C210.865 27.2305 210.883 27.4401 210.92 27.6406C210.975 27.8229 211.011 28.0234 211.029 28.2422C211.048 28.4609 211.048 28.6706 211.029 28.8711C211.011 29.0534 211.029 29.2539 211.084 29.4727C211.12 29.7643 211.157 29.9375 211.193 29.9922C211.175 30.0469 211.166 30.1289 211.166 30.2383C211.148 30.3294 211.111 30.4297 211.057 30.5391C211.02 30.6302 210.993 30.7214 210.975 30.8125C210.883 31.0859 210.847 31.3138 210.865 31.4961C210.902 31.6602 210.965 31.8607 211.057 32.0977C211.057 32.4076 211.048 32.6263 211.029 32.7539C211.011 33.0638 210.993 33.3646 210.975 33.6562C210.956 33.9479 210.965 34.2396 211.002 34.5312C211.002 34.8776 211.011 35.1328 211.029 35.2969C211.048 35.6432 211.057 36.1628 211.057 36.8555C211.057 37.6393 211.439 38.0312 212.205 38.0312C212.752 38.0312 213.162 37.8581 213.436 37.5117C213.545 37.5117 213.627 37.5026 213.682 37.4844C214.21 37.4115 214.529 37.0651 214.639 36.4453C214.693 36.1719 214.712 35.8438 214.693 35.4609C214.693 35.3516 214.693 35.2422 214.693 35.1328C214.712 35.0052 214.721 34.8867 214.721 34.7773C214.721 34.5586 214.721 34.349 214.721 34.1484C214.721 33.9297 214.721 33.7109 214.721 33.4922H215.131C215.131 33.4922 215.14 33.4922 215.158 33.4922C215.176 33.4922 215.195 33.4922 215.213 33.4922C215.34 33.4922 215.486 33.5286 215.65 33.6016C215.814 33.6745 215.969 33.7383 216.115 33.793C216.133 33.8477 216.197 33.9479 216.307 34.0938C216.452 34.3125 216.598 34.5312 216.744 34.75C216.89 34.9505 217.027 35.151 217.154 35.3516L218.521 37.4844C218.74 37.849 219.068 38.0312 219.506 38.0312H219.533C219.57 38.0312 219.606 38.0312 219.643 38.0312C219.679 38.0312 219.715 38.0312 219.752 38.0312C219.77 38.0495 219.788 38.0677 219.807 38.0859C219.843 38.1042 219.88 38.1133 219.916 38.1133C220.718 38.6237 221.447 38.5417 222.104 37.8672C222.614 37.3568 222.632 36.8281 222.158 36.2812C222.012 36.1354 221.867 36.026 221.721 35.9531C221.666 35.7344 221.639 35.6432 221.639 35.6797C221.402 35.0234 221.192 34.5221 221.01 34.1758C220.645 33.5378 220.29 33 219.943 32.5625ZM214.721 28.9531H216.799C216.963 28.9531 217.081 28.9622 217.154 28.9805C217.118 29.0169 217.081 29.0534 217.045 29.0898C217.027 29.1081 217.008 29.1263 216.99 29.1445C216.936 29.2174 216.863 29.2904 216.771 29.3633C216.68 29.418 216.607 29.4727 216.553 29.5273C216.37 29.7096 216.252 29.9102 216.197 30.1289C216.106 30.1471 215.988 30.1927 215.842 30.2656C215.495 30.1927 215.149 30.1654 214.803 30.1836C214.785 30.1836 214.766 30.1836 214.748 30.1836C214.73 30.1836 214.721 30.1836 214.721 30.1836C214.739 29.7826 214.739 29.3724 214.721 28.9531ZM222.541 33.2461C222.577 33.319 222.614 33.3919 222.65 33.4648C222.687 33.5378 222.732 33.6016 222.787 33.6562C223.024 34.0755 223.252 34.5859 223.471 35.1875C223.489 35.224 223.516 35.2604 223.553 35.2969C223.589 35.3333 223.635 35.3698 223.689 35.4062C224.236 36.0443 224.501 36.7826 224.482 37.6211C224.464 38.4414 224.163 39.1523 223.58 39.7539C222.304 41.0299 220.864 41.2669 219.26 40.4648C218.202 40.3737 217.4 39.8997 216.854 39.043L216.334 38.2227C215.915 39.0794 215.258 39.6263 214.365 39.8633C213.727 40.2826 213.016 40.4831 212.232 40.4648C211.357 40.4648 210.619 40.1641 210.018 39.5625C209.416 38.9427 209.115 38.1953 209.115 37.3203C209.115 36.6823 209.106 36.2083 209.088 35.8984C209.07 35.7161 209.061 35.4609 209.061 35.1328C209.042 34.8047 209.042 34.4766 209.061 34.1484C209.079 33.8021 209.088 33.4557 209.088 33.1094C209.088 33.0729 209.097 33.0365 209.115 33C209.115 32.9635 209.115 32.918 209.115 32.8633C208.915 32.1523 208.915 31.4414 209.115 30.7305C209.115 30.7122 209.143 30.6211 209.197 30.457C209.179 30.4023 209.17 30.3294 209.17 30.2383C209.133 29.9831 209.124 29.7552 209.143 29.5547C209.143 29.3542 209.133 29.1354 209.115 28.8984C209.097 28.6797 209.07 28.4701 209.033 28.2695C208.979 28.0508 208.942 27.8229 208.924 27.5859C208.814 25.7812 209.626 24.487 211.357 23.7031C211.923 23.4661 212.433 23.3294 212.889 23.293C213.508 23.2383 214.174 23.3021 214.885 23.4844C215.577 23.6667 216.115 23.8581 216.498 24.0586C216.498 24.0768 216.507 24.0951 216.525 24.1133C216.544 24.1133 216.562 24.1133 216.58 24.1133C216.689 24.1497 216.808 24.1862 216.936 24.2227C217.081 24.2409 217.236 24.2682 217.4 24.3047C218.038 24.0859 218.758 24.0859 219.561 24.3047C220.855 24.6875 221.894 25.4896 222.678 26.7109C223.279 27.6771 223.58 28.7435 223.58 29.9102C223.58 31.1497 223.234 32.2617 222.541 33.2461ZM232.986 27.2578C233.005 27.2578 233.023 27.2578 233.041 27.2578C233.077 27.2396 233.114 27.2305 233.15 27.2305C233.424 27.194 233.67 27.0755 233.889 26.875C234.107 26.6745 234.317 26.474 234.518 26.2734C234.882 25.9089 234.973 25.4805 234.791 24.9883C234.718 24.8242 234.618 24.6784 234.49 24.5508C234.49 24.1862 234.354 23.8763 234.08 23.6211C233.624 23.2018 233.105 23.1471 232.521 23.457C232.12 23.6393 231.801 23.8672 231.564 24.1406C231.564 24.1406 231.437 24.2682 231.182 24.5234C231.018 24.6875 230.753 24.9336 230.389 25.2617C230.17 25.4622 229.96 25.6628 229.76 25.8633C229.577 26.0456 229.395 26.2279 229.213 26.4102C229.104 26.5195 228.994 26.6289 228.885 26.7383C228.794 26.8477 228.702 26.9479 228.611 27.0391C228.356 27.2943 228.174 27.4857 228.064 27.6133L227.982 27.668C227.982 27.5768 227.982 27.4766 227.982 27.3672C227.982 27.2578 227.982 27.1484 227.982 27.0391C227.982 26.9297 227.973 26.7839 227.955 26.6016C227.937 26.4193 227.937 26.2734 227.955 26.1641C227.973 26 227.982 25.7539 227.982 25.4258C227.982 24.6419 227.6 24.25 226.834 24.25C226.67 24.25 226.497 24.2682 226.314 24.3047C226.005 24.1224 225.64 24.0404 225.221 24.0586C224.4 24.1315 223.954 24.5143 223.881 25.207C223.844 25.5169 223.908 25.7812 224.072 26C224.09 26.0547 224.109 26.1003 224.127 26.1367C224.163 26.1549 224.2 26.1823 224.236 26.2188C224.236 26.3099 224.255 26.4648 224.291 26.6836C224.309 26.7747 224.3 26.9023 224.264 27.0664C224.136 27.7773 224.145 28.5339 224.291 29.3359C224.309 29.4818 224.337 29.6458 224.373 29.8281C224.428 30.0104 224.464 30.1745 224.482 30.3203C224.373 30.5938 224.318 30.8398 224.318 31.0586C224.282 31.332 224.282 31.5964 224.318 31.8516C224.337 31.9427 224.346 32.0703 224.346 32.2344C224.309 32.7812 224.291 33.3281 224.291 33.875C224.291 34.4036 224.291 34.9323 224.291 35.4609C224.291 36.2266 224.601 36.6641 225.221 36.7734C225.439 36.974 225.667 37.1107 225.904 37.1836C226.251 37.3112 226.633 37.2839 227.053 37.1016C227.472 36.901 227.755 36.6276 227.9 36.2812C227.955 36.1536 227.982 36.0169 227.982 35.8711C227.982 35.707 227.973 35.5339 227.955 35.3516C227.955 35.151 227.973 34.9596 228.01 34.7773C228.028 34.4492 228.028 34.112 228.01 33.7656C227.992 33.6016 227.973 33.4284 227.955 33.2461C227.955 33.0456 227.928 32.8633 227.873 32.6992C227.891 32.681 227.9 32.6445 227.9 32.5898C227.973 32.4987 228.101 32.362 228.283 32.1797C228.283 32.2161 228.301 32.2526 228.338 32.2891C228.393 32.3984 228.456 32.5078 228.529 32.6172C228.62 32.7083 228.702 32.7995 228.775 32.8906C228.976 33.2005 229.176 33.5104 229.377 33.8203C229.596 34.112 229.814 34.4036 230.033 34.6953C230.197 34.9505 230.443 35.3242 230.771 35.8164C231.118 36.3086 231.4 36.6367 231.619 36.8008C231.692 36.8737 231.774 36.974 231.865 37.1016C231.975 37.2839 232.066 37.4206 232.139 37.5117C232.613 38.1862 233.16 38.4232 233.779 38.2227C234.016 38.1497 234.235 37.9857 234.436 37.7305C234.636 37.7305 234.846 37.6667 235.064 37.5391C235.374 37.3932 235.566 37.138 235.639 36.7734C235.712 36.4818 235.666 36.1901 235.502 35.8984C235.429 35.7891 235.374 35.6979 235.338 35.625C235.283 35.5703 235.229 35.5156 235.174 35.4609C235.137 35.388 235.092 35.3242 235.037 35.2695C234.745 34.9414 234.463 34.5768 234.189 34.1758C233.971 33.9206 233.825 33.7383 233.752 33.6289C233.697 33.5742 233.643 33.5104 233.588 33.4375C233.533 33.3646 233.488 33.2917 233.451 33.2188C233.324 32.8906 233.178 32.5807 233.014 32.2891C232.813 31.9609 232.613 31.6419 232.412 31.332C232.212 31.0039 232.002 30.6849 231.783 30.375C231.729 30.3203 231.665 30.2565 231.592 30.1836C231.519 30.1107 231.455 30.0286 231.4 29.9375C231.619 29.6458 231.792 29.3724 231.92 29.1172C232.193 28.6797 232.348 28.3151 232.385 28.0234C232.476 27.9141 232.567 27.7865 232.658 27.6406C232.768 27.4948 232.877 27.3672 232.986 27.2578ZM235.475 40C235.165 40.2734 234.809 40.4648 234.408 40.5742C233.643 40.8112 232.923 40.7839 232.248 40.4922C231.574 40.2188 231.018 39.7812 230.58 39.1797C230.507 39.1068 230.443 39.0339 230.389 38.9609C230.352 38.888 230.307 38.8151 230.252 38.7422C230.033 38.5781 229.805 38.3138 229.568 37.9492C229.186 38.569 228.648 39.043 227.955 39.3711C227.098 39.7904 226.214 39.8542 225.303 39.5625C224.92 39.4531 224.583 39.2799 224.291 39.043C222.997 38.5326 222.35 37.4935 222.35 35.9258C222.35 35.3789 222.359 34.832 222.377 34.2852C222.377 33.7383 222.386 33.1823 222.404 32.6172C222.404 32.599 222.404 32.5807 222.404 32.5625C222.368 32.3255 222.35 31.9609 222.35 31.4688C222.386 31.1224 222.432 30.8398 222.486 30.6211C222.486 30.5482 222.477 30.4753 222.459 30.4023C222.423 30.3112 222.395 30.2201 222.377 30.1289C222.231 29.1628 222.213 28.2422 222.322 27.3672C221.994 26.7474 221.867 26.1003 221.939 25.4258C222.049 24.6055 222.404 23.931 223.006 23.4023C223.607 22.8737 224.318 22.582 225.139 22.5273C225.686 22.5091 226.196 22.5729 226.67 22.7188C226.688 22.7188 226.715 22.7188 226.752 22.7188C226.788 22.7188 226.825 22.7188 226.861 22.7188C227.9 22.7188 228.739 23.138 229.377 23.9766C229.432 23.9219 229.495 23.8581 229.568 23.7852C229.66 23.7122 229.742 23.6393 229.814 23.5664C229.851 23.5117 229.896 23.4661 229.951 23.4297C230.006 23.375 230.061 23.3203 230.115 23.2656C230.553 22.7917 231.063 22.418 231.646 22.1445C233.087 21.4154 234.372 21.5794 235.502 22.6367C235.939 23.0742 236.249 23.5938 236.432 24.1953C236.541 24.3776 236.623 24.5508 236.678 24.7148C237.206 26.0638 236.96 27.2214 235.939 28.1875C235.666 28.4609 235.393 28.7161 235.119 28.9531C234.864 29.1719 234.572 29.3451 234.244 29.4727C234.117 29.7826 233.989 30.0469 233.861 30.2656C234.025 30.5208 234.18 30.776 234.326 31.0312C234.472 31.2682 234.627 31.5052 234.791 31.7422C234.992 32.0885 235.156 32.4258 235.283 32.7539C235.301 32.8086 235.32 32.8542 235.338 32.8906C235.374 32.9089 235.411 32.9362 235.447 32.9727C235.557 33.1367 235.684 33.2917 235.83 33.4375C236.158 33.875 236.413 34.2031 236.596 34.4219C236.669 34.4948 236.796 34.6589 236.979 34.9141C237.033 35.0052 237.088 35.0964 237.143 35.1875C237.197 35.2604 237.252 35.3333 237.307 35.4062C237.689 36.1172 237.799 36.8646 237.635 37.6484C237.434 38.5964 236.924 39.3073 236.104 39.7812C235.721 39.9271 235.511 40 235.475 40Z" fill="black"/>
</svg>
